<svg xmlns="http://www.w3.org/2000/svg" class="svg-icon icon-chetverg" fill-rule="evenodd" viewBox="0 0 4073.028 4156.841" clip-rule="evenodd" image-rendering="optimizeQuality" shape-rendering="geometricPrecision" text-rendering="geometricPrecision"><path class="text-bg" fill="none" stroke="#efe2c1" stroke-width="50.913" d="M118.155 1508.277c0 56.078-46.706 102.848-102.784 102.848v713.823c56.08 0 102.786 45.538 102.786 102.785H3954.86c0-57.247 46.77-102.785 102.85-102.785v-713.823c-56.08 0-102.85-46.77-102.85-102.848H118.154z"/><path class="fil1" fill="#efe2c1" d="M1379.927 1357.597c-7.01-8.178-12.85-17.524-18.692-25.703 5.84-4.673 10.514-9.346 15.187-14.02 1.17-1.167 2.337-3.504 3.505-4.672 1.17 1.168 2.337 3.505 3.505 4.673l14.02 14.02c-4.673 8.178-10.515 17.524-17.525 25.702zm1313.173 0c7.01-8.178 12.85-17.524 17.524-25.703l-14.02-14.02c-1.168-1.167-2.336-3.504-3.504-4.672-1.17 1.168-2.337 3.505-3.505 4.673-4.673 4.673-9.347 9.346-15.188 14.02 4.673 8.178 11.683 17.524 18.693 25.702zm-656.587-318.947c4.674-7.01 10.515-14.02 16.357-19.86l-16.357-14.02-17.524 14.02c5.84 5.84 11.68 12.85 17.522 19.86zm0 243.007c8.18-23.366 11.683-46.732 14.02-70.098 1.168-33.88-3.505-67.763-14.02-98.14-11.683 30.377-16.356 64.258-14.02 98.138 1.17 23.365 5.842 46.73 14.02 70.098zm0 126.177h36.218c-7.01-5.84-12.85-12.85-17.523-19.86-7.01-8.18-12.85-16.357-18.693-24.535-5.84 8.176-11.683 16.354-18.692 24.532-5.84 7.01-11.682 14.02-17.524 19.86h36.217zm0-500.033c18.693 0 33.88 15.19 33.88 33.88 0 12.854-7.01 24.537-17.523 30.378l12.85 10.515 26.872 21.03 17.525 14.02-17.525 14.02c-11.683 10.513-22.198 21.028-31.544 33.88-1.168 1.168-2.337 3.504-3.505 5.84 22.198 42.06 31.544 92.297 28.04 142.534-2.337 38.554-11.684 77.108-29.208 113.325 8.178 12.853 16.356 25.704 25.702 38.555 14.02 16.356 30.376 31.544 49.07 45.564l14.02 9.347c4.672 3.504 5.84 9.346 4.672 14.02-2.34 5.84-7.01 9.346-12.853 9.346H1934.87c-4.67 0-10.513-3.505-11.68-9.347-1.17-4.673 0-10.515 4.672-14.02l12.853-9.346c18.692-14.02 35.05-29.21 49.068-45.565 10.516-12.85 18.694-25.702 25.704-38.554-16.356-36.215-26.87-74.77-29.208-113.323-2.337-50.237 7.01-100.474 29.207-142.533-1.168-2.337-2.337-4.673-4.673-5.842-8.177-12.85-18.692-23.365-30.375-33.88l-17.526-14.02 17.525-14.02 26.87-21.028 12.85-10.515c-10.513-5.84-17.523-17.525-17.523-30.377 0-18.69 15.188-33.88 33.88-33.88zm1146.105 536.253h-391.38c-33.88 0-65.426-12.852-91.13-31.544-2.336-1.17-4.673-3.507-7.01-5.843-2.336 2.336-4.673 4.673-7.01 5.842-25.702 18.69-57.246 31.543-91.127 31.543h-279.223c-44.396 0-80.613-5.842-110.99-18.693-63.087-26.872-107.483-87.624-107.483-156.554 0-29.207 9.347-58.415 24.535-82.95 15.187-24.534 36.216-45.563 64.255-56.078 56.08-24.534 127.345-7.01 160.058 46.732 30.376 49.07 21.03 118-30.376 148.375-40.89 25.702-98.138 17.524-123.84-25.703-19.86-32.712-14.02-101.642 30.376-101.642 19.86 0 35.05 15.188 35.05 35.05 0 18.692-15.19 33.88-35.05 33.88-1.17 0-3.505 0-4.674-1.17 0 5.843 2.336 10.516 4.673 15.19 16.356 25.702 50.237 28.038 74.77 14.02 33.882-21.03 37.387-66.594 18.694-99.307-23.366-38.554-75.94-50.237-115.662-32.712-19.86 8.18-36.218 23.368-47.9 42.06-11.684 18.693-18.693 42.06-18.693 64.257 0 54.91 36.217 102.81 85.286 122.672 25.7 11.682 57.246 16.355 96.968 16.355h279.224c25.703 0 49.07-10.515 70.098-24.534l1.17-1.17c-14.02-16.354-24.536-33.88-31.546-50.235l-5.84-15.187 14.02-7.01c8.177-4.673 14.018-9.347 18.69-15.188 5.843-7.01 10.516-14.02 15.19-23.367l4.673-7.01c2.336-4.673 7.01-7.01 11.683-7.01s8.178 2.337 10.514 7.01l4.674 7.01c4.673 9.346 10.514 16.356 15.188 23.366 5.84 5.84 11.683 10.513 18.692 15.186l14.02 7.01-5.842 15.187c-5.84 16.357-17.524 33.88-31.544 50.237l2.337 1.17c19.86 14.02 44.394 24.534 70.097 24.534h967.355c30.375 0 53.74-9.346 68.93-23.366 17.523-15.188 25.7-37.386 25.7-61.92 0-35.05-29.206-64.257-64.255-64.257-26.87 0-47.9 21.03-47.9 46.735 4.673-1.17 9.346-2.337 14.02-2.337 18.69 0 33.88 15.188 33.88 33.88 0 18.694-15.19 33.88-33.88 33.88-18.694 0-35.05-17.523-43.228-32.71-4.673-9.347-7.01-19.862-7.01-31.545 0-46.732 37.386-84.118 84.118-84.118 54.91 0 100.474 45.564 100.474 100.474 0 35.05-12.85 66.592-37.386 88.79-22.198 19.86-53.743 32.713-93.465 32.713h-575.975zm-2292.21 0h391.382c33.88 0 65.425-12.852 91.127-31.544 2.337-1.17 4.674-3.507 7.01-5.843 2.337 2.336 4.673 4.673 7.01 5.842 25.703 18.69 57.247 31.543 91.128 31.543h279.224c44.394 0 80.61-5.842 110.987-18.693 61.92-26.872 107.484-87.624 107.484-156.554-1.17-29.207-9.346-58.415-24.534-82.95-15.188-24.534-37.385-45.563-64.256-56.078-56.078-24.534-128.512-7.01-161.225 46.732-29.208 49.07-19.86 118 31.544 148.375 40.89 25.702 98.136 17.524 123.84-25.703 19.86-32.712 14.02-101.642-31.546-101.642-18.693 0-33.88 15.188-33.88 35.05 0 18.692 15.187 33.88 33.88 33.88 2.337 0 4.673 0 5.842-1.17-1.17 5.843-2.337 10.516-5.842 15.19-15.188 25.702-50.237 28.038-73.603 14.02-33.88-21.03-38.553-66.594-18.692-99.307 23.365-38.554 75.94-50.237 115.66-32.712 19.862 8.18 36.22 23.368 47.902 42.06 11.683 18.693 17.524 42.06 18.692 64.257 0 54.91-36.217 102.81-85.286 122.672-25.702 11.682-58.415 16.355-96.97 16.355h-279.223c-25.703 0-50.237-10.515-70.098-24.534l-2.337-1.17c15.188-16.354 25.703-33.88 31.544-50.235l5.842-15.187-12.852-7.01c-8.178-4.673-14.02-9.347-18.692-15.188-5.842-7.01-10.515-14.02-16.357-23.367l-4.673-7.01c-2.337-4.673-5.84-7.01-10.515-7.01-4.673 0-8.178 2.337-11.683 7.01l-3.505 7.01c-5.842 9.346-10.515 16.356-16.357 23.366-4.673 5.84-10.515 10.513-18.693 15.186l-12.85 7.01 5.84 15.187c5.842 16.357 16.357 33.88 30.376 50.237l-1.168 1.17c-19.86 14.02-44.395 24.534-70.098 24.534H314.434c-30.376 0-53.742-9.346-70.098-23.366-16.356-15.188-24.534-37.386-24.534-61.92 0-35.05 28.04-64.257 64.256-64.257 25.702 0 46.732 21.03 47.9 46.735-4.673-1.17-9.347-2.337-14.02-2.337-19.86 0-35.05 15.188-35.05 33.88 0 18.694 15.19 33.88 35.05 33.88 18.693 0 35.05-17.523 43.227-32.71 4.674-9.347 7.01-19.862 7.01-31.545 0-46.732-37.385-84.118-84.118-84.118-56.08 0-100.475 45.564-100.475 100.474 0 35.05 12.852 66.592 37.386 88.79 22.2 19.86 53.743 32.713 93.465 32.713H890.41zM1379.927 2572.632c-7.01 8.178-12.85 17.524-18.692 25.703 5.84 4.673 10.514 9.346 15.187 14.02 1.17 1.168 2.337 3.504 3.505 4.673 1.17-1.17 2.337-3.505 3.505-4.674l14.02-14.02c-4.673-8.178-10.515-17.524-17.525-25.702zm1313.173 0c7.01 8.178 12.85 17.524 17.524 25.703l-14.02 14.02c-1.168 1.168-2.336 3.504-3.504 4.673-1.17-1.17-2.337-3.505-3.505-4.674-4.673-4.673-9.347-9.346-15.188-14.02 4.673-8.178 11.683-17.524 18.693-25.702zm-656.587 318.947c4.674 7.01 10.515 14.017 16.357 19.86l-16.357 14.02-17.524-14.02c5.84-5.843 11.68-12.85 17.522-19.86zm0-243.01c8.18 23.367 11.683 46.733 14.02 70.1 1.168 33.88-3.505 67.76-14.02 98.136-11.683-30.376-16.356-64.256-14.02-98.137 1.17-23.367 5.842-46.733 14.02-70.1zm0-126.176h36.218c-7.01 5.84-12.85 12.85-17.523 19.86-7.01 8.18-12.85 16.357-18.693 24.535-5.84-8.18-11.683-16.357-18.692-24.535-5.84-7.01-11.682-14.02-17.524-19.86h36.217zm0 500.034c18.693 0 33.88-15.19 33.88-33.882 0-12.852-7.01-24.535-17.523-30.376l12.85-10.515 26.872-21.03 17.525-14.02-17.525-14.018c-11.683-10.516-22.198-21.03-31.544-33.882-1.168-1.168-2.337-3.505-3.505-5.842 22.198-42.06 31.544-92.296 28.04-142.533-2.337-38.554-11.684-77.108-29.208-113.325 8.178-14.02 16.356-25.703 25.702-38.554 14.02-16.355 30.376-31.543 49.07-45.563l14.02-9.346c4.672-3.504 5.84-9.346 4.672-14.02-2.34-5.84-7.01-9.345-12.853-9.345H1934.87c-4.67 0-10.513 3.505-11.68 9.346-1.17 4.674 0 10.516 4.672 14.02l12.853 9.347c18.692 14.02 35.05 29.208 49.068 45.564 10.516 12.85 18.694 24.535 25.704 38.555-16.356 36.217-26.87 74.77-29.208 113.325-2.337 50.237 7.01 100.474 29.207 142.533-1.168 2.337-2.337 4.674-4.673 5.842-8.177 12.85-18.692 23.366-30.375 33.88l-17.526 14.02 17.525 14.02 26.87 21.03 12.85 10.514c-10.513 5.84-17.523 17.523-17.523 30.375 0 18.693 15.188 33.88 33.88 33.88zm1146.105-536.252h-391.38c-33.88 0-65.426 12.85-91.13 31.544-2.336 1.168-4.673 3.505-7.01 5.84-2.336-2.335-4.673-4.672-7.01-5.84-25.702-18.693-57.246-31.544-91.127-31.544h-279.223c-44.396 0-80.613 5.84-110.99 18.692-63.087 26.872-107.483 87.623-107.483 156.553 0 29.21 9.347 58.416 24.535 82.95 15.187 24.535 36.216 45.564 64.255 57.247 56.08 23.365 127.345 5.84 160.058-47.9 30.376-49.07 21.03-118-30.376-148.375-40.89-25.703-98.138-17.525-123.84 25.702-19.86 32.713-14.02 101.643 30.376 101.643 19.86 0 35.05-15.19 35.05-35.05 0-18.692-15.19-33.88-35.05-33.88-1.17 0-3.505 0-4.674 1.168 0-5.842 2.336-10.515 4.673-15.188 16.356-25.703 50.237-28.04 74.77-14.02 33.882 21.03 37.387 66.594 18.694 99.306-23.366 38.554-75.94 50.237-115.662 32.713-19.86-8.18-36.218-23.367-47.9-42.06-11.684-18.693-18.693-42.06-18.693-64.257 0-54.91 36.217-102.81 85.286-122.673 25.7-11.682 57.246-16.355 96.968-16.355h279.224c25.703 0 49.07 10.515 70.098 24.534l1.17 1.168c-14.02 16.356-24.536 33.88-31.546 50.237l-5.84 15.19 14.02 7.01c8.177 4.672 14.018 9.345 18.69 15.186 5.843 7.01 10.516 14.02 15.19 23.366l4.673 7.01c2.336 4.673 7.01 7.01 11.683 7.01s8.178-2.337 10.514-7.01l4.674-7.01c4.673-9.346 10.514-17.524 15.188-23.366 5.84-5.84 11.683-10.514 18.692-15.188l14.02-7.01-5.842-15.187c-5.84-16.356-17.524-33.88-31.544-50.236l2.337-1.17c19.86-14.018 44.394-24.533 70.097-24.533h967.355c30.375 0 53.74 8.18 68.93 23.367 17.523 15.19 25.7 37.387 25.7 61.92 0 35.05-29.206 64.258-64.255 64.258-26.87 0-47.9-21.03-47.9-46.732 4.673 1.168 9.346 2.336 14.02 2.336 18.69 0 33.88-15.19 33.88-33.88 0-18.694-15.19-33.88-33.88-33.88-18.694 0-35.05 17.522-43.228 32.71-4.673 9.347-7.01 19.86-7.01 31.544 0 46.733 37.386 84.118 84.118 84.118 54.91 0 100.474-45.564 100.474-100.474 0-35.048-12.85-66.592-37.386-88.79-22.198-19.86-53.743-32.712-93.465-32.712h-575.975zm-2292.21 0h391.382c33.88 0 65.425 12.85 91.127 31.544 2.337 1.168 4.674 3.505 7.01 5.84 2.337-2.335 4.673-4.672 7.01-5.84 25.703-18.693 57.247-31.544 91.128-31.544h279.224c44.394 0 80.61 5.84 110.987 18.692 61.92 26.872 107.484 87.623 107.484 156.553-1.17 29.21-9.346 58.416-24.534 82.95-15.188 24.535-37.385 45.564-64.256 57.247-56.078 23.365-128.512 5.84-161.225-47.9-29.208-49.07-19.86-118 31.544-148.375 40.89-25.703 98.136-17.525 123.84 25.702 19.86 32.713 14.02 101.643-31.546 101.643-18.693 0-33.88-15.19-33.88-35.05 0-18.692 15.187-33.88 33.88-33.88 2.337 0 4.673 0 5.842 1.168-1.17-5.842-2.337-10.515-5.842-15.188-15.188-25.703-50.237-28.04-73.603-14.02-33.88 21.03-38.553 66.594-18.692 99.306 23.365 38.554 75.94 50.237 115.66 32.713 19.862-8.18 36.22-23.367 47.902-42.06 11.683-18.693 17.524-42.06 18.692-64.257 0-54.91-36.217-102.81-85.286-122.673-25.702-11.682-58.415-16.355-96.97-16.355h-279.223c-25.703 0-50.237 10.515-70.098 24.534l-2.337 1.168c15.188 16.356 25.703 33.88 31.544 50.237l5.842 15.19-12.852 7.01c-8.178 4.672-14.02 9.345-18.692 15.186-5.842 7.01-10.515 14.02-16.357 23.366l-4.673 7.01c-2.337 4.673-5.84 7.01-10.515 7.01-4.673 0-8.178-2.337-11.683-7.01l-3.505-7.01c-5.842-9.346-10.515-17.524-16.357-23.366-4.673-5.84-10.515-10.514-18.693-15.188l-12.85-7.01 5.84-15.187c5.842-16.356 16.357-33.88 30.376-50.236l-1.168-1.17c-19.86-14.018-44.395-24.533-70.098-24.533H314.434c-30.376 0-53.742 8.18-70.098 23.367-16.356 15.19-24.534 37.387-24.534 61.92 0 35.05 28.04 64.258 64.256 64.258 25.702 0 46.732-21.03 47.9-46.732-4.673 1.168-9.347 2.336-14.02 2.336-19.86 0-35.05-15.19-35.05-33.88 0-18.694 15.19-33.88 35.05-33.88 18.693 0 35.05 17.522 43.227 32.71 4.674 9.347 7.01 19.86 7.01 31.544 0 46.733-37.385 84.118-84.118 84.118-56.08 0-100.475-45.564-100.475-100.474 0-35.048 12.852-66.592 37.386-88.79 22.2-19.86 53.743-32.712 93.465-32.712H890.41z"/><path class="text" fill="#efe2c1" fill-rule="nonzero" d="M291.072 1697.552v23.377c14.02 2.335 22.2 5.822 24.537 10.496 3.503 3.505 4.635 11.685 4.635 24.536v130.864c0 43.227 14.08 78.305 42.118 104.008 26.87 24.534 61.885 36.193 103.944 36.193 32.712 0 65.444-5.843 96.988-16.358 31.544-10.515 59.583-24.53 82.95-42.055v209.11c0 17.526-2.366 29.203-4.702 33.876-2.337 4.674-9.303 9.368-22.155 14.04v22.22h127.32v-22.22c-7.593-1.752-13.41-3.815-17.645-5.86-4.235-2.044-6.882-4.043-8.05-5.796-2.337-4.673-2.32-16.397-2.32-36.258v-421.763c0-12.852 1.133-21.032 4.638-24.537 2.338-4.674 10.527-8.16 23.38-10.498v-23.378H619.39v23.377c11.683 3.504 18.65 8.215 22.154 11.72 2.336 4.674 4.7 12.854 4.7 24.537v153.02c-22.197 18.693-46.72 32.69-75.928 44.373-28.04 10.515-56.07 16.358-84.108 16.358-28.04 0-50.29-6.957-67.815-23.314-17.524-15.186-25.696-36.25-25.696-61.95v-116.825c0-9.346.318-16.974.902-22.67.582-5.695 1.47-9.453 2.64-11.205 2.335-4.674 9.3-9.368 22.152-14.04v-23.378h-127.32zm540.906 0v23.377c16.356 1.167 26.902 7.01 29.238 16.356 1.168 2.337 2.318 9.385 2.318 19.9v420.54c0 17.525-1.14 29.203-3.477 33.876-3.505 5.842-12.89 10.535-28.08 14.04v22.218h479.017v-98.147h-22.218c-4.673 21.03-15.136 35.044-31.492 42.053-9.347 2.337-26.895 3.478-54.935 3.478H935.984v-231.33h199.773c11.684 0 19.846 1.197 26.856 4.702 5.84 3.505 10.543 10.545 12.88 21.06h23.378V1883.35h-23.378c-2.336 11.68-9.385 19.862-19.9 24.535-5.84 2.337-16.313 3.477-30.333 3.477H935.988v-161.196h266.363c18.692 0 31.557 2.347 39.735 7.02s15.162 15.145 19.835 30.333h23.378v-89.97h-453.32zm505.872 0v92.287h23.377c.584-4.968 1.444-9.456 2.576-13.527 3.395-12.212 9.09-20.323 16.1-23.828 4.674-1.17 17.53-2.32 40.895-2.32h115.665v427.56c0 17.526-2.3 30.427-4.637 35.1-3.505 4.673-12.89 9.31-28.08 12.816v22.22h136.725v-22.22c-12.265-2.63-20.605-5.887-24.986-9.34-1.46-1.15-2.507-2.307-3.09-3.475-1.17-1.752-1.993-5.862-2.577-11.85-.584-5.988-.902-13.902-.902-23.25v-427.56h120.366c22.2 0 36.213 1.133 42.055 4.638 7.01 3.505 10.48 15.174 12.816 35.035h22.22v-92.288h-468.52zm515.21 0v23.377c15.187 2.335 24.573 5.822 28.078 10.496 3.505 3.505 5.86 12.854 5.86 24.536v421.764c0 18.693-1.196 30.426-4.7 35.1-3.506 5.84-12.883 9.31-29.24 12.815v22.22h254.708c14.604 0 28.655-.75 42.054-2.19 40.197-4.327 74.81-15.038 102.85-31.686 45.563-28.04 68.908-70.093 68.908-125.003 0-37.384-11.66-70.125-36.193-95.83-23.367-26.87-53.733-44.362-92.287-53.71 25.702-5.84 46.692-19.864 63.05-40.893 16.355-21.03 25.694-45.59 25.694-71.292 0-39.723-14.033-70.1-39.735-91.128-31.544-25.702-85.257-38.576-161.196-38.576h-227.85zm540.97 0v23.377c17.524 1.167 26.827 7.01 30.332 16.356 1.17 2.337 1.224 9.385 1.224 19.9v420.54c0 17.525-1.206 29.203-3.542 33.876-3.505 5.842-12.827 10.535-28.015 14.04v22.218h480.173v-98.147h-23.377c-4.673 21.03-15.2 35.044-31.557 42.053-9.347 2.337-26.84 3.478-53.71 3.478H2497.97v-231.33h199.773c11.682 0 19.91 1.197 26.92 4.702 5.84 3.505 10.478 10.545 12.815 21.06h23.38V1883.35h-23.38c-2.336 11.68-9.32 19.862-19.835 24.535-5.84 2.337-16.377 3.477-30.397 3.477h-189.274v-161.196h267.587c17.525 0 31.494 2.347 39.67 7.02 7.01 4.673 14.07 15.145 18.743 30.333h23.313v-89.97H2394.03zm526.865 0v23.377c14.02 2.335 23.415 5.822 26.92 10.496 3.505 3.505 4.637 11.685 4.637 24.536v421.764c0 17.525-1.132 30.426-4.637 35.1-2.336 4.672-11.732 9.31-26.92 12.815v22.22h135.566v-22.22c-7.592-2.336-13.744-4.682-18.417-7.02-4.674-2.336-7.908-4.682-9.66-7.02-2.337-4.672-3.478-16.35-3.478-33.874v-96.924c96.97-35.05 161.208-61.937 192.753-80.63 75.94-44.396 113.345-96.958 113.345-158.878 0-53.742-22.177-92.298-68.91-115.664-35.048-18.692-81.785-28.078-140.2-28.078h-200.996zm453.32 0v23.377c12.852 2.335 21.042 5.822 23.38 10.496 3.504 3.505 4.636 11.685 4.636 24.536v421.764c0 18.693-1.14 30.426-3.477 35.1-2.336 5.84-10.517 9.31-24.537 12.815v22.22h127.322v-22.22c-7.01-2.336-12.24-4.682-16.036-7.02-3.795-2.336-6.108-4.682-7.276-7.02-2.336-4.672-3.543-16.35-3.543-33.874v-427.56H3662.8c26.87 0 46.72 2.338 59.572 8.18 17.523 7.01 26.854 21.024 26.854 42.053h22.22v-102.85h-397.23zm-1414.83 50.233h121.525c35.05 0 61.92 4.702 82.95 12.88 29.207 14.02 44.372 37.356 44.372 70.068 0 30.376-11.668 52.627-35.034 67.815-18.693 10.515-44.376 16.358-77.09 16.358h-136.722v-167.12zm1065.52 0h85.266c56.08 0 95.84 9.385 119.21 28.08 19.86 15.186 29.173 37.39 29.173 65.43 0 45.564-29.172 86.412-87.586 121.46-26.87 16.357-75.964 37.41-146.062 63.114v-278.086zm-1065.52 217.354h122.685c47.9 0 85.307 8.18 113.346 24.534 36.217 21.03 53.71 53.697 53.71 96.925 0 40.89-16.35 70.115-50.232 88.81-24.535 14.017-59.557 19.833-102.785 19.833h-136.725V1965.14z"/><path class="text-up" fill="#efe2c1" fill-rule="nonzero" d="M2030.678 0v10.562c3.505 1.168 5.842 2.31 8.18 3.478 1.167 1.168 1.158 2.364 1.158 4.7v3.478c0 1.17.013 2.356-1.16 5.86l-38.576 191.595c-1.168 5.84-2.3 10.543-4.637 12.88-1.168 3.505-4.665 5.787-9.338 6.955v10.562l49.01 1.16v-10.5c-4.674-1.168-7.01-2.374-8.18-3.542-1.168-2.337-2.318-4.683-2.318-7.02 0-1.168 1.16-3.515 1.16-7.02l35.098-179.872 58.412 150.7h15.134l60.797-147.223 29.174 179.937v4.637c1.17 1.167 1.16 3.532 1.16 4.7 0 2.337-1.15 3.524-2.32 5.86-1.167 1.17-4.673 2.32-8.18 2.32v10.497l54.937 1.16v-10.498c-4.674-1.17-8.17-3.525-9.338-5.862-1.17-2.336-3.544-6.983-3.544-11.657L2223.43 29.24c0-2.336.014-4.683-1.16-7.02 0-4.673 4.648-7.02 11.658-7.02V4.702l-45.532-1.158-57.252 141.36-56.094-143.68L2030.678 0zm-203.186 6.633c-8.635-.62-17.638-.49-26.984.387-28.04 3.505-51.445 12.938-70.777 28.272-6.442 5.11-12.48 10.898-18.03 17.324-21.03 26.87-30.36 58.38-26.856 95.765 4.673 38.555 19.885 68.93 46.755 91.13 26.87 22.197 58.434 31.583 96.99 28.08 37.383-4.675 66.554-19.886 87.583-46.757 21.03-28.04 29.2-60.762 25.697-98.148-4.675-37.385-19.83-66.547-45.533-88.744-20.153-16.65-42.942-25.444-68.845-27.306zm516.304 7.407l-2.383 10.497c5.842 2.336 9.394 4.683 10.562 7.02 1.17 1.168 1.17 4.72 0 10.56v5.798l-28.08 184.638c-1.167 8.178-3.467 13.966-4.635 15.134-1.17 2.337-4.712 3.533-11.72 4.7l-1.16 9.34 57.252 9.338 1.16-10.498c-5.842-3.504-9.34-5.842-9.34-8.18-.583-.583-.548-2.33-.257-4.958.292-2.63.833-6.15 1.417-10.24l7.02-51.394L2515.49 74.77l-28.015 182.255c-1.168 8.178-2.31 12.862-3.477 15.2-1.168 2.336-5.88 3.532-11.72 4.7l-1.16 10.498 57.252 8.18 1.16-10.5c-5.842-2.335-9.33-4.682-10.498-7.02-1.168-1.167-.013-7.01 1.16-16.356l28.014-183.415 1.224-5.86c0-5.842 1.14-9.33 3.477-10.498 1.168-2.337 5.815-3.478 11.657-3.478l1.16-10.56-45.533-7.02-150.697 111.026 15.2-99.306c1.168-7.01 2.308-12.87 3.477-14.04 1.167-2.336 4.655-3.468 10.496-4.636l2.383-10.562-57.255-9.338zM1822.21 31.106c20.647 1.752 38.172 10.092 53.068 24.988 16.356 17.524 26.892 42.066 30.397 73.61 3.505 30.376-1.188 56.068-14.04 75.93-14.02 22.197-36.223 35.08-65.43 37.416-30.377 3.505-54.92-4.685-73.612-23.377-17.524-17.525-26.828-42.067-30.333-73.61-3.505-30.377 1.133-56.07 12.816-75.93 14.02-22.198 36.224-35.07 65.432-38.576 7.594-.877 14.82-1.035 21.703-.45zm-220.316 7.47l-57.252 10.498 2.383 10.562c5.84 1.168 9.32 2.31 11.656 3.477 1.17 2.337 2.31 5.824 3.48 10.498l1.224 4.703 12.815 65.43-116.825 22.156-12.88-64.21c-1.168-8.178-2.327-12.86-1.16-15.198 0-2.336 3.498-4.673 9.34-8.178l-2.32-10.497-57.252 10.497 2.32 10.497c5.84 1.17 10.55 1.206 11.72 3.54 1.168 1.17 2.31 4.658 3.477 10.5l1.158 4.637 36.258 183.48c1.17 8.177 2.328 14.02 1.16 16.357 0 2.336-3.497 4.618-9.34 6.955l1.16 10.56 57.253-10.56-2.32-10.498c-5.84-1.168-9.393-2.3-10.56-4.636-2.34-1.17-3.47-5.853-4.64-15.2l-18.675-94.67 116.824-22.153 18.675 94.607c1.168 8.178 1.16 12.862 1.16 15.198-1.17 2.337-3.497 4.674-9.34 8.18l2.32 10.497 56.093-11.657-1.16-9.338c-7.01-1.168-11.712-2.374-12.88-3.542-1.17-1.17-2.3-7.012-4.637-16.358l-35.1-182.256-1.157-5.86c-1.17-4.672-1.17-9.328 0-10.496 0-2.337 3.496-4.684 9.338-7.02l-2.32-10.498zm1046.842 25.696l-3.542 9.34c5.842 3.503 9.338 5.84 9.338 8.178 1.17 2.336 1.178 5.88-1.16 11.72l-1.158 4.637-15.2 52.616c-4.672 18.693-3.485 36.214 5.862 50.233 8.178 14.02 22.2 24.5 40.895 29.174 14.02 4.673 29.186 5.87 44.374 4.7 15.188 0 29.212-3.505 40.894-8.178l-25.695 92.287c-2.337 7.01-4.693 12.87-5.86 14.04-1.17 2.334-5.816 2.307-11.658 3.476l-3.542 9.338 56.094 16.357 3.542-9.337c-7.01-3.504-9.395-7-10.563-9.338 0-1.168 1.206-7.02 3.542-15.2l51.39-179.935 1.16-4.637c2.337-5.84 3.525-9.328 5.86-10.497.585-.584 2.014-1.19 4.058-1.48 2.045-.293 4.68-.328 7.6.256l2.318-10.497-54.87-16.358-3.542 10.498c4.673 3.505 8.18 5.842 8.18 8.18 1.168 2.335 1.177 5.887-1.16 10.56l-1.16 5.797-17.516 61.954c-5.842 2.336-11.993 4.382-18.42 5.99-6.425 1.605-13.147 2.763-20.157 3.348-14.02 1.168-26.827.027-38.51-3.478-12.85-3.505-22.247-9.394-26.92-18.74-5.84-8.18-6.983-18.65-3.478-30.334l14.04-51.456c2.337-7.01 4.628-12.807 5.797-13.975.583-1.167 2.076-1.75 4.12-2.19 2.045-.436 4.68-.766 7.6-1.35l3.477-9.34-56.03-16.357zm-1403.753 66.012c-16.356-.876-33.288 1.758-50.812 7.6-36.216 11.682-61.9 32.727-77.087 64.272-15.188 30.375-17.544 63.098-5.86 98.147 12.85 36.217 33.896 63.05 64.272 79.407 30.376 16.356 64.248 18.712 100.466 5.86 36.218-11.683 61.91-32.728 75.93-64.272 15.188-31.545 16.33-64.25 3.478-100.466-11.684-36.218-32.673-61.9-63.05-77.09-15.187-8.177-30.978-12.582-47.334-13.458zm1674.754 14.62l-4.637 9.337c7.01 3.507 10.497 8.154 10.497 11.66 0 2.335-1.15 4.73-2.32 9.4l-2.382 4.638-66.59 174.077c-2.337 8.178-4.683 12.87-7.02 14.04-2.337 2.336-6.965 2.327-13.975 1.158l-3.542 9.338 203.314 78.313 16.36-42.054-9.34-3.543c-5.84 8.178-12.88 12.88-21.06 12.88-3.504 0-11.694-2.346-23.376-7.02l-113.282-43.213 37.353-99.306 80.63 31.492 4.7 1.223c4.674 2.336 8.16 4.618 10.498 6.955 2.338 2.337 3.487 5.888 2.318 10.562l9.34 4.637 17.516-45.532-9.34-3.542c-3.506 3.505-6.974 5.85-12.815 7.02-2.338 0-7.04-1.14-12.88-3.478l-8.18-3.542-72.45-28.015 25.694-68.91 113.346 44.373c8.178 2.34 14.02 5.836 16.358 9.34 2.336 3.506 3.542 8.18 3.542 16.36l9.338 3.476 15.135-38.512-192.754-73.61zm-1679.713 11.27c12.85 1.313 24.837 5.672 35.936 13.266 21.03 14.02 36.176 35.055 46.69 65.432 9.347 29.207 10.562 54.89 2.384 77.088-9.347 24.534-28.055 42.045-56.094 51.392-28.04 9.346-53.73 7.01-75.93-8.18-21.028-12.85-36.24-35-46.754-64.207-9.347-29.208-10.497-56.114-2.32-78.312 8.18-24.535 26.896-42.046 54.935-51.392 14.606-4.67 28.304-6.4 41.155-5.086zM992.08 236.03c-18.694-1.168-39.748 4.675-63.114 16.358l-81.79 39.736 4.702 10.497c5.84-2.334 10.48-2.325 12.816-1.157 2.336 0 4.683 3.497 7.02 9.338l2.318 4.703 81.79 167.056c3.504 8.18 5.87 12.86 4.7 15.2 0 3.503-2.337 5.822-8.178 10.495l4.637 9.34 56.095-26.857-4.637-9.338c-8.178 1.167-12.862 1.167-15.198 0-1.17-1.17-4.676-5.87-8.18-12.88l-18.74-39.737c32.71-33.88 53.774-57.208 61.953-71.227 22.198-33.88 28.05-63.107 15.198-88.81-10.512-21.03-28.024-32.716-51.39-32.716zm-14.233 25.76c3.925-.127 7.477.22 10.69 1.096 11.683 2.336 19.855 9.376 25.696 21.06 8.18 18.692 4.7 40.878-11.656 67.75-8.178 11.682-23.38 29.23-47.915 54.933l-54.934-114.507 33.94-16.358c17.524-8.762 32.404-13.592 44.18-13.975zm2252.947 30.785c-7.867.274-15.75 1.274-23.635 3.027-32.714 8.178-57.256 26.877-73.613 57.252-7.01 13.144-12.023 27.612-14.103 42.892-.694 5.093-1.095 10.263-1.095 15.52 0 21.03 3.54 42.038 11.72 60.73 16.357 37.386 42.03 65.47 78.247 85.332 11.683 7.01 25.716 12.853 39.736 16.358l20.995-38.576-8.18-4.7c-5.842 7.008-12.818 10.56-20.996 10.56-8.176 0-16.358-2.346-24.535-7.02-28.04-16.356-47.9-39.738-58.413-72.45-9.347-31.545-7.01-61.92 8.178-91.13 14.02-24.533 31.504-39.68 54.87-46.69 22.198-7.01 45.6-4.68 70.133 9.34 10.515 5.84 19.845 12.815 26.855 20.994 10.515 11.682 12.853 21.05 8.18 30.397-1.17 2.338-3.516 4.694-7.02 5.863l3.542 9.338 43.212-11.72c-11.682-33.88-32.728-60.733-64.27-77.09-22.784-13.142-46.21-19.046-69.813-18.224zM796.944 318.98L614.688 429.942l21.06 35.098 9.337-4.7c-3.504-8.178-3.495-15.172-1.158-18.676 1.168-2.337 5.787-5.89 15.134-10.562l45.598-28.015 100.466 167.057c4.673 7.01 5.85 11.694 7.02 15.2 0 2.335-3.506 5.823-8.18 10.496l4.637 9.338 53.776-32.65-5.86-8.18c-7.01 2.337-11.648 2.32-12.816 2.32-2.338-1.17-5.89-5.863-10.563-14.04l-100.466-165.9 46.758-29.172c8.178-4.674 14.012-7.02 17.517-7.02 1.752-.584 3.8-.014 5.99 1.74 2.19 1.75 4.553 4.668 6.89 8.757l9.338-5.86-22.218-36.194zm2654.36 84.107l-5.796 9.338c3.505 4.674 5.796 8.16 5.796 10.498 0 1.168-1.133 4.73-4.637 9.402l-3.542 4.637-110.963 150.7c-4.674 7.01-8.16 10.552-10.498 11.72-2.336 1.168-5.87.018-12.88-2.318l-5.86 8.114 46.756 35.1 5.86-8.18c-3.506-5.842-4.702-9.385-4.702-11.72 0-2.338 3.505-6.966 8.18-13.976l46.754-63.113c9.347 3.503 17.527 5.84 24.537 8.177 8.176 2.336 16.347 3.532 25.694 4.7l-5.86 128.48c1.168 2.338 0 4.694-1.16 5.862-2.336 3.504-5.815 3.495-11.655 1.16l-5.86 8.177 50.23 37.353 7.02-8.178c-4.674-5.842-7.02-11.676-7.02-17.517v-11.657l8.178-140.202c16.357 0 31.577-1.196 45.596-4.7 14.02-2.337 28.035-8.134 42.054-13.976 9.347-4.673 15.18-7.02 17.518-7.02 3.505-1.168 6.387-1.756 9.016-1.61 2.628.147 5.005 1.017 7.34 2.77l7.02-9.338-51.456-37.417-7.02 8.178c3.506 4.674 4.702 7.066 4.702 9.403 0 3.505-1.196 5.824-4.7 10.497-8.18 11.683-26.823 17.5-56.03 19.836-28.04 2.335-56.077-2.303-82.95-12.818l49.075-66.59c4.674-7.01 8.16-10.553 10.497-11.722.585-.583 2.012-.548 4.058-.256 2.044.292 4.678.832 7.6 1.416l5.86-8.178-46.756-35.035zm-2868.172 88.81c-36.218-2.337-67.726 6.975-95.765 29.173-26.87 22.198-43.232 49.077-49.074 81.79-5.84 32.712 2.34 63.106 24.537 88.81 12.852 16.355 29.157 29.174 47.85 37.352 19.862 8.178 39.765 12.89 60.795 11.72 40.89 0 77.1-12.873 108.645-38.576 11.683-9.346 21.05-19.873 30.397-31.556l-26.92-33.875-8.18 5.86c4.675 8.178 4.666 15.2 1.16 23.378-2.336 7.01-8.124 13.994-15.133 19.836-25.703 19.86-54.93 29.2-88.81 25.694-33.88-2.337-60.76-16.352-81.79-42.054-17.524-21.03-24.554-44.383-22.218-67.75 2.337-23.366 14.07-44.364 35.1-61.89 9.345-7.01 19.817-12.852 30.332-16.357 14.02-5.84 24.556-3.532 30.397 3.478 2.337 2.338 3.478 5.835 3.478 9.34h10.562l4.637-44.372zM3675.614 611.04c-33.882 0-64.258 12.863-91.13 39.734-26.87 26.87-39.66 58.397-40.83 93.447 0 35.05 12.802 65.417 39.673 92.288 26.87 25.703 58.405 38.586 92.287 37.417 33.88-1.168 65.425-15.183 91.128-42.054 26.87-26.87 39.734-57.245 39.734-91.126 1.17-33.88-12.863-64.257-39.734-91.128-26.872-25.703-57.248-38.576-91.128-38.576zm21.187 27.627c18.404 1.807 35.494 10.375 51.266 26.147 22.197 22.198 31.584 46.74 28.08 73.61-2.337 24.535-15.22 47.87-37.418 70.07-21.03 22.197-43.216 35.08-67.75 37.416-25.703 3.505-49.104-5.9-70.133-25.76-22.198-22.198-31.52-45.516-28.015-72.388 2.336-24.534 15.163-47.935 36.192-70.132 22.198-22.198 44.44-35.007 68.974-38.512 6.425-.876 12.672-1.054 18.805-.45zM271.238 725.544L254.88 743.06l100.464 221.992c2.337 5.842 3.478 10.48 3.478 12.816 0 2.337.013 5.842-1.16 8.18l7.02 7.02 35.035-37.354-8.18-7.02-7.02 3.478c-2.336 1.168-4.682.013-7.018-1.16-2.34-2.336-4.63-4.673-5.798-8.178l-32.716-71.228 63.048-67.814 72.452 23.377c5.84 2.335 10.544 4.69 12.88 5.86 1.168 2.335 2.318 3.523 2.318 5.86 0 1.17-1.14 3.514-3.477 7.02l8.114 6.954 38.58-42.054-7.02-7.018c-4.674 2.336-9.358 3.55-15.2 2.383-2.336 0-6.965-1.206-13.975-3.543l-225.47-77.088zm18.677 39.736l87.586 30.333-49.075 52.616-38.512-82.95zm3622.89 39.735l-8.18 6.956c3.506 5.843 4.656 11.695 2.32 15.2-1.168 1.17-3.45 3.524-6.956 5.86l-3.542 3.478-149.54 112.187c-5.84 4.674-10.543 7.01-12.88 8.18-1.75 0-3.734-.57-5.925-1.74-2.19-1.168-4.553-2.944-6.89-5.28l-8.18 7.02 130.865 174.076 36.193-26.855-5.86-9.338c-9.346 4.674-17.527 4.674-24.536 0-3.505-2.336-8.18-8.235-16.358-17.58l-72.387-96.925 84.11-64.272 51.39 68.91 3.542 3.542c2.336 4.673 4.636 8.152 4.636 11.657 1.17 3.503.026 6.99-3.477 10.496l5.795 8.18 39.736-29.175-7.02-8.18c-4.674 2.338-9.302 2.347-13.975-1.16-2.338-1.166-5.898-4.663-9.403-9.336l-4.636-7.02-47.914-61.954 58.41-44.373 73.612 96.988c4.673 7.01 8.178 11.684 8.178 16.358 1.17 4.673-1.186 9.293-5.86 15.134l7.02 9.403 32.717-25.76-125.004-164.675zM177.727 826.01L67.922 970.913l8.18 5.796c4.672-3.507 8.16-5.798 10.496-5.798 2.337 0 5.89 2.29 10.562 5.796l4.637 3.54 148.38 112.123c7.01 4.675 11.712 8.226 12.88 10.563 0 2.337-.037 6.975-3.542 12.816l9.34 5.86 33.874-45.595-8.18-7.02c-4.674 3.505-9.33 5.87-10.5 4.7-2.335 0-7.03-3.505-14.04-8.178L114.68 948.694l42.054-54.934c1.17-2.337 2.302-4.683 4.638-7.02 1.168-2.336 3.533-4.618 4.7-6.955 8.18-9.346 13.995-15.236 19.837-18.74 3.505-2.337 7.344-3.19 11.14-2.9 3.798.293 7.573 1.786 11.078 4.123l7.02-8.18-37.417-28.078z"/><path class="text-down" fill="#efe2c1" fill-rule="nonzero" d="M1531.826 3209.37l-2.383 10.498c5.84 2.336 9.394 4.683 10.562 7.02 1.168 2.336 0 5.814 0 11.656l-2.383 5.86-37.353 191.594c-1.17 9.347-3.535 14.02-4.703 16.358-1.168 2.336-5.806 3.542-12.816 3.542l-2.382 10.497 59.635 11.657 2.318-10.497c-5.84-3.505-9.337-5.843-9.337-8.18-1.168-2.336-.013-8.18 1.16-16.357l16.357-81.79c10.515 0 18.678-1.14 26.856-3.477 8.178-1.167 17.51-3.522 26.855-5.86l52.617 123.844c1.167 2.337 1.158 4.684 1.158 7.02-1.168 3.505-4.647 4.637-11.657 4.637l-2.382 11.72 65.432 12.818 2.32-11.657c-5.843-2.335-10.472-7.037-13.977-12.88-1.167-2.335-2.363-5.823-4.7-10.496l-56.093-137.883c15.187-7.01 29.2-14.02 42.053-24.536 11.683-9.346 23.424-19.81 33.94-31.492 5.84-8.177 10.48-12.86 12.815-15.198 5.842-4.673 10.516-7.02 16.358-7.02l2.32-10.497-66.593-12.88-2.318 10.497c4.673 3.505 8.17 5.842 9.338 8.18v10.56c-3.505 15.19-17.5 30.354-44.372 44.373-19.276 11.39-39.877 18.843-62.275 22.347-7.466 1.17-15.105 1.898-22.992 2.19l17.518-84.108c1.17-8.178 2.3-14.03 4.638-15.2 1.168-2.335 4.71-3.53 11.72-4.7l2.32-10.497-59.572-11.658zm1005.883 12.816l-213.815 32.716 2.383 10.562c8.177 0 12.797 2.29 15.133 5.796 0 1.168 1.216 4.665 2.384 9.338v5.86l29.174 192.753c.584 4.09 1.19 7.596 1.48 10.37.294 2.776.264 4.82-.32 5.99-1.17 3.505-4.647 5.843-11.657 8.18l1.16 11.72 226.628-35.034-6.955-46.755-11.722 2.32c0 10.514-3.477 17.553-11.655 21.06-3.505 2.335-11.685 4.682-24.537 7.02l-126.162 18.675-16.358-109.805 88.745-14.04h4.702c5.84-1.17 10.478-1.17 12.815 0 1.752.584 3.258 1.742 4.573 3.35 1.314 1.605 2.438 3.65 3.606 5.988l10.562-1.16-7.02-50.232-11.72 1.16c0 5.84-2.283 10.478-6.956 12.815-2.337 1.17-8.198 3.544-14.04 3.544l-8.18 1.16-81.788 12.88-11.658-75.994 126.162-19.837c9.347-1.168 15.163-1.177 19.836 1.16 1.752.584 3.816 2.06 5.86 4.25 2.045 2.19 4.108 5.125 5.86 8.63l10.498-1.16-7.02-43.277zm-684.65 38.576l-113.284 229.01c-3.504 5.842-5.842 9.33-8.18 10.498-2.335 2.337-4.682 3.478-7.018 3.478l-1.16 11.72 52.55 3.48 1.16-11.658c-2.337-1.168-4.674-2.373-8.18-3.542-1.167-.584-1.99-1.408-2.575-2.576-.584-1.168-.9-2.69-.9-4.444 0-1.168.316-2.596.9-4.057.584-1.46 1.408-2.95 2.576-4.12l36.26-74.77 95.763 5.86 29.238 74.77c2.337 7.01 3.478 11.695 3.478 15.2 0 2.336-1.142 3.53-3.478 4.7 0 1.17-2.347 1.15-7.02 2.32l-1.16 11.656 60.73 3.542 1.16-10.562c-5.84-1.168-9.31-4.656-12.815-10.497-1.17-2.338-2.356-7.03-5.86-14.04l-86.427-234.807-25.76-1.16zm331.86 5.86l-65.434 1.16v11.657c7.01 1.166 11.648 2.362 12.816 4.7 2.336 1.167 3.542 5.814 3.542 11.656v5.86l-39.736 1.16c-26.872 0-47.9 5.842-66.592 16.357-21.03 12.852-31.556 32.72-31.556 57.253 1.168 21.03 9.33 39.737 26.855 56.094 12.852 14.02 32.727 26.84 56.093 37.353 12.852 5.842 32.71 12.872 58.413 22.22v4.635c1.17 8.178.014 14.022-1.16 16.36-1.167 2.335-5.87 4.68-12.88 7.018v10.562l65.433-1.224-1.16-10.497c-7.01-2.337-11.647-4.683-12.815-7.02-1.17-2.336-2.383-7.01-2.383-16.358v-4.64c24.534-9.345 44.4-17.526 57.253-24.536 24.534-12.85 43.25-25.724 54.934-38.576 16.356-17.526 24.537-36.215 24.537-58.413-1.17-24.534-12.837-43.242-35.035-56.093-17.524-9.347-39.784-13.984-66.655-12.816h-39.67c0-8.178 1.15-14.02 2.32-16.358.582-1.168 2.058-2.374 4.25-3.542 2.19-1.168 5.124-2.31 8.63-3.478v-10.497zm-326 37.354l33.874 89.968-75.93-4.637 42.055-85.33zm344.674 19.9c19.86 0 36.232 2.337 47.914 8.178 16.356 8.178 24.536 20.988 24.536 38.512 0 16.357-5.898 30.418-17.58 44.437-9.348 9.347-23.362 19.818-42.055 30.333-12.85 7.01-26.857 12.89-43.213 19.9l-2.32-140.2 32.717-1.16zm-67.75 1.16l3.478 140.2c-17.525-5.84-32.69-11.675-44.373-17.517-17.525-9.348-31.54-18.725-42.055-29.24-12.85-12.85-19.9-26.866-19.9-42.054 0-4.673.44-8.984 1.352-12.945 2.74-11.883 9.758-20.656 22.026-26.79 11.683-7.01 26.894-10.497 46.755-10.497l32.715-1.16z"/><path class="decor decor-3" fill="#efe2c1" fill-rule="nonzero" d="M1397.356 3669.84c-5.057.254-10.104 1.02-15.07 2.188-19.86 4.674-37.4 17.5-47.914 36.194-7.01 10.515-11.712 22.192-12.88 33.875-2.337 12.85-1.123 25.734 2.382 37.417 7.01 31.544 28 53.74 54.87 66.59 29.208 14.02 65.426 18.65 99.307 13.976 43.23-5.84 78.318-25.652 119.21-47.85 40.89-21.03 86.403-46.766 147.155-61.954-4.673 5.84-8.152 11.666-11.656 18.676-8.18 12.852-11.704 28.08-14.04 44.437-1.17 14.02.027 29.183 4.7 44.37 8.18 25.703 25.717 45.57 47.915 57.253 14.02 8.178 33.886 12.853 49.074 16.358 32.71 8.18 64.254 17.53 74.77 49.075 4.672 15.188 3.475 38.568-12.88 47.914-1.17 0-2.366 1.15-4.703 2.32 1.168-3.507 1.224-6.995 1.224-10.5 0-18.69-14.022-33.875-32.715-33.875s-32.716 15.183-32.716 33.875c0 18.694 16.35 37.373 33.874 43.215 10.515 3.504 23.35 4.655 35.034 2.318 5.842-2.336 12.844-4.674 17.518-8.18 30.375-17.523 39.762-56.04 28.078-87.584-10.515-33.883-32.773-50.29-58.476-59.638 9.346-8.178 17.545-17.5 22.218-28.015 18.693-35.05 9.363-81.763-26.855-101.625-25.702-12.85-74.77-11.698-74.77 26.855 0 18.693 15.184 33.876 33.876 33.876 15.188 0 26.884-10.518 31.557-24.537 12.85 12.85 13.974 33.886 5.796 49.074-5.84 10.515-15.173 18.705-26.856 23.378-17.525 4.673-31.56 2.318-47.915-5.86-14.02-7.01-24.5-19.847-29.175-35.035-3.504-10.514-4.71-22.2-3.54-32.715 1.167-10.515 4.728-21.05 9.4-30.398 14.02-25.702 37.338-39.69 64.21-45.53 32.712-8.18 71.286-2.365 105.166 11.655 19.86 8.178 37.365 21.07 52.55 36.258 7.01 7.01 14.06 13.976 19.903 22.154-11.684 21.03-21.014 42.066-26.856 65.432-10.514 40.89-9.383 84.146 4.637 120.363 7.01 14.02 15.18 27.99 25.696 39.672v50.297c-12.852 5.842-20.996 16.35-20.996 33.875s17.492 37.353 37.353 37.353c21.03 0 38.576-19.827 38.576-37.352 0-17.524-8.217-28.033-19.9-33.875v-50.297c9.347-11.683 17.528-25.652 24.537-39.67 14.02-36.22 15.216-79.477 4.702-120.367-5.842-23.368-14.004-44.404-26.856-65.434 5.842-8.178 12.826-15.144 19.836-22.154 15.188-15.188 32.69-28.08 52.55-36.258 35.05-14.02 72.456-19.834 105.17-11.656 26.87 5.84 50.25 19.828 64.27 45.53 4.674 9.347 8.17 19.883 9.34 30.398 1.167 10.514.026 22.2-3.48 32.715-4.672 15.19-15.217 28.026-29.237 35.036-15.188 8.178-30.39 10.533-47.914 5.86-11.68-4.673-21.012-12.863-26.853-23.377-8.18-15.188-6.99-36.223 5.86-49.074 4.673 14.02 17.528 24.537 32.716 24.537 17.524 0 32.716-15.183 32.716-33.876 0-38.553-49.07-39.706-74.77-26.855-36.218 19.862-45.614 66.576-26.92 101.625 4.672 10.515 12.862 19.837 23.377 28.015-26.87 9.347-49.057 25.755-59.572 59.636-10.514 31.543-2.36 70.06 28.015 87.584 5.84 3.505 11.74 5.843 17.58 8.18 11.684 2.336 24.52 1.185 35.035-2.32 17.524-5.84 33.875-24.52 33.875-43.213 0-18.69-14.023-33.875-32.716-33.875s-32.716 15.183-32.716 33.875c0 3.506-.013 6.994 1.16 10.5-2.337-1.17-3.47-2.32-4.637-2.32-16.355-9.346-17.552-32.726-12.88-47.914 10.516-31.544 42.06-40.896 74.77-49.074 16.357-3.505 35.046-8.18 50.234-16.358 21.03-11.683 38.577-31.55 46.756-57.252 4.672-15.188 5.804-30.353 4.635-44.373-1.168-16.358-5.797-31.587-13.975-44.44-3.505-7.01-7.048-12.834-11.72-18.675 61.92 15.188 107.498 40.924 147.22 61.954 40.89 22.197 75.915 42.01 119.143 47.85 33.88 4.672 70.1.044 99.306-13.976 26.87-12.85 47.923-35.047 54.933-66.59 3.505-11.684 4.655-24.567 2.318-37.418-1.167-11.683-5.805-23.36-12.815-33.875-10.515-18.692-28.053-31.52-47.914-36.193-19.86-4.673-40.877-2.344-59.57 9.34-16.357 9.345-25.725 24.537-30.4 40.894-3.503 16.357-1.165 33.877 8.18 50.233 7.01 12.852 19.847 22.192 35.035 25.696 23.366 5.84 57.253-4.668 57.253-33.876 0-18.692-15.183-33.875-33.876-33.875-12.85 0-25.724 9.31-30.397 20.994-3.505-7.01-3.487-13.985-2.32-20.995 2.338-8.18 7.03-15.228 14.04-19.9 10.515-5.84 22.193-6.974 33.876-4.638 10.516 3.506 19.846 9.32 26.856 19.836 3.505 7.01 5.85 14.04 7.02 22.217 1.168 7.01 1.177 15.2-1.16 23.378-4.673 19.86-18.733 33.867-36.257 43.214-23.366 11.68-51.368 14-79.407 10.496-36.217-4.673-68.932-22.184-107.486-43.213-63.088-33.88-139.036-74.79-264.045-80.63-33.88-2.337-68.92 4.665-100.466 17.516-24.534 10.514-46.747 25.743-64.272 44.436-5.84 4.673-10.516 10.517-16.358 16.358-4.673-5.84-9.302-11.685-13.975-16.358-18.692-18.693-40.896-33.922-65.43-44.437-31.545-12.852-66.65-19.854-100.53-17.518-125.01 5.842-200.893 46.75-263.98 80.63-38.555 21.03-71.27 38.54-107.487 43.214-28.04 3.506-56.105 1.186-79.47-10.496-17.526-9.348-31.52-23.354-36.195-43.215-2.337-8.18-2.328-16.37-1.16-23.38 1.168-8.177 3.45-15.207 6.955-22.217 7.01-10.516 16.406-16.33 26.92-19.837 11.683-2.336 23.36-1.204 33.875 4.637 7.01 4.673 11.64 11.722 13.975 19.9 1.168 7.01 1.187 13.985-2.318 20.995-4.673-11.683-16.378-20.995-30.397-20.995-18.693 0-33.876 15.183-33.876 33.875 0 29.208 33.878 39.717 58.413 33.875 14.02-3.504 26.93-12.844 33.94-25.696 10.514-16.356 11.682-33.876 8.178-50.232-4.674-16.357-14.04-31.55-30.398-40.895-14.02-8.762-29.33-12.295-44.5-11.528zm627.46 176.265c5.843 11.683 10.536 24.5 14.04 37.353 8.18 35.05 8.142 70.1-3.542 99.307-3.504 5.84-5.824 11.675-10.497 17.517-3.505-5.842-5.833-11.676-9.338-17.517-11.685-29.208-11.658-64.258-3.48-99.307 3.505-12.852 8.143-25.67 12.816-37.353z"/></svg>