<svg xmlns="http://www.w3.org/2000/svg" class="svg-icon icon-comfort" fill-rule="evenodd" viewBox="0 0 4430.189 2348.291" clip-rule="evenodd" image-rendering="optimizeQuality" shape-rendering="geometricPrecision" text-rendering="geometricPrecision"><defs id="defs3973"><style id="style3975"><![CDATA[
    .fil0 {fill:#FEFEFE;fill-rule:nonzero}
   ]]></style></defs><path id="path3979" fill="#fff" fill-rule="nonzero" d="M0 1693.042l170.44-320.68c-2.525-5.05-5.05-8.838-7.575-12.626-10.1-13.888-15.15-26.513-15.15-36.613 0-18.938 22.725-39.138 65.65-60.6 10.1-3.79 15.15-7.576 17.676-8.84l146.455-285.33h126.252l-119.94 229.78c58.077-39.138 108.578-75.75 148.978-112.364 36.613-32.828 73.226-71.966 111.102-117.417h118.677c-29.038 42.926-53.026 75.75-70.7 95.952-17.676 21.463-39.14 42.926-64.39 65.65-16.412 15.15-36.613 32.827-59.338 50.502-23.988 18.938-49.24 36.613-75.75 55.55-26.514 17.676-53.027 34.09-79.54 50.502-25.25 15.15-51.764 29.037-77.014 42.924-20.2 8.838-30.3 17.676-30.3 23.988 0 8.838 26.513 45.45 80.802 111.102 50.5 60.6 94.69 107.315 132.564 137.615 34.09 29.037 78.277 59.34 133.828 90.9H455.77c-25.25-21.462-42.925-37.875-55.55-50.5-29.04-31.563-69.44-79.54-121.203-145.19l-13.887-20.2-15.15-18.938-119.94 234.83H0zm1065.57-88.377c-23.99 15.15-49.24 21.463-75.753 21.463-12.625 0-29.038-2.525-51.763-6.313-15.15 17.676-29.038 30.3-39.138 37.876-10.1 8.84-22.726 16.415-40.4 25.253-32.827 15.15-65.652 22.725-99.74 22.725-46.714 0-83.327-12.625-108.577-37.876-26.515-25.25-39.14-59.337-39.14-102.263 0-45.45 12.625-87.115 35.35-126.253 22.726-40.4 54.29-70.7 93.427-94.69 39.138-22.725 80.8-34.087 126.252-34.087 37.875 0 70.7 10.1 98.476 30.3 26.513 18.938 40.4 42.926 40.4 71.964 0 15.15-10.1 35.35-29.038 58.076 5.05 11.363 7.575 21.463 7.575 30.3 0 11.363-2.526 25.25-7.576 41.664l17.675 3.787h3.787c15.15 0 39.137-10.1 68.175-30.3v88.376zm-171.705-154.027l2.525-13.888v-2.525c0-8.838-3.787-15.15-12.625-21.463-8.837-6.313-18.938-10.1-31.563-10.1-20.2 0-40.4 7.575-60.6 21.463-18.94 15.15-35.35 34.088-47.977 56.813-11.362 22.726-17.675 47.976-17.675 71.964 0 20.2 5.05 35.35 13.888 46.713 8.837 11.363 21.463 17.675 36.613 17.675 17.677 0 36.615-7.575 58.078-23.987 3.787-1.263 10.1-6.313 21.463-13.888-12.624-17.676-18.937-32.826-18.937-46.713 0-31.563 18.938-59.34 56.813-82.064zm171.704 65.65l40.4-26.512 7.573-5.05c15.15-10.1 32.826-15.15 55.55-15.15 13.89 0 26.514 3.787 35.352 10.1 8.837 6.312 13.888 16.412 13.888 27.775 0 5.05-1.263 11.365-3.788 20.2l2.525-3.785 233.568-175.49 8.837-7.576c13.888-12.626 34.088-18.94 59.34-18.94 15.15 0 27.774 2.526 37.874 8.84 11.36 6.312 16.41 13.887 16.41 23.987 0 15.15-6.31 37.876-20.2 69.44l-22.724 46.712-22.726 44.187 178.017-155.29c29.038-25.25 59.338-37.876 90.9-37.876 15.15 0 27.777 2.526 37.877 8.84 8.838 6.312 13.888 13.887 13.888 23.987 0 7.575-2.525 16.413-8.838 29.038l-89.64 165.39c-2.524 3.788-5.05 6.313-5.05 8.838-1.262 1.262-2.524 3.787-3.787 7.575-5.05 6.313-7.575 11.363-7.575 16.413 0 6.313 2.525 8.84 8.838 8.84 11.363 0 31.563-8.84 63.126-27.777l42.926-25.25 30.3-16.413 6.313-5.05v88.375l-7.575 6.313c-3.788 1.262-10.1 6.313-22.726 12.625-10.1 6.313-22.725 13.888-35.35 21.463-66.914 40.4-118.677 60.6-154.028 60.6-18.938 0-32.826-6.312-44.188-16.412-11.363-11.362-16.413-23.988-16.413-40.4 0-11.363 5.05-27.776 13.888-47.976l31.563-58.076v-1.263l34.088-61.865 2.525-8.838-218.418 189.378-30.3 22.726-17.676 7.576-15.15 7.575c-7.576 5.05-16.413 7.576-26.514 7.576-7.575 0-15.15-3.788-21.462-10.1-6.312-6.313-8.837-13.888-8.837-22.726 0-18.936 6.313-39.137 18.938-60.6l80.803-147.715-249.98 210.84-17.674 13.89c-12.627 10.1-27.777 16.412-45.45 16.412-23.99 0-35.353-12.625-35.353-37.876 0-11.36 2.525-23.985 8.838-40.4 8.837-18.936 15.15-34.086 16.413-45.45l-39.14 22.726.002-88.376zm1491.036 0v92.165c-23.988 13.888-49.24 20.2-77.014 20.2-17.675 0-35.35-2.525-51.764-8.838-8.838 15.15-23.988 29.038-42.926 41.664-20.2 12.623-41.664 23.986-65.65 31.56-23.99 7.576-46.715 11.364-69.44 11.364-15.15 0-29.038-1.263-42.926-3.788-12.625-3.788-21.463-6.313-26.513-7.575-3.787-2.524-8.837-7.574-16.413-15.15l-49.238 128.778-13.888 35.35c-16.412 49.238-35.35 87.113-55.55 116.15-18.94 23.99-41.664 36.614-69.44 36.614-34.087 0-51.763-16.412-51.763-51.763 0-26.513 8.84-56.814 27.777-90.9 8.837-16.414 17.674-30.3 27.774-41.665 10.1-12.625 26.514-31.563 50.5-58.076l11.365-12.626 21.463-58.076c-18.937 15.15-42.925 22.724-70.7 22.724-39.14 0-71.964-12.625-97.215-39.138-25.25-25.25-39.138-58.076-39.138-97.214 0-44.188 12.625-87.114 35.35-126.252 23.99-39.138 54.29-70.7 93.427-94.69 39.138-23.987 80.802-35.35 123.727-35.35 37.876 0 66.914 7.575 88.377 23.988l104.79-267.655c18.937-46.712 34.087-78.275 46.712-94.69 12.625-16.41 27.775-23.986 45.45-23.986 25.25 0 36.613 16.413 36.613 49.24 0 15.15-1.262 29.037-5.05 41.662-11.362 50.5-25.25 88.376-39.138 116.152l-31.563 70.7-10.1 21.464-47.976 92.164c12.625-11.363 23.988-20.2 35.35-23.988 10.1-3.787 23.99-6.312 41.664-6.312 34.09 0 63.127 10.1 87.115 31.563 23.988 20.2 35.35 44.19 35.35 74.49 0 17.674-8.837 36.612-29.037 56.812 5.05 8.838 6.312 21.463 6.312 36.613 0 13.888-1.262 26.513-6.312 36.613 12.625 1.262 20.2 2.524 22.725 2.524 10.1 0 21.463-2.525 34.088-10.1 13.89-6.312 23.99-13.888 32.828-22.725zm-210.84 65.652c-11.364-17.675-16.414-34.088-16.414-47.976 0-35.35 17.675-61.864 55.55-82.064 3.788-3.788 5.05-10.1 5.05-18.938 0-7.575-3.787-15.15-11.362-21.463-8.837-6.314-18.937-10.1-30.3-10.1-21.462 0-41.663 6.31-59.338 17.674-17.675 12.625-31.563 27.775-40.4 47.975l-27.776 71.963c-2.525 10.1-3.788 20.2-3.788 26.513 0 15.15 5.05 27.776 15.15 37.876 10.1 11.362 22.726 16.413 36.614 16.413 12.625 0 25.25-2.525 40.4-10.1 13.888-7.576 26.513-16.413 36.614-27.776zm-237.356-21.463l27.777-69.44c6.313-16.412 8.838-30.3 8.838-39.137 0-13.888-5.05-25.25-13.888-32.825-10.1-8.838-21.463-13.888-35.35-13.888-16.414 0-32.826 5.05-49.24 15.15-15.15 8.838-29.037 22.726-40.4 40.4-22.725 31.564-34.088 64.39-34.088 97.215 0 17.675 5.05 31.563 15.15 44.188 10.1 11.363 22.724 17.676 37.874 17.676 36.613 0 64.39-20.2 83.326-59.34zm897.655 44.188c-23.99 15.15-49.24 21.463-75.752 21.463-12.625 0-29.038-2.525-51.763-6.312-15.15 17.675-29.038 30.3-39.138 37.875-10.1 8.84-23.988 16.415-40.4 25.253-32.827 15.15-66.915 22.725-101.003 22.725-46.715 0-82.066-12.625-108.58-37.876-25.25-25.25-37.874-59.337-37.874-102.263 0-45.45 11.362-87.115 35.35-126.253 22.726-40.4 54.29-70.7 93.427-94.69 39.138-22.725 80.8-34.087 126.252-34.087 37.876 0 70.7 10.1 97.214 30.3 27.775 18.938 40.4 42.926 40.4 71.964 0 15.15-8.838 35.35-27.776 58.076 5.05 11.363 7.576 21.463 7.576 30.3 0 11.363-2.524 25.25-7.575 41.664l17.676 3.787h3.79c15.15 0 37.875-10.1 68.176-30.3v88.376zm-171.703-154.027l2.525-13.888v-2.525c0-8.838-3.788-15.15-12.626-21.463-8.835-6.313-20.2-10.1-31.56-10.1-20.2 0-41.664 7.575-60.6 21.463-20.2 15.15-35.35 34.088-47.978 56.813-11.36 22.726-17.674 47.976-17.674 71.964 0 20.2 5.05 35.35 13.888 46.713 8.838 11.363 21.463 17.675 36.613 17.675 17.674 0 36.612-7.575 58.075-23.987 3.787-1.263 10.1-6.313 21.463-13.888-12.625-17.676-18.938-32.826-18.938-46.713 0-31.563 18.938-59.34 56.813-82.064zm800.438 154.027c-40.4 26.513-73.226 46.713-99.74 58.076-42.925 20.203-82.063 30.303-113.626 30.303-16.413 0-36.613-3.788-61.863-10.1-26.51 11.362-50.5 17.675-71.962 17.675-20.2 0-37.876-6.313-51.764-17.675-15.15-12.626-22.725-26.513-22.725-44.19 0-8.836 3.787-15.15 11.362-18.937 7.576-3.787 20.2-6.312 39.14-6.312 10.1 0 22.724 0 37.875 1.262l8.837 1.263c36.613-29.04 64.39-56.815 85.852-84.59 30.3-40.4 44.188-73.226 44.188-99.74 0-6.312-1.263-12.624-5.05-17.674-5.05-3.788-10.1-6.313-16.413-6.313-15.15 0-36.613 10.1-65.65 30.3-29.04 21.463-56.814 46.714-84.59 77.014-78.276 89.64-132.565 213.366-161.603 371.182-7.575 39.137-16.413 64.387-25.25 77.013-12.625 21.462-31.563 31.563-55.55 31.563-13.89 0-26.514-3.788-35.352-13.888-8.838-8.838-13.888-21.463-13.888-35.35 0-18.94 10.1-58.077 29.04-116.153 12.624-39.138 25.25-73.226 36.612-102.264 11.36-30.3 23.987-61.863 37.874-93.426 13.888-32.825 34.088-77.014 60.6-135.09-27.774 25.25-44.187 37.876-47.974 41.664-1.264 1.262-5.052 3.787-12.627 10.1-7.575 5.05-12.625 10.1-16.412 12.625-11.36 7.575-18.936 13.888-22.724 16.413-3.787 3.787-16.413 12.625-35.35 25.25v-88.376c18.937-12.626 32.825-22.727 42.925-30.302 10.1-6.312 20.2-13.888 29.04-20.2 10.1-7.575 18.937-13.888 27.775-20.2 6.312-3.788 11.362-7.576 17.675-12.626 5.05-5.05 11.362-10.1 17.674-13.887 13.888-11.363 32.826-26.513 56.814-47.976l13.888-41.666 88.376-5.05-35.35 95.952c23.987-29.038 46.713-50.5 66.913-63.126 35.35-25.25 73.226-37.875 113.627-37.875 30.3 0 56.813 8.838 78.276 29.038 21.463 18.938 31.564 41.664 31.564 69.44 0 34.087-12.626 70.7-37.876 109.838-15.15 22.728-36.613 49.24-64.39 77.016 22.727-5.05 45.452-11.362 66.915-20.2 11.365-5.05 22.727-10.1 35.353-17.675 26.512-13.887 53.025-30.3 79.538-50.5v88.376zm795.39 0c-47.977 32.826-89.64 56.814-122.466 73.226-37.875 17.678-71.963 27.778-101 27.778-16.414 0-29.04-6.313-40.402-16.413-11.363-10.1-16.413-22.725-16.413-36.613 0-11.362 3.786-25.25 12.624-42.925l3.787-7.575 68.177-137.615-238.616 198.216-3.787 3.79c-3.788 2.524-6.313 5.05-6.313 6.31-25.25 21.464-42.924 32.827-55.55 32.827-11.362 0-20.2-3.788-26.512-8.838-6.313-6.313-10.1-12.626-10.1-21.464 0-5.05 1.262-12.625 2.524-22.725l2.525-7.574c1.263-3.79 2.525-7.576 3.788-8.84 2.525-3.786 6.313-11.362 11.363-23.987l73.226-147.715-229.78 194.43c-2.524 2.524-5.05 3.786-6.312 6.31-2.525 2.526-5.05 3.79-6.312 5.05-26.513 22.727-46.714 35.352-61.864 35.352-10.1 0-18.938-3.788-26.513-10.1-6.312-6.313-8.837-15.15-8.837-25.25 0-20.2 8.837-46.714 26.512-79.54 2.526-5.05 5.05-8.837 6.313-12.625l2.527-3.787c-5.05 3.787-17.675 12.625-36.613 25.25l-11.363 5.05v-88.376l30.3-22.727 32.827-25.25 31.564-26.513 51.764-47.976 31.563-58.076 101.002-3.788-68.177 143.928 150.24-112.364c15.15-11.363 29.038-21.463 41.663-29.04 13.888-7.574 30.3-11.36 50.5-11.36 16.413 0 29.04 2.524 37.876 8.836 10.1 6.313 15.152 13.888 15.152 25.25 0 15.15-12.626 46.714-36.614 92.165-6.312 12.625-11.362 21.463-13.887 26.513l162.866-118.677c20.2-15.15 36.612-23.987 46.712-29.037 11.362-5.05 23.987-7.575 37.875-7.575 17.675 0 30.3 2.526 40.4 8.838 10.1 6.313 15.15 15.15 15.15 26.513 0 7.577-3.787 20.2-12.624 37.877l-90.9 170.44c-1.263 1.263-1.263 1.263-1.263 2.525-5.05 7.575-7.575 13.887-7.575 18.937 0 3.787 1.262 6.312 6.312 6.312 5.05 0 11.363-2.525 17.675-6.313 41.663-18.94 82.063-42.926 124.99-69.44v88.376z" class="fil0"/><path id="path3981" fill="#fff" fill-rule="nonzero" d="M1165.308 2171.537c0-18.937-7.575-32.825-21.463-41.663-13.888-8.837-32.826-13.887-59.34-13.887H991.08v228.516c5.05-1.263 10.1-1.263 13.887-1.263 5.05-1.262 10.1-1.262 15.15-1.262 3.788 0 8.838 0 13.888 1.262 3.788 0 8.838 0 13.888 1.263V2243.5c16.413 0 32.826 0 46.713-2.524 13.888-2.525 26.513-5.05 37.876-11.363 10.1-5.05 17.675-11.362 23.988-21.462 5.05-8.836 8.838-21.46 8.838-36.612zm-59.34 6.313c0 7.575 0 13.888-2.524 18.938-2.525 6.313-6.313 12.625-11.363 16.413-5.05 5.05-11.36 7.577-18.935 10.1-3.788 1.264-8.838 1.264-12.626 1.264-3.788 1.263-8.838 1.263-12.626 1.263v-92.164h23.988c6.314 0 11.364 2.525 17.676 5.05 5.05 3.788 8.838 8.838 12.626 16.413 2.525 6.312 3.787 13.887 3.787 22.725zm335.832 164.128c0-2.525 0-3.788-1.263-6.313v-15.15c1.263-2.525 1.263-5.05 1.263-6.313-7.575 0-15.15 1.263-23.988 1.263-8.838 1.262-17.675 1.262-27.776 2.525h-35.35v-84.59h39.138c8.838 0 17.675 1.264 25.25 1.264 7.576 1.262 15.15 1.262 21.463 2.525 0-2.527 0-5.05-1.262-7.578v-13.887c1.262-2.525 1.262-5.05 1.262-7.575-6.312 1.263-13.887 1.263-21.462 2.526h-64.39v-70.702h35.352c10.1 0 18.937 1.263 27.775 1.263 8.838 1.263 16.413 2.525 23.988 3.788 0-2.525 0-5.05-1.263-7.576v-13.889c1.263-2.524 1.263-5.05 1.263-7.574h-143.928v225.99H1441.8zm352.244-215.89c-7.576-3.79-15.15-6.314-23.988-8.84-8.838-2.524-17.676-3.787-26.513-5.05-10.1-1.262-17.676-2.524-26.513-2.524-16.413 0-32.826 1.262-46.714 5.05-15.15 2.525-29.038 7.575-41.663 15.15-12.625 6.313-23.988 13.888-32.825 23.988-8.838 10.1-16.413 22.726-21.463 35.35-5.05 13.89-7.575 29.04-7.575 46.714 0 13.888 2.525 26.513 7.575 37.876 3.787 11.363 10.1 22.725 18.938 31.563 8.837 8.838 18.937 16.413 30.3 22.725 12.625 6.313 25.25 11.363 39.138 15.15 15.153 3.788 30.303 5.05 45.453 5.05 13.888 0 26.513-1.262 39.138-3.787 12.626-1.263 23.99-5.05 36.614-10.1l7.575-29.038-5.05-2.525c-5.05 5.05-11.363 10.1-18.938 13.887-7.575 3.788-16.412 6.313-23.987 8.838-8.838 1.263-16.413 2.525-23.988 2.525-15.15 0-27.776-2.525-39.138-6.312-11.364-5.05-20.2-11.363-27.777-20.2-7.574-8.838-13.887-18.94-17.674-30.3-3.79-12.627-5.05-25.252-5.05-39.14 0-10.1 0-20.2 2.524-30.3 2.526-8.838 5.05-18.938 10.1-26.513 3.79-8.838 10.1-16.413 16.414-23.988 7.575-6.312 15.15-11.363 25.25-15.15 10.1-3.788 20.2-6.313 32.826-6.313 8.837 0 16.413 1.263 23.988 3.788 7.575 2.525 15.15 6.312 21.462 11.363 7.576 3.787 12.626 8.837 17.676 15.15h5.05c1.262-5.05 2.525-11.363 5.05-16.413 1.262-6.313 2.525-11.363 3.788-17.675zm310.58 17.674c0-2.525-1.263-3.788-1.263-6.313V2122.297c0-1.263 1.265-3.788 1.265-6.313h-194.428c0 2.525 1.262 5.05 1.262 6.312 0 2.524 1.26 5.05 1.26 7.574 0 2.526-1.26 5.05-1.26 7.576 0 2.524-1.263 3.787-1.263 6.312 10.1-1.262 20.2-2.525 32.825-2.525 11.364-1.263 23.99-1.263 37.877-1.263v204.53c3.786-1.264 8.836-1.264 13.887-1.264 5.05-1.262 8.837-1.262 13.887-1.262 5.05 0 10.1 0 13.888 1.262 5.05 0 10.1 0 15.15 1.263v-204.53c11.363 0 22.726 0 34.088 1.263 10.1 0 21.463 1.263 32.826 2.525zm385.07 84.59c0-8.84 0-17.676-2.526-26.514-2.525-8.838-5.05-18.938-8.838-27.776-5.05-8.837-10.1-16.412-17.675-23.987-7.575-7.575-16.413-15.15-26.513-21.463-10.1-5.05-21.463-10.1-36.613-13.888-13.89-2.525-29.04-5.05-46.715-5.05-18.938 0-36.613 2.525-51.764 6.313-15.15 3.787-29.037 10.1-41.662 16.412-11.364 7.573-22.726 16.41-30.302 26.51-8.837 10.1-15.15 20.2-18.937 32.827-3.788 11.362-6.313 23.988-6.313 37.875 0 18.938 3.788 35.35 10.1 50.5 6.313 15.152 16.413 26.514 27.776 36.614 12.625 10.1 27.775 18.938 44.188 23.988 17.676 5.05 36.614 7.575 58.077 7.575 17.675 0 35.35-2.526 50.5-6.313 15.15-3.788 29.04-10.1 41.664-17.675 11.364-7.576 21.464-15.15 30.3-25.25 8.84-10.1 15.15-21.464 18.94-32.826 5.05-12.626 6.312-25.25 6.312-37.876zm-61.865-6.313c0 11.36-1.264 21.46-3.79 31.56-1.262 11.363-5.05 20.2-8.837 29.04-5.05 10.1-10.1 17.674-17.675 23.986-6.314 7.576-13.89 12.626-22.726 16.413-10.1 3.787-20.2 5.05-31.564 5.05-11.362 0-21.462-1.263-30.3-5.05-8.838-2.526-15.15-7.576-21.463-13.888-6.312-5.05-11.363-12.626-15.15-20.2-3.788-7.576-7.575-15.15-8.838-23.99-2.526-8.836-2.526-16.412-2.526-25.25 0-25.25 2.526-45.45 10.1-61.863 6.314-16.414 15.15-27.776 27.777-36.614 12.625-7.575 27.775-11.363 45.45-11.363 11.363 0 21.463 1.263 30.3 5.05 8.84 3.788 15.15 8.838 21.464 15.15 6.314 6.313 11.364 12.626 16.414 21.464 3.787 7.575 6.312 15.15 8.837 23.988 1.264 8.837 2.526 17.675 2.526 26.513zm373.705-50.503c0-18.938-6.313-32.826-20.2-41.664-13.888-8.837-34.088-13.887-60.6-13.887h-92.166v228.516c3.787-1.263 8.837-1.263 13.887-1.263 5.05-1.263 8.838-1.263 13.888-1.263 5.05 0 10.1 0 13.888 1.262 5.05 0 10.1 0 15.15 1.262V2243.5c16.413 0 32.825 0 46.713-2.524 13.888-2.525 26.513-5.05 36.613-11.363 10.1-5.05 18.937-11.362 23.987-21.462 6.313-8.836 8.838-21.46 8.838-36.612zm-58.076 6.312c0 7.574-1.264 13.887-3.79 18.937-1.26 6.313-5.05 12.625-10.1 16.413-5.05 5.05-11.362 7.576-20.2 10.1-3.787 1.263-7.574 1.263-11.362 1.263-5.05 1.263-8.84 1.263-12.626 1.263v-92.164h22.725c6.312 0 12.625 2.525 17.675 5.05 5.05 3.788 10.1 8.838 12.625 16.413 3.787 6.312 5.05 13.887 5.05 22.725zm385.07 166.652L3022.475 2112.2c-1.262 1.262-3.787 1.262-6.312 1.262h-15.152c-1.262 0-3.787 0-6.312-1.263l-108.577 231.04h8.837c3.788-1.263 6.313-1.263 10.1-1.263 2.526 0 5.05 0 8.838 1.262h8.838l7.575-22.726c2.526-6.312 5.05-13.888 8.84-21.463 2.525-7.574 6.312-16.412 10.1-23.987h87.114c5.05 10.1 10.1 21.463 13.888 32.826 5.05 11.362 8.837 23.987 12.625 36.612 6.313-1.263 11.363-1.263 16.413-1.263 6.313-1.263 11.363-1.263 16.414-1.263 6.312 0 11.362 0 16.412 1.262 5.05 0 11.363 0 16.413 1.262zm-101.004-90.902h-68.176l35.352-77.012 32.825 77.013zm457.033 90.903v-228.516c-5.05 0-10.1 0-15.15 1.262h-27.777c-5.05-1.264-10.1-1.264-13.887-1.264v89.64c-10.1 1.26-20.2 1.26-29.038 1.26-10.1 0-18.94 1.264-29.04 1.264-10.1 0-18.937-1.262-29.037-1.262-10.1 0-18.937 0-29.037-1.262v-89.64c-5.05 0-8.838 0-13.888 1.263h-27.778c-5.05-1.264-10.1-1.264-15.15-1.264v228.516c5.05-1.263 10.1-1.263 15.15-1.263 3.79-1.263 8.84-1.263 13.89-1.263 3.787 0 8.837 0 13.887 1.262 5.05 0 8.837 0 13.888 1.262V2232.14c10.1 0 18.938 0 29.038-1.264h58.078c8.836 1.263 18.937 1.263 29.037 1.263V2344.5c3.787-1.263 8.837-1.263 13.887-1.263 5.05-1.263 8.838-1.263 13.888-1.263 5.05 0 10.1 0 13.888 1.262 5.05 0 10.1 0 15.15 1.262z" class="fil0"/><path id="path3983" fill="#fff" fill-rule="nonzero" d="M2220.776 599.698c-1.263 0-2.525-2.525-2.525-3.788-3.786-10.1-7.573-16.412-13.886-22.725-5.05-5.05-8.838-10.1-13.888-15.15-20.2-22.726-26.513-53.026-18.938-83.327l7.576-26.513c3.787-12.625 7.575-25.25 8.837-37.875 1.264-6.313 1.264-11.363 1.264-17.676 0-2.525-8.838-2.525-10.1 1.263-1.263 5.05-2.525 11.363-3.788 16.413-3.788 12.625-7.575 25.25-13.888 37.875-6.312 8.838-12.625 17.676-21.463 25.25-16.412 15.15-41.663 21.464-61.863 10.1-32.825-17.674-27.775-59.338-3.787-73.225 2.525-1.263 3.788-2.525 7.575-2.525v2.525c-1.262 8.837 0 18.937 8.838 25.25 11.363 6.313 25.25 5.05 35.35-2.525 5.05-6.313 10.1-15.15 13.888-22.725 2.526-7.576 3.788-13.888 3.788-17.676-1.262-3.787-16.413 0-22.725-5.05-5.05-3.787-7.577-8.837-6.314-15.15 0-1.263 1.263-3.788 2.525-5.05 7.575-11.363 25.25-3.788 26.513-10.1 1.263-2.525-1.262-11.363-6.313-21.463-6.313-13.886-18.938-30.3-39.14-32.824-10.1-1.262-20.2 1.263-29.037 7.575-7.575 6.314-12.625 15.15-12.625 25.25 0 3.79 0 7.577 1.263 12.627-6.31 3.788-29.036-2.525-42.924-12.625-1.263-1.262 0 0 0 0-11.363-10.1-21.463-22.725-26.513-37.875-1.263-3.787-1.263-7.575-2.525-12.625-3.788-32.826 12.625-65.65 42.926-79.54 16.412-7.574 32.825-10.1 51.763-7.574 18.938 3.788 35.35 13.888 49.238 26.513 20.2 18.938 30.3 45.45 40.4 70.7 0 1.264 0 2.526 1.263 2.526 3.788 12.625 6.313 25.25 7.576 37.876 1.262 7.576 2.525 15.15 2.525 21.464 0 2.525 8.836 2.525 8.836-1.263 0-6.31 0-13.887-1.262-20.2-1.263-12.624-3.788-25.25-7.575-37.875-8.84-29.038-21.464-56.813-32.827-84.59-7.575-18.937-12.625-37.874-12.625-58.075 0-16.413 6.313-32.825 15.15-47.976 11.363-20.2 30.3-31.563 44.188-50.5 12.626-15.15 17.676-34.09 22.726-54.29 0-1.26 1.263-2.524 2.526-2.524 1.262 0 2.525 1.263 2.525 2.525 5.05 20.2 10.1 39.138 22.726 54.288 13.887 18.938 32.825 30.3 44.19 50.5 8.835 15.152 15.15 31.564 15.15 47.977 0 20.2-5.05 39.138-12.627 58.076-11.363 27.775-25.25 55.55-32.826 84.59-3.788 12.623-6.313 25.25-7.575 37.874-1.264 6.313-1.264 13.89-1.264 20.2 0 3.79 8.838 3.79 8.838 1.264 0-6.313 1.262-13.888 2.525-21.463 1.263-12.624 3.788-25.25 7.575-37.875 1.263 0 1.263-1.262 1.263-2.525 10.1-25.25 20.2-51.763 40.4-70.7 13.888-12.626 30.3-22.726 49.24-26.514 18.937-2.524 35.35 0 51.762 7.576 30.3 13.89 46.713 46.714 42.925 79.54-1.263 5.05-1.263 8.838-2.525 12.625-5.05 15.15-15.15 27.777-26.513 37.877 0 0 0-1.262 0 0-13.888 10.1-36.613 16.414-42.926 12.626 1.265-5.05 1.265-8.838 1.265-12.625 0-10.1-5.05-18.937-12.625-25.25-8.84-6.312-18.94-8.837-29.04-7.575-20.2 2.525-32.825 18.938-40.4 32.826-3.788 10.1-6.313 18.94-5.05 21.463 1.262 6.312 18.937-1.263 26.513 10.1 1.262 1.262 2.525 3.787 2.525 5.05 1.262 6.313-1.263 11.363-6.313 15.15-6.313 5.05-21.463 1.263-22.725 5.05 0 3.788 1.262 10.1 3.787 17.676 3.788 7.574 7.575 16.41 13.888 22.724 10.1 7.575 23.988 8.838 35.35 2.525 7.576-6.314 10.1-16.414 8.838-25.25v-2.526c3.788 0 5.05 1.262 7.575 2.525 23.988 13.886 29.038 55.55-3.787 73.225-20.2 11.363-45.45 5.05-61.862-10.1-8.837-7.575-15.15-16.413-21.463-25.25-6.312-12.626-10.1-25.25-13.887-37.876-1.263-5.05-2.525-11.364-3.788-16.414-1.264-3.788-10.1-3.788-10.1-1.263 0 6.313 0 11.363 1.26 17.676 1.264 12.624 5.05 25.25 8.84 37.874l7.574 26.513c7.575 30.3 1.263 60.6-18.938 83.327-5.05 5.05-8.837 10.1-13.887 15.15-6.315 6.313-10.103 12.625-13.89 22.725 0 1.262-1.263 3.787-2.525 3.787z" class="fil0"/><path id="path3985" fill="#fff" fill-rule="nonzero" d="M1888.733 977.192s-1.263-3.788-2.525-3.788c-3.788-10.1-6.313-16.412-13.888-23.988-5.05-3.787-8.838-8.837-12.625-13.887-21.463-23.99-26.513-54.29-18.938-84.59 1.262-8.84 3.787-17.677 6.312-26.514 3.786-12.625 7.574-23.988 8.836-36.613 1.263-6.313 1.263-11.363 1.263-17.676 0-3.787-8.84-2.525-8.84 0-1.262 6.313-3.787 11.363-5.05 17.676-2.524 12.625-7.574 25.25-13.887 36.613-5.05 10.1-12.625 18.938-21.463 26.513-16.412 13.886-40.4 21.462-61.862 10.1-32.826-17.676-26.513-59.34-3.788-73.227 2.525-1.263 5.05-2.525 7.575-2.525v2.524c0 8.837 1.263 18.937 10.1 23.988 10.1 7.575 25.25 6.312 34.09-2.526 6.31-5.05 11.36-13.887 13.886-21.462 3.79-7.576 5.05-15.15 3.79-17.676 0-3.787-15.15 0-22.726-5.05-5.05-3.787-6.312-8.837-5.05-15.15 0-2.525 1.263-3.788 2.525-6.313 6.312-10.1 23.987-2.525 25.25-8.837 1.262-2.525 0-11.363-5.05-21.463-6.313-13.888-18.938-30.3-40.4-32.826-10.1-1.263-20.2 1.262-27.776 7.574-8.838 6.314-12.626 15.15-13.888 25.25 0 3.79 1.262 7.577 1.262 12.627-5.05 3.788-27.775-2.525-42.925-13.888 0 0 1.262 1.262 0 0-11.363-8.838-21.463-22.726-25.25-36.614-1.263-3.788-2.526-8.838-2.526-12.626-3.787-32.826 12.625-65.65 41.663-79.54 16.412-7.574 34.088-11.362 51.763-7.574 20.2 3.788 35.35 12.625 49.238 26.513 20.2 18.937 30.303 44.187 40.403 70.7 0 0 1.262 1.263 1.262 2.525 3.788 12.624 6.313 25.25 8.838 37.875 0 7.575 1.262 15.15 2.525 21.463 0 2.525 7.575 1.262 7.575-1.263v-20.2l-7.575-37.876c-8.838-29.04-22.725-56.814-34.088-84.59-7.576-18.938-12.626-37.875-12.626-58.076 0-17.675 7.575-32.825 15.15-49.238 11.363-20.2 30.3-31.563 44.188-49.238 13.888-16.413 18.938-35.35 22.726-55.55 0-1.264 2.525-1.264 2.525-1.264 1.262 0 2.525 0 3.787 1.263 3.788 20.2 8.838 39.14 21.463 55.55 15.15 17.677 34.088 29.04 44.188 49.24 8.84 16.413 15.153 31.563 16.415 49.238 0 20.2-5.05 39.138-12.625 58.076-12.626 27.776-25.252 55.55-34.09 84.59-3.787 12.624-6.312 25.25-7.574 37.875 0 6.31-1.263 13.887-1.263 20.2 0 2.524 8.838 3.787 8.838 1.262 1.264-6.313 1.264-13.888 2.527-21.463 2.525-12.626 5.05-25.25 8.838-37.877 0-1.263 0-2.526 1.262-2.526 10.1-26.513 18.938-51.763 40.4-70.7 13.89-13.89 29.04-22.726 49.24-26.514 17.675-3.788 35.35 0 50.5 7.575 30.3 13.888 46.713 46.713 42.926 79.54 0 3.787-1.263 8.837-2.525 12.624-5.05 13.887-13.888 27.775-26.513 36.612 0 1.263 1.262 0 0 0-13.888 11.363-36.613 17.676-42.926 13.888 1.262-5.05 1.262-8.838 1.262-12.625 0-10.1-3.787-18.938-12.625-25.25-8.837-6.313-17.675-8.838-29.038-7.576-20.2 2.525-32.826 18.938-39.14 32.826-5.05 10.1-6.312 18.938-6.312 21.463 2.525 6.31 20.2-1.264 26.512 8.836 1.262 2.525 2.525 3.788 2.525 6.313 1.262 6.312-1.263 11.362-5.05 15.15-7.576 5.05-22.726 1.262-23.988 5.05 0 2.524 1.262 10.1 5.05 17.675 2.525 7.575 7.575 16.412 12.625 21.462 10.1 8.838 25.25 10.1 35.35 2.526 8.838-5.05 10.1-15.15 10.1-23.988v-2.525c2.526 0 5.05 1.26 7.576 2.524 22.725 13.887 29.038 55.55-5.05 73.226-20.2 11.363-44.19 3.787-61.864-10.1-8.837-7.575-15.15-16.413-20.2-26.513-6.313-11.363-11.363-23.988-13.888-36.613-2.525-6.313-3.788-11.363-5.05-17.676 0-2.525-8.838-3.787-8.838 0v17.676c2.525 12.625 5.05 23.988 8.838 36.613 2.525 8.837 6.312 17.675 7.575 26.513 7.577 30.3 1.265 60.6-18.936 84.59-3.787 5.05-8.837 10.1-12.625 13.886-7.576 7.576-10.1 13.888-15.15 23.988 0 0-1.264 3.788-2.526 3.788z" class="fil0"/><path id="path3987" fill="#fff" fill-rule="nonzero" d="M2552.82 977.192c-1.263 0-2.526-3.788-2.526-3.788-5.05-10.1-7.575-16.412-15.15-23.988-3.788-3.787-8.838-8.837-12.625-13.887-20.203-23.99-26.515-54.29-18.94-84.59 1.262-8.84 5.05-17.677 7.575-26.514 3.788-12.625 6.313-23.988 8.838-36.613v-17.676c0-3.787-8.838-2.525-8.838 0-1.263 6.313-2.525 11.363-5.05 17.676-2.525 12.625-7.575 25.25-13.888 36.613-5.05 10.1-11.363 18.938-20.2 26.513-17.676 13.886-41.664 21.462-61.864 10.1-34.088-17.676-27.775-59.34-5.05-73.227 2.525-1.263 5.05-2.525 7.575-2.525v2.524c0 8.837 1.262 18.937 10.1 23.988 10.1 7.575 25.25 6.312 35.35-2.526 5.05-5.05 10.1-13.887 12.625-21.462 3.788-7.576 5.05-15.15 5.05-17.676-1.262-3.787-16.412 0-23.988-5.05-3.787-3.787-6.312-8.837-5.05-15.15 0-2.525 1.263-3.788 2.525-6.313 6.313-10.1 23.988-2.525 26.513-8.837 0-2.525-1.262-11.363-6.312-21.463-6.312-13.888-18.937-30.3-39.14-32.826-11.36-1.263-21.46 1.262-29.036 7.574-8.837 6.314-12.625 15.15-12.625 25.25 0 3.79 0 7.577 1.263 12.627-6.313 3.788-29.038-2.525-42.926-13.888-1.262 0 0 1.262 0 0-12.625-8.838-22.725-22.726-26.513-36.614-1.262-3.788-2.525-8.838-2.525-12.626-3.788-32.826 12.624-65.65 42.925-79.54 15.15-7.574 32.825-11.362 50.5-7.574 20.2 3.788 35.35 12.625 49.24 26.513 21.462 18.937 30.3 44.187 40.4 70.7 1.262 0 1.262 1.263 1.262 2.525 3.788 12.624 6.313 25.25 8.838 37.875 1.263 7.575 1.263 15.15 2.525 21.463 0 2.525 8.84 1.262 8.84-1.263 0-6.312-1.264-13.888-1.264-20.2-1.262-12.625-3.787-25.25-7.575-37.876-8.836-29.04-21.46-56.814-34.086-84.59-7.575-18.938-12.625-37.875-12.625-58.076 1.26-17.675 7.574-32.825 16.41-49.238 10.1-20.2 29.04-31.563 44.19-49.238 12.625-16.413 17.675-35.35 21.463-55.55 1.262-1.264 2.525-1.264 3.787-1.264 0 0 2.524 0 2.524 1.263 3.788 20.2 8.838 39.14 22.725 55.55 13.886 17.677 32.824 29.04 44.187 49.24 7.575 16.413 15.15 31.563 15.15 49.238 0 20.2-5.05 39.138-12.625 58.076-11.363 27.776-25.25 55.55-34.088 84.59-2.525 12.624-6.313 25.25-7.575 37.875v20.2c0 2.524 7.574 3.787 7.574 1.262 1.262-6.313 2.525-13.888 2.525-21.463 2.524-12.626 5.05-25.25 8.836-37.877 0-1.263 1.263-2.526 1.263-2.526 10.1-26.513 20.2-51.763 40.4-70.7 13.887-13.89 29.04-22.726 49.24-26.514 17.673-3.788 35.35 0 51.76 7.575 29.04 13.888 45.45 46.713 41.665 79.54 0 3.787-1.263 8.837-2.525 12.624-3.787 13.887-13.887 27.775-25.25 36.612-1.262 1.263 0 0 0 0-15.15 11.363-37.875 17.676-42.926 13.888 0-5.05 1.263-8.838 1.263-12.625-1.263-10.1-5.05-18.938-13.888-25.25-7.577-6.313-17.677-8.838-27.777-7.576-21.463 2.525-34.088 18.938-40.4 32.826-5.05 10.1-6.314 18.938-5.05 21.463 1.26 6.31 18.937-1.264 25.25 8.836 1.262 2.525 2.524 3.788 2.524 6.313 1.263 6.312 0 11.362-5.05 15.15-7.575 5.05-22.725 1.262-22.725 5.05-1.263 2.524 0 10.1 3.788 17.675 2.526 7.575 7.576 16.412 13.888 21.462 8.838 8.838 23.988 10.1 34.088 2.526 8.838-5.05 10.1-15.15 10.1-23.988v-2.525c2.526 0 5.05 1.26 7.576 2.524 22.725 13.887 29.038 55.55-3.788 73.226-21.463 11.363-45.45 3.787-61.863-10.1-8.836-7.575-16.41-16.413-21.46-26.513-6.314-11.363-11.364-23.988-13.89-36.613-2.524-6.313-3.787-11.363-5.05-17.676 0-2.525-8.837-3.787-8.837 0 0 6.313 0 11.363 1.263 17.676 1.262 12.625 5.05 23.988 7.575 36.613 3.788 8.837 6.314 17.675 7.576 26.513 7.575 30.3 2.525 60.6-18.938 84.59-3.788 5.05-7.575 10.1-12.625 13.886-7.575 7.576-10.1 13.888-13.888 23.988-1.262 0-2.525 3.788-2.525 3.788z" class="fil0"/></svg>