<svg class="line-drawing" xmlns="http://www.w3.org/2000/svg" viewBox="0 0 485.34 410.519"><g fill-rule="evenodd" clip-rule="evenodd"><path d="M233.99 180.864h.826v.93h-.825z"/><path class="first" d="M181.713 181.32l.413-.464.413-.466.55-.466.41-.35.414-.464.413-.932.55-.466.413-.815.414-.932.413-.932.55-.816.413 1.28.413.933.413.816.55.932.413.465.41.932.414.35.55.465.413.466.413.465h-9.357zm106.75-105.404l-.55 1.748-.414 2.68-.414 93.873-.413 2.68-.55 1.28-.413.933-.412.465-.413.35-.55.465-.825.466-1.376.465h-2.2l.412-.463.55-.466.413-.814.41-.932.414-.932.413-2.678.55-92.826.414-2.68.414-1.396.412-.932.55-.815.413-.467.412-.465.962-.465.825-.465h1.375l-.413 1.396zm-100.56-1.397h-1.788l.962.463.413.466.413.464.55.467.413.466.413.35.41.465.55.466.414.932.413.465.412.816.55.932.412.932.413.815.413.93.55.933.412.815.413.93.413 1.282.55.932.414.932.413 1.28.412.933.55.93.412 1.282.412.93.412 1.28.55.933.414.932.41 1.28.414.933.55.817.413 1.397.413.932.412 1.28.55.933.412.93.413 1.28.413.933.413.816.55 1.396.412.932.413 1.28.412.933.55.816.413 1.398.412.933.413.815.55 1.398.414.816.412.932.413 1.397.55.817.412.93.413 1.28.413.933.55 1.398.413.816.414.932.413 1.28.55.933.414.932.414 1.28.414.933.55.93.413 1.282.413.932.413 1.28.55.932.413.932.41 1.28.414.933.55.815.414 1.398.413.932.414 1.28.55.933.413.816.413 1.4.41.93.55.816.414 1.398.413.932.413 1.28.55.932.414.816.412 1.397.413.933.55.816.412 1.396.413.816.412.932.55 1.398.413.815.413.932.413 1.28.413.932.55 1.397.412.815.413.932.413 1.28.55.932.414.93.412 1.28.413.933.55 1.28v1.865h.825v-1.864l.413-.815v-4.078l-.412-1.28-.412-1.397-.413-1.28-.55-.933-.413-1.28-.412-.933-.413-.933-.55-1.28-.413-.933-.414-1.28-.413-.932-.55-1.398-.412-.815-.412-1.4-.413-.815-.413-.932-.55-1.397-.413-.816-.414-1.398-.412-.932-.55-1.28-.413-.933-.41-.815-.414-1.398-.55-.932-.414-1.28-.413-.932-.414-.816-.55-1.397-.412-.932-.413-1.28-.41-.933-.55-1.28-.414-.933-.413-1.283-.413-.932-.55-.93-.414-1.282-.412-.932-.413-1.28-.55-.932-.412-1.398-.413-.816-.414-.932-.55-1.28-.412-.933-.413-1.397-.413-.815-.55-1.4-.414-.814-.413-.932-.413-1.397-.55-.816-.413-1.397-.414-.816-.41-1.397-.55-.93-.414-1.282-.413-.932-.414-.815-.55-1.396-.414-.932-.412-1.28-.413-.93-.55-.817-.412-1.397-.413-.932-.412-1.28-.55-.933-.414-1.28-.414-.932-.413-.93-.413-1.28-.55-.933-.41-1.28-.414-.933-.413-1.397-.55-.815-.413-.932-.412-1.28-.413-.933-.55-.932-.414-.814-.412-.93-.412-.933-.55-.815-.412-.932-.413-.932-.413-.466-.55-.35-.413-.93-.413-.466-.412-.464-.552-.466-.825-.35-.412-.464-.962-.467-.825-.466-.963-.467-1.377-.47zm-20.496-.817l.413.466 5.364.35 2.34.463 1.237.466 1.377.464 1.375.467.826.466.963.35.413.465.825.466.55.466.413.465.826.467.55.35.414.464.412.93v78.152l-.413 5.358-.415 2.212-.55 1.864-.414 1.28-.412 1.398-.414.816-.55.932-.413.932-.412.815-.413.465-.55.465-.412.932-.413.35-.412.464-.55.466-.826.465-.413.467-.963.465-.825.35-.964.466-1.24.465-1.787.467-4.54.465v6.64h43.333v-6.64l-3.99-.465-2.337-.466-.825-.465-1.375-.467-.825-.35-.413-.465-.964-.467-.412-.465-.412-.465-.55-.465-.413-.35-.413-.466-.412-.465-.55-.465-.412-.932-.413-.35-.413-.932-.55-.93-.413-.817-.413-.93-.413-.933-.55-1.747-.414-1.397-.412-2.213-.413-3.494-.274-71.63.276 1.05.413 1.28.412.93.414.816.55 1.397.414.932.413 1.28.414.933.55.815.413 1.398.413 1.28.412.934.55.93.412 1.282.413.932.413 1.398.55.815.414 1.398.412.816.412.932.55 1.397.412.816.413 1.397.412.815.55 1.398.412.933.413.815.413 1.398.413.815.55 1.4.41.93.415 1.28.413.934.55 1.28.413.933.413.932.413 1.28.55.932.414 1.282.412.93.413 1.282.55.932.412.932.413 1.28.413.933.55 1.282.413.932.413 1.397.41.817.55.93.415 1.283.413.93.412 1.4.55.814.413 1.397.413.817.413 1.398.55.932.413.816.413 1.397.413.93.55 1.282.412.932.413 1.28.413.933.55.93.41 1.282.414.93.412 1.282.55.932.414 1.28.413.933.414 1.396.55.816.413.932.41 1.28.414.932.55 1.398.414.815.413 1.397.412.815.55.932.412 1.397.413.816.413 1.397.413.816.55 1.396.413.932.413.815.413 1.4.55.814.414.466h5.365l.41-.466.414-1.28.55-.933.413-1.28.413-.933.414-1.28.55-.93.413-.933.413-1.28.413-1.4.55-.814.413-.932.413-1.396.41-.816.55-1.397.414-.815.413-1.397.412-.932.55-1.28.413-.933.413-1.28.413-.932.55-1.28.412-.932.412-1.398.413-.816.55-1.397.413-.816.414-1.395.413-.932.55-1.28.413-.933.413-1.282.412-.932.55-1.397.413-.818.413-.932.415-1.28.55-.93.413-1.4.413-1.28.414-.93.413-.817.55-1.397.414-.932.414-1.28.413-.933.55-1.28.412-.93.412-1.28.413-.934.55-1.397.414-.817.412-1.397.413-.815.55-1.397.413-.932.413-1.28.413-.93.55-1.28.413-.934.413-1.28.41-.933.55-1.397.415-.816.413-1.398.413-.816.55-.932.414-1.397.412-.815.413-1.398.55-1.28.412-.933.414-.93.413-1.28.55-.932.412-1.28.413-.933.413-1.397.55-.816.413-1.396.413-.816.413-1.397.55-.93.413-1.282.412-.93.413-1.28.55-.934.414-1.28.412-.932.413-1.397.55-.815.413-1.398-.413 84.44-.55 2.68-.413.932-.413 1.28-.414.933-.55.464-.413.466-.412.35-.412.465-.55.467-.413.465-.413.467-.963.464-.826.35-1.376.466-1.375.465-2.2.464-4.953.466v6.638h55.436v-6.638l-6.327-.466-2.2-.465-1.79-.466-.826-.467-.96-.35-.414-.464-.825-.468-.55-.465-.413-.466-.413-.814-.414-.466-.55-.932-.412-1.28-.413-2.68v-87.12l.414-2.212.413-.932.55-.932.414-.816.414-.93.413-.467.55-.466.826-.466.413-.35.96-.463.826-.467.963-.465 1.238-.466 2.338-.466 5.778-.348V67.42H280.91l-.55.466-.414 1.28-.412.933-.413 1.397-.55.815-.41.932-.414 1.28-.413.933-.55 1.398-.413.817-.414 1.397-.413.814-.55 1.397-.413.933-.413.814-.413 1.397-.55.817-.413 1.398-.41.932-.413 1.28-.55.933-.414.814-.413 1.398-.414.932-.55 1.28-.413.932-.412 1.28-.41.932-.55 1.28-.414.932-.413 1.397-.413.816-.552.932-.412 1.397-.413.816-.413 1.398-.55.815-.413 1.4-.413.93-.413.816-.55 1.396-.41.816-.414 1.398-.413.932-.55 1.28-.413.933-.414 1.28-.412.933-.55.932-.413 1.28-.41.932-.414 1.28-.55.933-.414 1.28-.41.933-.414.932-.413 1.28-.55.933-.414 1.282-.413.932-.413 1.397-.55.817-.412.93-.412 1.283-.412.93-.55 1.4-.414.814-.413 1.397-.413.817-.55 1.398-.413.932-.412.816-.412 1.397-.55.814-.413 1.398-.413.932-.413 1.28-.55.932-.413.815-.413 1.397-.413.93-.55 1.282h-.412l-.413-1.28-.413-.933-.55-1.397-.412-.816-.413-.93-.412-1.282-.55-.932-.414-1.398-.413-.815-.413-.933-.55-1.28-.413-.933-.41-1.397-.414-.816-.55-.93-.414-1.28-.412-.932-.413-1.398-.55-.816-.412-.932-.413-1.28-.413-.933-.55-1.4-.414-.815-.413-.932-.412-1.28-.55-.932-.413-1.397-.413-.815-.41-.933-.55-1.28-.413-.933-.412-.932-.413-1.28-.41-.933-.55-1.282-.413-.93-.413-.933-.414-1.28-.55-.933-.413-1.28-.412-.934-.412-.933-.55-1.28-.413-.933-.414-1.28-.412-.933-.55-.93-.413-1.28-.413-.933-.412-1.398-.55-.816-.413-.932-.413-1.28-.414-.933-.55-1.398-.413-.816-.412-.93-.412-1.28-.55-.933-.414-1.398-.414-.816-.412-.933-.55-1.28-.413-.932-.412-1.397-.413-.815-.55-.93-.414-1.28-.412-.933-.413-1.398-.55-.816-.414-.932-.412-1.28-.412-.933-.55-1.398-.412-.816-.413-.933-.412-1.28-.55-.932-.413-1.398-.413-.815-.413-.933H167.4v6.286zM466.605 231.29l-.55.468-.825.465-.413.467-.55.465-.413.466-.413.35-.41.467-.55.466-.413.466-.413.465-.412.815-.55.465-.412.932-.412.466-.413.815-.413.932-.55.932-.413.815-.414.93-.413 1.4-.55 1.28-.41 1.748-.414 1.863v.815l.824-.35.414 1.282.55-3.96h.275l1.1 3.028.413-2.213.413-1.747.41-1.397.414-.816.55-1.397.413-.816.413-.465.413-.932.55-.932.41-.35.414-.93.413-.467.55-.464.413-.466.413-.816.962-.466.413-.466.414-.466.964-.465.826-.35.412-.464.963-.465.824-.466 1.375-.465 1.375-.468v-.348l-1.787-.465-1.788.464v-1.397h-.963l-.825.465-.964.467-.412.464zM4.403 233.15l.55-.93.413-.466.413-.466.96-.35h2.614l1.79.35 1.374.466 1.374.465.825.465.963.465.826.467.41.35.963.464.412.468.413.466.962.466.413.814.413.466.55.465.413.465.414.932.413.35.55.93.413.933.413.466.412.817.55 1.397.414.816.413 1.396.412 1.748.412 2.33-2.614-.468-3.576-.465-1.376-.464-1.238-.465-.962-.464-.826-.466-.964-.35-.825-.465-.963-.466-.413-.467-.962-.466-.413-.465-.825-.35-.55-.466-.414-.465-.413-.465-.413-.465-.55-.465-.413-.35-.413-.464-.41-.465-.55-.465-.414-.933-.414-.815-.413-.932-.55-1.28v-3.15zm0-4.89l-.413.348-.412.466-.413.466-.55.466-.413.465-.413.818-.414.93-.55 1.4v3.493l.55 1.865.412 1.28.412.933.413.816.55.465.413.93.412.466.413.467.55.35.414.464.413.932.412.465.96.465.414.348.413.466.55.465.825.464.413.465.964.464.824.35.963.466.825.466.962.466.825.465 1.375.466 1.375.35 1.79.464 1.787.466 2.613.465h2.34l-.55 1.748-.414 1.863-.414 1.28-.413.465-.55.932-.414.815-.413.466-.413.464-.55.466-.414.465-.413.465-.963.35-.413.466-.824.465-1.376.466-2.2.465H13.89l-2.34-.464-1.238-.466-.963-.464-.826-.466-.962-.35-.413-.465-.413-.465-.55-.466-.412-.465-.413-.468-.413-.35-.55-.932-.415-.464-.412-1.28-.413-1.4v-3.143l.413-.932.412-.347.413-.466h2.34l.412.466.413.815H9.35l.414-.465v-.35l-.413-1.397-.412-.93-.413-.35-.55-.467-.826-.466H3.162l-.963.465-.414.465-.412.35-.55.465-.413.93-.41.933v6.173l.412 1.397.413.932.55.816.413.467.413.465.413.933.55.35.413.466.412.465.413.466.55.466.828.467.412.35.96.465.414.466.962.465 1.238.464 1.376.466 3.164.348h1.375l3.024-.35 1.376-.465.963-.465.826-.465.96-.466.414-.466.825-.347.55-.467.412-.465.413-.465.413-.465.41-.817.55-.465.414-.466.413-.93.413-.817.55.35.414.932.412.465.413.932.55.35.412.466.412.465.963.466.413.467.826.467.963.35.824.465 1.376.464 1.375.466 1.79.464 3.576.466h3.577l3.576-.466v-.465c-3.85 0-10.867-.35-12.93-1.633l9.766-1.048H41.95l-3.163-.467-1.788-.465-.826-.467-.962-.35-.825-.464-.413-.466-.964-.465-.413-.466-.413-.465-.55-.35-.413-.465-.412-.93-.412-1.282-.55-2.795-.413-1.28h4.952l3.164-.466 2.2-.466 1.79-.463 1.788-.35 1.787-.465 1.376-.464 1.24-.466 1.375-.465 1.375-.466 1.24-.35 1.375-.465.963-.466 1.238-.466 1.376-.466.962-.465 1.238-.35.963-.465 1.376-.465.827-.465.963-.466 1.237-.464.963-.35 1.375-.466.825-.465 1.375-.466.826-.465 1.377-.466.962-.35 1.237-.465.964-.467 1.376-.465 1.238-.466.963-.465 1.238-.348 1.375-.466 1.374-.466 1.376-.465 1.238-.466 1.788-.465 1.79-.35 1.787-.465 2.34-.466 2.2-.467 3.164-.465v-.466h-4.54v-.232l2.75-1.05-1.787-.465h-3.164l-2.2.464-1.79.466-1.787.466-1.79.35-1.376.465-1.375.467-1.376.467-1.24.465-1.374.465-1.374.35-1.238.464-.963.465-1.375.465-.825.465-1.376.466-.827.35-.963.466-1.374.466-.825.466-.96.467-.826.465-1.375.35-.826.465-1.376.465-.963.466-1.238.465-1.375.467-.962.35-1.788.464-1.238.467-1.376.465-1.788.466-1.375.466-1.79.35-2.2.464-2.2.466-2.752.465-2.613.465-4.952.465c-1.238.7-1.238.932-1.788-.465l-.412-1.864-.413-1.747-.55-1.28-.414-1.4-.412-.93-.413-.816-.55-.932-.412-.932-.413-.815-.413-.467-.413-.93-.55-.466-.412-.815-.413-.467-.414-.466-.55-.466-.414-.464-.413-.35-.414-.465-.55-.464-.413-.467-.826-.466-.55-.466-.826-.35-.412-.464-.962-.466-.826-.465-.963-.466-.825-.466-1.377-.35-1.788-.463H5.773l-1.37.463zm308.954 22.718l.55-.932.413-.35.826-.466h.963l.823.466.55.35.413.932.412 1.397v2.68l-.413 1.747-.413.932-.55.465-.413.35-.413.464-.963.465-.413-1.28-.412-1.4-.414-1.397-.55-2.212v-2.213zm-2.614-1.748h-.412v4.893l.414 1.28.413 1.398.413 1.4.55.815.412.932h-1.375l2.338.465-.55.816c3.164-.582 6.74-1.28 6.74-6.638v-2.213c0-2.33-1.65-4.542-3.99-4.542-3.85 0-3.576 3.028-3.576 6.755h-.55v-1.864l-.828.932v-4.426zm-139.34 6.174l-.414 1.397-.415 1.4-.413 1.28-.963-.465-.413-.466-.413-.35-.55-.466-.414-.932-.412-1.747v-2.68l.413-1.396.415-.933.55-.35.826-.465h.964l.825.465.412.35.552.932v2.212l-.55 2.214zm2.75 4.542h-1.374l.41-.93.55-.817.414-1.4.412-1.397.413-1.28v-4.893h-.414l-.825 5.36h-.55c0-4.194.413-3.61-1.375-6.174l-3.026-.583c-1.65.932-3.165 1.98-3.165 4.542v2.213c0 5.707 3.164 5.24 6.603 6.638l-.276-.815 2.2-.463zm97.8 4.424l.824.465.413.932v2.212l-.413.465-2.613.465-.55.35v.932l.55.467.413.463h3.576l.826-.465.55-.468.41-.465.413-.816v-4.076l-.412-.932-.412-.35-.55-.93-.414-.467-.825-.466-.55-.466-.826-.35-.963-.466-1.787-.466h-3.99v.465h3.577v.465H267v.35l3.164.232-.963.35.965.7-4.127.58 4.54.467.825.35zm-60.796-2.68l-.413.466-.412.465-.55.934-.414.35-.412.93v4.077l.412.817.413.465.553.468.825.465h3.577l.413-.465.55-.467v-.93l-.55-.35-2.615-.465-.412-.467v-2.21l.413-.933.826-.466.55-.465.825-.35 4.54-.466-4.54-.466v-.464h4.54v-.467h-4.127l.137-.7 9.354 1.166v-.468l-.964-.466-.825-.35-.962-.466-1.79-.465h-4.4l-1.788.465-.965.466-.825.35z"/><path d="M169.2 262.624v4.424l.412 2.678.55 1.398.413.816.413.93.413.933.553.466.413.35.413.464.412.466.55.467.826.466h3.99l.962-.466.825-.466.412-.464.55-.465.414-.35.413-.464.413-.932.55-.93.413-1.748v-2.213l-.414-1.747-.55-.466-.413-.467-.413-.465-.414-.466-.963-.465h-3.026l-.964.465-.825.466-.55.465-.413.466-.412.813v3.145l.412.465.413.466h2.34l.412-.466.413-.466v-1.282h-1.79l.414-1.398.964-.466h2.2l.415.466.412.932v2.68l-.412.93-.413.817-.96.465-.414.466-.825.466h-2.2l-.55-.465-.414-.466-.413-.466-.413-.467-.55-.814-.412-.932-.413-1.28-.414-2.68v-2.33l1.238-.35 2.338-.465.825-.465.413-.466.964-.466.413-.466.413-.35.413-.466.55-.932.41-.465.414-.816v-.465h-1.378c-2.2 4.19-4.953 4.422-9.768 4.888zm281.725-8.966v.466h4.952l-.413 1.28-.55 2.795-.414 1.28-.412.93-.413.466-.55.35-.413.466-.413.465-.965.466-.412.465-.825.465-.965.35-.825.465-1.788.466-3.164.465h-5.362c2.75 1.75 6.465.932 9.904 1.28l-6.327.933v.932h-3.162v.465h3.99l3.162-.464 1.788-.466 1.375-.465 1.376-.466.823-.468.962-.35.825-.465.414-.466.962-.464.412-.466.413-.464.553-.35.413-.932.413-.466.412-.932.55-.35.414.816.413.932.412.465.55.464.413.815.413.465.413.465.413.467.55.466.826.35.412.466.963.463.825.465.963.465h.827v-1.397c-5.09-1.165-9.354-7.454-9.354-13.86l-5.778.47zm-147.745 1.746h.413l.413.93.55.933.413.932.41.814.414.465.55.93.413.466.413.35.413.466.963.465.413.466.823.465 2.34.465 1.237.35v2.33l-.412 2.678-.413 1.28-.413.934-.55.816-.413.465-.415.466-.412.467-.55.464h-2.202l-.824-.464-.412-.467-.964-.467-.412-.815-.413-.932v-2.68l.413-.93.413-.468h2.203l.963.467.413 1.396h-1.79v1.28l.413.468.413.466h2.34l.41-.467.414-.466v-3.144l-.414-.815-.412-.465-.55-.464-.826-.465-.962-.465h-3.027l-.964.465-.413.466-.413.466-.412.467-.55.466-.413 1.746v2.213l.413 1.746.55.932.413.93.415.467.413.348.55.465.413.466.826.465.963.465h3.99l.824-.465.55-.466.413-.467.413-.465.412-.35.55-.465.413-.93.413-.933.413-.816.553-1.398.413-2.678v-3.955l.825-.465.964-.466.412-.465.963-.463.412-.35.414-.466.413-.464.55-.932.412-.466.413-.815.413-.932.55-2.212v-3.145h-.55v2.446l-.825-.234c-.137 4.542-3.988 8.502-8.528 8.502-5.09 0-8.392-5.59-8.804-10.832l-.136 1.864-.83 2.214z"/><path d="M348.305 271.59l1.788.35 1.238.464.964.467.826.467.962.465.825.467.55.35.825.463.412.467.55.466v.466l-.55.464-.825.35h-2.2l-1.378-.35-.412-.465-.962-.466-.413-.466-.413-.466-.55-.464-.413-.35-.414-.465-.413-.464-.55-.933-.414-.815h.964zm-210.744.814l-.55.932-.41.465-.414.468-.413.35-.55.464-.414.467-.414.465-.963.466-.413.465-1.376.35h-2.2l-.826-.35-.55-.465v-.467l.55-.466.413-.466.827-.463.55-.35.826-.465.962-.464.825-.465.962-.466 1.238-.465 1.79-.35h.96l-.41.814zm209.78-7.104l-.55 2.213h3.303l1.788.465 1.24.466 1.375.465.962.347.825.466.964.466.412.465.826.465.412.467.55.35.412.464.413.47.413.464.55.932.413.35v4.076l-.413.466-.55.816-.825.465-.412.465-.963.466-1.79.466h-3.025l-1.79-.466-1.374-.467-.963-.466-.824-.465-.413-.35-.963-.465-.414-.465-.413-.467-.55-.465-.412-.466-.41-.35-.414-.93-.55-.467-.413-.932-.413-.815-.414-.932-.55-1.28h-2.614l-2.202.348-1.375.465-1.375.47-.825.464-1.376.466-.827.464-.55.35.55.93.412.933.413.465.412.816.413.465.55.467.413.932.413.35.412.464.55.466.413.466.413.466.412.466.55.35.413.464.412.466.413.465.964.466.413.468.413.35.962.465.413.465.963.466.826.465.962.466 1.238.35.963.464 1.376.465 1.79.465 2.2.465h8.392l2.34-.465 1.787-.465 1.79-.466.823-.467 1.375-.35.824-.466.963-.465.825-.466.963-.465.412-.465.963-.35.413-.465.826-.465.55-.465.413-.466.413-.465.412-.35.55-.467.413-.466.412-.466.413-.93.55-.35.413-.93.412-.934.413-1.28.55-2.214V272.4l-.55-1.747-.412-1.398-.412-.816-.413-.934-.55-.465-.413-.466-.413-.815-.414-.467-.962-.465-.412-.466-.41-.466-.552-.35-.825-.465-.412-.465-.963-.465-.825-.466-.55-.465-1.24-.35-.962-.466-1.375-.465-1.238-.467-2.75-.465h-6.19l-2.202.464-1.375.466-1.376.465-.825.466-.55.35-.826.465-.412.466-.55.466-.412.466-.412.465-.413.35-.55.466-.41.936zm-213.9 2.678l1.79-.465h3.164l-.413-2.213-.412-.932-.55-.465-.413-.35-.413-.466-.412-.465-.55-.466-.414-.465-.825-.463-.55-.35-.825-.466-1.376-.464-1.376-.466-1.788-.466h-7.016l-2.34.465-1.237.464-1.376.465-.962.464-1.238.35-.963.466-.413.466-.96.466-.413.465-.825.466-.55.35-.412.465-.413.466-.963.465-.413.464-.413.815-.413.466-.55.465-.413.933-.412.815-.412 1.398-.55 1.746v1.864l.55 2.213.412 1.28.413.933.414.93.55.35.413.932.413.467.412.466.55.465.414.35.413.464.41.465.55.465.826.466.412.466.962.35.413.464.963.465.825.464.964.466.825.466 1.376.348.825.466 1.79.465 1.787.465 2.34.465h7.978l2.613-.465 1.787-.466 1.376-.466.963-.466 1.238-.35.964-.465.825-.466.55-.464.825-.465.962-.465.413-.348.414-.466.964-.465.413-.465.415-.466.413-.466.55-.35.413-.465.414-.467.413-.467.55-.466.414-.465.413-.35.413-.93.55-.468.413-.465.412-.816.413-.464.413-.932.55-.932-.55-.35-.825-.465-.824-.465-1.377-.466-1.375-.466-1.375-.465-2.202-.348h-2.612l-.55 1.28-.413.932-.413.815-.414.932-.55.466-.413.932-.413.35-.413.465-.55.465-.414.466-.413.467-.962.465-.412.35-.825.465-.963.465-1.375.467-1.79.465h-3.025l-1.79-.466-.962-.468-.413-.465-.825-.466-.55-.814-.413-.465v-4.075l.413-.35.55-.932.413-.466.413-.466.413-.464.55-.348.412-.466.824-.465.413-.465.962-.466.825-.467.963-.35 1.376-.465 1.237-.472zM234 256.332h17.333l4.952-.233-.825.23-.962.466-.413.465-.964.467-.41.465-.825.35-.55.466-.413.464-.412.466-.413.465-.55.466-.413.35-.412.465-.413.466-.55.466-.415.466-.413.815-.413.466-.55.93-.413.467-.413.816-.413.932-.55.932-.413 1.28-.413 1.4-.413 1.28v2.68h-.55v-2.213l-.413-1.748-.413-1.4-.412-1.28-.55-.933-.412-.932-.413-.815-.413-.465-.55-.93-.414-.467-.412-.815-.413-.466-.55-.465-.413-.466-.413-.465-.414-.35-.55-.464-.412-.465-.413-.465-.413-.465-.55-.467-.826-.35-.412-.465-.962-.466-.413-.465-.962-.465-.825-.466 4.956.466zm22.697-.932c.138 0 .276.232.276.232s-.276-.116-.276-.232zm-28.474 0l.138.232s-.274-.116-.136-.232zm74.97-13.394l.412-.35v-.464l-.825.465-.963.35-.825.465-.963.465-.827.466-.964.465-.826.467-.962.35-.825.464-.964.464-1.375.465-.826.465-.962.465-1.238.35-.964.466-1.375.465-1.238.467-.963.466-1.375.465-1.24.35-1.374.466-1.376.465-1.238.465-1.79.465-1.79.465-1.373.35-2.2.464h-1.79l.826.464 1.79.465 1.374.465.825.465.963.35.825.467.964.465.413.465.413.466.963.465.412.466.413.35.55.465.414.464.413.465.413.465.413.815.55.467.415.465.413.932.412.816.55.93.413.933.413.816.413 1.396.55 2.213v4.89l-.55 1.864-.413 1.28-.413.933-.413.815-.55.466-.41.93-.414.467-.413.465-.55.35-.414.465-.826.465-.413.466-.962.465-.826.468-.963.35-1.376.464-2.613.466h-3.99l-3.162-.466-1.79-.465-1.374-.35-.826-.467-.962-.465-.825-.466-.55-.466-.41-.466-.825-.348-.55-.465-.414-.467-.412-.466-.414-.465-.55-.817-.413-.465-.412-.932-.413-.932-.413-1.28-.55-1.75v-4.074l.55-1.748.413-1.398.413-.815.413-.468.414-.932.55-.465.413-.465.412-.35.412-.466.55-.466.413-.467.825-.465.962-.466.825-.35.963-.465h5.78v.466h-2.2v.35l3.164.233-.963.35.965.697-4.127.583-.412.465-1.376.35-.826.467-.413.465-.55.466-.41.465-.414.467-.413.815-.55 1.398v5.357l.55 1.28.413.933.413.932.412.815.55.466.414.467.413.466.412.465.55.35.826.465.962.465 1.238.466 1.376.466 2.2.465h3.165l2.2-.464.963-.466.826-.467.55-.465.824-.466.414-.35.55-.464.413-.466.414-.932.413-.465.413-1.28.55-1.4v-3.493l-.55-2.213-.413-1.397-.413-.932-.413-.815-.412-.932-.55-.465-.413-.466-.41-.815-.414-.466-.55-.464-.412-.465-.413-.465-.964-.35-.41-.465-.414-.466-.962-.464-.825-.467-.964-.466-.825-.35-1.787-.466-2.2-.465h-3.577l-2.75.465-1.376.466-.825.35-1.377.465-.413.465-.962.464-.825.465-.413.465-.413.35-.55.466-.414.466-.825.465-.55.933-.412.35-.412.466-.412.464-.55.932-.412.467-.413 1.28-.412.93-.55 1.75-.414 1.396-.412 3.028v4.542l.412 2.68.413 1.28.552 1.398.412.815.413.93.413.933.55.467.413.815.414.465.412.465.55.465.413.466.413.35.413.465.55.467.414.466.826.466.413.464.96.35.825.466.963.465 1.374.466 1.238.466 2.34.465h7.564l1.79-.465 1.374-.466 1.238-.467.964-.465.825-.466.55-.35.825-.465.413-.466.962-.464.413-.465.413-.464.414-.35.55-.465.414-.464.413-.465.413-.465.55-.466.413-.35.413-.467.413-.932.55-.464.413-.465.412-.814.412-.466.55-.93.414-.817.413-.932.412-.465.55-.933.41-1.28.414-.933.413-.816.55-1.4.414-.932.414-1.28.413-1.4.55-1.28.413-1.398.413-1.28.413-1.748.55-2.33.412-1.747.413-1.748.413-1.864.55-1.747.414-1.747.414-1.398.414-1.28.55-1.398.413-1.28.412-1.4.412-.93.55-.816.412-.93.413-.933.413-.815.55-.933.4-.92zm-121.468-.815v.467l.413.35.413.93.553.933.413.815.413.932.412.93.55.817.414.932.413 1.397.412 1.28.55 1.398.412 1.283.413 1.398.413 1.748.55 1.747.414 1.864.413 1.747.413 2.212.55 1.863.412 1.747.413 1.28.412 1.4.55 1.28.413 1.398.413 1.28.414.933.55 1.4.414.816.414.93.414 1.282.55.932.413.466.414.932.412.815.55.932.412.465.413.816.414.465.55.468.414.932.412.465.413.35.55.465.412.465.413.466.412.467.55.465.413.35.413.466.413.465.962.467.41.465.826.466.55.35.825.466.965.466 1.238.464 1.375.466 1.79.465h7.565l2.34-.465 1.237-.466 1.374-.465.964-.466.825-.465.963-.35.412-.467.826-.465.412-.466.55-.464.413-.465.413-.35.413-.464.55-.466.413-.465.412-.466.414-.816.55-.466.413-.932.412-.932.412-.816.55-1.397.414-1.28.413-2.68v-4.54l-.413-3.03-.413-1.397-.55-1.747-.413-.93-.412-1.28-.413-.468-.55-.932-.413-.466-.412-.466-.413-.35-.55-.466v-.932h-.826l-.412-.465-.55-.464-.413-.35-.413-.465-.824-.465-.963-.466-.413-.466-1.376-.466-.825-.35-1.375-.465-2.75-.466h-3.578l-2.2.467-1.788.465-.826.35-.963.466-.824.465-.55.465-.825.465-.412.465-.964.35-.412.466-.412.466-.55.466-.413.465-.413.817-.412.465-.55.466-.413.932-.414.815-.413.933-.41 1.397-.552 1.748v3.96l.55 1.397.414 1.28.414.467.413.932.414.464.55.464.412.35.825.465.55.464.826.467.964.467 2.2.467h3.164l2.2-.466 1.377-.465 1.24-.466.96-.466.826-.466.55-.35.413-.465.412-.466.412-.467.55-.465.413-.816.413-.933.413-.932.55-1.28v-5.358l-.55-1.397-.414-.816-.414-.465-.413-.467-.55-.466-.412-.466-.824-.464-1.376-.35-.413-.466-4.54-.465v-.466h4.54v-.466h-4.127l.137-.698 9.354 1.164h.826l.413.466.55.465.413.467.413.35.412.465.55.466.412.932.413.466.413.816.412 1.397.55 1.746v4.077l-.55 1.746-.412 1.28-.413.932-.413.93-.412.466-.55.816-.412.465-.413.466-.413.466-.55.466-.826.35-.412.464-.962.466-.413.465-.963.467-.825.466-1.377.35-1.79.464-3.163.466h-3.99l-2.612-.466-1.376-.465-.963-.35-.826-.465-.963-.466-.413-.464-.825-.466-.41-.465-.552-.35-.412-.466-.413-.466-.413-.932-.55-.466-.413-.815-.413-.93-.413-1.282-.55-1.864v-4.89l.55-2.215.413-1.398.412-.815.412-.932.55-.932.413-.816.413-.93.412-.467.55-.465.413-.816.414-.466.413-.466.413-.465.55-.466.412-.35.413-.464.963-.466.414-.465.413-.465.964-.465.826-.466.962-.35.825-.466 1.375-.466 1.375-.466 1.375-.233-1.925-.233-2.2-.466-1.376-.35-1.79-.463-1.787-.466-1.238-.464-1.376-.466-1.376-.465-1.238-.35-1.375-.465-1.376-.465-.825-.466-1.375-.466-.964-.467-1.238-.35-.963-.464-1.375-.467-.825-.465-.963-.465-.825-.465-.962-.35-.825-.465-.962-.466-.826-.466-.963-.465-.827-.466-.963-.35-.835-.48zm179.516-3.61l-.96.466-.414.467-.964.465-.41.35-.414.465-.413.465-.412.466-.55.466-.41.464-.414.35-.414.465-.55.463-.413.466-.413.464-.413.467-.55.35-.414.93-.413.467-.412.466-.55.815-.413.465-.413.465-.414.932-.55.465-.414.816-.412.933-.413.932-.55.815-.414.466-.413.93-.412.817-.55 1.397-.41.932-.414.816-.413 1.397-.55 1.28-.414.933-.414.932-.413.815-.55 1.397v2.213h-3.577l-1.788.466-1.238.466-1.376.466-1.374.35-.825.464-.96.467-1.24.465-.962.466v-1.4l-.412-1.28-.412-1.863-.55-2.68v-5.705l.55-2.795.413-1.747.413-1.748.413-.932.552-1.28.413-.932.414-.93.413-.466.55-.815.413-.467.413-.932.413-.464.412-.35.55-.465.412-.93.825-.467.55-.465.413-.35.413-.466.414-.466.962-.466.412-.465.963-.466.826-.35.964-.464.825-.467 1.376-.466 1.377-.465 1.238-.467 2.75-.35h10.73l2.614.35-.413.466-.41.47zm-237.973-.93l2.614-.35 4.953-.466h1.375l4.402.466 2.75.348 1.238.465 1.375.466 1.376.463.823.467.963.466.825.35.965.465.413.467.962.466.413.466.413.464.413.35.55.465.825.464.413.932.55.467.412.35.413.464.412.932.413.465.55.815.413.465.414.93.413.933.55 1.28.41.933.414 1.75.414 1.747.55 2.795v5.708l-.55 2.678-.413 1.864-.412 1.28v1.4l-.96-.466-1.24-.466-.962-.466-.825-.465-1.375-.35-1.375-.466-1.238-.465-1.79-.467h-3.575V265.3l-.552-1.397-.413-.815-.413-.93-.413-.933-.55-1.28-.413-1.4-.413-.814-.412-.93-.55-.933-.412-1.28-.413-.933-.413-.464-.55-.816-.414-.93-.413-.933-.413-.815-.55-.464-.413-.93-.414-.467-.413-.465-.55-.816-.413-.465-.412-.465-.413-.932-.55-.35-.414-.466-.412-.466-.413-.466-.55-.465-.413-.466-.413-.35-.414-.463-.55-.467-.413-.465-.413-.465-.413-.465-.413-.35-.963-.465-.413-.466-.963-.466-.412-.466-.404-.47zm235.228-96.44l-.413 3.61-.412 2.68-.412 2.677-.55 2.213-.412 1.745-.413 2.33-.412 1.28-.55 1.748-.413 1.864-.413 1.28-.412 1.398-.55 1.28-.413 1.398-.414 1.28-.412 1.4-.55.814-.413 1.397-.412.932-.413 1.28-.55.933-.413.814-.412 1.397-.413.933-.55.815-.413.93-.414.933-.413.817-.55.93-.413.932-.413.815-.412.465-.55.932-.413.816-.412.933-.413.466-.55.932-.413.815-.413.467-.413.932-.55.815-.413.465-.413.93-.413.467-.55.814-.412.466-.412.465-.413.932-.55.466-.414.815-.414.467-.413.465-.55.932-.413.35-.413.464-.412.932-.55.466-.413.466-.414.35-.413.465-.412.932-.55.464-.412.468-.412.35-.413.465-.55.466-.414.93-.41.467-.414.466-.55.35-.413.465-.413.464-.413.466-.55.465-.414.466-.413.35-.413.465-.55.466-.413.466-.412.466-.413.465-.55.35-.414.465-.413.466-.413.464-.964.466-.413.465-.413.35-.55.466-.413.465-.412.466-.963.466-.414.466-.413.35-.413.465-.55.466-.826.465-.413.465-.55.465-.824.35-.414.465-.55.466-.826.465-.412.466-.964.466-.412.35-.413.466-.964.465-.412.466-.825.465-.55.465-.827.35-.963.465-.413.466-.825.465-.964.466-.413.465-.963.35-.825.466-.963.466-.413.465-.825.466-.963.465-.824.348-.963.466-.825.465-.962.466-.825.465-1.375.467-.962.35-.825.464-.963.466-1.238.466-.963.466-1.375.464-.827.35-1.375.465-1.238.464-1.375.466-1.376.466-1.375.465-1.79.35-1.237.466-1.788.465-1.79.467-1.788.466-2.338.467-2.2.348-2.614.465-3.164.466-3.577.464-6.74.466h-10.18l-6.33-.466-3.576-.465-3.026-.467-2.752-.465-2.2-.35-2.202-.465-1.788-.466-1.79-.466-1.787-.464-1.788-.466-1.376-.35-1.375-.464-1.374-.467-1.238-.466-1.377-.466-1.374-.467-1.238-.35-.964-.464-1.375-.467-.826-.466-.963-.466-1.237-.464-.963-.35-.824-.465-.962-.464-.825-.466-.965-.466-.825-.466-.962-.35-.825-.464-.963-.466-.825-.465-.964-.466-.41-.465-.964-.348-.825-.465-.412-.466-.963-.464-.825-.466-.55-.466-.826-.35-.412-.465-.963-.466-.415-.467-.825-.465-.55-.467-.825-.35-.413-.463-.962-.466-.412-.464-.413-.465-.963-.464-.413-.35-.415-.465-.962-.465-.413-.466-.412-.467-.55-.465-.825-.35-.413-.466-.55-.465-.414-.466-.413-.464-.412-.465-.96-.35-.414-.464-.413-.466-.55-.465-.414-.467-.413-.465-.413-.35-.55-.465-.413-.466-.412-.465-.413-.466-.55-.465-.412-.35-.413-.465-.414-.465-.55-.466-.414-.466-.413-.467-.415-.35-.55-.465-.413-.466-.413-.465-.413-.465-.55-.464-.413-.814-.413-.466-.412-.465-.552-.467-.413-.466-.412-.816-.412-.465-.412-.465-.55-.466-.413-.933-.413-.35-.413-.464-.55-.932-.414-.465-.413-.465-.413-.816-.55-.467-.414-.932-.413-.464-.413-.35-.55-.93-.412-.467-.413-.932-.413-.35-.55-.93-.415-.932-.413-.465-.413-.816-.55-.93-.414-.468-.414-.816-.412-.933-.55-.93-.413-.817-.412-.466-.413-.932-.55-.932-.414-.815-.412-.932-.413-1.28-.55-.933-.413-.932-.413-.814-.414-.932-.55-1.397-.413-.815-.413-1.397-.413-.815-.55-1.397-.414-1.28-.412-1.398-.412-1.28-.55-1.4-.413-1.28-.413-1.863-.413-1.28-.55-1.865-.414-1.748-.413-2.213-.413-2.213-.55-2.33-.414-2.68-.413-3.028-.413-4.542v-19.567l.413-4.543.413-3.145.413-2.68.55-2.213.413-2.213.412-2.213.413-1.862.55-1.747.412-1.28.413-1.864.413-1.28.55-1.398.413-1.28.413-1.398.412-1.28.55-1.398.414-.816.413-1.397.412-.933.55-.816.413-1.396.412-.815.413-.933.55-.932.413-1.28.413-.932.414-.932.55-.814.414-.93.413-.467.414-.816.55-.932.413-.932.413-.815.412-.468.55-.932.413-.932.414-.35.413-.93.552-.466.412-.932.413-.815.412-.466.55-.933.413-.465.413-.348.413-.932.55-.466.413-.93.412-.35.413-.467.55-.932.412-.464.413-.465.413-.814.55-.466.412-.465.413-.467.412-.815.413-.466.55-.465.414-.466.413-.464.413-.465.55-.815.412-.465.413-.466.413-.465.55-.466.414-.466.412-.35.413-.466.55-.464.413-.466.412-.465.412-.466.55-.35.413-.466.413-.464.413-.467.55-.466.413-.466.41-.35.414-.465.552-.466.413-.465.412-.466.963-.466.413-.35.413-.466.414-.465.55-.467.413-.465.825-.465.55-.35.413-.466.414-.464.96-.466.414-.465.412-.466.963-.35.412-.466.412-.467.962-.465.413-.466.824-.465.55-.348.826-.467.413-.466.962-.466.412-.464.825-.466.55-.35.824-.465.963-.466.412-.468.825-.465.963-.466.413-.35.965-.463.825-.466.963-.464.825-.466.964-.465.826-.35.963-.466.824-.466.962-.467.824-.466.964-.464 1.238-.35.963-.465.825-.464 1.376-.466.965-.465 1.238-.466 1.375-.35 1.382-.46.824-.466 1.788-.465 1.375-.468 1.376-.465 1.788-.35 1.24-.465 1.79-.465 2.337-.466 1.79-.464 2.612-.466 2.2-.35 3.163-.464 3.99-.465 5.364-.464h12.518l5.365.466 3.988.466 3.164.465 2.2.35 2.202.467 2.338.465 1.79.466 1.787.466 1.786.466 1.79.348 1.237.465 1.375.466 1.375.465L280.9 17l1.238.465 1.375.35.826.466 1.373.467.962.466 1.238.465.964.465.825.35 1.375.465.963.466.827.466.962.464.823.466.963.35.825.464.964.467.825.467.412.466.963.465.825.35.964.465.413.465.963.467.825.465.413.464.962.35.825.465.55.463.826.466.414.465.963.466.413.35.824.465.55.466.413.466.826.467.55.466.413.35.825.464.55.465.415.465.413.465.963.467.414.35.413.465.413.465.962.466.412.465.413.467.55.35.413.464.413.464.964.466.412.467.41.465.414.35.55.466.413.465.413.466.414.463.55.465.413.35.413.465.413.465.55.466.414.465.413.466.413.35.55.465.413.467.412.466.413.932.553.35.413.466.413.466.412.465.55.467.413.932.413.35.413.464.413.466.55.466.412.932.413.35.412.466.55.93.413.467.413.467.413.816.55.465.41.932.413.465.413.35.55.93.413.466.412.934.413.35.55.93.413.933.412.465.413.817.55.93.413.465.413.816.413.93.55.934.413.466.413.814.412.932.55.932.413.815.413.932.412.932.55.816.413.932.412 1.28.413.932.55.932.414 1.28.413.93.413 1.28.55.934.412 1.397.413 1.28.413 1.4.55 1.28.413 1.398.413 1.28.413 1.747.55 1.864.414 1.28.414 2.214.412 1.863.55 2.213.412 2.68.413 2.68.415 3.61.412 5.357v15.14l-.412 5.362zM227.24.466l-3.163.466-3.026.466-2.337.35-2.2.464-2.202.465-1.787.465-1.79.465-1.787.465-1.375.35-1.79.465-1.373.467-1.238.465-1.377.465-1.375.466-1.238.35-.964.465-1.376.466-1.238.465-.962.464-.825.466-1.376.35-.965.466-.825.465-.96.468-1.24.465-.963.466-.825.35-.963.464-.827.466-.963.464-.824.465-.55.464-.825.35-.96.464-.826.465-.963.465-.412.466-.825.465-.963.35-.414.466-.825.465-.55.467-.824.465-.963.466-.413.348-.826.465-.55.468-.825.465-.415.466-.55.465-.826.35-.414.465-.963.467-.413.465-.41.466-.965.465-.413.35-.413.465-.55.465-.827.467-.413.465-.55.466-.412.35-.825.466-.55.466-.413.466-.413.467-.413.465-.55.35-.825.465-.415.465-.55.465-.413.467-.413.466-.414.35-.55.465-.413.466-.413.465-.412.465-.55.467-.413.35-.412.464-.413.467-.412.465-.55.465-.414.466-.413.35-.41.466-.55.464-.414.467-.413.467-.413.465-.55.35-.414.932-.413.466-.413.465-.55.467-.413.35-.413.465-.413.932-.55.464-.41.465-.414.35-.413.464-.55.932-.413.466-.414.465-.412.35-.55.932-.414.465-.413.466-.413.933-.55.35-.413.932-.41.465-.414.466-.55.816-.413.466-.413.932-.414.465-.55.814-.414.466-.413.933-.415.93-.55.35-.413.93-.412.467-.412.933-.55.815-.414.932-.413.466-.41.815-.55.933-.414.933-.413.815-.413.932-.55.932-.414.816-.413.932-.413.93-.413.817-.55.93-.414 1.4-.413.815-.413.93-.55 1.282-.413.932-.413 1.397-.41.815-.55 1.397-.413 1.28-.413 1.398-.413 1.28-.55 1.398-.413 1.28-.413 1.4-.413 1.747-.55 1.747-.412 1.863-.413 1.747-.412 1.747-.55 2.33-.413 2.68-.414 2.68-.413 3.143-.55 3.96-.414 6.29v11.53l.41 6.29.55 4.424.415 2.68.413 3.144.412 2.214.55 2.33.412 2.213.413 1.747.413 1.864.55 1.747.413 1.28.414 1.865.413 1.28.55 1.4.413 1.28.413 1.397.412 1.28.55.933.413 1.28.414 1.398.413.932.55.815.413 1.398.413.815.414.932.55.932.414 1.28.413.933.414.932.413.815.55.932.412.93.412.816.413.467.55.932.413.814.414.932.413.932.55.465.414.815.412.932.413.466.55.816.413.93.412.466.413.932.55.35.414.93.412.466.412.932.55.35.413.465.413.932.414.466.55.816.413.466.413.464.413.932.55.466.414.466.413.816.412.465.55.465.412.466.413.816.413.467.55.465.414.466.413.465.412.465.55.815.413.465.413.465.413.466.55.465.412.35.413.468.414.465.55.465.413.466.414.815.414.465h.963v.932h.825v.932l.963.35.413.464.414.466.413.464.55.465.413.464.413.35.414.465.55.465.413.465.412.467.96.465.414.35h-.413l-2.337-.35-3.577-.465h-8.392l-3.99.465-2.75.35-2.2.466-1.79.465-1.788.466-1.788.463-1.375.466-1.376.35-1.237.463-.963.467-1.238.466-.964.465-1.376.468-.825.35-.963.464-.825.467-1.376.465-.824.466h-2.338l-1.238-.466-1.788-.466-2.34-.466-3.576-.464h-8.803l-3.577.465v.467l1.788.466-2.75 1.05v.23h4.54l9.353.467 2.614.465h1.79v.932h-.825l-1.376.466-.963.35-.825.464-.963.466-.826.465-.962.467-.825.466-.963.35-.826.464-.824.466-.55.465-.825.467-.963.465-.825.35-.412.465-.963.465-.825.466-.963.465-.415.468-.963.35-.825.464-.413.465-.963.465-.824.465-.962.466-.413.35-.962.465-.827.466-.96.466-.413.466-.825.465-.963.35-.827.467-.55.465-.825.466-.964.465-.825.465-.964.35-.825.464-.412.465-.963.465-.825.466-.963.465-.826.35-.963.467-.825.465-.963.465-.826.466-.963.465-1.237.467-.963.35-.825.465-.963.465-1.376.465-.826.466-.963.465-1.237.35-1.376.467-.963.465-1.237.466-1.375.466-1.788.465-1.375.35-1.79.467-2.612.465-1.375.465-9.767 1.048c2.064 1.28 9.08 1.63 12.93 1.63h2.615l1.788-.464 1.376-.466 1.79-.466 1.373-.35 1.238-.466 1.377-.464.963-.466 1.24-.465 1.375-.466.963-.35 1.238-.465.962-.465.825-.467 1.376-.465.96-.466.825-.35.963-.465.824-.466.963-.463.825-.466.826-.464.962-.35.825-.466.964-.466.824-.466.964-.465.825-.466.55-.465.825-.35.963-.465.826-.466.963-.463.41-.466.827-.464.963-.35.825-.465.962-.464.413-.466.963-.466.825-.466.962-.35.413-.465.825-.466.963-.465.826-.466.55-.465.826-.347.963-.466.825-.465.963-.464.414-.466.825-.465.963-.35.825-.466 1.374-.465.413-.466.964-.466.825-.466.962-.35.825-.464.964-.467 1.238-.465.963-.465 1.375-.465 1.238-.35 1.377-.465 1.375-.466h.413l.413.466.963.466.827.35.55.465.826.466.412.466.963.466.413.465.414.35.55.466.414.465.413.467.964.465.413.466.413.35.412.464.413.932.55.465.413.465.413.35.415.464.55.465.414.932.412.465.414.35.55.932.413.466.41.93.413.35.55.932.413.466.413.932.412.815.552.466h-.55l-.826-.466-1.375-.465-1.374-.35-2.2-.467h-10.18l-1.79.466-1.79.35-1.374.464-1.375.466-.824.464-.963.466-1.375.465-.825.466-.413.35-.963.467-.825.465-.55.467-.826.464-.412.466-.963.35-.413.465-.413.466-.55.465-.414.466-.413.466-.413.35-.413.466-.55.466-.41.466-.414.93-.413.35-.55.932-.413.932-.414.816-.413 1.398v6.64l.413 1.862.413.816.41.932.55.932.414.815.413.465.413.93.55.467.414.466.413.35.412.465.41.466.55.465.415.465.413.467.962.35.412.464.413.467.963.465.825.464.413.466.963.35.825.465 1.375.465.964.465.825.466 1.373.466 1.375.35 1.788.465 1.238.465 2.34.466 3.575.465h4.815l3.99-.464 2.338-.466 1.238-.465 1.79-.466 1.375-.35.963-.466.824-.465.962-.466.825-.465.963-.467.826-.35.962-.466.413-.465.413-.466.962-.466.413-.465.413-.35.964-.466.413-.466.413-.466.413-.465.55-.465.412-.35.413-.465.412-.466.413-.465.552-.467.413-.815.413-.466.412-.466.55-.466.413-.932.413-.35.413-.93.55-.468.41-.93h.414l.963.464.413.465.414.467.412.465.963.467.41.35.414.463.55.467.413.466.412.467.412.815.55.466.414.466.413.466.412.93.55.35.412.932.413.932.413.467.55.815.414 1.397.412 1.28.413 1.864v5.708l-.415 1.863-.412.817-.413.932-.55.93-.412.816-.413.467-.412.93-.55.467-.413.465-.413.35-.413.464-.55.466-.414.466-.825.465-.55.467-.825.466-.963.348-.825.468-.963.465v.466l-.827.464.413.817-1.375.233.138.465 7.014-1.514h.964l.413-.464.963-.466.412-.465.413-.468.412-.35.55-.465.413-.466.412-.464.413-.932.55-.466.414-.35.413-.93.413-.932.55-.816.413-1.397.414-1.75.413-2.678v-3.61l-.414-3.145-.413-1.747-.413-.932-.55-1.28-.413-.932-.413-.932-.412-.815-.55-.465-.413-.93-.412-.467-.413-.815-.55-.467-.413-.466-.414-.932-.412-.35-.55-.465-.412-.465-.412-.466-.413-.467-.55-.465-.414-.35-.41-.465-.415-.465-.55-.467-.413-.464-.825-.467-.55-.35-.412-.464v-1.4l.412-1.28.55-1.4.413-1.745.414-2.213v-9.9l-.413-2.213-.41-1.75-.55-1.397-.413-1.28-.413-.933-.413-.933-.55-.815-.413-.932-.413-.932-.413-.816-.55-.465-.412-.465-.413-.932-.412-.35-.55-.465-.414-.466-.414-.468-.413-.465-.55-.466-.413-.35-.413-.463-.413-.467-.412-.464-.55-.466-.825-.465-.413-.35-.964-.465-.413-.465-.962-.466-.825-.468-.963-.465-.826-.35-1.373-.465-1.375-.465-1.788-.467-2.2-.464-3.164-.466h-4.402v-.35h1.79l1.787-.464 2.2-.466 2.75-.465 3.028-.467h7.704l3.026.467 2.2.465 1.377.466 1.788.465.963.35 1.24.467.962.465.824.468.963.465.824.466.55.35.826.464.963.466.413.465.413.465.963.466.413.35.412.464.413.466.55.465.414.47.414.464.413.35.55.465.414.464.413.466.413.465.55.466.414.817.412.466.413.465.55.465.412.816.413.464.414.932.55.932.412 1.28v6.29l-.413 1.28-.55 1.4-.414.464-.412.817-.963.464-.412.466-.412.465-2.202.466.275.815c-3.44-1.398-6.604-.932-6.604-6.638v-2.213c0-2.562 1.513-3.61 3.164-4.542l3.026.583c1.788 2.562 1.375 1.98 1.375 6.174h.55l.827-5.36v-.932l-.41-.932-.414-.35-.55-.464-.826-.465-.962-.465h-4.402l-.963.465-.825.466-.413.466-.55.35-.414.464-.41.933-.414.93-.55 1.75v3.144l.55 2.213.413.93.41.817.414.465.55.932.415.466.413.465.414.35.963.465.413.466.963.464h.826c4.815-.464 7.566-.698 9.767-4.89h1.376l.412-.466.55-.932.413-.932.413 1.397.412.933.55 1.28.413.932.413 1.28.413 1.398.55.932.414 1.28.413.933.413 1.28.55.933.413 1.28.413 1.4.413 1.28.55 1.4.412.93.413 1.28.413 1.4.55.816.41 1.397.414.816.412.93.55.933.413.815.412.466.412.932.55.932.414.35.412.93.413.467.55.933.414.35.413.464.413.932.55.464.412.466.413.35.413.465.552.464.413.932h.825v.815l.962.467.413.465.412.466.55.465.413.465.825.35.413.464.55.465.825.465.964.466.825.465.964.35.825.467 1.374.465 1.376.465 2.202.466h6.74l2.2-.466 1.79-.465 1.375-.465 1.238-.466.963-.35.826-.464.963-.466.825-.465.962-.467.825-.466.41-.35.55-.465.826-.466.412-.466.55-.465.413-.466.414-.35.413-.466.55-.466.412-.465.41-.93.414-.35.55-.932.414-.464.414-.932.413-.815.55-.933.412-.93.412-1.282.412-1.746v-2.33h.55v2.33l.413 1.746.413 1.282.414.93.55.933.414.817.413.933.412.93.55.467.413.35.413.93.412.466.55.466.413.464.412.35.413.466.55.465.414.466.413.466.963.465.412.35.825.465.963.465.826.465.963.466.824.466.964.35 1.238.467 1.376.465 1.79.465 2.2.466h6.74l2.2-.467 1.377-.465 1.375-.465.825-.466 1.376-.35.414-.464.963-.466.824-.465.55-.466.414-.466.825-.35.412-.465.55-.466.414-.467.412-.465.962-.466.413-.35.413-.465.413-.932.55-.465.412-.466.413-.35.412-.466.55-.465.413-.933.413-.465.413-.35.55-.93.413-.467.412-.932.413-.35.55-.93.413-.932.413-.465.414-.816.55-.932.412-.932.413-.816.412-1.397.55-.815.413-1.4.414-1.28.41-.932.55-1.398.415-1.28.413-1.4.413-1.28.55-.932.414-1.28.41-.933.414-1.28.55-.933.412-1.397.413-1.28.412-.933.55-1.28.414-.933v-1.396l.824-2.213.138-1.862c.412 5.24 3.714 10.832 8.804 10.832 4.54 0 8.39-3.96 8.53-8.502l.824.232v-4.19l-.413-.933-.413-.932-.412-.466-.55-.35-.414-.465-.825-.466-.964-.466h-4.403l-.962.464-.825.466-.55.465-.414.35-.413.93v5.358l.826-.932v1.864h.55c0-3.728-.276-6.755 3.577-6.755 2.338 0 3.99 2.214 3.99 4.543v2.213c0 5.358-3.577 6.057-6.74 6.64l.55-.816-2.34-.467-.413-.465-.41-.466-.964-.465-.413-.815-.413-.464-.55-1.397-.413-1.28v-6.29l.414-1.28.55-.933.413-.932.413-.465.413-.816.55-.465.41-.465.414-.466.413-.814.55-.465.414-.465.414-.467.413-.465.55-.466.414-.35.413-.464.413-.467.55-.464.413-.466.412-.465.413-.35.964-.464.41-.465.414-.465.963-.467.824-.465.55-.35.826-.465.963-.465.826-.467.96-.464 1.24-.466.963-.35 1.788-.464 1.376-.466 2.202-.465 3.026-.466h7.705l3.026.467 2.75.466 2.202.466 1.788.465h1.79v.35h-4.403l-3.165.466-2.2.465-1.79.468-1.375.465-1.376.467-.825.348-.964.465-.825.466-.96.465-.414.466-.965.466-.412.35-.825.464-.55.466-.413.465-.413.468-.414.465-.412.35-.55.465-.414.465-.413.466-.414.465-.55.467-.413.35-.41.932-.414.464-.55.465-.414.815-.413.932-.413.932-.55.814-.414.932-.413.93-.413 1.282-.55 1.397-.413 1.747-.413 2.212v9.9l.414 2.212.413 1.746.55 1.398.414 1.28v1.4l-.413.465-.55.35-.824.466-.413.466-.55.468-.414.465-.414.465-.412.348-.55.465-.413.466-.412.465-.413.464-.55.466-.412.35-.412.93-.412.467-.55.467-.413.815-.413.465-.413.932-.55.466-.415.815-.413.932-.413.932-.55 1.28-.414.933-.412 1.747-.413 3.145v3.61l.414 2.68.413 1.747.414 1.396.55.816.414.932.413.93.413.35.55.466.414.932.413.465.413.467.55.466.413.348.412.468.413.465.964.466.413.464.964.466.825.35.963.465.824.467 1.375.466h1.788l8.116-.932-4.95-.814-.55-.466-1.79-.465-1.238-.465-1.376-.466-.963-.468-.413-.35-.825-.465-.55-.466-.826-.464-.413-.465-.55-.465-.414-.466-.413-.35-.413-.466-.55-.466-.413-.932-.413-.467-.412-.816-.55-.932-.414-.932-.413-.815-.412-1.863v-5.708l.413-1.865.414-1.28.413-1.4.55-.814.414-.467.413-.933.412-.93.55-.35.413-.932.413-.465.414-.465.552-.466.412-.816.413-.468.414-.466.55-.466.413-.465.413-.35.962-.466.413-.465.414-.467.412-.467.964-.465h.414l.413.93.55.47.413.93.412.35.413.93.55.468.414.467.413.815.414.466.55.465.414.466.413.466.413.465.413.35.55.465.412.465.413.466.413.466.965.466.413.35.413.464.964.466.412.465.413.467.963.465.825.348.962.466.826.465.962.465.825.466.963.466 1.375.35 1.24.466 1.79.466 2.337.466 3.99.465h4.814l4.128-.466 1.787-.466 1.238-.465 1.79-.465 1.374-.35 1.374-.465.826-.466.962-.465 1.375-.466.825-.466.963-.35.414-.464.825-.466.962-.465.412-.466.413-.466.964-.35.414-.466.412-.465.55-.465.412-.465.413-.466.414-.35.413-.465.55-.467.414-.93.414-.467.413-.815.55-.93.414-.933.413-.816.413-1.862v-6.64l-.414-1.397-.412-.815-.413-.932-.55-.93-.413-.35-.413-.932-.412-.465-.55-.464-.412-.466-.413-.35-.413-.465-.412-.467-.55-.465-.413-.466-.413-.465-.963-.35-.413-.466-.825-.464-.55-.465-.825-.465-.964-.465-.412-.35-.824-.466-1.375-.464-.962-.467-.826-.466-1.375-.466-1.376-.465-1.79-.35-1.786-.466h-10.18l-1.788.467-1.79.35-1.374.465-.825.465h-.55l.55-.466.414-.816.414-.932.413-.466.55-.932.412-.35.412-.93.413-.467.55-.93.413-.35.414-.466.413-.93.55-.467.414-.465.413-.348.412-.466.55-.465.412-.93.413-.467.414-.35.412-.466.963-.465.41-.466.414-.465.55-.465.414-.35.41-.464.964-.466.413-.465.825-.467.55-.465.826-.35.962-.466.413-.466h.414l1.375.466 1.376.466 1.238.35 1.375.464.963.466 1.238.465.963.467.825.465.962.35.825.465.964.465.412.466 1.375.466.825.467.964.35.413.464.824.465.962.465.825.465.964.466.825.35.55.465.826.466.963.465.824.466.413.466.963.35.826.466.962.465.413.466.964.465.825.465.962.35.826.464.413.465.963.465.825.466.964.465.826.35.55.467.825.465.964.465.825.466.963.466.825.466.962.35.825.465.825.465.964.465.826.466.962.465.825.35.96.467 1.376.465.825.466.963.465 1.238.466.965.35 1.375.466 1.237.465.962.465 1.374.465 1.238.467 1.375.35 1.79.465 1.374.465 1.79.465 2.613.466h6.74v-.933l6.33-.932c-3.44-.35-7.155.467-9.905-1.28l-1.376-.465-2.613-.467-1.79-.465-1.376-.35-1.788-.466-1.376-.465-1.237-.466-.962-.464-1.374-.466-1.238-.35-.963-.465-1.375-.465-.826-.466-.964-.467-.825-.465-.963-.35-1.238-.466-.962-.465-.826-.466-.963-.464-.825-.464-.963-.466-.825-.35-.964-.465-.825-.465-.96-.466-.412-.467-.825-.465-.964-.35-.826-.465-.963-.465-.824-.466-.55-.465-.825-.466-.963-.35-.825-.464-.412-.465-.962-.464-.825-.465-.962-.465-.412-.35-.962-.465-.825-.466-.96-.466-.414-.466-.825-.465-.963-.35-.413-.466-.962-.464-.825-.466-.963-.465-.413-.465-.825-.35-.96-.464-.826-.466-.55-.465-.826-.467-.826-.465-.964-.35-.825-.465-.963-.466-.825-.465-.963-.466-.826-.464-.962-.348-1.375-.466h-.825v-.932H376l3.164-.465h8.39l3.578.464 2.2.466 2.34.466 1.79.466 1.787.35 1.787.464 1.238.466 1.377.465 1.375.466 1.376.465 1.238.348.963.465 1.238.466 1.376.464.965.467 1.24.466.96.35 1.377.466.826.466 1.375.466.826.465 1.375.467.964.35.825.464 1.374.466.825.465 1.375.465.962.465 1.238.35.962.465 1.376.465 1.238.465.964.466 1.376.466 1.24.35 1.374.466 1.375.465 1.236.466 1.376.464 1.788.466 1.377.35 2.2.464 2.2.466h3.165l5.777-.466c0 6.406 4.263 12.695 9.352 13.86v1.397l.55.467 2.614.35h2.2l2.75-.35 1.377-.465 1.238-.465.963-.466.413-.464.963-.467.412-.35.825-.467.55-.465.413-.466.414-.465.413-.465.55-.35.413-.932.412-.465.413-.466.55-.816.414-.932.41-1.397v-6.173l-.412-.932-.414-.932-.55-.465-.414-.35-.412-.465-.963-.466h-3.99l-.824.466-.55.465-.412.35-.413.932-.412 1.398v.35l.412.464h1.788l.413-.816.413-.465h2.34l.412.466.413.35.413.93v3.146l-.414 1.397-.413 1.28-.412.466-.55.93-.413.35-.413.466-.412.466-.55.465-.414.467-.413.465-.962.35-.824.465-.963.465-1.238.466-2.338.464h-1.79l-2.2-.465-1.376-.467-.825-.465-.962-.466-.413-.35-.413-.465-.413-.466-.55-.464-.413-.466-.41-.465-.414-.814-.552-.466-.413-.932-.412-1.28-.413-1.865-.414-1.747h2.203l2.613-.465 1.79-.465 1.788-.466 1.375-.35 1.375-.466.824-.466.962-.466.825-.465.963-.466.825-.35.964-.464.41-.466.826-.465.55-.465.414-.465.413-.35.963-.465.413-.465.412-.465.412-.932.55-.35.413-.466.414-.465.414-.932.55-.466.413-.816.412-.933.412-1.28.55-1.864v-3.144l-.55-1.748-.413-.932-.413-.815-.413-.466-.55-.464-.413-.466-.412-.466-.412-.35-1.375-.464h-4.952l-1.788.465-1.375.35-.825.466v1.864l1.788-.466 1.788.465h4.402l.963.348.414.467.412.465.55.93v3.146l-.55 1.28-.412.933-.413.815-.412.932-.55.466-.414.466-.413.464-.412.35-.55.465-.413.464-.413.466-.412.464-.55.467-.826.35-.413.466-.55.466-.824.466-.963.466-.825.465-.964.35-.825.464-.963.465-1.238.465-1.376.465-3.577.466-2.614.35-1.1-3.03h-.276l-.55 3.96-.413-1.28-.825.35-1.79-.35-4.95-.465-3.166-.465-2.2-.466-2.202-.466-2.2-.466-1.79-.35-1.375-.464-1.788-.466-1.376-.465-1.238-.466-1.79-.465-.96-.348-1.377-.467-1.24-.465-.96-.466-1.376-.465-.826-.466-1.376-.35-.825-.464-.964-.468-.825-.465-1.375-.465-.963-.466-.825-.35-1.375-.464-.826-.467-1.375-.465-.96-.466-1.24-.465-1.376-.35-1.375-.467-1.24-.465-1.375-.468-1.375-.465-1.787-.466-1.376-.35-1.788-.464-1.79-.466-2.2-.465-3.165-.465-3.576-.466h-8.805l-3.577.466-2.34.465-1.788.466-1.238.468h-2.752l-.825-.466-.962-.465-.825-.465-.964-.466-.825-.35-1.375-.464-.962-.466-1.238-.465-.964-.467-1.237-.465-1.788-.35-1.376-.465-1.376-.465-1.788-.466-1.79-.464-2.2-.467-2.75-.35-3.99-.464h-8.39l-3.576.465-2.338.35h-.413l.41-.35.964-.464.413-.466.413-.466.552-.465.413-.47.412-.35.413-.463.55-.466.413-.464.413-.466.413-.464.96-.35v-.932h.826v-.932h.963l.41-.816.414-.465.412-.463.55-.466.413-.464.412-.466.413-.35.55-.466.414-.466.41-.465.414-.466.55-.815.413-.466.413-.465.414-.464.55-.465.412-.465.413-.816.41-.466.55-.466.415-.465.413-.816.412-.466.55-.465.413-.932.413-.465.412-.465.55-.816.414-.465.413-.93.413-.467.55-.35.413-.93.413-.466.413-.933.55-.35.413-.93.413-.466.413-.932.55-.816.413-.465.412-.932.413-.816.55-.466.413-.932.412-.932.413-.815.55-.932.413-.466.413-.815.412-.933.55-.933.413-.815.413-.932.412-.932.412-1.28.55-.933.412-.932.413-.814.412-1.4.55-.814.413-.932.412-1.396.413-1.28.55-.933.414-1.28.413-1.397.413-1.28.55-1.4.412-1.28.413-1.863.412-1.28.55-1.748.414-1.864.413-1.747.413-2.212.55-2.33.413-2.212.412-3.144.412-2.68.55-4.425.412-6.29V122.86l-.412-6.29-.55-4.426-.412-3.145-.413-2.68-.414-2.68-.55-2.33-.413-1.745-.413-1.748-.412-1.864-.55-1.747-.413-1.747-.413-1.398-.412-1.28-.55-1.398-.413-1.28-.413-1.4-.413-1.28-.55-1.397-.41-.814-.413-1.398-.413-.932-.55-1.28-.414-.932-.414-.815-.412-1.398-.55-.932-.412-.815-.413-.932-.415-.93-.412-.817-.55-.93-.413-.93-.412-.817-.413-.932-.55-.93-.413-.816-.413-.932-.415-.467-.55-.815-.413-.93-.413-.933-.413-.466-.55-.814-.414-.465-.413-.93-.412-.816-.55-.466-.413-.932-.412-.465-.413-.815-.55-.465-.413-.933-.413-.466-.413-.463-.55-.816-.41-.464-.414-.465-.413-.93-.55-.467-.413-.35-.414-.932-.413-.465-.55-.466-.414-.816-.415-.466-.412-.465-.55-.465-.413-.466-.412-.814-.413-.466-.55-.465-.413-.466-.412-.465-.413-.466-.55-.35-.414-.933-.413-.466-.413-.464-.55-.466-.412-.35-.413-.466-.412-.466-.55-.465-.413-.466-.413-.465-.413-.35-.41-.466-.55-.465-.414-.464-.413-.465-.413-.465-.55-.35-.414-.465-.825-.467-.55-.466-.412-.465-.413-.466-.413-.35-.55-.464-.412-.467-.825-.465-.55-.466-.413-.465-.413-.35-.414-.467-.964-.465-.413-.468-.413-.465-.55-.466-.825-.35-.413-.464-.55-.466-.826-.464-.413-.466-.55-.466-.826-.35-.413-.464-.96-.466-.414-.465-.963-.47-.413-.464-.826-.35-.55-.465-.826-.464-.412-.466-.963-.464-.825-.467-.55-.35-.826-.466-.825-.466-.963-.466L305 15.6l-.962-.467-.825-.35-.962-.464-.823-.468-.962-.465-.825-.466-.965-.464-.825-.35-.963-.466-.825-.464-.964-.466-.825-.465-1.375-.466-.825-.35-.963-.467-1.376-.466-.825-.465-1.377-.466-1.376-.465-1.238-.35-.963-.464-1.375-.466-1.65-.464-1.377-.467-1.375-.467-1.788-.35-1.375-.466-2.2-.465-1.79-.466-1.787-.465-2.2-.465-2.75-.35-2.615-.465-3.164-.465-4.4-.465H231.69l-4.446.466zM129.444 337.63l-.413 1.398-.41.35-.55.93-.414.467v.932h-.825l-.412.35-.55.464-1.24.468h-4.538l-1.376-.466-.825-.464-.414-.35V325.17l.412-.467.824-.465.962-.466.825-.466 1.79-.35h.55l2.2.35.826.465.963.466.412.466.413.468.413.465.55.816.412.93.413.933.413 1.28v6.29l-.414 1.75zm-7.978-29v.466l.825.467.55.35.827.465.413.465.55.932.412.816v2.68l-.413.467-.55.93-.827.467-.963.465-.824.35-.963.464-.413.465-2.2.466-.964.465-.413-3.494-3.163 1.28h-3.028l-.55-.464-.412-.464h-.413l-1.238.35-1.653-1.05 1.514 1.63-.412.817c0 1.164 1.237.35-.414.932h-.964v3.144l2.202.466 1.375.35.412.93.55 3.61v.467l-.55 29.467v1.28h-.826l-1.788.466-1.79.466v3.61h16.92v-3.61l-1.79-.466-2.2-.466-.413-.465-.412-.816v-9.436l2.2.467h1.79l1.788-.466 1.376-.465.825-.468 1.374-.35.825-.464.412-.467.962-.464.825-.466.55-.466.413-.35.825-.465.55-.465.413-.465.413-.465.413-.465.55-.816.414-.465.413-.468.413-.932.55-.348.413-.932.412-.93.413-1.282V325.17l-.414-.932-.412-.932-.413-.816-.55-.466-.413-.932-.413-.465-.414-.35-.55-.466-.413-.464-.825-.468-.55-.465-.825-.466-.964-.348-.826-.466.413-1.4v-3.143h-.412l-.962.933c-.276-3.378-5.503-7.105-9.354-7.105h-2.61c-1.515 0-1.515.233-2.203.816 1.376-.116 1.514-.465 3.027-.465h1.375c1.512 0 1.786.35 3.024.465l.14 1.395zM375.946 328.312l.825.35h.965v6.753l-.413 1.748-.55 1.397-.41.817-.414.93-.412.467-.55.465-.414.464-.413.35-.963.464-.825.465-2.2.465h-.55l-2.2-.465-.826-.466-.963-.466-.412-.35v-16.537l.414-.467.964-.467.825-.466.96-.466 1.79-.35h.412l2.2.35.963.466.825.465.413.465.55.466.413.466.412.817.41.932h-1.236v.464l.412.467zm-19.67-15.723h-.413v3.143l.413 1.398.412.816-.412.466-1.79.465-.824.467v3.144l2.2.465 1.376.35.412 1.396v34.358h-.962l-1.79.465-1.787.466v3.61h17.06v-3.61l-2.34-.466-1.788-.466h-.824v-10.716l2.2.467h1.376l1.79-.467 1.787-.465.825-.468 1.376-.35.964-.464.412-.466.825-.465.964-.466.413-.466.413-.35.55-.464.825-.465.413-.465.55-.466.413-.465.415-.818.412-.465.55-.466.412-.93.412-.35.414-.93.413-1.4.55-1.28v-1.747l-.55-8.502v-.93l-.414-.933-.413-.816-.412-.465-.41-.932-.55-.465-.413-.35-.413-.466-.412-.465-.962-.468h-.412l-1.79-.937 1.513-2.096-2.062 1.63-1.238-.348h-3.99l-.962.464h-.825l-.965.35-.825.465-.962.464h-2.2l-.413-2.678h-1.375l-1.376.465h-.825l-.55-.93-.414-.467-.413-.35-.825-3.144c1.376-2.33 4.265-5.01 7.98-5.01h1.374c1.515 0 1.652.35 3.028.466-.688-.58-.688-.815-2.202-.815h-2.613c-3.99 0-9.078 3.495-9.354 7.106l-.963-.93zm-134.39 16.533l.413-2.213.55-1.28.412-.932.413-.932.413-.466v-.815h.962l.412-.467.963-.465h3.44l.962.465.825.467.55.465.413.35.413.465.414.932.55.93.414.817.413 1.397.412 1.75v8.5l-.412 1.75-.412 1.397-.413.815-.55.467-.414.464-.41.465-.964.465-.826.465h-2.614l-.964-.465-.825-.466-.55-.466-.825-.465-.413-.817-.55-.464-.415-.933-.413-.932-.413-1.28-.55-1.398-.414-2.68v-4.89zm2.2-11.53l-.823.35-.964.464-.827.466-.962.466-.412.463-.826.466-.55.35-.414.464-.412.465-.413.464-.55.467-.413.816-.413.466-.414.932-.55.932-.413.815v-5.356l-.413-3.494h-25.862l-.55.35-.413 5.824v3.61l.413.465h3.164l.41-1.865.55-1.28.414-1.4.413-.814.962-.466 3.99-.465-.414 21.43-.55.465-.826.466-3.164.466v3.494h16.507v-3.493l-2.613-.465-1.375-.466-.413-.93-.413-20.966 3.44.465 1.373.467.413.815.552 1.398.412 1.747.413 1.397h3.164l-.412 1.28v8.036l.413 1.397.414 1.28.413.933.55.932.413.348.413.932.414.466.55.465.413.465.41.35.414.466.55.466.827.466.413.465.962.466.825.35.963.465 1.376.465 2.612.466h3.164l2.2-.466 1.377-.466.824-.467.962-.35.825-.464.965-.465.412-.465.412-.465.412-.466.55-.35.413-.465.413-.465.413-.466.55-.933.413-.35.413-.93.414-.933.55-.815.414-1.865.413-1.747v-5.824l-.412-1.748-.413-1.397-.55-.815-.414-.932-.412-.932-.412-.815-.55-.465-.413-.466-.412-.465-.413-.467-.55-.466-.413-.35-.412-.464-.413-.466-.965-.466-.825-.465-.962-.465-1.376-.348-1.24-.466h-6.326l-1.79.467zm75.107 10.252h2.614l.413-.932.55-1.28.412-1.4.413-1.28.413-.465.962-.467 3.577-.463-.55 21.896-1.238.466-2.753.465v3.494H320.1v-3.495l-2.612-.466-1.375-.467-.413-21.896 3.576.465.825.468.415.466.55.815.414 1.398.41 2.212.414.465h2.75l.414-.466v-9.435l-.413-.35h-25.86l-.55 2.68-.414 6.172v.93zm-17.053 9.785l.412-.93.55-.35.826-.466.963-.466.827-.465.962-.466.824-.465.964-.35.825-.465v8.037l-.825.466-.964.35-1.375.464h-1.79l-.825-.465-.413-.35-.55-.467-.412-.932v-2.68zm2.2-20.032l-1.238.35-.962.465-.825.465-.962.467-.825.465-.964.466-.413.35-.823.464-.55.466-.412.465-.413.47-.412.464-.55.35-.414.465v2.21l.413.933.55.466.413.464.414.467.962.35h2.2l.826-.35.55-.466.413-.932.412-1.746.412-.932.413-.932v-.815h.962l.824-.467h1.376l1.375.467.412.465.413.35.55.465.413 1.397.414 1.747v1.748l-.825.465-.964.466-1.375.464-.824.466-1.377.465-1.375.35-.825.465-1.376.465-1.238.465-.964.466-.825.465-.55.35-.41.467-.414.465-.413.467-.55.464-.414.816-.414 2.33v1.746l.413 2.213.412.93.55.816.413.466.413.466.412.466.55.465.413.465.414.35.963.465.825.466 1.79.466h2.2l1.376-.466.826-.466.963-.466.41-.35.964-.465.414-.466.825-.466h.55l.412.932.413.466.413.35.55.465.826.466 1.376.466h1.374l.825-.465.96-.466.415-.466.825-.35.963-.465.412-.466.963-.466.825-.465v-1.28l-.413-.933-.412-1.282h-1.375l-.964.35h-1.24l-.55-.35-.41-16.54-.415-2.212-.413-1.398-.55-.932-.413-.35-.414-.464-.413-.466-.55-.466-.414-.466-.826-.465-.963-.35-.824-.467h-4.54l-1.377.474zm-138.796 8.378l.413-.816.55-.932.413-.932.413-.35.413-.464.962-.467.825-.465h2.34l.824.465.412.467h.96v.815l.414.466.413 1.397v1.747l-9.904.466.55-1.397zm2.2-8.386l-.824.35-.963.464-.826.466-.41.466-.55.466-.826.465-.413.35-.55.465-.412.465-.413.466-.412.466-.55.813-.414.466-.414.93-.413.467-.55.816-.413 1.397-.414 1.282v1.864h-.413v-3.61h-.55v7.104l.55 3.145.413 1.864.413 1.28.41.93.55.816.414.932.413.465.413.93.552.35.412.467.413.465.962.466.41.466.414.466.963.35.826.465 1.375.465 2.2.466h3.163l1.79-.465 1.238-.466.962-.467.826-.35.55-.465.825-.465.414-.466.55-.465.414-.467.413-.35.413-.465.55-.464.413-.466.413-.465.413-.466v-1.282l-.413-.465-.412-.466-.413-.815h-.962l-.825.35-.55.463-.414.466-.413.464-.96.466-1.24.465-1.374.35h-2.613l-1.375-.35-.963-.465-.825-.466-.414-.465-.55-.467-.413-.465-.413-.348-.413-.466-.55-.932-.413-.93-.413-1.282-.41-2.213-.55-1.4h4.126l7.566-.464 4.403-.35 1.375-.465v5.823l.413 2.214.414 1.28.55.933.413.93.412.817.412.465.55.93.414.466.413.348.413.467.55.466.412.466.826.465.55.467.827.35.963.465 1.237.465 2.752.466h2.61l1.79-.465 1.375-.466.825-.467.964-.35.825-.465.55-.464.412-.466.825-.465.55-.467.413-.35.414-.464.413-.466.55-.465.412-.93.41-.35v-1.396l-.412-.466-.413-.466-.55-.35-.413-.465h-.413l-.413.465-.962.35-.413.464-.413.465-.55.466-.827.466-.963.465-1.787.35h-2.614l-1.377-.35-.825-.464-.965-.466-.413-.465-.825-.466-.55-.816-.413-.466-.413-.932-.413-.932-.55-.815-.413-1.865v-5.357l.413-1.748.55-.932.413-.815.414-.466.413-.932.962-.466.41-.35 1.377-.465h3.99l.824.464.963.35.825.465.55.464.412.467.413.467h2.75l.414-.466.412-.466.412-.465.55-.817v-2.68l-.55-.932-.413-.465-.826-.466-.55-.466-.825-.348-1.377-.466h-6.19l-1.375.466-1.375.35-1.238.464-.55.466-.825.466-.963.466-.414.465-.825.348-.55.467-.412.465-.413.464-.412.467-.55.466-.412.35-.413.464-.413.466-.55.932-.414.466-.412.815-.413.93-.55.933v-3.61l-.413-1.4-.413-.814-.414-.467-.55-.932-.412-.465-.412-.35-.412-.464-.55-.465-.414-.467-.825-.467-.55-.465-1.24-.35-.962-.464h-5.778l-1.375.467z"/><path d="M333.034 327.845l.413-1.864.55-.813.413-.932.413-.932.412-.35.55-.464.413-.468.825-.464h4.127l.825.465.413.468.963.466.415.816.412.464.55.932.414.815.414.933.412 1.398.55 2.68v6.173l-.55 2.213-.412 1.397-.413.932-.412.814-.55.466-.413.465-.826.467-1.376.465h-2.2l-1.376-.465-.963-.466-.413-.464-.412-.466-.413-.465-.55-.815-.412-.466-.413-.933-.413-1.28-.55-.933-.414-2.214v-7.57zm2.202-10.25l-1.24.35-.962.465-.825.465-.414.467-.963.465-.413.466-.412.35-.55.464-.414.466-.412.465-.413.467-.55.465-.415.816-.413.465-.413.934-.55.815-.414.93v.467l-.413 1.28-.413 2.33v4.426l.414 2.212.413 1.398.413.815.55 1.398.413.465.413.817.413.465.55.466.41.466.413.465.413.35.55.465.414.465.414.466.963.465.412.466.823.35.963.465 1.79.467 2.2.466h3.577l2.2-.466 1.377-.466.826-.465.963-.35.823-.465.55-.466.826-.466.412-.465.55-.467.413-.35.413-.464.412-.466.55-.93.412-.467.413-.817.413-.932.55-.93.414-1.28.413-1.4v-8.385l-.413-1.398-.413-1.28-.55-.932-.414-.467-.413-.933-.412-.35-.55-.93-.412-.466-.414-.466-.413-.465-.55-.35-.824-.466-.413-.465-.55-.467-.826-.466-.964-.465-1.238-.35-1.376-.465h-6.74l-1.377.467zM266.04 338.09l-.413.93-.413.816-.413.932-.55.466-.412.465-.825.347-.55.466-.825.465h-4.952l-1.238-.466-.55-.466-.826-.35V325.16l.826-.466.55-.467.826-.465 1.375-.466 1.79-.35h.41l1.79.35.823.466.963.465.413.467.412.466.55.466.413.35.413.93.412.932.55 1.28v7.223l-.55 1.75zm-14.72-21.43l-1.237.464-1.376.466-1.375.35-1.79.464-2.2.466-.962.466v3.145l2.338.467 1.238.35.55.465v34.825l-.55.466-1.788.466-2.2.466v3.61h17.47v-3.61l-2.34-.467-2.2-.466-.414-.465-.413-2.68-.41-8.037.824.465 1.79.466h1.787l1.79-.465 1.375-.467 1.238-.467.962-.35.825-.465.963-.464.825-.466.55-.465.413-.466.827-.35.55-.466.414-.464.413-.466.413-.465.55-.467.413-.35.412-.465.414-.932.55-.466.412-.815.413-.932.413-.932.55-.814.414-1.864.413-2.68v-3.145l-.414-2.68-.413-1.28-.55-.932-.414-.816-.415-.466-.412-.932-.55-.465-.413-.466-.412-.35-.413-.465-.55-.465-.413-.467-.825-.466-.964-.465-.825-.35-1.375-.465h-4.952l-1.374.466-.825.35-.412.464-.963.466-.825.466-.965.463-.413.466-.825.35v-4.428h-1.375l-.96.466zm-9.355 87.938c1.02-.532 1.64-.877 2.2.465-1.388.69-2.806 2.272-2.2-.465zm7.152-2.68l-.825-.465.825.466zm-2.613-.465l-.55.466c.183-.157.367-.31.55-.468zm-11.28.466h1.376-1.376zm13.068-.468h-1.788 1.788zm-8.53 0c-.42-.112-.607-.015-.96-.35l.96.35zm-2.75-.35c.138-.115.275.117.275.117-.09-.04-.183-.078-.274-.117zm1.79 0c-.298-.475-.24-.38 0 0zm11.69-1.863c.605-.29 1.542-.327 2.202-.466v1.048c-.662-.175-1.6-.26-2.2-.583zm-16.093 0c-.726-.11-1.154.03-1.79-.466 1.043.076 2.134.167 3.164.35l-1.376.115zm3.162-2.214c.15.31.285.597 0 0zm11.142-.466c2.395-1.774 8.9-.995 8.94 2.74.05 4.485-5.786 3.595-8.528 2.62 8.276 3.02 7.49-8.76-.412-5.36zm-17.058 0c-3.61 2.756.173 5.855 3.577 5.36-2.76 1.174-8.967.156-6.396-4.194 1.475-2.496 6.8-2.442 8.735-.7-1.824-.984-3.98-1.282-5.916-.465zm12.518-2.212c-1.476.947-3.358.207-4.952 0 1.932-2.84 5.182-3.345 7.29-.466-.993-.157-1.49.386-2.338.466zm-15.956-.465zm25.86-9.318c1.15-.76 7.158-1.97 5.57.64-1.048 1.726-5.635.38-5.57-.64zm-9.354.816c-1.205 1.286-1.88 1.236-3.164.933-2.136-.503-1.927-1.068-1.376-1.747 1.96-2.415 7.646-.362 4.54.816zm-14.307-.35c-1.943.62-4.51.987-4.953-1.396 1.19 0 8.745.107 4.952 1.398zm-5.778-4.074c5.36-2.294 9.81 3.444 14.17-.466-4.79-2.258-11.516-3.512-16.578-1.398-3.713 1.55-5.982 5.72-3.233 9.2 3.093 3.92 8.717 2.352 12.654 1.166 1.36-.41 5.98-2.476 4.953.932-.264.876-4.13 2.21-4.953 2.446 2.708-.018 5.562-2.352 7.703-3.843-3.492-3.63-6.208-.617-10.62-.466-3.846.13-9.865-5.02-4.098-7.572zm29.436-.467c10.394-2.69 11.796 10.22 1.556 8.442-1.57-.27-8.513-3.507-9.122.06-.245 1.434 5.1 3.878 6.19 4.077-1.205-.586-5.498-2.34-3.577-4.077 1.41-1.272 6.536 1.832 8.066 2.092 4.81.82 13.585-1.104 11.054-8.12-1.88-5.21-9.63-5.232-14.04-4.627-.92.126-7.828 1.748-7.694 2.968.3 2.734 6.67-.55 7.565-.815zm-32.602-5.358c-5.316 1.735-8.9 6.917-6.74 12.58 2.23 5.842 8.15 6.173 13.48 6.173-6.262 2.737-2.11 10.405 2.936 11.18 3.394.523 5.016-.506 7.657 1.75 1.948 1.66 2.456 4.714 4.85 3.376 1.597-.893 2.234-3.642 4.368-4.426 2.515-.923 5.625.55 8.46-.466 4.708-1.685 5.868-8.446 1.17-10.948 5.64 0 12.834-.208 14.305-7.106 1.182-5.537-3.02-9.89-7.704-11.647-4.013-1.506-8.715-1.242-12.844-.345-2.716.59-5.484 2.628-8.066 3.024-2.99.458-6.475-1.883-9.354-2.68-3.948-1.09-8.488-1.508-12.518-.465z"/></g></svg>