<svg class="svg-icon icon-mamamo" xmlns="http://www.w3.org/2000/svg" fill-rule="evenodd" viewBox="0 0 158 195.004" clip-rule="evenodd" image-rendering="optimizeQuality" shape-rendering="geometricPrecision" text-rendering="geometricPrecision"><path class="contour" fill="#90241f" d="M79-.44c7 0 11 10 17 12 7 3 16-6 22-2s4 14 9 20c4 5 17 2 20 9 3 6-4 14-3 21 2 7 14 11 13 18 0 6-10 10-13 17-2 6 6 16 3 21-4 6-15 5-20 9-5 5-3 17-9 20s-14-4-21-2c-7 1-11 13-18 12-7 0-11-10-17-12-7-2-17 6-22 2-6-4-4-14-9-20-4-5-17-2-20-9-3-6 4-14 3-21-2-6-14-11-13-17 0-7 10-11 12-18 3-6-6-16-2-21 4-6 15-5 20-9s3-17 9-20 14 4 21 2c7-1 11-13 18-12z"/><path class="background" fill="#e31e24" d="M115 13.56c-1 0-5 1-6 2-5 1-10 3-15 1-4-1-7-4-10-8-1-1-4-4-5-4-2 0-4 3-5 4-3 4-7 8-12 9-4 0-8-1-13-2-1-1-2-1-4-1 0 0-2-1-3-1v1c-1 1-1 5-2 6-1 5-2 10-6 13-3 3-7 4-11 5-2 0-7 1-7 2-1 2 1 5 1 7 2 4 3 9 2 14h-1c-1 4-4 7-7 10-1 1-5 4-5 6l5 5c3 3 7 6 8 12 1 4 0 8-2 12 0 1-1 3-1 4v3c1 1 5 2 6 2 5 1 10 2 13 6h1c2 4 3 8 4 12 1 1 2 6 3 7 1 0 5-1 6-2 5-1 10-3 15-1 4 2 7 5 10 8l5 5c2-1 4-4 5-5 3-4 7-7 12-8 4-1 8 0 13 1 1 1 2 1 4 1 0 1 2 1 3 1 1-1 1-5 2-7 1-4 2-9 6-13 3-3 7-4 11-5 2 0 7-1 7-2 0-2-1-5-1-7-2-4-3-9-2-14h1c1-4 4-7 7-10 1-1 5-4 5-6-1-1-4-4-5-4-3-4-7-7-8-12s0-9 2-13c0-1 1-3 1-4v-3c-1-1-5-2-6-2-5-1-10-2-13-6h-1c-2-4-3-8-4-12-1-1-2-6-3-7z"/><path class="head face" fill="#fefefe" d="M92 61.56H65c-8 0-16 13-12 30s15 31 25 31h1c10 0 21-14 25-31s-4-30-12-30z"/><path class="head hair dark" fill="#2b2a29" d="M55 39.56c-13 4-16 14-16 30 0 15 3 25 16 29v-1c-3-7-3-14-2-20 7 0 17-5 26-12 8 7 18 11 25 12 1 6 1 13-1 20l-1 1c13-4 16-14 16-29 0-16-3-26-16-30-12-15-35-15-47 0z"/><path class="head dark" fill="#e31e24" d="M79 112.56c-4 0-6-2-7-5 2 1 4 2 7 2 2 0 5-1 6-2-1 3-3 5-6 5z"/><path fill="#e31e24" d="M100 33.56c-2 0-3 1-3 4 0 2 1 3 3 3s4-1 4-3c0-3-2-4-4-4zM57 33.56c-2 0-4 1-4 4 0 2 2 3 4 3s4-1 4-3c0-3-2-4-4-4z"/><path class="head dark" fill="#2b2a29" d="M67 83.56c-1 0-3 0-4 1-2 0-3 0-3-1 0 2 1 4 4 3 4-1 7-1 11 1-1-2-4-4-8-4zM90 83.56c2 0 3 0 4 1 2 0 3 0 4-1 0 2-2 4-5 3-4-1-7-1-11 1 1-2 4-4 8-4z"/><path class="text" fill="#c92223" fill-rule="nonzero" d="M29 189.56c0 2-2 3-3 3-2 0-3-1-3-3v-11c0-1 0-2-1-2 0-1-1-1-2-1s-1 0-2 1c0 0-1 1-1 2v7c0 2-1 3-3 3-1 0-3-1-3-3v-9c-1-1-2-1-2-1-1 0-2 0-2 1-1 0-1 1-1 2v11c0 2-2 3-3 3-2 0-3-1-3-3v-11c0-3 1-5 2-7 2-1 4-2 7-2 2 0 4 1 5 2 2-1 4-2 6-2s5 1 6 2c2 2 3 4 3 7v11zM37 189.56c0 2-1 3-3 3-1 0-3-1-3-3v-11c0-3 1-5 3-7 1-1 4-2 6-2s5 1 6 2c2 2 3 4 3 7v11c0 2-2 3-3 3-2 0-3-1-3-3v-1h-6v1zm6-7v-4c0-1-1-2-1-2-1-1-1-1-2-1s-2 0-2 1c-1 0-1 1-1 2v4h6zM88 189.56c0 2-1 3-3 3-1 0-2-1-2-3v-11c0-3 0-5 2-7 2-1 4-2 6-2 3 0 5 1 6 2 2 2 3 4 3 7v11c0 2-1 3-3 3s-3-1-3-3v-1h-6v1zm6-7v-4c0-1 0-2-1-2 0-1-1-1-2-1s-1 0-2 1c0 0-1 1-1 2v4h6zM149 169.56c2 0 5 1 6 2 2 2 3 4 3 7v8c0 2-1 4-3 6-1 1-4 2-6 2-3 0-5-1-6-2-2-2-3-4-3-6v-8c0-3 1-5 3-7 1-1 3-2 6-2zm0 6c-1 0-2 0-2 1-1 0-1 1-1 2v8s0 1 1 2h4c0-1 1-2 1-2v-8c0-1-1-2-1-2-1-1-1-1-2-1zM57 189.56c0 2-1 3-3 3s-3-1-3-3v-11c0-3 1-5 3-7 1-1 3-2 6-2 2 0 4 1 6 2 1-1 3-2 5-2 3 0 5 1 6 2 2 2 3 4 3 7v11c0 2-1 3-3 3s-3-1-3-3v-11c0-1 0-2-1-2 0-1-1-1-2-1 0 0-1 0-2 1v9c0 2-2 3-3 3-2 0-3-1-3-3v-7c0-1-1-2-1-2-1-1-1-1-2-1s-2 0-2 1c-1 0-1 1-1 2v11zM138 189.56c0 2-2 3-3 3-2 0-3-1-3-3v-11c0-1 0-2-1-2 0-1-1-1-2-1s-1 0-2 1c0 0-1 1-1 2v7c0 2-1 3-3 3-1 0-3-1-3-3v-9c-1-1-2-1-2-1-1 0-2 0-2 1-1 0-1 1-1 2v11c0 2-2 3-3 3-2 0-3-1-3-3v-11c0-3 1-5 2-7 2-1 4-2 7-2 2 0 4 1 5 2 2-1 4-2 6-2 3 0 5 1 6 2 2 2 3 4 3 7v11z"/></svg>