<svg xmlns="http://www.w3.org/2000/svg" viewBox="0 0 508.846 381.212" class="svg-logo svg-icon nostroke"><path class="first" fill-rule="evenodd" d="M190.513 190.103l.433-.488.433-.488.575-.49.433-.365.432-.488.433-.977.577-.488.433-.857.433-.977.433-.977.577-.856.432 1.343.432.977.433.855.577.976.433.488.433.977.432.367.577.49.43.487.434.488h-9.81zm111.92-110.51l-.577 1.832-.433 2.81-.432 98.42-.43 2.81-.578 1.342-.432.977-.433.488-.433.366-.577.49-.865.487-1.442.488h-2.308l.433-.488.577-.488.433-.855.433-.977.433-.977.433-2.81.577-97.32.432-2.81.433-1.464.432-.977.577-.855.433-.49.433-.487 1.01-.488.864-.488h1.442l-.433 1.462zm-105.43-1.465h-1.875l1.01.488.432.488.433.488.577.49.433.487.433.364.433.488.575.488.432.978.433.49.433.854.577.977.433.975.433.855.433.978.575.977.433.855.432.977.433 1.343.577.977.433.977.433 1.343.432.977.577.977.432 1.345.432.977.432 1.344.577.977.432.978.432 1.344.433.978.577.855.433 1.465.433.977.432 1.342.577.977.43.976.434 1.343.433.976.433.855.577 1.466.432.977.432 1.342.433.977.577.854.433 1.465.432.977.433.855.577 1.466.433.855.433.978.433 1.466.576.855.432.978.433 1.343.434.978.578 1.465.434.855.433.977.433 1.343.577.977.433.977.433 1.342.434.977.577.977.434 1.343.433.976.432 1.343.576.975.432.977.432 1.343.433.977.577.855.433 1.465.433.977.433 1.342.576.977.432.854.433 1.465.433.976.577.855.433 1.466.433.977.433 1.343.576.977.433.855.43 1.464.434.977.577.855.434 1.465.433.856.433.977.577 1.465.432.855.432.977.433 1.343.432.977.577 1.465.432.855.432.977.433 1.343.578.977.433.977.434 1.343.433.977.578 1.343v1.954h.865v-1.952l.432-.855v-4.274l-.432-1.344-.433-1.465-.433-1.342-.577-.977-.433-1.342-.433-.977-.432-.976-.576-1.343-.433-.976-.433-1.343-.432-.976-.577-1.465-.433-.856-.433-1.465-.433-.856-.43-.977-.58-1.465-.43-.854-.434-1.465-.433-.976-.577-1.343-.433-.976-.432-.855-.432-1.466-.578-.977-.433-1.343-.434-.977-.433-.855-.577-1.465-.432-.977-.432-1.343-.43-.977-.578-1.343-.433-.977-.434-1.343-.433-.977-.577-.977-.433-1.343-.432-.977-.432-1.343-.577-.977-.433-1.465-.433-.854-.433-.977-.576-1.344-.433-.977-.432-1.466-.434-.854-.577-1.465-.434-.854-.433-.976-.433-1.466-.577-.855-.433-1.466-.433-.855-.432-1.466-.577-.977-.433-1.344-.433-.977-.434-.856-.578-1.465-.433-.978-.433-1.343-.433-.978-.578-.855-.433-1.465-.434-.977-.43-1.343-.578-.977-.433-1.343-.434-.977-.432-.977-.432-1.343-.576-.977-.432-1.343-.433-.977-.434-1.465-.576-.854-.434-.978-.432-1.344-.433-.977-.576-.977-.434-.855-.432-.977-.432-.976-.577-.855-.433-.978-.433-.976-.434-.488-.576-.366-.433-.977-.432-.488-.433-.488-.577-.49-.865-.366-.433-.488-1.01-.49-.864-.487-1.01-.49-1.443-.49zm-21.49-.854l.434.488 5.624.366 2.454.488 1.298.488 1.443.488 1.442.49.865.487 1.01.364.432.488.865.488.576.49.433.487.864.49.577.365.433.488.433.977v81.936l-.433 5.617-.433 2.32-.578 1.954-.433 1.343-.435 1.465-.433.855-.577.977-.433.977-.433.857-.434.488-.577.488-.433.977-.433.366-.432.488-.577.488-.865.488-.432.49-1.01.487-.865.366-1.01.49-1.298.487-1.875.488-4.76.488v6.96h45.43v-6.96l-4.18-.488-2.453-.488-.865-.488-1.442-.49-.865-.365-.433-.488-1.01-.49-.432-.49-.433-.487-.577-.488-.433-.367-.433-.49-.432-.487-.577-.487-.432-.977-.433-.367-.433-.977-.577-.977-.433-.855-.433-.976-.433-.977-.575-1.832-.433-1.465-.432-2.32-.433-3.662-.288-75.098.287 1.1.433 1.342.433.977.434.853.577 1.465.434.976.433 1.343.434.976.577.855.434 1.467.433 1.343.432.977.576.977.432 1.343.433.977.434 1.465.577.854.434 1.466.432.854.433.977.576 1.466.433.855.432 1.466.432.855.577 1.465.433.977.432.855.433 1.465.433.855.578 1.465.432.977.433 1.342.433.977.577 1.342.433.977.432.976.433 1.343.578.976.433 1.343.434.976.434 1.343.577.976.433.977.433 1.343.434.977.576 1.343.433.977.432 1.465.433.854.577.977.433 1.343.433.977.434 1.466.578.855.433 1.467.434.855.432 1.466.577.977.432.855.432 1.465.432.977.577 1.343.432.977.433 1.343.433.977.578.977.432 1.342.433.977.432 1.342.577.977.432 1.342.433.977.433 1.464.577.855.433.976.432 1.343.433.976.577 1.465.433.855.433 1.465.432.854.577.977.432 1.467.432.855.433 1.466.432.855.577 1.466.432.976.433.855.432 1.467.577.855.432.487h5.625l.432-.49.432-1.343.577-.977.432-1.344.433-.977.433-1.345.577-.977.432-.978.433-1.343.433-1.466.578-.854.434-.978.434-1.465.433-.855.578-1.465.433-.855.434-1.465.432-.977.577-1.343.432-.977.433-1.343.433-.977.578-1.343.433-.977.433-1.465.433-.854.577-1.465.433-.854.433-1.465.432-.976.576-1.343.432-.976.433-1.343.433-.976.577-1.465.433-.856.433-.977.432-1.342.576-.977.433-1.464.433-1.343.433-.976.433-.855.576-1.465.433-.977.432-1.344.434-.977.577-1.344.433-.977.433-1.344.43-.977.578-1.466.433-.856.434-1.466.434-.855.577-1.466.434-.977.432-1.343.433-.977.577-1.343.433-.977.433-1.343.432-.977.577-1.465.433-.855.433-1.465.433-.855.578-.977.433-1.465.433-.855.433-1.465.577-1.343.433-.977.433-.977.432-1.342.577-.977.43-1.342.434-.977.432-1.464.577-.855.432-1.464.433-.855.433-1.464.577-.977.433-1.344.433-.977.433-1.344.577-.977.433-1.344.433-.977.434-1.466.577-.854.434-1.465-.432 88.53-.576 2.81-.433.977-.433 1.343-.433.977-.577.488-.432.488-.433.367-.433.488-.578.488-.433.49-.434.49-1.01.486-.864.367-1.442.49-1.44.487-2.31.488-5.19.488v6.96h58.12v-6.96l-6.634-.488-2.308-.488-1.875-.488-.865-.49-1.01-.365-.432-.487-.865-.49-.575-.487-.433-.488-.432-.855-.433-.488-.577-.977-.433-1.343-.433-2.81V88.508l.433-2.32.433-.977.577-.976.433-.855.433-.978.434-.487.577-.488.866-.488.433-.367 1.008-.487.866-.49 1.01-.487 1.298-.49 2.453-.487 6.057-.366V70.68h-38.796l-.577.49-.432 1.343-.432.977-.433 1.465-.578.855-.433.977-.434 1.343-.433.977-.577 1.466-.432.855-.433 1.465-.432.855-.576 1.465-.432.977-.433.855-.434 1.465-.577.855-.434 1.465-.433.977-.433 1.343-.577.977-.433.855-.433 1.465-.433.977-.576 1.343-.433.977-.43 1.343-.434.977-.576 1.343-.434.977-.433 1.465-.433.853-.577.977-.432 1.466-.432.855-.433 1.467-.577.855-.433 1.467-.433.976-.433.855-.578 1.465-.433.855-.434 1.464-.434.977-.577 1.345-.433.977-.433 1.344-.43.977-.578.978-.433 1.344-.434.978-.434 1.343-.577.978-.434 1.343-.433.978-.433.977-.433 1.344-.577.977-.433 1.344-.433.977-.432 1.466-.577.855-.43.978-.434 1.343-.43.978-.578 1.465-.433.855-.434 1.465-.432.855-.577 1.465-.432.977-.432.855-.433 1.464-.577.854-.433 1.464-.433.977-.433 1.344-.577.976-.432.856-.433 1.465-.433.978-.578 1.343h-.433l-.434-1.342-.434-.977-.577-1.465-.434-.855-.432-.976-.432-1.343-.576-.975-.433-1.465-.432-.856-.433-.977-.577-1.343-.433-.977-.432-1.465-.433-.855-.577-.977-.433-1.343-.433-.977-.433-1.465-.576-.855-.432-.977-.433-1.343-.434-.977-.578-1.465-.433-.855-.434-.977-.432-1.343-.577-.977-.432-1.465-.433-.853-.432-.977-.577-1.344-.43-.977-.434-.98-.433-1.342-.433-.978-.576-1.343-.43-.978-.434-.978-.434-1.343-.577-.978-.434-1.343-.43-.978-.434-.977-.576-1.343-.433-.977-.432-1.343-.433-.977-.577-.977-.432-1.342-.433-.977-.432-1.465-.576-.855-.433-.976-.433-1.343-.433-.975-.577-1.465-.433-.856-.432-.977-.433-1.343-.578-.977-.433-1.465-.434-.855-.433-.977-.577-1.343-.433-.977-.433-1.465-.432-.855-.577-.977-.43-1.343-.434-.977-.433-1.465-.577-.855-.433-.977-.433-1.343-.433-.977-.577-1.465-.433-.853-.433-.977-.433-1.344-.575-.977-.433-1.467-.43-.855-.434-.978H175.53v6.592z" clip-rule="evenodd"/><path class="second" fill-rule="evenodd" d="M388.533 329.193l-.144.488-.29-.486h.432zm0 0l.865-.488h-.433l-.432.488zm-6.058-18.805l-1.442.488-1.442.488-.863.488-1.01.488-.865.488-1.01.367-.865.488-.432.488-1.01.49-.432.488-1.008.488-.433.367-.866.488-.577.49-.867.487-.43.488-1.01.488-.434.366-1.01.49-.434.486-.865.49-1.01.487-.43.488-1.01.367-.433.488-.865.49-1.01.487-.865.49-1.01.487-.865.49-1.01.364-.865.49-1.442.487-1.442.488-1.874.488-5.05.488 5.193.855-8.51.976v.488l3.75.488h2.308l3.75-.487 1.876-.488 1.442-.488 1.298-.49 1.01-.488 1.44-.366.866-.488 1.008-.488.865-.488 1.01-.488.432-.49.865-.365 1.01-.49.432-.488 1.01-.488.865-.488.432-.49 1.01-.487.432-.367 1.01-.487.433-.488.865-.49.577-.487.864-.49.432-.364 1.01-.488.865-.488.43-.488 1.01-.49.435-.487 1.01-.367.865-.488 1.44-.488.866-.488 1.442-.488 1.875-.488h5.624l1.442.488.863.488 1.01.488.864.488.577.488.433.367.433.977.434.488.577.977.435 1.343.432 2.32v1.954l-.432 1.343-1.442-.49-2.74-.365-.577-.977-.433-.977-.433-.49-.434-.487-.577-.366-.867-.488-1.01-.488-1.297-.49h-4.76l-1.874.49-1.442.488-.864.488-1.01.366-.432.487-.865.49-.58.487-.43.488-.434.488-.433.49-.432.365-.576.49-.432.976v1.345l1.01.977c.288-3.785 5.624-7.448 9.806-7.448h2.74c1.586 0 1.586.244 2.307.855-1.442-.123-1.587-.49-3.173-.49h-1.442c-3.894 0-6.923 2.81-8.365 5.25l.865 3.298.433-2.442.433-.855.577-.976.433-.488.865-.49.578-.365.865-.49 1.01-.486 2.308-.488h1.876l1.875.488.434.488 1.01.49-.577.366-1.3.49-.576.487-.864.488-.434.49-1.01.487-.432.855-.433.977v1.342l.434.977.434.488 1.01.488 2.74.488 1.01-.488.432-.488.864-.488.577-.49.434-.488.434-.855.433-.488.577-1.468h.865l1.874.488.433.49-.433.488-.433.977-.432.366-.576.49-.432.49-.433.487v.488l1.297.366 2.163-1.71-1.588 2.206 1.874.977v-.978l.432-.854.432-.487.577-.488.432-.977.433-.366 1.01.367.432.487.433.49.433.487.433.488.578.855.433.977.434.977v3.663l-.434.977v.976h-1.01l.578 8.914h.433l.434-6.106.433-.488.577-.488.433-.488.432-.488.432-.855.577-1.465v-4.64l-.578-1.466-.433-.855-.433-.975-.433-.49-.577-.854-.433-.487-.433-.488-.432-.488-1.01-.49-.432-.487-.433-.367v-6.593l-.433-1.955-.577-1.343-.432-.977-.432-.855-.433-.488-.577-.977-.433-.488-.432-.488-.433-.37-.577-.487-.865-.488-.433-.488-1.01-.488-.864-.49-1.874-.365h-7.5l-1.878.362zm-262.192 18.805h.577l-.577.488v-.486zm-.433-.488h-.433l.865.488-.432-.488zm-4.76-18.317l-.864.488-1.01.488-.432.488-.865.488-.58.488-.432.367-.434.488-.432.488-.577.98-.433.487-.433.855-.433.978-.577 1.343-.432 1.955v6.594l-.432.365-.433.488-1.01.49-.432.487-.43.488-.434.488-.577.855-.434.49-.433.977-.432.855-.576 1.466v4.64l.577 1.466.433.855.433.49.433.487.576.488.433.488.432.49 1.01.365.865.488 1.442.488h4.614l1.442-.487.865-.488.577-.367v-.49l-.577-.977h-1.3l-1.874.488h-2.452l-1.875-.487-.435-.488-.865-.49-.432-.365-.577-.487-.43-.977-.434-.976V335.3l.433-.977.432-.978.578-.855.433-.488.434-.49.432-.488.432-.488 1.01-.366.432.366.433.977.577.49.432.487.433.855.432.488.577.977c1.73-.61.432.244.432-.977l.433-.855-1.587-1.71 1.73 1.1 1.3-.367v-.487l-.434-.49-.577-.487-.433-.366-.433-.977-.433-.488.433-.49 1.874-.487h.865l.575 1.466.433.49.432.854.432.488.577.49.865.487.433.487v.488l3.316-1.343.433 3.664V332h1.008l.433-.49.434-.976v-1.343l-.433-.975-.433-.855-1.01-.49-.432-.487-.433-.488-1.01-.488-1.297-.49-.577-.365 1.01-.49.43-.487 1.876-.488h2.308l1.875.488h1.008l-.144-1.465c-1.297-.122-1.586-.488-3.172-.488h-1.44c-1.588 0-1.732.367-3.174.488.72-.61.72-.855 2.308-.855h2.74c4.038 0 9.518 3.908 9.807 7.45l1.01-.978v-1.343l-.434-.977-.577-.49-.434-.365-.433-.49-.433-.487-.432-.488-.577-.488-.863-.49-.433-.49-1.01-.365-.864-.488-1.443-.488-1.875-.49h-4.76l-1.297.49-1.01.487-.864.488-.575.366-.432.49-.433.49-.434.975-.577.977-2.74.366-1.444.488-.433-1.343v-1.954l.433-2.32.433-1.343.576-.977.433-.487.432-.977.433-.367.577-.49.865-.488.433-.488 1.443-.488 1.442-.488h5.624l1.873.487 1.442.488.866.488 1.443.49.865.49 1.01.365.432.488 1.01.488.433.49.865.487 1.01.488.432.366.865.49.577.488.865.488.432.488 1.01.488.43.366 1.01.488.434.49.865.487 1.01.488.43.49 1.01.49.866.365 1.008.49.433.487.866.488 1.01.49.864.487 1.442.366 1.01.488 1.296.49 1.44.49 1.876.487 3.75.488h2.307l3.75-.488 1.874-.488 1.442-.49.865-.49 1.01-.486.866-.366v-.488l-7.355 1.586-.143-.488 1.443-.244-.433-.855.865-.49h-1.298l-1.875.49h-5.626l-1.875-.49-1.443-.488-1.442-.488-.865-.49-1.01-.365-.865-.49-1.01-.488-.865-.488-1.01-.488-.864-.49-.434-.487-1.01-.367-.432-.488-1.01-.488-.864-.49-.433-.487-1.01-.488-.433-.366-1.01-.488-.433-.488-.864-.488-.577-.488-.866-.488-.433-.367-1.008-.49-.434-.488-1.01-.488-.433-.488-.865-.488-1.01-.368-.865-.488-1.01-.488-.865-.488-1.442-.488-1.442-.488-1.875-.366h-7.5l-1.873.362zm250.083-25.645l1.875.366 1.298.486 1.01.49.865.487 1.01.488.866.49.577.365.865.488.432.488.576.49v.488l-.577.487-.867.366h-2.307l-1.442-.365-.432-.488-1.01-.49-.433-.488-.434-.49-.577-.487-.434-.366-.432-.488-.433-.49-.576-.976-.433-.855h1.01zm-220.95.854l-.577.977-.433.488-.433.488-.433.366-.577.488-.433.488-.433.49-1.01.487-.433.486-1.44.366h-2.307l-.865-.366-.577-.488v-.49l.578-.488.433-.488.866-.488.577-.366.865-.488 1.01-.488.864-.488 1.01-.49 1.3-.487 1.874-.367h1.01l-.43.854zm219.94-7.448l-.577 2.32h3.46l1.876.486 1.298.488 1.442.488 1.01.366.864.487 1.01.49.43.487.867.488.432.488.577.366.432.488.433.49.433.487.577.977.433.366v4.274l-.433.488-.577.855-.865.49-.432.487-1.01.49-1.875.488h-3.173l-1.875-.49-1.442-.488-1.01-.488-.865-.49-.433-.366-1.01-.488-.432-.488-.433-.49-.577-.488-.432-.488-.433-.366-.433-.977-.577-.49-.433-.976-.433-.855-.433-.978-.577-1.343h-2.74l-2.308.365-1.444.488-1.442.49-.865.487-1.443.49-.865.487-.577.366.577.977.432.977.433.488.433.855.434.488.577.49.434.976.433.366.432.488.576.488.433.49.432.488.434.488.577.366.434.488.432.488.432.488 1.01.488.432.49.433.365 1.01.488.432.488 1.01.49.864.488 1.01.49 1.297.365 1.01.488 1.44.49 1.877.487 2.307.488h8.798l2.453-.488 1.875-.488 1.875-.49.865-.487 1.442-.366.865-.49 1.01-.487.865-.49 1.01-.487.43-.488 1.01-.366.434-.49.865-.49.577-.487.432-.488.432-.488.433-.366.577-.487.433-.49.433-.488.433-.977.577-.367.433-.976.43-.977.434-1.344.577-2.32v-1.954l-.575-1.83-.433-1.468-.43-.855-.434-.977-.577-.488-.433-.49-.433-.854-.433-.487-1.01-.487-.43-.488-.433-.488-.577-.368-.866-.49-.433-.487-1.01-.488-.863-.488-.577-.488-1.3-.368-1.01-.488-1.44-.488-1.3-.49-2.883-.487h-6.49l-2.307.487-1.442.49-1.442.487-.865.488-.575.367-.865.487-.434.488-.577.488-.435.488-.432.49-.433.366-.576.487-.43.982zm-224.26 2.806l1.875-.488h3.317l-.433-2.32-.433-.978-.58-.488-.432-.367-.434-.488-.433-.49-.576-.487-.433-.488-.864-.488-.577-.367-.865-.488-1.442-.49-1.442-.487-1.874-.488h-7.355l-2.45.488-1.3.488-1.44.49-1.01.487-1.298.367-1.01.488-.432.488-1.01.488-.43.49-.866.487-.577.367-.433.488-.433.488-1.007.488-.433.488-.434.855-.433.49-.577.487-.433.977-.433.855-.432 1.465-.577 1.83v1.955l.58 2.32.43 1.344.434.977.433.98.577.365.433.977.433.49.432.49.577.487.43.365.434.488.433.49.577.487.865.488.43.49 1.01.365.434.488 1.01.49.864.487 1.01.488.864.49 1.442.365.865.488 1.875.488 1.875.488 2.453.49h8.365l2.74-.49 1.875-.487 1.442-.488 1.01-.49 1.297-.365 1.01-.488.864-.488.577-.49.865-.487 1.01-.488.432-.366.433-.49 1.01-.488.433-.488.433-.49.43-.487.578-.366.432-.487.433-.49.433-.49.577-.487.433-.488.433-.366.433-.978.577-.49.433-.487.433-.855.432-.488.433-.977.58-.977-.578-.366-.864-.488-.865-.488-1.44-.488-1.443-.49-1.442-.487-2.308-.365h-2.74l-.577 1.343-.433.978-.433.855-.432.977-.577.49-.433.976-.433.366-.434.487-.577.487-.433.49-.433.487-1.01.488-.432.366-.864.488-1.01.488-1.442.49-1.875.488h-3.173l-1.875-.49-1.01-.488-.432-.488-.865-.488-.577-.855-.433-.487v-4.274l.433-.367.577-.977.433-.488.433-.49.433-.487.577-.365.432-.488.865-.488.433-.49 1.01-.488.864-.488 1.01-.366 1.442-.488 1.297-.493zm105.43-12.21h18.172l5.192-.245-.865.245-1.01.488-.432.488-1.01.49-.432.487-.865.367-.577.488-.433.488-.433.49-.433.487-.577.488-.433.367-.432.488-.433.488-.577.488-.433.488-.433.855-.435.486-.577.977-.433.488-.433.856-.433.977-.577.977-.433 1.344-.432 1.466-.433 1.343v2.81h-.577v-2.32l-.433-1.833-.433-1.466-.432-1.343-.577-.975-.433-.977-.433-.855-.433-.488-.577-.977-.433-.488-.432-.856-.433-.488-.58-.488-.432-.488-.434-.488-.433-.367-.576-.488-.432-.488-.433-.49-.433-.488-.577-.488-.864-.367-.433-.488-1.01-.49-.432-.487-1.007-.488-.865-.488 5.196.488zm23.796-.978c.142 0 .287.243.287.243s-.29-.12-.29-.243zm-29.855 0l.144.243s-.29-.12-.145-.243zm78.6-14.043l.433-.366v-.488l-.866.488-1.01.367-.865.488-1.01.488-.866.488-1.01.49-.864.49-1.01.365-.865.488-1.01.488-1.44.49-.866.487-1.01.488-1.297.366-1.01.49-1.44.487-1.3.488-1.008.488-1.443.488-1.298.368-1.443.488-1.442.488-1.298.488-1.875.49-1.875.487-1.442.365-2.307.488h-1.874l.865.49 1.875.487 1.442.488.865.488 1.01.367.865.488 1.01.49.433.487.434.488 1.01.488.432.488.433.368.575.488.433.488.432.49.433.487.433.856.577.488.433.488.433.977.432.854.577.977.432.978.433.855.433 1.465.576 2.32v5.128l-.577 1.954-.434 1.343-.433.977-.433.855-.577.488-.432.977-.432.49-.433.487-.577.366-.433.488-.865.49-.433.487-1.01.488-.865.49-1.01.365-1.442.488-2.74.488h-4.182l-3.317-.488-1.875-.488-1.442-.366-.865-.488-1.01-.488-.865-.488-.577-.488-.432-.488-.865-.366-.577-.488-.433-.49-.432-.488-.433-.488-.577-.855-.433-.49-.433-.976-.433-.977-.435-1.343-.577-1.832v-4.274l.576-1.832.433-1.465.432-.854.432-.49.433-.976.577-.488.433-.488.433-.367.434-.488.577-.49.432-.487.865-.49 1.01-.487.864-.367 1.01-.49h6.058v.49h-2.308v.366l3.317.244-1.01.366 1.01.733-4.328.61-.433.49-1.442.365-.865.488-.433.488-.577.49-.433.487-.433.49-.433.854-.576 1.466v5.617l.577 1.343.434.977.433.977.433.855.577.488.433.49.433.487.433.488.576.366.865.49 1.01.487 1.298.49 1.442.49 2.308.487h3.317l2.307-.488 1.01-.49.864-.49.577-.487.866-.49.432-.365.577-.488.432-.488.433-.978.433-.488.433-1.343.578-1.464v-3.664l-.577-2.32-.432-1.465-.433-.976-.433-.854-.434-.977-.578-.49-.433-.487-.433-.855-.433-.487-.578-.488-.433-.488-.434-.488-1.01-.368-.43-.49-.434-.487-1.01-.488-.865-.488-1.008-.49-.866-.367-1.875-.488-2.308-.488h-3.75l-2.884.488-1.44.488-.866.367-1.442.487-.433.488-1.01.488-.865.488-.433.49-.434.367-.578.488-.433.488-.866.488-.578.978-.432.367-.433.488-.432.488-.577.978-.433.49-.433 1.342-.433.976-.578 1.832-.433 1.465-.433 3.175v4.762l.432 2.81.432 1.342.577 1.465.432.855.433.977.433.975.577.49.432.854.433.487.432.488.577.488.432.488.433.367.433.488.577.488.433.488.865.49.433.487 1.01.367.865.488 1.01.488 1.44.49 1.3.487 2.45.488h7.934l1.875-.488 1.44-.488 1.3-.49 1.01-.488.864-.488.577-.367.866-.488.433-.49 1.01-.487.43-.488.434-.488.433-.366.578-.487.433-.488.434-.488.432-.488.577-.49.434-.365.433-.49.432-.976.576-.49.432-.487.432-.855.433-.49.577-.976.433-.855.433-.978.433-.49.576-.977.432-1.343.433-.977.434-.855.577-1.465.434-.977.433-1.343.434-1.466.578-1.344.434-1.466.433-1.343.433-1.832.577-2.442.433-1.832.433-1.83.433-1.955.577-1.832.433-1.83.433-1.465.433-1.343.577-1.465.433-1.343.433-1.465.433-.978.577-.855.432-.977.433-.976.433-.855.58-.98.417-.964zm-127.35-.855v.488l.433.366.432.977.577.978.432.855.432.977.433.977.577.854.433.978.433 1.466.434 1.343.577 1.464.432 1.344.433 1.465.433 1.83.576 1.833.433 1.954.432 1.832.432 2.32.577 1.953.43 1.832.434 1.343.432 1.467.576 1.343.433 1.466.432 1.343.433.976.577 1.466.433.854.433.977.433 1.344.578.977.433.49.434.977.433.855.577.977.432.487.433.855.433.488.578.488.433.978.432.49.433.365.577.49.433.49.433.486.43.488.578.488.432.366.433.487.434.488 1.01.488.432.49.865.49.578.365.865.488 1.01.488 1.298.49 1.443.487 1.875.488h7.932l2.452-.488 1.298-.488 1.442-.49 1.01-.487.865-.488 1.01-.367.43-.49.867-.487.432-.487.576-.488.432-.488.433-.367.434-.488.578-.488.434-.488.433-.49.433-.854.577-.49.433-.976.433-.977.433-.856.577-1.465.433-1.344.433-2.81v-4.76l-.433-3.176-.433-1.465-.577-1.833-.432-.977-.432-1.343-.433-.49-.577-.976-.433-.487-.433-.49-.433-.366-.577-.488v-.977h-.866l-.432-.49-.577-.487-.433-.367-.433-.488-.865-.488-1.01-.488-.434-.488-1.442-.488-.864-.367-1.443-.49-2.884-.487h-3.75l-2.308.488-1.875.49-.864.366-1.01.488-.864.488-.578.488-.865.488-.433.488-1.01.367-.432.488-.433.49-.578.487-.433.49-.434.854-.433.49-.577.487-.433.977-.433.855-.433.976-.43 1.464-.578 1.832v4.152l.576 1.465.43 1.342.434.488.433.977.433.49.577.487.432.366.864.488.576.49.866.488 1.01.49 2.307.487h3.316l2.308-.488 1.442-.49 1.298-.488 1.01-.49.864-.487.577-.366.43-.488.434-.49.43-.488.578-.488.433-.855.434-.978.432-.977.577-1.343v-5.617l-.578-1.465-.433-.855-.434-.49-.433-.487-.577-.488-.432-.488-.865-.488-1.442-.368-.433-.488-4.76-.49v-.487h4.76v-.488h-4.327l.144-.734 9.808 1.22h.865l.433.49.577.487.433.487.433.367.43.488.58.488.43.977.434.49.433.854.432 1.466.576 1.832v4.274l-.577 1.832-.433 1.343-.433.978-.433.977-.43.49-.578.854-.43.487-.434.49-.433.488-.577.488-.865.366-.432.487-1.01.488-.43.488-1.01.488-.866.49-1.44.366-1.876.49-3.317.487h-4.18l-2.74-.488-1.443-.49-1.01-.365-.864-.49-1.01-.487-.434-.488-.866-.488-.43-.488-.578-.367-.432-.488-.433-.49-.432-.976-.577-.49-.432-.854-.432-.976-.433-1.343-.578-1.953v-5.128l.577-2.32.432-1.467.432-.856.433-.977.576-.976.433-.854.432-.978.432-.488.577-.488.43-.855.435-.487.433-.488.433-.488.578-.488.432-.368.432-.488 1.01-.488.433-.488.432-.488 1.01-.488.865-.488 1.01-.367.864-.488 1.442-.49 1.442-.487 1.442-.244-2.02-.245-2.306-.49-1.442-.365-1.875-.487-1.877-.488-1.298-.488-1.442-.488-1.442-.49-1.297-.366-1.442-.488-1.44-.488-.866-.488-1.442-.488-1.01-.488-1.298-.366-1.01-.488-1.44-.488-.866-.488-1.01-.488-.865-.488-1.01-.366-.864-.49-1.01-.487-.864-.49-1.01-.487-.865-.49-1.01-.365-.875-.503zm188.21-3.786l-1.01.488-.433.49-1.01.487-.432.366-.432.488-.433.488-.432.488-.577.49-.432.488-.433.366-.43.488-.578.488-.432.488-.433.488-.433.49-.577.365-.433.98-.433.487-.432.488-.577.855-.432.487-.433.488-.433.977-.576.488-.433.855-.43.977-.434.977-.578.853-.434.488-.433.978-.433.854-.577 1.465-.432.976-.432.855-.432 1.466-.577 1.343-.432.976-.433.977-.433.855-.578 1.465v2.32h-3.75l-1.875.488-1.3.49-1.442.487-1.442.366-.865.49-1.01.49-1.296.487-1.01.488v-1.466l-.43-1.344-.434-1.954-.578-2.808v-5.984l.577-2.93.43-1.83.433-1.833.433-.977.577-1.343.433-.977.433-.977.432-.488.577-.855.43-.488.434-.977.433-.488.433-.366.578-.487.432-.977.865-.488.577-.488.433-.367.433-.488.433-.49 1.01-.487.434-.488 1.01-.488.865-.366 1.01-.488.864-.49 1.442-.487 1.442-.486 1.298-.488 2.885-.366h11.25l2.74.365-.432.488-.43.493zm-249.5-.977l2.74-.367 5.192-.488h1.442l4.614.488 2.884.366 1.297.487 1.442.488 1.44.49.866.49 1.01.486.865.366 1.01.488.434.488 1.01.488.433.49.433.487.433.366.578.487.865.49.433.976.577.49.432.365.433.49.432.976.433.488.577.855.433.487.433.977.433.978.577 1.344.432.977.432 1.832.433 1.832.577 2.93v5.984l-.577 2.807-.433 1.954-.433 1.343v1.466l-1.01-.49-1.298-.487-1.01-.49-.865-.487-1.442-.366-1.442-.487-1.298-.488-1.875-.488h-3.75v-2.32l-.576-1.465-.433-.855-.43-.977-.433-.977-.577-1.343-.434-1.465-.433-.855-.433-.977-.577-.977-.433-1.343-.433-.977-.433-.488-.577-.855-.433-.977-.433-.977-.43-.857-.578-.488-.432-.977-.433-.49-.433-.487-.577-.854-.433-.488-.432-.488-.433-.977-.578-.366-.433-.49-.434-.488-.433-.49-.576-.487-.433-.488-.432-.366-.433-.49-.578-.49-.433-.486-.434-.488-.433-.49-.434-.365-1.01-.487-.434-.49-1.01-.487-.433-.488-.424-.493zM375.855 147l-.432 3.784-.433 2.808-.432 2.81-.577 2.32-.43 1.83-.433 2.442-.433 1.343-.577 1.832-.433 1.952-.433 1.343-.432 1.465-.577 1.344-.432 1.465-.433 1.34-.432 1.466-.577.855-.433 1.466-.433.977-.434 1.343-.577.977-.435.855-.432 1.464-.433.977-.576.855-.433.977-.43.977-.434.854-.577.977-.433.978-.433.854-.433.488-.576.977-.433.854-.432.978-.433.49-.577.976-.433.855-.433.49-.43.976-.578.855-.433.49-.433.976-.433.488-.577.855-.433.487-.432.488-.432.977-.577.488-.432.856-.432.488-.433.488-.577.977-.432.364-.433.488-.432.977-.576.487-.432.49-.433.365-.434.488-.432.978-.577.488-.433.49-.433.365-.432.49-.577.488-.432.977-.432.488-.433.49-.578.365-.433.488-.434.488-.433.488-.577.49-.433.487-.433.365-.433.49-.578.487-.433.488-.434.488-.433.488-.576.367-.433.49-.432.487-.432.488-1.01.488-.433.488-.433.368-.577.488-.433.488-.432.488-1.01.488-.433.488-.434.367-.433.487-.578.488-.865.49-.433.487-.577.488-.865.367-.433.488-.578.488-.866.488-.432.49-1.01.487-.433.366-.432.49-1.01.487-.43.488-.866.488-.576.49-.865.365-1.01.49-.433.488-.865.488-1.01.488-.433.488-1.01.366-.865.488-1.01.49-.433.487-.865.488-1.01.49-.865.365-1.01.487-.865.488-1.01.49-.864.487-1.442.488-1.01.366-.864.49-1.01.487-1.298.49-1.01.487-1.44.487-.866.367-1.442.488-1.298.49-1.442.487-1.442.49-1.442.487-1.875.365-1.298.488-1.875.488-1.875.49-1.875.49-2.452.486-2.307.367-2.74.488-3.316.49-3.75.487-7.067.49h-10.672l-6.634-.49-3.75-.487-3.172-.488-2.884-.488-2.308-.366-2.307-.487-1.876-.49-1.875-.486-1.876-.488-1.875-.488-1.442-.366-1.442-.488-1.442-.49-1.298-.487-1.442-.49-1.442-.487-1.297-.366-1.01-.488-1.442-.49-.865-.488-1.01-.488-1.298-.488-1.01-.366-.864-.488-1.01-.488-.864-.49-1.01-.487-.865-.488-1.01-.367-.865-.488-1.01-.488-.865-.488-1.01-.49-.433-.488-1.01-.366-.865-.488-.434-.488-1.01-.488-.864-.488-.577-.49-.865-.365-.432-.49-1.01-.487-.433-.488-.865-.488-.577-.49-.864-.365-.434-.488-1.01-.488-.43-.49-.434-.487-1.01-.488-.433-.367-.434-.488-1.01-.488-.432-.49-.433-.487-.577-.488-.865-.367-.433-.488-.577-.488-.433-.488-.433-.488-.43-.488-1.01-.367-.434-.487-.433-.488-.577-.488-.433-.488-.432-.49-.432-.366-.576-.488-.432-.488-.433-.488-.434-.488-.577-.49-.433-.365-.433-.49-.433-.49-.576-.486-.433-.488-.432-.488-.433-.366-.576-.488-.434-.488-.432-.488-.432-.488-.577-.488-.434-.855-.432-.49-.433-.487-.577-.488-.433-.49-.432-.854-.433-.49-.432-.487-.577-.49-.432-.975-.433-.366-.433-.49-.577-.976-.433-.488-.433-.488-.434-.855-.576-.49-.433-.976-.432-.488-.433-.367-.577-.977-.432-.49-.433-.976-.433-.367-.577-.977-.433-.977-.433-.49-.433-.855-.576-.977-.433-.49-.432-.855-.43-.977-.578-.977-.433-.855-.434-.488-.433-.977-.577-.976-.433-.855-.433-.98-.433-1.342-.577-.978-.433-.977-.433-.855-.432-.977-.576-1.464-.433-.855-.433-1.464-.433-.855-.577-1.464-.433-1.343-.432-1.465-.433-1.343-.578-1.465-.433-1.343-.434-1.955-.433-1.343-.577-1.955-.433-1.832-.433-2.32-.432-2.32-.577-2.442-.43-2.81-.434-3.173-.433-4.762V123.18l.433-4.763.433-3.297.432-2.81.578-2.32.433-2.32.434-2.32.433-1.953.577-1.83.433-1.344.433-1.954.433-1.344.577-1.466.433-1.343.432-1.464.433-1.343.578-1.465.433-.855.434-1.465.434-.977.577-.854.434-1.465.432-.855.433-.977.577-.978.433-1.343.433-.978.433-.978.578-.855.433-.977.434-.488.432-.855.577-.977.43-.977.434-.855.433-.488.577-.977.433-.977.433-.366.433-.977.577-.488.433-.977.433-.855.43-.488.578-.977.433-.49.434-.365.434-.977.577-.488.434-.977.432-.365.433-.488.577-.978.433-.49.433-.487.433-.855.578-.487.432-.487.433-.488.432-.855.433-.488.577-.488.433-.488.433-.488.434-.488.576-.855.432-.488.433-.49.434-.488.576-.49.434-.487.433-.367.433-.49.577-.487.433-.49.433-.487.43-.488.578-.368.433-.488.434-.49.433-.487.578-.488.433-.488.433-.367.434-.488.577-.488.434-.49.433-.488 1.01-.488.43-.366.434-.49.434-.487.577-.487.434-.488.865-.488.576-.366.432-.488.433-.488 1.01-.488.433-.488.433-.488 1.01-.366.432-.49.432-.488 1.01-.488.432-.488.865-.488.578-.366.865-.488.433-.49 1.01-.487.432-.487.865-.488.577-.366.865-.49 1.01-.487.432-.49.865-.488 1.01-.488.432-.366 1.01-.488.865-.488 1.01-.488.865-.49 1.01-.487.865-.365 1.01-.488.864-.488 1.01-.49.865-.488 1.01-.488 1.297-.366 1.01-.488.866-.488 1.443-.488 1.01-.488 1.3-.49 1.442-.365 1.442-.487.865-.488 1.874-.488 1.442-.488 1.442-.49 1.874-.365 1.298-.487 1.875-.488 2.452-.49 1.874-.487 2.74-.488 2.308-.367 3.318-.488 4.182-.488 5.625-.488h13.124l5.624.487 4.183.488 3.317.488 2.308.367 2.308.488 2.452.488 1.875.49 1.875.487 1.875.488 1.875.367 1.298.49 1.442.487 1.442.488 1.442.488 1.298.488 1.442.367.865.49 1.44.487 1.01.488 1.298.488 1.01.488.865.366 1.442.488 1.01.49.865.487 1.01.487.864.488 1.01.366.866.49 1.008.488.865.488.432.488 1.01.488.865.366 1.01.488.433.488 1.01.49.865.487.433.49 1.01.364.865.488.577.488.865.49.432.488 1.01.488.432.366.864.488.577.488.433.488.866.49.576.488.432.366.865.488.577.488.433.488.433.488 1.01.49.432.365.433.488.434.488 1.01.488.432.49.433.49.576.365.433.488.432.488 1.01.49.432.488.433.488.434.367.578.488.434.49.433.487.433.488.577.488.433.367.433.487.434.488.577.488.434.488.433.49.432.367.576.488.432.488.432.49.433.976.577.366.433.488.433.488.433.49.576.487.432.976.433.367.434.49.433.487.578.488.432.977.433.367.432.487.577.976.432.488.433.488.433.855.578.488.433.977.432.488.433.366.577.977.433.49.433.976.432.365.577.977.43.976.434.488.434.855.577.977.434.488.433.855.433.976.577.977.433.488.433.857.432.977.577.977.433.856.433.977.434.977.577.854.433.977.432 1.345.433.977.576.978.433 1.343.432.978.432 1.344.577.978.43 1.465.434 1.343.433 1.465.577 1.344.433 1.464.433 1.342.433 1.832.577 1.954.433 1.343.433 2.32.43 1.955.578 2.32.432 2.81.433 2.807.432 3.786.432 5.617v15.874l-.432 5.62zM238.246.49l-3.316.487-3.175.49-2.452.365-2.308.488-2.307.488-1.876.488-1.875.488-1.876.488-1.44.367-1.876.486-1.442.49-1.298.487-1.442.488-1.442.49-1.298.366-1.01.488-1.442.488-1.298.488-1.01.49-.864.488-1.44.366-1.01.488-.866.488-1.01.488-1.297.488-1.01.488-.865.367-1.01.49-.865.488-1.01.488-.864.488-.576.488-.865.367-1.01.487-.865.488-1.01.488-.432.49-.865.487-1.01.366-.434.49-.865.487-.577.488-.865.49-1.01.487-.434.366-.865.488-.577.49-.865.488-.434.488-.577.488-.866.367-.432.49-1.01.49-.432.486-.432.488-1.01.488-.433.366-.432.488-.577.488-.864.49-.433.487-.577.49-.433.365-.865.49-.577.487-.43.488-.433.49-.433.487-.577.366-.865.488-.433.49-.578.487-.433.49-.434.488-.432.366-.577.49-.433.487-.433.488-.432.488-.578.49-.433.365-.433.488-.433.49-.43.487-.578.488-.433.49-.434.366-.434.488-.577.488-.434.49-.432.487-.433.487-.577.368-.433.977-.433.488-.433.488-.578.49-.432.366-.433.488-.433.977-.578.49-.433.486-.434.367-.434.488-.577.978-.434.487-.433.488-.432.367-.576.977-.432.487-.433.488-.434.977-.577.366-.434.976-.433.488-.434.488-.578.855-.434.488-.433.978-.433.488-.577.855-.433.49-.433.977-.434.978-.577.366-.434.978-.432.49-.433.976-.577.855-.433.977-.434.488-.433.855-.577.978-.433.977-.433.855-.433.977-.577.977-.433.855-.433.975-.433.977-.43.855-.578.977-.432 1.466-.433.856-.433.977-.577 1.343-.433.977-.433 1.465-.433.855-.577 1.465-.433 1.343-.433 1.467-.433 1.343-.575 1.464-.433 1.343-.432 1.465-.433 1.832-.577 1.832-.433 1.954-.433 1.832-.432 1.83-.577 2.443-.433 2.81-.433 2.808-.434 3.297-.577 4.152-.434 6.594v12.09l.433 6.593.576 4.64.433 2.807.432 3.297.433 2.32.577 2.442.432 2.32.433 1.832.433 1.953.577 1.83.433 1.345.433 1.954.434 1.343.577 1.465.434 1.342.433 1.465.433 1.343.576.977.432 1.343.432 1.465.433.977.577.855.433 1.465.433.855.433.977.578.977.434 1.343.434.977.433.978.434.855.577.977.434.977.433.855.433.49.577.976.433.855.433.977.432.977.577.488.432.855.432.977.433.49.576.854.433.98.432.487.433.977.577.366.433.976.433.488.433.977.577.368.433.488.432.977.433.488.577.856.433.488.433.488.433.978.58.488.43.49.434.854.433.488.577.488.433.488.433.855.432.49.577.487.43.488.434.488.432.488.577.856.433.488.433.488.432.49.577.487.432.366.433.488.433.488.576.488.433.488.432.855.432.49h1.01v.976h.864v.976l1.01.367.432.488.433.49.434.487.577.488.433.488.433.366.433.49.576.486.433.488.432.49 1.01.487.432.367h-.433l-2.45-.366-3.75-.487h-8.798l-4.182.487-2.884.366-2.308.49-1.875.487-1.875.488-1.875.49-1.442.487-1.44.366-1.3.488-1.01.49-1.297.488-1.01.488-1.44.488-.866.367-1.008.49-.866.487-1.442.49-.865.487h-2.452l-1.298-.488-1.875-.49-2.452-.487-3.75-.49h-9.23l-3.75.49v.487l1.875.49-2.884 1.098v.245h4.76l9.807.488 2.74.488h1.875v.978h-.865l-1.442.488-1.01.366-.864.488-1.01.488-.863.488-1.01.49-.864.487-1.01.365-.865.487-.864.488-.577.488-.866.49-1.01.487-.864.366-.433.49-1.01.487-.865.488-1.01.488-.433.49-1.01.365-.866.488-.434.49-1.008.487-.865.488-1.01.49-.432.365-1.01.487-.864.488-1.01.488-.432.488-.865.49-1.01.366-.866.488-.577.488-.864.488-1.01.488-.865.488-1.01.366-.864.488-.433.488-1.01.488-.863.488-1.01.488-.866.367-1.01.487-.864.488-1.01.488-.866.488-1.01.49-1.297.487-1.01.367-.865.488-1.01.488-1.442.488-.865.488-1.01.488-1.297.367-1.442.49-1.01.487-1.297.488-1.442.488-1.874.488-1.442.368-1.875.488-2.74.488-1.443.488-10.24 1.1c2.164 1.342 9.52 1.71 13.558 1.71h2.74l1.875-.49 1.442-.487 1.875-.49 1.442-.365 1.297-.49 1.442-.487 1.01-.487 1.297-.488 1.442-.488 1.01-.368 1.297-.49 1.01-.487.864-.488 1.443-.488 1.01-.488.864-.368 1.01-.488.864-.488 1.01-.49.866-.487.865-.49 1.01-.366.865-.488 1.01-.488.864-.488 1.01-.488.864-.488.576-.488.865-.367 1.01-.49.866-.487 1.01-.488.433-.49.866-.487 1.01-.366.863-.488 1.01-.49.432-.487 1.01-.488.864-.49 1.01-.366.43-.488.866-.488 1.01-.488.866-.488.577-.488.864-.366 1.01-.488.865-.488 1.01-.488.43-.488.866-.488 1.01-.366.865-.49 1.443-.487.433-.487 1.01-.488.865-.488 1.01-.366.865-.487 1.01-.49 1.297-.488 1.01-.488 1.442-.488 1.297-.366 1.443-.488 1.44-.49h.434l.433.49 1.01.488.864.366.578.488.866.488.432.488 1.01.49.433.487.432.367.577.488.432.488.433.488 1.01.49.433.488.433.366.434.488.433.977.577.487.433.488.433.366.433.49.577.487.433.977.433.488.432.367.576.976.433.488.43.978.435.367.577.977.434.488.433.977.432.854.577.49h-.578l-.865-.49-1.442-.487-1.442-.367-2.306-.49H125.04l-1.874.49-1.875.366-1.44.488-1.442.488-.865.488-1.01.488-1.44.488-.866.488-.433.367-1.01.49-.864.487-.578.488-.865.488-.432.488-1.01.368-.433.488-.433.488-.58.488-.432.488-.433.488-.433.367-.433.488-.577.49-.433.49-.432.975-.433.366-.577.978-.433.976-.433.855-.432 1.466v6.96l.432 1.954.433.856.433.977.577.977.433.855.433.488.435.977.577.488.434.49.433.365.43.488.433.49.577.488.432.488.433.49 1.01.365.432.49.433.487 1.01.488.865.488.433.488 1.01.367.864.488 1.442.488 1.01.488.864.49 1.442.487 1.442.367 1.875.488 1.298.49 2.452.487 3.75.487h5.048l4.182-.488 2.452-.49 1.296-.49 1.875-.486 1.443-.367 1.01-.488.865-.49 1.008-.487.865-.488 1.01-.488.866-.366 1.01-.487.433-.488.433-.488 1.01-.488.433-.49.433-.365 1.01-.49.432-.487.433-.488.433-.49.576-.487.432-.366.433-.49.432-.487.433-.488.577-.488.433-.855.433-.49.432-.49.577-.49.43-.975.434-.366.434-.978.577-.49.434-.976h.433l1.01.488.432.488.432.49.432.487 1.01.487.433.366.433.488.577.49.433.49.432.487.433.855.577.488.433.49.433.487.434.977.577.366.432.977.433.977.433.49.576.854.433 1.465.43 1.343.434 1.954v5.984l-.432 1.954-.43.855-.434.977-.577.977-.434.855-.433.49-.432.976-.576.488-.433.488-.433.366-.433.488-.577.49-.433.487-.865.488-.578.488-.865.49-1.01.367-.865.49-1.01.487v.488l-.864.49.432.854-1.442.244.144.488 7.355-1.587h1.01l.432-.49 1.01-.486.43-.488.434-.49.433-.365.577-.49.433-.486.432-.488.432-.977.577-.49.432-.365.433-.977.433-.977.578-.854.433-1.465.433-1.83.433-2.81v-3.785l-.433-3.297-.433-1.832-.432-.977-.577-1.344-.43-.977-.434-.978-.433-.854-.577-.488-.433-.977-.432-.487-.432-.855-.577-.49-.432-.487-.433-.977-.432-.366-.577-.488-.433-.49-.433-.488-.434-.488-.577-.488-.435-.366-.432-.488-.433-.488-.576-.49-.433-.487-.863-.49-.577-.366-.433-.488v-1.466l.432-1.344.575-1.466.433-1.83.432-2.32v-10.38l-.433-2.32-.434-1.832-.577-1.465-.433-1.343-.433-.977-.433-.977-.576-.855-.432-.975-.432-.977-.433-.855-.577-.488-.433-.488-.433-.977-.432-.367-.577-.488-.432-.49-.433-.487-.433-.488-.577-.488-.433-.366-.432-.488-.433-.49-.433-.487-.577-.486-.865-.488-.433-.366-1.01-.49-.434-.487-1.01-.49-.865-.487-1.01-.488-.864-.366-1.442-.488-1.442-.488-1.875-.49-2.306-.487-3.316-.49h-4.615v-.366h1.874l1.875-.488 2.306-.488 2.883-.49 3.172-.488h8.076l3.173.49 2.31.487 1.44.487 1.876.488 1.01.366 1.297.49 1.01.487.865.49 1.01.487.865.488.577.366.865.488 1.01.488.43.49.434.487 1.01.49.432.364.432.488.432.488.577.49.432.488.433.488.433.366.578.488.433.488.434.488.434.49.577.487.434.855.43.488.434.488.576.488.433.855.432.488.433.977.577.977.433 1.34v6.595l-.433 1.343-.577 1.464-.433.488-.433.855-1.01.488-.434.488-.432.49-2.308.49.288.853c-3.606-1.466-6.923-.977-6.923-6.96v-2.32c0-2.686 1.588-3.785 3.318-4.762l3.174.61c1.876 2.688 1.443 2.078 1.443 6.474h.577l.865-5.617v-.977l-.433-.976-.433-.366-.577-.488-.865-.488-1.01-.488h-4.614l-1.01.488-.865.488-.434.488-.578.366-.434.488-.432.977-.433.975-.576 1.832v3.297l.577 2.32.434.977.432.856.433.488.576.977.432.49.432.487.433.367 1.01.488.433.488 1.01.49h.865c5.048-.49 7.932-.734 10.24-5.13h1.442l.432-.488.576-.977.433-.977.432 1.465.433.977.577 1.343.433.977.433 1.343.433 1.465.577.977.433 1.343.432.977.433 1.343.577.977.432 1.343.433 1.466.433 1.343.577 1.466.433.977.433 1.343.433 1.466.577.853.432 1.465.433.854.432.977.577.977.433.855.433.488.433.978.577.977.433.366.433.98.43.487.578.977.432.366.433.487.432.977.577.488.432.488.433.366.432.488.576.488.432.977h.865v.853l1.01.488.432.49.43.487.578.488.432.488.865.366.433.487.577.488.865.488 1.01.488.865.49 1.01.366.865.488 1.442.488 1.442.488 2.307.49h7.067l2.306-.49 1.875-.487 1.443-.488 1.298-.488 1.01-.367.867-.488 1.01-.488.864-.488 1.01-.488.865-.488.433-.366.577-.488.865-.488.432-.488.576-.488.432-.488.433-.367.434-.488.577-.49.434-.488.432-.977.433-.366.576-.978.433-.488.432-.977.433-.855.576-.977.433-.977.433-1.344.434-1.83v-2.443h.577v2.443l.434 1.83.434 1.344.433.976.577.977.433.855.433.977.432.977.577.487.432.366.433.977.433.488.578.49.433.487.432.367.433.488.577.488.433.488.433.488 1.01.488.43.366.866.488 1.01.488.865.488 1.01.488.865.488 1.01.367 1.298.488 1.442.488 1.875.49 2.308.49h7.067l2.308-.49 1.442-.488 1.442-.488.865-.488 1.442-.367.433-.49 1.01-.487.865-.488.577-.488.43-.488.866-.367.433-.488.576-.488.433-.488.432-.49 1.01-.487.432-.367.433-.488.433-.978.578-.488.433-.488.434-.366.433-.488.577-.488.433-.977.433-.488.432-.367.577-.977.43-.488.433-.977.433-.365.577-.977.433-.977.433-.488.432-.855.577-.977.432-.976.433-.855.433-1.467.576-.855.433-1.467.432-1.342.43-.977.578-1.465.434-1.343.433-1.466.433-1.343.577-.977.433-1.343.432-.977.433-1.343.577-.977.432-1.465.433-1.342.433-.977.577-1.342.433-.977v-1.464l.865-2.32.144-1.954c.43 5.495 3.893 11.357 9.23 11.357 4.758 0 8.796-4.15 8.94-8.914l.866.244v-4.414l-.433-.977-.433-.978-.432-.487-.577-.366-.432-.49-.865-.49-1.01-.486h-4.614l-1.01.488-.864.49-.577.487-.433.365-.433.977v5.617l.866-.978v1.954h.577c0-3.908-.29-7.082 3.75-7.082 2.452 0 4.183 2.32 4.183 4.762v2.32c0 5.617-3.75 6.35-7.067 6.96l.576-.855-2.452-.49-.433-.486-.43-.488-1.01-.488-.434-.855-.433-.488-.577-1.465-.433-1.344v-6.594l.433-1.343.577-.98.433-.976.433-.488.432-.855.577-.487.43-.488.434-.488.433-.855.577-.488.433-.49.433-.487.434-.488.577-.49.435-.365.433-.488.433-.49.578-.487.433-.487.434-.488.433-.366 1.01-.49.432-.488.432-.49 1.01-.487.866-.488.577-.366.865-.487 1.01-.488.865-.49 1.01-.487 1.297-.49 1.01-.365 1.875-.488 1.442-.488 2.307-.49 3.173-.488h8.077l3.173.49 2.885.486 2.307.487 1.875.488h1.875v.367h-4.615l-3.317.49-2.308.487-1.875.49-1.442.487-1.442.49-.864.365-1.01.488-.866.488-1.008.49-.433.488-1.01.49-.433.365-.865.488-.577.49-.433.49-.433.487-.434.488-.432.366-.577.49-.434.487-.433.488-.432.49-.576.487-.432.366-.432.976-.433.488-.577.488-.433.855-.433.977-.433.977-.576.855-.433.977-.432.977-.433 1.342-.576 1.465-.434 1.832-.432 2.32v10.38l.433 2.32.434 1.83.578 1.465.434 1.343v1.465l-.433.488-.577.367-.865.487-.434.488-.577.49-.434.487-.433.487-.432.366-.576.488-.433.49-.433.49-.433.486-.577.487-.433.366-.432.976-.433.49-.578.488-.433.855-.434.487-.433.978-.577.488-.433.855-.433.978-.432.977-.577 1.343-.43.977-.434 1.832-.433 3.297v3.785l.433 2.808.433 1.832.432 1.465.578.855.433.977.434.977.433.367.577.488.433.977.433.488.433.488.577.49.433.366.432.49.433.487 1.01.49.434.49 1.01.486.866.366 1.01.488.865.49 1.443.488h1.875l8.51-.977-5.193-.853-.577-.488-1.875-.49-1.298-.487-1.442-.488-1.01-.49-.432-.365-.864-.49-.577-.488-.866-.488-.433-.488-.577-.49-.433-.487-.433-.368-.434-.488-.577-.488-.434-.977-.433-.49-.433-.855-.576-.977-.433-.978-.432-.855-.433-1.954v-5.983l.433-1.955.433-1.343.434-1.466.577-.855.434-.49.433-.977.433-.977.576-.367.433-.978.432-.488.433-.488.577-.488.432-.855.432-.49.433-.488.577-.49.433-.487.433-.366 1.01-.488.432-.49.433-.488.433-.488 1.01-.488h.434l.433.977.577.49.433.976.432.365.432.977.577.49.432.488.433.855.432.488.577.488.43.49.434.487.433.49.433.366.577.488.432.488.432.488.432.488 1.01.49.433.365.433.487 1.01.488.432.488.433.488 1.01.49.866.365 1.01.487.866.488 1.01.49.865.487 1.01.488 1.44.367 1.3.488 1.875.488 2.45.488 4.183.49h5.048l4.328-.49 1.875-.487 1.297-.488 1.876-.488 1.442-.367 1.442-.488.865-.488 1.01-.49 1.44-.487.866-.488 1.01-.367.433-.49.866-.487 1.01-.488.432-.488.433-.488 1.01-.367.434-.49.432-.487.577-.488.432-.488.433-.488.433-.366.434-.49.577-.487.434-.977.433-.488.432-.855.576-.978.432-.977.432-.855.433-1.954v-6.96l-.433-1.466-.432-.855-.433-.977-.578-.977-.433-.364-.434-.977-.433-.49-.577-.487-.433-.488-.433-.367-.433-.488-.43-.49-.578-.487-.432-.488-.433-.488-1.01-.367-.433-.488-.865-.488-.578-.488-.865-.488-1.01-.488-.432-.367-.864-.488-1.44-.488-1.01-.488-.865-.49-1.442-.488-1.442-.488-1.874-.367-1.874-.488H373.14l-1.875.487-1.876.367-1.443.488-.865.488h-.577l.577-.487.433-.855.433-.977.433-.486.578-.977.432-.366.433-.976.433-.488.578-.977.433-.368.434-.487.434-.977.577-.488.434-.488.433-.366.432-.488.576-.488.43-.977.434-.487.433-.366.432-.49 1.01-.487.432-.488.433-.488.577-.488.433-.367.432-.488 1.01-.49.433-.487.865-.488.577-.488.865-.367 1.01-.488.432-.49h.432l1.442.49 1.442.488 1.298.366 1.442.488 1.01.488 1.298.488 1.01.49.864.487 1.01.367.865.488 1.01.488.432.488 1.44.49.866.49 1.01.364.433.488.864.49 1.01.487.864.487 1.01.488.865.366.576.488.865.488 1.01.488.865.488.433.49 1.01.366.864.488 1.01.488.432.488 1.01.488.863.488 1.01.366.864.488.433.488 1.01.488.865.488 1.01.488.865.367.577.488.865.488 1.01.488.864.488 1.01.49.865.487 1.01.366.864.488.865.488 1.01.488.865.488 1.01.488.864.367 1.01.49 1.44.487.865.488 1.01.488 1.297.488 1.01.368 1.443.488 1.298.488 1.01.488 1.442.488 1.298.49 1.442.365 1.875.49 1.442.486 1.874.488 2.74.488h7.067v-.977l6.635-.976c-3.606-.367-7.5.49-10.384-1.344l-1.44-.487-2.74-.49-1.876-.487-1.442-.367-1.875-.488-1.44-.488-1.3-.488-1.01-.488-1.44-.488-1.3-.367-1.01-.49-1.44-.487-.865-.488-1.01-.49-.864-.487-1.01-.367-1.297-.487-1.01-.488-.864-.488-1.01-.488-.866-.49-1.01-.487-.866-.367-1.01-.487-.865-.49-1.01-.487-.432-.488-.864-.49-1.01-.365-.865-.488-1.01-.488-.864-.49-.577-.487-.866-.488-1.01-.368-.864-.488-.433-.488-1.01-.488-.864-.488-1.01-.488-.433-.366-1.01-.488-.864-.488-1.01-.488-.432-.488-.864-.488-1.01-.366-.433-.49-1.01-.487-.865-.49-1.01-.487-.433-.488-.866-.366-1.01-.49-.864-.488-.577-.488-.866-.488-.865-.488-1.01-.366-.866-.488-1.01-.49-.864-.487-1.01-.49-.864-.49-1.01-.364-1.44-.488h-.866v-.977h1.875l3.317-.487h8.798l3.75.488 2.308.49 2.452.488 1.875.488 1.875.366 1.875.49 1.298.487 1.442.487 1.442.49 1.44.487 1.298.366 1.01.488 1.297.488 1.442.488 1.01.49 1.298.487 1.01.366 1.44.488.866.488 1.443.49.865.487 1.442.49 1.01.364.864.488 1.442.488.865.488 1.444.488 1.01.488 1.297.366 1.01.488 1.44.488 1.3.488 1.01.488 1.44.488 1.3.367 1.44.488 1.444.488 1.298.49 1.443.487 1.875.488 1.442.366 2.308.49 2.307.487h3.317l6.057-.487c0 6.715 4.47 13.31 9.807 14.53v1.465l.577.488 2.74.366h2.307l2.885-.367 1.442-.488 1.298-.488 1.01-.49.432-.49 1.01-.487.432-.366.864-.49.577-.487.434-.49.433-.487.433-.488.576-.367.433-.977.43-.486.433-.488.577-.855.434-.976.433-1.465v-6.473l-.433-.977-.433-.978-.575-.488-.433-.367-.43-.488-1.01-.49h-4.183l-.866.49-.577.486-.433.367-.433.977-.432 1.466v.366l.432.488h1.874l.433-.855.433-.488h2.452l.433.488.433.366.433.98v3.296l-.43 1.465-.434 1.344-.433.488-.577.978-.432.367-.433.488-.432.488-.577.49-.432.487-.433.488-1.01.367-.864.488-1.01.488-1.296.49-2.452.487h-1.874l-2.307-.488-1.442-.49-.866-.487-1.008-.488-.433-.367-.433-.488-.433-.488-.577-.49-.433-.487-.432-.488-.432-.855-.577-.488-.432-.977-.432-1.343-.433-1.954-.433-1.832h2.307l2.74-.488 1.874-.488 1.875-.488 1.44-.366 1.44-.488.867-.488 1.01-.488.865-.488 1.01-.488.866-.367 1.01-.49.432-.486.865-.488.577-.488.433-.488.433-.367 1.01-.488.432-.488.433-.488.433-.98.577-.365.433-.49.433-.487.432-.978.576-.488.433-.855.43-.978.435-1.344.577-1.955v-3.296l-.576-1.832-.433-.977-.43-.856-.434-.49-.578-.487-.434-.49-.433-.487-.433-.365-1.442-.487h-5.192l-1.875.488-1.44.367-.866.49v1.953l1.875-.488 1.874.488h4.615l1.01.366.432.487.433.488.577.978v3.297l-.577 1.342-.432.977-.432.854-.432.977-.577.49-.432.488-.433.488-.433.367-.578.488-.433.488-.433.488-.432.49-.577.49-.865.364-.433.487-.578.49-.865.487-1.01.488-.865.49-1.01.365-.865.488-1.01.488-1.298.49-1.444.487-3.75.488-2.74.368-1.154-3.175h-.29l-.576 4.152-.433-1.344-.865.368-1.876-.367-5.192-.487-3.317-.488-2.308-.488-2.307-.488-2.308-.49-1.875-.365-1.442-.488-1.875-.488-1.442-.49-1.298-.487-1.875-.488-1.01-.366-1.44-.49-1.3-.488-1.008-.488-1.442-.49-.865-.487-1.442-.366-.865-.487-1.01-.49-.864-.488-1.442-.488-1.01-.488-.865-.367-1.44-.488-.867-.49-1.442-.487-1.01-.488-1.296-.488-1.442-.367-1.442-.488-1.297-.488-1.442-.49-1.44-.488-1.875-.488-1.442-.366-1.875-.488-1.875-.488-2.307-.49-3.317-.487-3.75-.488h-9.23l-3.75.488-2.453.488-1.875.49-1.297.488h-2.885l-.865-.487-1.01-.49-.864-.487-1.01-.488-.865-.366-1.442-.49-1.01-.487-1.297-.488-1.01-.49-1.298-.487-1.875-.366-1.442-.488-1.44-.488-1.876-.488-1.875-.488-2.308-.49-2.883-.365-4.183-.488H347.9l-3.75.487-2.452.366h-.433l.433-.365 1.01-.488.433-.488.433-.49.577-.487.432-.49.432-.365.433-.488.577-.488.433-.488.433-.488.433-.488 1.01-.367v-.976h.864v-.977h1.01l.432-.855.43-.488.433-.488.577-.49.434-.487.433-.488.433-.367.577-.488.433-.488.432-.49.433-.487.577-.855.433-.488.433-.488.433-.488.58-.488.43-.49.434-.854.433-.488.577-.488.433-.488.433-.855.432-.49.577-.487.43-.977.434-.49.432-.486.577-.855.433-.49.433-.976.432-.488.577-.366.432-.978.432-.488.433-.977.577-.366.433-.975.433-.488.434-.977.577-.856.434-.49.433-.976.433-.855.576-.488.433-.977.43-.977.434-.853.577-.977.434-.49.433-.855.432-.977.576-.977.432-.853.432-.977.433-.978.432-1.343.577-.98.432-.976.433-.855.432-1.466.576-.855.432-.978.432-1.465.433-1.343.577-.977.433-1.343.433-1.465.433-1.344.576-1.465.432-1.342.433-1.955.433-1.343.577-1.83.433-1.955.433-1.832.433-2.32.576-2.442.433-2.32.432-3.296.432-2.81.577-4.64.433-6.593v-11.6l-.432-6.593-.576-4.64-.432-3.298-.433-2.81-.434-2.81-.577-2.44-.434-1.83-.433-1.834-.433-1.955-.577-1.83-.432-1.833-.432-1.464-.432-1.343-.577-1.465-.434-1.343-.433-1.465-.433-1.343-.577-1.465-.433-.856-.432-1.465-.433-.978-.578-1.343-.433-.978-.434-.855-.432-1.466-.577-.976-.43-.855-.434-.978-.433-.977-.433-.855-.577-.977-.432-.977-.432-.856-.433-.977-.577-.977-.433-.855-.433-.976-.434-.49-.577-.854-.433-.977-.433-.977-.432-.49-.576-.854-.433-.488-.432-.977-.432-.854-.577-.488-.432-.977-.432-.487-.433-.854-.577-.488-.433-.977-.433-.487-.433-.488-.577-.855-.432-.488-.433-.488-.433-.977-.578-.49-.433-.366-.433-.976-.433-.49-.577-.487-.433-.855-.433-.488-.43-.488-.578-.49-.432-.487-.433-.856-.433-.488-.577-.488-.433-.488-.432-.488-.433-.488-.578-.367-.433-.976-.434-.49-.433-.486-.576-.488-.432-.367-.433-.49-.433-.488-.578-.488-.433-.488-.434-.488-.433-.366-.43-.49-.578-.487-.433-.49-.434-.487-.433-.488-.577-.366-.433-.49-.865-.49-.577-.487-.432-.488-.432-.49-.433-.365-.577-.487-.433-.49-.865-.487-.577-.487-.433-.488-.433-.366-.433-.49-1.01-.487-.432-.49-.432-.487-.577-.487-.866-.367-.433-.488-.576-.49-.865-.487-.434-.49-.578-.487-.866-.365-.433-.488-1.008-.488-.433-.49-1.01-.49-.433-.486-.866-.367-.577-.488-.866-.49-.432-.487-1.01-.49-.865-.488-.577-.366-.865-.49-.864-.487-1.01-.488-.433-.488-1.01-.488-.864-.367-1.01-.488-.865-.488-1.01-.488-.864-.49-1.01-.487-.864-.367-1.01-.488-.865-.488-1.01-.488-.864-.49-1.442-.487-.865-.366-1.01-.49-1.443-.488-.865-.488-1.44-.488-1.443-.488-1.3-.367-1.01-.49-1.44-.486-1.73-.488-1.444-.49-1.442-.487-1.875-.368-1.443-.487-2.307-.488-1.876-.488-1.875-.49-2.31-.49-2.883-.364-2.74-.49L271.03.49 266.417 0H242.91l-4.663.49zm79.618 267.283h.433l.433.977.575.977.433.977.432.855.433.486.577.977.432.488.433.368.432.487 1.01.488.432.488.864.49 2.452.49 1.297.365v2.442l-.433 2.81-.433 1.342-.432.976-.577.855-.432.49-.433.49-.432.486-.576.488h-2.308l-.865-.488-.43-.488-1.01-.49-.433-.855-.433-.977v-2.81l.433-.976.433-.49h2.308l1.01.49.433 1.465h-1.873v1.343l.432.49.432.487h2.453l.432-.488.433-.49v-3.297l-.433-.855-.432-.488-.577-.488-.865-.49-1.008-.487h-3.173l-1.01.488-.433.49-.434.487-.433.488-.576.49-.433 1.83v2.32l.434 1.832.577.977.434.977.432.49.433.365.577.488.433.488.865.49 1.01.488h4.18l.867-.487.577-.49.432-.486.433-.488.432-.366.577-.488.432-.977.433-.977.434-.855.576-1.466.434-2.81v-4.15l.865-.49 1.01-.488.43-.49 1.01-.487.434-.367.432-.488.433-.488.577-.977.432-.488.432-.856.433-.978.576-2.32v-3.297h-.577v2.564l-.866-.245c-.144 4.762-4.182 8.914-8.942 8.914-5.336 0-8.798-5.863-9.23-11.358l-.144 1.954-.87 2.323zm154.9-1.83v.488h5.192l-.433 1.345-.577 2.93-.433 1.343-.432.977-.433.488-.577.367-.433.487-.433.488-1.01.488-.432.488-.865.49-1.01.367-.865.488-1.875.488-3.317.488h-5.624c2.884 1.833 6.778.978 10.384 1.344l-6.634.977v.978h-3.317v.488h4.18l3.317-.488 1.875-.488 1.442-.49 1.442-.487.865-.49 1.01-.365.865-.49.433-.487 1.008-.486.432-.488.433-.488.578-.367.433-.976.434-.488.433-.977.576-.368.433.856.432.977.433.488.578.49.433.854.434.488.433.488.434.488.578.49.866.366.433.49 1.008.487.865.488 1.01.49h.865v-1.466c-5.336-1.22-9.807-7.814-9.807-14.53l-6.057.493zm-295.37 9.4v4.64l.433 2.81.577 1.466.433.854.433.977.43.977.578.488.432.366.433.49.433.487.577.49.865.487h4.182l1.01-.488.865-.49.432-.487.576-.49.433-.365.432-.488.433-.977.578-.978.433-1.83v-2.32l-.432-1.833-.577-.49-.432-.49-.433-.487-.434-.488-1.01-.488h-3.17l-1.01.488-.866.488-.578.488-.433.49-.433.854v3.297l.432.49.432.488h2.452l.433-.49.432-.488v-1.343h-1.875l.433-1.466 1.01-.49h2.307l.433.49.432.978v2.81l-.432.977-.433.855-1.01.49-.432.487-.865.487h-2.308l-.577-.488-.433-.49-.432-.488-.433-.488-.577-.855-.433-.978-.433-1.343-.433-2.81v-2.442l1.298-.367 2.452-.487.864-.488.433-.488 1.01-.488.433-.49.433-.366.433-.488.577-.977.432-.49.433-.854v-.49h-1.445c-2.307 4.393-5.192 4.638-10.24 5.126zm43.99-.98l-.433.49-.432.487-.577.977-.43.366-.433.977v4.274l.432.855.432.486.578.49.865.487h3.75l.433-.488.576-.49v-.976l-.576-.367-2.74-.488-.433-.49v-2.32l.432-.976.866-.49.578-.49.866-.364 4.76-.49-4.76-.487v-.49h4.76v-.49h-4.327l.143-.73 9.807 1.22v-.49l-1.01-.486-.865-.367-1.01-.488-1.875-.49h-4.615l-1.874.49-1.01.487-.864.367zm63.74 2.81l.865.488.433.98v2.32l-.43.49-2.74.486-.578.366v.978l.578.49.433.487h3.75l.866-.488.576-.49.433-.488.43-.855v-4.274l-.43-.976-.434-.366-.577-.976-.434-.487-.865-.49-.576-.487-.864-.367-1.01-.49-1.875-.487h-4.18v.488h3.748v.49h-2.307v.366l3.318.244-1.01.366 1.01.733-4.327.61 4.76.488.866.367zm-105.42-9.4l-.433 1.465-.433 1.465-.433 1.343-1.01-.488-.432-.488-.433-.367-.58-.488-.432-.977-.434-1.832v-2.81l.433-1.464.432-.977.576-.367.864-.488h1.01l.865.488.432.367.577.977v2.32l-.577 2.32zm2.885 4.763h-1.442l.433-.977.575-.857.433-1.465.43-1.466.434-1.343v-5.13h-.433l-.865 5.618h-.577c0-4.397.43-3.786-1.443-6.473l-3.173-.61c-1.73.976-3.317 2.075-3.317 4.76v2.32c0 5.984 3.317 5.496 6.923 6.96l-.288-.854 2.306-.486zm145.945-9.403l.577-.977.433-.367.865-.49h1.01l.865.49.577.365.433.977.432 1.465v2.81l-.432 1.83-.433.978-.577.488-.433.367-.433.49-1.01.487-.433-1.343-.433-1.465-.43-1.467-.578-2.32v-2.32h.003zm-2.74-1.832h-.433v5.13l.432 1.344.433 1.465.433 1.464.577.855.433.976h-1.442l2.452.488-.577.855c3.32-.61 7.07-1.344 7.07-6.96v-2.32c0-2.443-1.73-4.763-4.184-4.763-4.038 0-3.75 3.175-3.75 7.082h-.577v-1.955l-.867.977v-4.64zM4.615 244.445l.577-.977.433-.488.433-.49 1.008-.365h2.74l1.875.366 1.443.49 1.442.487.865.49 1.01.487.866.488.432.367 1.01.487.432.488.433.49 1.01.487.432.855.433.488.577.488.433.49.433.976.434.365.577.977.434.976.433.488.432.855.576 1.465.432.855.433 1.464.434 1.832.432 2.442-2.74-.49-3.75-.487-1.442-.486-1.298-.488-1.01-.488-.865-.488-1.01-.367-.864-.488-1.01-.488-.433-.488-1.01-.49-.433-.488-.865-.366-.578-.49-.433-.487-.434-.49-.433-.487-.577-.488-.433-.366-.433-.49-.432-.49-.577-.486-.43-.977-.434-.855-.432-.977-.577-1.343v-3.3zm0-5.13l-.433.367-.432.49-.432.49-.577.486-.43.488-.434.855-.432.976-.577 1.466v3.664l.577 1.954.432 1.343.433.978.432.856.578.488.433.978.433.488.433.49.576.365.433.49.432.976.43.49 1.01.487.433.366.433.488.577.49.865.487.433.488 1.01.488.866.367 1.01.488.864.488 1.01.49.865.487 1.44.488 1.443.367 1.874.49 1.875.487 2.74.488h2.45l-.576 1.832-.433 1.954-.432 1.344-.432.488-.577.977-.432.854-.433.49-.433.487-.578.488-.433.488-.433.488-1.01.368-.433.49-.865.487-1.443.488-2.307.488h-1.876l-2.452-.487-1.298-.488-1.01-.488-.864-.49-1.01-.366-.432-.487-.432-.488-.577-.488-.434-.488-.433-.49-.433-.366-.576-.977-.433-.488-.43-1.344-.433-1.466v-3.297l.433-.977.43-.366.434-.488h2.452l.432.488.433.855h1.877l.433-.49v-.365l-.434-1.465-.433-.977-.433-.367-.577-.487-.866-.488H3.315l-1.01.488-.433.488-.432.368-.577.488-.432.978-.43.977v6.473l.432 1.465.433.977.577.854.432.487.433.488.433.977.577.367.433.487.432.488.433.488.577.488.866.49.432.366 1.01.49.432.488 1.01.488 1.297.488 1.44.488 3.317.366h1.442l3.172-.366 1.443-.488 1.01-.488.865-.488 1.01-.488.432-.49.865-.365.577-.49.433-.486.433-.488.433-.488.433-.855.577-.488.433-.49.433-.976.432-.856.576.366.433.977.43.488.435.978.577.367.434.488.433.488 1.01.49.432.487.865.49 1.01.365.864.49 1.44.487 1.444.487 1.875.488 3.75.488h3.75l3.75-.488v-.488c-4.04 0-11.394-.367-13.558-1.71l10.24-1.1h-5.625l-3.317-.487-1.876-.488-.865-.488-1.01-.368-.866-.488-.433-.49-1.01-.487-.432-.488-.434-.49-.577-.366-.434-.488-.433-.977-.433-1.344-.577-2.93-.433-1.343h5.192l3.316-.49 2.307-.487 1.875-.488 1.875-.366 1.875-.49 1.442-.487 1.298-.488 1.442-.488 1.442-.49 1.298-.367 1.442-.488 1.01-.488 1.298-.488 1.442-.49 1.01-.487 1.297-.366 1.01-.488 1.44-.49.866-.487 1.01-.488 1.298-.488 1.01-.366 1.44-.49.866-.486 1.442-.488.865-.488 1.443-.488 1.01-.367 1.297-.488 1.01-.49 1.442-.487 1.297-.488 1.01-.488 1.297-.366 1.442-.488 1.44-.49 1.443-.487 1.297-.486 1.876-.488 1.875-.366 1.876-.49 2.452-.487 2.308-.49 3.317-.487v-.488h-4.76v-.244l2.886-1.1-1.875-.488h-3.316l-2.307.49-1.876.487-1.874.488-1.876.368-1.442.488-1.442.488-1.442.49-1.298.487-1.442.49-1.442.365-1.298.488-1.01.488-1.44.49-.866.49-1.442.486-.865.366-1.01.49-1.44.487-.866.487-1.01.49-.864.487-1.442.366-.865.488-1.442.488-1.01.488-1.297.488-1.442.49-1.01.365-1.873.488-1.297.488-1.442.49-1.874.487-1.442.488-1.875.366-2.31.49-2.306.487-2.884.49-2.74.487-5.193.488c-1.298.734-1.298.978-1.875-.487l-.432-1.954-.433-1.833-.577-1.342-.433-1.465-.433-.978-.433-.855-.576-.977-.43-.977-.434-.855-.434-.49-.433-.975-.578-.488-.433-.855-.434-.49-.433-.488-.577-.488-.433-.488-.433-.366-.433-.488-.576-.488-.432-.49-.864-.487-.577-.49-.867-.366-.432-.488-1.008-.488-.866-.488-1.01-.49-.865-.488-1.44-.366-1.877-.488h-5.19l-1.437.486zm484.587 3.18l-.576.49-.866.487-.432.49-.576.488-.433.49-.435.365-.432.488-.577.49-.433.488-.433.49-.43.853-.578.49-.433.977-.434.488-.433.855-.433.976-.576.977-.432.855-.433.976-.435 1.466-.577 1.343-.433 1.832-.433 1.953v.855l.865-.366.432 1.343.576-4.152h.287l1.154 3.175.434-2.32.434-1.832.432-1.463.432-.855.577-1.464.43-.855.434-.487.432-.977.577-.978.43-.367.434-.977.432-.49.576-.487.433-.49.434-.853 1.01-.49.43-.487.434-.49 1.008-.488.866-.366.432-.49 1.01-.487.865-.49 1.443-.49 1.442-.49v-.364l-1.874-.488-1.874.487v-1.465h-1.01l-.865.488-1.01.49-.43.487zm-243.88-52.87h.865v.977h-.865z" clip-rule="evenodd"/><path class="text" fill-rule="evenodd" d="M278.923 354.463l-.432.977-.43.855-.434.977-.577.488-.434.488-.865.366-.576.488-.865.488h-5.193l-1.298-.488-.578-.488-.864-.366v-17.34l.865-.49.578-.488.866-.488 1.442-.488 1.875-.366h.432l1.875.366.865.488 1.01.488.432.49.433.488.577.488.433.366.433.977.432.975.577 1.343v7.57l-.577 1.833zm-15.43-22.468l-1.3.488-1.44.488-1.443.368-1.875.488-2.308.488-1.01.49v3.296l2.453.487 1.298.366.577.488v36.513l-.577.488-1.875.49-2.307.49v3.783h18.316v-3.785l-2.452-.49-2.308-.487-.433-.487-.435-2.81-.433-8.425.865.488 1.875.49h1.875l1.875-.49 1.442-.488 1.298-.49 1.01-.365.864-.488 1.01-.488.865-.488.578-.49.432-.49.865-.364.577-.488.433-.488.432-.49.432-.487.576-.488.432-.366.433-.49.434-.977.577-.488.433-.855.433-.976.433-.977.576-.855.433-1.954.432-2.81v-3.296l-.433-2.81-.434-1.342-.577-.977-.434-.855-.433-.488-.432-.977-.576-.488-.433-.488-.432-.366-.433-.486-.578-.488-.433-.49-.866-.487-1.01-.49-.865-.365-1.443-.488h-5.192l-1.442.488-.865.366-.432.49-1.01.487-.865.49-1.01.487-.433.488-.865.367v-4.64H264.5l-1.008.487zm85.67 11.728l.433-1.954.577-.857.432-.977.433-.977.432-.367.577-.488.433-.49.865-.487h4.327l.865.487.433.49 1.01.487.432.855.433.487.577.977.433.856.433.976.432 1.465.577 2.81v6.472l-.577 2.32-.432 1.464-.433.977-.433.856-.577.487-.433.488-.865.49-1.442.487h-2.307l-1.442-.487-1.01-.488-.433-.488-.433-.488-.433-.49-.577-.854-.432-.488-.433-.977-.432-1.342-.577-.977-.433-2.32v-7.937zm2.308-10.746l-1.296.366-1.01.488-.865.49-.433.49-1.01.487-.433.488-.433.366-.576.49-.433.487-.43.488-.434.49-.577.487-.434.856-.433.488-.433.977-.578.856-.433.976v.488l-.435 1.344-.433 2.442v4.64l.433 2.32.433 1.465.432.856.577 1.466.432.49.432.854.433.488.577.488.433.488.432.488.433.366.577.49.433.487.433.487 1.01.488.432.488.865.366 1.01.488 1.875.488 2.308.49h3.75l2.308-.49 1.443-.488.865-.49 1.01-.365.866-.488.577-.49.866-.487.433-.49.577-.488.433-.366.434-.49.433-.487.577-.977.432-.488.433-.855.43-.977.578-.977.432-1.344.433-1.465v-8.79l-.433-1.466-.433-1.342-.578-.977-.434-.488-.434-.977-.432-.366-.577-.978-.433-.488-.433-.488-.432-.488-.577-.366-.864-.488-.433-.488-.576-.49-.865-.487-1.01-.49-1.298-.365-1.442-.488h-7.066l-1.443.49zm-198.876 8.786l.432-.855.577-.977.433-.975.433-.366.432-.49 1.01-.49.865-.486h2.452l.864.488.432.49h1.01v.855l.433.488.432 1.465v1.832l-10.384.488.577-1.465zm2.307-8.792l-.864.368-1.01.488-.865.488-.432.49-.577.487-.864.49-.433.365-.577.488-.433.488-.433.49-.433.49-.577.853-.433.488-.433.978-.433.49-.575.854-.433 1.466-.432 1.343v1.954h-.433v-3.785h-.577v7.45l.577 3.295.433 1.954.433 1.342.434.978.577.855.434.977.433.488.434.977.577.366.433.49.432.488 1.01.49.432.487.433.488 1.01.366.865.49 1.442.488 2.307.49h3.318l1.875-.49 1.298-.488 1.01-.49.866-.365.578-.488.865-.488.433-.49.578-.487.433-.49.434-.365.433-.488.577-.488.433-.49.433-.487.432-.488v-1.343l-.433-.488-.434-.488-.432-.855h-1.01l-.864.367-.578.488-.433.488-.434.488-1.01.49-1.298.487-1.443.367h-2.74l-1.443-.366-1.01-.487-.864-.49-.432-.487-.576-.488-.432-.488-.433-.366-.434-.487-.577-.977-.433-.977-.433-1.344-.433-2.32-.576-1.466h4.327l7.933-.487 4.614-.366 1.442-.49v6.108l.432 2.32.432 1.343.577.978.433.977.432.855.433.488.577.977.433.488.433.366.434.49.577.486.433.49.866.487.576.488.865.367 1.01.49 1.3.488 2.884.49h2.74l1.875-.49 1.44-.488.866-.49 1.01-.365.865-.488.578-.488.433-.49.866-.487.577-.49.433-.366.433-.488.432-.488.578-.488.432-.977.433-.366v-1.464l-.433-.488-.432-.488-.577-.366-.432-.487h-.432l-.433.488-1.01.367-.432.488-.433.488-.577.488-.865.49-1.01.487-1.875.366h-2.74l-1.442-.366-.864-.488-1.01-.49-.433-.487-.865-.488-.577-.855-.432-.488-.433-.977-.433-.977-.578-.854-.433-1.954v-5.617l.433-1.832.577-.976.432-.855.433-.49.433-.976 1.01-.488.432-.366 1.442-.487h4.182l.865.488 1.007.368.865.488.577.488.432.49.433.488h2.884l.432-.488.433-.49.433-.487.576-.855v-2.81l-.577-.976-.434-.49-.865-.487-.576-.49-.865-.366-1.443-.488h-6.49l-1.442.488-1.442.366-1.298.487-.577.488-.865.49-1.01.487-.432.488-.864.366-.577.488-.434.488-.433.488-.432.49-.576.487-.433.366-.433.488-.433.49-.577.977-.433.488-.432.855-.433.976-.578.977v-3.786l-.433-1.465-.434-.855-.433-.49-.577-.976-.432-.486-.433-.366-.432-.488-.578-.49-.433-.488-.866-.488-.576-.488-1.298-.366-1.01-.488h-6.058l-1.442.49zm140.904 21.014l.433-.977.577-.367.866-.49 1.008-.487.865-.488 1.01-.488.864-.488 1.01-.368.865-.488v8.426l-.865.49-1.01.365-1.442.488h-1.875l-.865-.488-.433-.366-.577-.49-.433-.977v-2.81zm2.308-21.003l-1.297.367-1.01.488-.864.488-1.01.49-.864.487-1.01.487-.433.366-.865.488-.577.49-.43.488-.434.49-.433.487-.577.366-.433.49v2.32l.433.976.577.488.433.488.433.49 1.01.366h2.306l.865-.366.578-.49.433-.976.434-1.832.433-.977.433-.977v-.855h1.008l.865-.49h1.442l1.442.49.432.488.43.367.578.488.432 1.465.433 1.832v1.832l-.865.488-1.01.488-1.442.488-.865.49-1.44.49-1.44.364-.867.49-1.442.487-1.297.49-1.01.487-.865.488-.578.367-.432.488-.433.488-.433.488-.577.49-.433.854-.433 2.442v1.832l.433 2.32.433.977.577.856.433.49.433.487.43.488.578.49.432.487.433.367 1.01.49.865.487 1.875.49h2.308l1.443-.49.865-.487 1.01-.49.432-.365 1.01-.487.433-.487.865-.488h.577l.432.977.432.488.432.366.577.49.864.487 1.442.49h1.44l.866-.49 1.01-.488.432-.49.865-.365 1.01-.488.43-.488 1.01-.488.866-.488v-1.343l-.433-.977-.432-1.343h-1.44l-1.01.366h-1.3l-.576-.365-.432-17.34-.433-2.32-.434-1.466-.577-.977-.434-.366-.433-.488-.433-.49-.577-.49-.433-.486-.865-.488-1.01-.366-.866-.487h-4.76l-1.444.497zm15.573 10.744h2.74l.433-.977.577-1.343.432-1.466.433-1.342.433-.49 1.01-.488 3.75-.488-.577 22.956-1.298.488-2.884.49v3.662h16.874v-3.663l-2.74-.49-1.442-.487-.433-22.957 3.75.486.864.49.433.488.577.854.433 1.465.432 2.32.432.488h2.884l.433-.49v-9.888l-.433-.367h-27.113l-.577 2.81-.433 6.47v.977zm-81.05 1.34l.432-2.32.577-1.343.433-.976.433-.977.433-.488v-.856h1.01l.433-.49 1.01-.487H241l1.008.488.866.49.577.487.435.367.433.487.433.977.578.977.433.855.434 1.465.432 1.83v8.915l-.432 1.832-.433 1.465-.432.855-.577.488-.432.488-.433.488-1.01.49-.866.488h-2.74l-1.01-.488-.866-.49-.577-.487-.865-.488-.432-.855-.577-.488-.432-.977-.432-.977-.433-1.343-.577-1.465-.432-2.81v-5.127zm2.307-12.09l-.865.367-1.01.49-.865.487-1.01.49-.432.487-.865.488-.577.367-.433.487-.432.488-.432.488-.576.49-.432.855-.433.488-.434.977-.577.977-.434.855v-5.617l-.433-3.663h-27.115l-.577.366-.432 6.107v3.785l.433.487h3.318l.432-1.955.577-1.343.433-1.465.433-.855 1.01-.49 4.18-.487-.43 22.47-.578.487-.865.488-3.317.488v3.663h17.307v-3.663l-2.74-.488-1.442-.49-.432-.976-.433-21.98 3.606.488 1.44.49.434.855.578 1.465.432 1.832.433 1.465h3.313l-.433 1.342v8.426l.433 1.465.433 1.344.433.977.577.978.433.366.433.977.43.49.578.487.432.488.432.366.433.49.577.488.865.488.432.488 1.01.488.863.366 1.01.49 1.442.487 2.74.49h3.317l2.308-.49 1.442-.487.865-.49 1.01-.365.864-.488 1.01-.488.434-.488.432-.488.432-.49.577-.365.432-.487.433-.488.433-.49.577-.976.432-.367.433-.977.433-.976.577-.855.433-1.955.433-1.832v-6.105l-.432-1.832-.433-1.464-.577-.854-.433-.977-.433-.978-.432-.855-.577-.488-.433-.49-.433-.488-.433-.488-.578-.488-.433-.366-.433-.488-.433-.488-1.01-.49-.865-.487-1.01-.487-1.442-.367-1.298-.488h-6.634l-1.876.49zm-99.227 21.01l-.433 1.465-.433.365-.578.977-.433.49v.976h-.866l-.433.366-.577.488-1.298.488h-4.76l-1.44-.488-.866-.488-.433-.366v-17.34l.432-.49.864-.488 1.01-.488.864-.488 1.875-.366h.577l2.307.366.865.488 1.01.488.433.49.433.488.433.488.58.855.432.977.434.977.433 1.343v6.594l-.435 1.834zm-8.365-30.405v.487l.865.49.577.365.865.49.433.488.577.977.433.855v2.81l-.433.487-.577.976-.865.488-1.01.488-.865.366-1.01.488-.432.488-2.308.49-1.01.487-.432-3.664-3.317 1.343h-3.175l-.577-.49-.434-.487h-.433l-1.297.366-1.73-1.1 1.586 1.71-.433.855c0 1.22 1.298.367-.433.977h-1.01v3.298l2.308.488 1.442.366.433.977.577 3.785v.49l-.577 30.893v1.343h-.865l-1.875.49-1.875.49v3.783h17.74v-3.785l-1.876-.49-2.308-.487-.434-.487-.432-.855v-9.89l2.307.488h1.875l1.875-.49 1.443-.487.865-.49 1.442-.366.865-.488.433-.488 1.01-.488.864-.49.577-.488.43-.366.866-.488.577-.488.433-.488.432-.488.432-.488.577-.855.432-.486.432-.488.433-.977.577-.367.433-.977.433-.977.434-1.344V340.92l-.433-.977-.433-.977-.433-.855-.577-.487-.433-.977-.433-.488-.432-.366-.578-.487-.433-.488-.866-.49-.576-.487-.865-.488-1.01-.366-.866-.488.433-1.466v-3.297h-.433l-1.01.977c-.288-3.54-5.768-7.45-9.806-7.45h-2.74c-1.586 0-1.586.245-2.307.856 1.443-.122 1.588-.488 3.174-.488h1.442c1.587 0 1.875.367 3.173.488l.147 1.462zm266.805 20.634l.865.366h1.01v7.08l-.433 1.833-.577 1.465-.432.855-.433.977-.432.488-.576.488-.433.488-.432.366-1.01.488-.864.488-2.307.488h-.576l-2.307-.488-.865-.488-1.01-.488-.432-.366v-17.34l.433-.49 1.008-.488.866-.488 1.01-.488 1.874-.366h.432l2.306.366 1.01.488.865.488.434.49.577.488.433.488.433.855.432.977h-1.297v.488l.433.49zm-20.623-16.485h-.433v3.296l.432 1.466.432.856-.432.488-1.875.488-.865.49v3.296l2.307.488 1.44.366.43 1.465v36.02h-1.007l-1.875.488-1.875.49v3.784h17.883v-3.784l-2.452-.49-1.875-.487h-.866v-11.233l2.308.488h1.443l1.875-.49 1.875-.487.865-.49 1.442-.365 1.01-.488.432-.488.865-.488 1.01-.49.432-.49.433-.364.577-.488.865-.488.433-.49.577-.487.433-.488.433-.855.433-.488.577-.488.432-.977.433-.366.433-.975.434-1.465.578-1.344v-1.832l-.577-8.914v-.977l-.432-.977-.433-.855-.433-.487-.432-.977-.577-.488-.432-.366-.432-.487-.433-.488-1.01-.49h-.43l-1.876-.98 1.586-2.198-2.163 1.71-1.297-.367h-4.182l-1.01.49h-.864l-1.01.365-.865.488-1.01.488h-2.307l-.432-2.807h-1.44l-1.443.488h-.865l-.577-.976-.433-.49-.433-.365-.866-3.297c1.442-2.442 4.47-5.25 8.365-5.25h1.44c1.588 0 1.73.366 3.174.487-.72-.61-.72-.855-2.308-.855h-2.74c-4.182 0-9.518 3.663-9.807 7.45l-1.01-.977z" clip-rule="evenodd"/></svg>