<svg class="svg-icon icon-shale" xmlns="http://www.w3.org/2000/svg" viewBox="0 0 110.232 94.661"><g fill-rule="evenodd" clip-rule="evenodd" image-rendering="optimizeQuality" shape-rendering="geometricPrecision" text-rendering="geometricPrecision"><path fill="#8c8a72" class="first" d="M71.575 55.334l.212-.14c.71.955 30.756-9.64 30.933-9.604.25.036.497-.035.745-.177.106-.07.318-.07.46-.07.177 0 .32.035.496.035.038.035.11 0 .144 0-.035 0-.106 0-.142-.036-.07 0-.14-.035-.21-.035.07-.07.105-.142.176-.142.106-.035.177 0 .283-.035.07-.036.248-.07.248-.07-.106-.39.177-.178.284-.25.213-.07.39-.07.603 0 .106 0 .248-.14.354-.247-.07-.036-.178-.178-.213-.142-.248.144-.46-.317-.71 0 0 0-.105-.034-.14-.07h-.78c-.71-.07-1.382-.14-2.09-.212-.603-.035-1.17-.106-1.772-.177-.355-.034-.71 0-1.028-.105-.212-.106-.46 0-.708.035-.214 0-.356-.07-.32-.32v-.637c0-.496 0-.496.496-.567h.07c.355 0 .213-.248.25-.425 0-.176 0-.317-.25-.282-.177 0-.354-.035-.53-.035.035-.177.07-.32.035-.46-.036-.143-.07-.214.106-.214 0 0 .035-.07 0-.107-.036-.142-.106-.283-.177-.425-.143-.354-.143-.354.21-.532.037 0 .07-.035.108-.07-.036 0-.07-.036-.107-.036-.32-.036-.32-.284-.32-.532.038-.355-.033-.71.038-1.063.035-.284-.142-.638.07-.922 0-.035.497-.39-.07-.354 0 0-.036-.073-.036-.144.037-.212.072-.46.108-.673 0-.212.07-.283.283-.354.214-.037.178-.07.072-.214-.07-.106-.106-.283-.106-.39-.037-.354 0-.708 0-1.027 0-.07 0-.178.034-.214.214-.212.214-.32-.14-.32-.036 0-.107-.105-.107-.14-.035-.355-.07-.744-.106-1.1 0-.14.07-.282.036-.424-.106-.567-.106-.567.213-.957 0-.035.034-.035.034-.035 0-.212.036-.424-.035-.6-.178-.427-.07-.923.282-1.135.036-.036.036-.07.07-.142-.034 0-.034-.035-.07-.035-.354-.142-.354-.142-.14-.46v-.214c-.037-.248.07-.46.21-.708.25-.426.533-.744.922-1.028.46-.354.993-.46 1.49-.567.21-.033.282-.033.176-.246-.07-.248-.142-.496.177-.673.177-.14.07-.39-.142-.424-.034 0-.105-.036-.105-.07v-.78c0-.036.142-.072.177-.107s.07-.07.07-.107c-.176-.107-.247-.284-.247-.496 0-.036-.036-.07-.036-.07 0 .034 0 .07-.036.105-.035.036-.106.107-.106.072-.107-.07-.32.07-.32-.177 0-.036-.035-.107-.035-.142 0 .035 0 .106-.035.142 0 .14.106.354-.142.32-.07 0-.142-.18-.177-.32-.036-.07-.036-.177-.036-.248-.036-.604-.036-1.206-.07-1.808v-.496c0-.07.034-.142.07-.178.177-.035.39-.07.567-.035.036 0 .07.284.036.426 0 .07-.106.176-.142.283-.035-.107-.106-.178-.14-.284 0-.036 0-.07-.037-.107v1.663c0 .07 0 .106.037.176v-.177c0-.32 0-.638.035-.992 0-.035.106-.106.177-.142.035 0 .14.11.14.144.036.32 0 .602.036.92 0 .072.036.18.07.25 0 .035.037.035.037.035.14-.214.317-.143.495-.107.992.14 1.984.318 3.01.248.143-.035.32.036.498.107.283.07.318.07.354-.284v-.177c.035-.106 0-.32.035-.354.248-.07-.035-.212.07-.283.037-.036.107-.036.143-.036.07 0 .177 0 .248-.035.177-.07.46-.07.213-.39-.108-.143-.037-.39 0-.568 0-.07.034-.213.21-.142.285.07.603.036.887.106.213.036.496.07.673.213.106.105.142.07.142 0 .034-.284.176-.355.424-.284.142.035.248.106.354.14.036-.14.036-.282.107-.353.106-.105 0-.105-.036-.176-.035-.248.07-.39.32-.46.105 0 .212-.072.212-.107.072-.284.213-.284.426-.284.035 0 .07-.035.106-.035-.035 0-.035-.034-.07-.034-.107-.107-.213-.213-.355-.284 0-.036-.07-.036-.107 0-.39.176-.743.07-1.133.035-.07 0-.142-.107-.177-.142-.036-.036 0-.107 0-.142-.036.036-.07.072-.107.072-.07.035-.177.07-.248.07-.283-.106-.637-.106-.85-.39-.035-.07-.283-.105-.283-.07-.107.213-.284.106-.46.07-.214-.07-.426-.176-.64-.212L104 17.885c-.284-.07-.497-.178-.78-.248-.638-.142-1.347-.25-1.985-.426-.496-.105-.956-.282-1.452-.39-.355-.07-.745-.105-1.1-.176-.07 0-.105-.034-.14-.07.035-.035.07-.106.106-.106.353-.07.672-.142 1.026-.177.815-.07 1.63.07 2.445-.14.497-.14 1.1-.07 1.63-.107.143 0 .32.034.46 0 .143 0 .32-.036.46-.107.18-.07.357-.107.498.07.07.107.142.178.248.284-.07-.106-.106-.213-.14-.32v-.07c.318-.14.105-.425.14-.638 0-.25.107-.497.036-.71-.072-.212-.356-.354-.462-.566-.46-.673-.886-1.347-1.31-2.055-.497-.78-.993-1.595-1.49-2.41-.176-.32-.495-.567-.424-.992l-.07-.035c-.25.142-.32-.142-.32-.213-.106-.426-.71-.532-.638-1.064V7.18c-.283.142-.283-.495-.638-.176 0 0-.07-.07-.07-.107-.107-.14-.213-.248-.284-.354-.425-.71-.886-1.382-1.31-2.09-.178-.25-.284-.213-.426.035-.07.142-.213.354-.354.354-.32 0-.46.177-.674.39-.177.177-.39.283-.567.496-.177.283-.53.39-.815.567-.14.106-.283.177-.354.283-.142.355-.425.426-.71.532-.07.035-.14.07-.176.106-.035.284-.283.32-.496.39-.07 0-.177.035-.177.106-.106.39-.53.425-.744.71-.034.034-.105.07-.14.034-.178-.07-.25 0-.213.178 0 .035-.07.07-.107.106-.212.177-.46.283-.673.496-.32.32-.78.53-1.063.92-.213.355-.71.426-.886.852 0 .035-.105.035-.14 0-.107-.07-.036-.497.07-.567.248-.105-.035 0 0-.034 0-.035-.035-.142-.035-.142.142-.14.248-.248.39-.39.14-.14.283-.318.425-.46-.32.142-.602.248-.71.602-.07.178-.14.178-.282.036 0 0 0-.035-.036-.035v.107c0 .14.035.283-.178.354-.142.035-.035.035.036.035.248.037.14.25.14.356 0 .21-.105.353-.282.424-.177.036-.354.107-.567.072-.78 0-1.595.07-2.374.248-.85.177-1.7.106-2.516.106-.178 0-.32.106-.46.142-.108 0-.18 0-.285.035-.39.036-.744-.035-1.134.142-.317.105-.706.035-1.06.07-.284.035-.568.035-.85.106-.568.213-1.1.177-1.666-.07-.178-.07-.355-.107-.532-.178-.105-.035-.247-.106-.353-.142.105-.035.247-.106.353-.14h.214c1.098-.072 2.196-.072 3.295-.178.743-.07 1.523-.213 2.267-.32.53-.07 1.097-.106 1.63-.176.424-.036.813-.107 1.24-.142.034 0 .07-.036.105-.036h-.106c-.108 0-.25-.035-.356 0-.673.07-1.346.142-2.02.248-.743.07-1.523.213-2.267.284-.32.07-.638.106-.957.106-.673.036-1.31.036-1.984.106-.425 0-.815.07-1.205.107-.283.036-.567 0-.815-.035-.035 0-.106-.035-.14-.07.034-.036.105-.036.14-.07.78-.072 1.595-.18 2.374-.25.32 0 .637-.106.956-.14.532-.072 1.028-.107 1.56-.178.495-.07.956-.142 1.452-.213.39-.07.78-.07 1.134-.107.072 0 .107-.036.178-.036h-.177c-.46-.035-.956 0-1.452.107-.353.105-.78.105-1.17.105-.6.034-1.17.07-1.77.247-.354.07-.78.035-1.17.106-.46.07-.885.176-1.346.212-.566.035-1.168.32-1.7-.142-1.452-.425-2.905-.85-4.358-1.31-1.7-.568-3.4-1.1-5.067-1.666-.14-.036-.25-.07-.355-.107-.07-.035-.105-.07-.14-.106.07 0 .106-.034.176-.034.39-.036.816 0 1.17-.177.036 0 .107 0 .14.034-.033 0-.033.035-.033.07-.035.036-.07.107-.106.143.07-.036.14-.036.178-.07.32-.39.744-.25 1.17-.25.105 0 .212.036.247 0 .284-.247.603-.176.92-.176.214 0 .39.036.604-.14.105-.108.353-.037.53-.072.07 0 .142 0 .25-.036.034 0 .105-.07.105-.07.32.248.46-.07.708-.142.107-.036.213-.036.32-.036h1.027c.106 0 .248 0 .283-.07.248-.248.532-.284.85-.248.284 0 .674.07.886-.07.283-.178.602-.178.885-.214.603-.106 1.24-.177 1.843-.248.53-.07 1.063-.177 1.594-.248 1.524-.213 3.047-.425 4.607-.638 1.487-.212 2.975-.425 4.5-.638 1.45-.177 2.904-.39 4.357-.566 1.523-.213 3.082-.426 4.606-.638.177-.036.32-.036.248.177.037 0 .143 0 .178-.07.07-.143.142-.284.248-.426-.176-.035-.318-.105-.46-.105-.708.107-1.417.213-2.125.284-1.523.212-3.047.424-4.535.637-1.524.212-3.013.39-4.5.602-1.49.212-3.013.424-4.5.637-1.524.177-3.013.39-4.5.602-1.7.212-3.402.46-5.103.71-1.736.21-3.508.46-5.244.707-.425.07-.85.106-1.31.177-.356.034-.356 0-.285-.32.07-.248.178-.46.39-.638.142-.106.213-.248-.035-.354-.142-.07-.177-.177-.177-.32.07-.353.07-.708.07-1.098 0-.14 0-.14-.14-.035-.036 0-.107-.036-.107-.036 0-.107-.035-.284.036-.355.176-.178.424-.284.707-.25.07 0 .142-.034.178-.034-.07-.036-.107-.07-.178-.07-.318-.037-.354-.107-.318-.39.034-.143.07-.284.07-.426 0-.035-.036-.07-.036-.106-.036.035-.072.07-.072.106 0 .07-.035.142 0 .248.036.248-.07.32-.32.32-.105-.037-.21-.037-.282-.072-.425-.106-.815-.177-1.24-.354-.496-.248-1.1-.32-1.666-.46-.07 0-.177-.036-.212 0-.213.247-.355.07-.532-.036-.07-.036-.142-.07-.212-.07-.142-.072-.46.07-.284-.285-.213-.176-.177-.353-.142-.566l4.96 1.134.072-.283-4.996-1.133-.036.248c0-.106.036-.177 0-.284V1.41c-.035 0-.106 0-.106.037-.035.213-.213.25-.39.25-.283.034-.602.105-.92.176-.178 0-.39.106-.532.035-.284-.07-.355.037-.32.25v.46c0 .07-.035.212-.07.212-.39.213-.07.25.035.355.105.07.212.142.32.177.21.106.39.46.317.673 0 .036-.07.036-.106.036 0 .036.036.036.07.036.214.07.427.284.604-.035 0-.035.106-.035.142-.035.177 0 .39.107.567-.07 0 0 .176.14.282.212-.248.212.07.46-.035.672-.036.07-.07.176-.142.212-.46.07-.957.14-1.417.248-.212.035-.283 0-.283-.213 0-.212-.035-.425-.035-.638 0-.036-.037-.07-.037-.14-.035.033-.035.07-.035.104-.036.283.035.602-.036.886-.035.212 0 .283.178.39.354.177.425.46.248.78-.107.212-.248.247-.46.14-.107-.105-.25-.176-.426-.212-4.43-1.062-8.86-2.09-13.288-3.117-3.047-.71-6.094-1.416-9.14-2.125C34.586.775 32.92.385 31.29.03c-.14-.034-.32-.034-.426.037-.567.46-1.134.99-1.7 1.45l-21.05 17.11c-.107.106-.213.177-.32.283-.035.035-.07.176-.035.212.14.248.247.53.495.708.142.142.213.426.035.496-.247.107 0 .07.037.07.212.037.46.037.673.108.354.07.673.14 1.028-.07.07-.037.177.07.283.07-.033.07-.07.14-.104.177-.036.18-.07.356-.107.498 0 .354 0 .708.035 1.098 0 .142.035.284.07.425h.072c.106-.317.318-.07.46-.07.284 0 .32.107.213.355-.072.248-.285 0-.285.106-.035.107.284.143.107.356-.036.035 0 .106 0 .14.035-.034.07-.105.106-.105.035-.034.106-.034.106 0 .213.426.107.92-.248 1.24-.106.107-.142.143-.106.32.106.248.177.567.213.85.035.46 0 .92 0 1.418 0 .248-.07.496-.355.602 0 .035-.035.105-.035.105.283.355.39.744.39 1.1-.036.53-.036 1.026-.107 1.522 0 .142-.035.355-.142.497-.07.106 0 .14.036.248.106.248.07.566.106.85 0 .142-.035.32 0 .46.036.284-.07.532-.354.567-.496.034-1.028.07-1.524.07-.14.035-.248-.036-.283-.213 0-.036-.106-.036-.106-.036-.18.32-.357.108-.428-.07-.106-.177-.212-.14-.354-.07-.072.035-.143 0-.214 0-.07 0-.14.035-.14.07-.072.284-.285.32-.497.355-.037 0-.072.035-.108.035.035.037.07.072.106.072.317 0 .424.177.388.46v.142c.036-.07.036-.106.036-.177l.106-.212c.036.07.106.14.106.248v2.374c0 .14.107.39-.177.39-.32 0-.178-.25-.178-.39 0-.567.035-1.134.07-1.666 0-.07-.035-.104-.035-.14v.14l-.106 1.774c0 .354-.07.425-.424.39-.142-.036-.32-.07-.46-.07-.072 0-.142 0-.213.034.034.036.07.107.105.142.283.212.283.495.247.814 0 .213-.035.46-.07.673v1.7c0 .107-.107.25-.178.355.07.036.105.036.14.07.072.037.072.072.107.108.037-.036.037-.107.07-.142 0-.07.037-.142.073-.248-.037-.07-.072-.177-.072-.248-.034-.85-.034-1.7 0-2.55 0-.39.07-.427.39-.427.25 0 .284.07.284.284v2.583c.214-.14.426-.247.604-.353-.46.178-.46.178-.46-.353V37.37c0-.248.07-.284.247-.177.036.035.036.106.072.106.212.033.212.033.212.246-.036.248.106.53-.213.638-.036.035-.036.106-.036.106.214.107.214.39.533.39.32-.035.39.178.283.46.25-.034.462-.07.71-.105.035 0 .035-.106.07-.142.036-.07.107-.212.143-.177.14 0 .282.036.46.07-.107.107-.213.178-.284.25-.32.318-.744.46-1.134.672-.354.213-.71.46-1.063.638-.568.284-1.03.71-1.56 1.1-.425.317-.886.317-1.347.034-.602.177-1.24.283-1.878.177-.142 0-.284-.035-.39 0-.39.284-.886.106-1.31.213-.108.035-.285.07-.356-.142 0-.035-.14-.035-.14-.035-.073.106-.18.248-.215.354 0 .07.106.142.142.212.14.176.248-.07.283-.037.248.213.532.035.78.142.248.106.53.177.815.212.53.107 1.063.107 1.594.213.176.036.53-.034.495.32 0 .035.036.07.07.07l.037-.035c.07-.283.177-.567.283-.85 0-.036.035-.07.07-.07.036 0 .107.034.107.07v.53c0 .25.142.39.39.356.07-.034.142-.07.142-.105 0-.035-.072-.106-.072-.177-.036.036-.07.07-.107.07-.07.037-.14.037-.21.072 0-.072-.037-.143-.037-.214 0-.07 0-.177.036-.248 0-.212.07-.39.39-.32.21.072.46.108.707.143.46.11.923.32 1.383.357.637 0 1.204.248 1.806.318.247.036.32.178.32.355 0 .21-.073.424-.39.353-.037 0-.07.036-.108.036h.14c.072.033.213.033.284.104.142.177.248.39.39.602.106.213.284.248.496.107.036-.036.106-.036.142-.07.39 0 .78-.072 1.134-.072.638 0 1.275.036 1.913.107.425.036.886-.035 1.276.284.035.036.106 0 .14 0 0-.035 0-.07-.034-.14h.25c.14.034.247.07.353.07.07.035.107.07.142.07-.035.036-.106.036-.142.07h-.14c.034.037.07.037.105.037.213.07.425.142.638.142.248.07.496.034.744.105.496.106.992.32 1.523.177.07-.035.142 0 .248 0l.072.07c-.035 0-.035.036-.07.036-.036 0-.107 0-.142.035h.106c17.08 3.79 35.786 6.626 53.08 9.78zM61.05 2.29c-.034.107-.21.178-.353.214-.425.106-.92.177-1.347.248-.106 0-.248.106-.283-.107-.036-.39 0-.53.213-.567.248-.07.46-.07.708-.106.177-.035.39-.106.603-.142.143 0 .356-.035.46.07.073.037.073.285 0 .39zm37.985 15.485c.355.107.355.107.32.496 0 .11-.142.286.106.357v.212s-.14.035-.176 0c-.07 0-.177-.036-.212-.107-.105-.284-.176-.32-.353-.036-.037.107-.32.07-.46.07-.073 0-.108-.21-.144-.318-.035-.284.284-.497.142-.78.07-.035.177-.07.248-.07.177.07.354.105.53.176zm.107-5.067c.177-.07.39-.14.602-.212.425-.177.85-.355 1.276-.496.283-.107.32-.07.354.212.035.107.07.213.07.32 0 .176-.035.318-.247.353-.673.036-1.31.107-1.984.142v.036c-.178-.036-.355-.07-.496-.07.14-.108.283-.214.425-.285zm-2.34-1.31h.037v.035c-.038 0-.038-.036-.073-.036h.035zm-.46 2.87c-.177-.036-.177-.107-.035-.178.32-.212.638-.567 1.134-.425.073.035.25.035.32-.035.213-.213.46-.213.71-.213h.14c.178-.035.39-.106.497 0 .107.07.07.32.07.496 0 .07 0 .177.037.248 0 .356-.07.463-.426.427-.354-.035-.744.213-1.063-.106-.354.07-.673.143-1.027.214-.106.035-.213.07-.354.07-.036 0-.107-.106-.178-.14.07-.037.107-.143.142-.143.284-.034.177-.14.036-.212zm.886 4.428l-.85-.318c-.213-.07-.07-.178-.07-.284.035-.142.035-.248.212-.248s.39.036.567 0c.248-.035.106.248.248.248.177 0 .177 0 .177.284 0 .177.07.39-.284.212v.106zm-.956-3.047c-.07-.037-.107-.214-.07-.32 0-.07.07-.178.14-.178.25-.07.46-.07.71-.106.105 0 .176.035.247.177.282.78.21.78-.604.85h-.284c-.035-.035-.106-.106-.07-.14.07-.108.14-.214-.07-.285zm.354.884h.247c.178.036.462.036.533.142.106.212.07.496.106.78 0 0-.07.07-.106.07-.284.036-.567.07-.886.107-.036 0-.177-.107-.142-.142.07-.176-.035-.283-.106-.424-.178-.284 0-.532.354-.532zm-.567 1.63c.033.213-.144.106-.215.142-.14 0-.283 0-.39-.036-.46-.14-.53-.21-.53-.672 0-.106 0-.213.035-.283 0-.07.036-.107.07-.142.214-.142.746.035.887.283 0 .036-.07.107-.106.178-.033.07-.07.14-.07.212 0 0 .107.07.143.07.212-.034.177.107.177.25zm-.18-1.453c-.035.07-.14.143-.176.214-.142-.036-.213-.07-.248-.106-.177-.037-.426 0-.46-.072-.072-.142-.072-.355-.072-.567 0-.14.036-.32.036-.496.178 0 .355 0 .497.035.425.035.496.14.425.566-.036.142 0 .284 0 .425zm-1.027-2.444c.036-.035.107-.106.142-.106.213.036.425.107.638.143.106.035.177.035.07.177v.07c.25-.14.213.143.213.178-.035.213-.07.425-.14.638 0 .035-.108.035-.18.035-.53-.07-.743-.28-.743-.85v-.282zm-4.783-3.224l1.49-1.276c.283-.248.6-.425.885-.637h.106c.108.14.038.495-.104.495-.213.035-.248.212-.354.283-.177.14-.39.212-.637.318-.07.035-.32-.035-.07.177l-.037.07c-.283.072-.39.25-.496.462 0 .07-.07.106-.106.106-.283.036-.32.32-.53.426-.072.036-.143.106-.214.142-.035-.07-.07-.177-.106-.284.035-.106.106-.212.177-.283zm-.212 11.8c.355 0 .71-.072 1.063-.072.498 0 .534.037.534.533 0 .708.035.673-.71.673-.92 0-1.806.07-2.727.07-.532 0-.496.036-.496-.46v-.248c0-.496 0-.496.497-.46.212 0 .39-.107.567-.107.425 0 .85.073 1.275.073zm-.567 9c.038.176 0 .353 0 .495v1.736c0 .213-.246.355-.53.32-.212 0-.14-.178-.14-.284-.036-.603 0-1.206-.036-1.808 0-.142 0-.32-.036-.46-.035-.25.07-.426.248-.532.142-.035.248-.106.284.107.353 0 .21.283.21.425zm-1.486-4.89c-.07-.07-.142-.107-.177-.178-.142-.283-.07-.425.248-.46h1.063c.213 0 .177.07.07.212-.14.177-.283.355-.39.567-.14.284-.318.532-.637.425h-.21c-.07-.036-.178-.072-.25-.107.07-.07.14-.176.25-.282.034-.036.14-.036.21-.036-.07-.07-.105-.106-.176-.142zm.496 2.41c-.036-.037-.036-.285 0-.355.07-.07.247-.07.354-.036.07.037.106.178.14.25.072.424.143.814.178 1.24 0 .176-.106.39-.177.566 0 .036-.07.07-.07.036-.213-.07-.426-.107-.568-.213-.07-.07-.035-.25-.07-.39 0 0-.036 0-.036-.036.108-.248.215-.496.286-.744.035-.106.212-.212-.036-.318zm.495-.78c-.07.176-.248.318-.425.212-.106-.07-.106-.284-.142-.39 0-.106 0-.212.07-.248.285-.283.285-.71.426-1.027.036-.143.142-.214.213-.32.07-.036.177-.107.177-.07.07.07.142.176.177.282 0 .107-.07.213-.104.32-.106.247-.177.566-.213.814-.035.142-.106.284-.177.425zm-1.134-.745c.144-.035.286 0 .428.036l.07.07c.036.46-.07.71-.39.886-.106.07-.106.106.036.106.177 0 .213.14.248.32 0 .034-.105.105-.14.105-.142-.07-.426.036-.426-.212-.035-.39-.035-.78 0-1.17 0-.07.107-.142.177-.142zm.357 3.933c.035-.07.07-.176.106-.247.035-.035.177-.035.213 0 .035.107.106.248.035.284-.14.177 0 .248.07.354.073.18.037.39.037.57v1.416c0 .213 0 .213-.212.107-.036-.036-.107 0-.107 0-.07.177-.106.14-.14 0v-2.481zm.283 3.155c.035-.248.318-.177.495-.213.177-.035.177.142.177.248v.532c0 .212 0 .39-.035.567-.035.14-.07.317-.177.387-.142.036-.32 0-.496 0 0 0-.07-.106-.07-.14.034-.462.034-.923.105-1.383zm-.39-8.965c-.213 0-.426.036-.39-.32 0-.034 0-.07-.036-.105v.142c-.14.248-.177.496-.14.78 0 .07-.072.14-.108.212-.07-.037-.177-.073-.177-.108-.037-.567-.073-1.1-.073-1.63 0-.213.213-.355.39-.248.07.07.07.248.106.39v.14c.036-.034.036-.07.036-.14.034-.036.034-.107 0-.178-.037-.248.07-.32.32-.32.175.037.352 0 .494 0-.142-.034-.32 0-.46-.034-.107-.035-.214-.142-.32-.213 0 0 .07-.14.106-.14.427-.038.852-.073 1.277-.073.035-.036.106.035.142.07-.038.036-.11.107-.144.107h-.496c-.034 0-.07 0-.105.035h2.516c.108 0 .214.035.25.07.07.142.177.32.212.496.036.107 0 .213-.034.32-.036.035-.07.105-.107.105-.53.18-1.027.32-1.56.498-.07.034-.105.034-.176.034-.496.035-1.027.07-1.524.106zm-.567-1.807c.39.177-.107.248-.036.39-.07.035-.142.07-.213.07-.035 0-.106-.105-.106-.14-.035-.25-.035-.497-.035-.745v-.532c0-.14 0-.283.177-.248.142.036.354 0 .354.213-.035.286.107.64-.106.923-.035 0-.035.07-.035.07zm2.515 12.19c.39-.036.78-.107.992-.143.71 0 .744 0 .886.32.036.106.036.176-.106.176-.567.107-1.134.178-1.736.213-.107.034-.355-.144-.32-.18 0-.14-.035-.39.284-.39zm1.56-.568c.035.32-.178.177-.25.142-.07-.07-.14-.177-.176-.283-.035-.178-.07-.39-.07-.567 0-.71.035-1.418.035-2.126 0-.246-.107-.53-.142-.78-.035-.955-.035-1.876-.07-2.833 0-.106.035-.212.105-.283.248-.213.496-.106.496.248.036.462 0 .922 0 1.383.036.85.07 1.7.107 2.657 0 .46-.07 1.028-.107 1.63 0 .284.036.567.07.815zm-11.552-23.28c.354-.035.744-.106 1.1-.14.46-.072.92.07 1.345-.178.037-.036.144 0 .25 0 .496-.07 1.028-.106 1.56-.177h.956c.815.035 1.56-.248 2.338-.32h.39c.354 0 .744.036 1.1-.14.07-.036.176 0 .247-.036.213 0 .284.106.32.283.035.177-.142.213-.25.248l-1.062.106v-.033c-.46.07-.92.177-1.38.177-.39-.035-.746.106-1.1.142-.39.035-.744.07-1.098.106-.923.072-1.808.107-2.694.178-.32.036-.673.177-.992.142-.355 0-.71-.142-1.063-.213-.034-.036-.034-.07-.07-.07.036-.037.07-.07.107-.07zm-10.594-.14c0-.143.07-.178.212-.178.177 0 .355 0 .532.106.177.07.354.142.46-.142.036-.175.213-.175.39-.14.603.14 1.205.284 1.807.426.284.07.567.177.85.248.036.035.07.106.107.142-.07 0-.106.07-.142.035-.248 0-.496-.034-.708-.105-.107 0-.178-.036-.25-.036-.034 0-.07 0-.105.035h.106c.39.07.78.177 1.17.248.85.142 1.703.248 2.553.425.78.213 1.56.248 2.34.496.6.177 1.274.142 1.84.532.107.07.355.035.533.07.708.07 1.452.107 2.126.426.32.142.674.142.993.178.602.07 1.204.14 1.77.46.108.07.32.07.462.036.39-.106.71.035 1.063.106.07 0 .142 0 .177.036.036.14.106.283.142.425-.143 0-.25.036-.39.036-.816-.143-1.666-.32-2.517-.46-.424-.108-.85-.108-1.24-.285-.424-.177-.85-.07-1.274-.142-.71-.177-1.42-.212-2.127-.354-.567-.07-1.1-.214-1.63-.32-.674-.177-1.347-.21-2.02-.32-.354-.07-.71-.14-1.028-.247-.14 0-.283-.07-.46-.07-.32 0-.603-.107-.886-.213-.284-.07-.568-.07-.85-.107-.675-.106-1.383-.248-2.057-.354-.496-.07-.992-.178-1.523-.213-.39-.07-.425-.107-.425-.532v-.248zm.035.885c0-.036.07-.07.07-.07.32.07.71.07.958.247.212.142.425.177.637.213.567.106 1.134.177 1.7.283.426.035.852.177 1.277.07.104 0 .21.143.317.143.496.106.956.177 1.452.283.885.14 1.77.317 2.692.494.496.07 1.028.142 1.56.213.283.07.566.035.814.283.036.072.213.037.32.072.637.036 1.31.07 1.984.177.46.07.993.14 1.418.317.354.142.71.07 1.063.177.746.177 1.49.142 2.2.46.07.036.07.178.105.25-.07.034-.177.105-.248.105-.638-.14-1.276-.32-1.878-.426-.816-.142-1.63-.213-2.446-.39-.46-.106-.957 0-1.346-.283-.107-.07-.213-.035-.32-.035-.46 0-.92 0-1.346-.212-.034 0-.07-.036-.105-.036 0 .036 0 .036-.035.07-.355-.07-.744-.105-1.1-.176-1.7-.282-3.4-.566-5.137-.885-1.452-.248-2.905-.496-4.393-.744-.39-.07-.46-.32-.213-.6zm11.976 4.252c0 .177-.39.567-.53.567-.355-.038-.462-.144-.462-.534s.11-.496.534-.496c.32 0 .496.178.46.462zm-7.405 18.106c.035-.71.035-1.382.106-1.984.036-.32.248-.603.425-.815.46-.605.92-1.136 1.416-1.703.07-.07.212-.142.283-.106.106 0 .176.143.176.25.036.176 0 .353-.035.53 0 .07-.034.107-.034.142.035.602.07 1.17.07 1.736.036.495.036 1.027.036 1.523 0 .143-.036.25 0 .355.07.425.07.425-.32.496-.14.037-.283.037-.46.037-.46.034-.956.105-1.452.14-.14.036-.283.07-.212-.212.035-.142 0-.32 0-.39zm3.083-2.693v.248c.037.213.07.39.108.567 0-.177.035-.354.035-.53v-1.667c0-.07-.035-.177 0-.248.036-.14.107-.248.178-.39.036.142.07.25.107.355.035.78.035 1.56.07 2.303 0 .177-.07.32-.106.496-.034.352-.21.742.108 1.096.14.178.106.497-.036.638-.034.036-.105.107-.14.107-.036-.035-.07-.106-.107-.177 0-.07 0-.14-.035-.177 0-.07-.036-.142-.07-.212 0 .07.034.14 0 .212 0 .107 0 .284-.072.32-.106.07-.283.07-.425.105 0 0-.035-.07-.035-.105-.106-.39-.39-.78-.035-1.205.035-.034 0-.14 0-.21l.106-2.198v-1.134c0-.07.07-.177.106-.248.07.07.177.106.212.177.036.107.036.213.036.32v1.558zm-.317-15.66c-.036 0-.07.034-.07.07-.037.14-.037.14-.107.177h-.142c-.39 0-.39-.036-.425-.425-.037-.248-.037-.496-.037-.745 0-.035.07-.07.107-.07.46-.142.85.177.813.673 0 .106.07.283-.14.32zM76.43 36.2c.424-.106.885-.177 1.31-.248v.107c.354-.038.71-.144 1.028-.18.46-.035.92 0 1.382-.035.035 0 .07.036.106.036l-.106.107c-.39.035-.815.106-1.205.142-.815.105-1.63.176-2.445.247-.177 0-.354-.07-.496-.107.142-.034.283-.07.425-.07zm-6.804 1.524c.07.106.283.284-.07.32-.036 0-.072.034-.107.07.033 0 .07.035.104.035.213-.073.213 0 .106.14-.176.177-.176.25.037.07 0 0 .106.107.106.143 0 .39-.035.815-.07 1.204v1.276c.035.07-.178.283.14.283 0 .142.072.284-.07.39-.07.07-.106.213-.106.32.035.212 0 .353-.248.39-.038 0-.038.034-.073.034.035.037.07.037.106.037.248-.07.355-.036.107.177v.07c.178 0 .46-.14.213.213.213.71.036 1.418.07 2.09.072 1.028 0 2.09 0 3.12.036.566-.034 1.097-.07 1.664 0 .286.07.605.07.924 0 .07.036.177-.034.212-.11.142-.215.213 0 .354l-.038.106c-.39.142-.744.248-1.098.39l-.71-.213v-.035c-.034-.886-.034-1.772-.034-2.658v-4.713h-.07v-6.66c0-.39-.036-.78-.07-1.17 0-.142 0-.177.21-.213.498-.106 1.03.07 1.525.036.07 0 .213.14.248.212.036.142-.07.213-.212.213-.034 0-.07.07-.105.07.036.036.107.07.142.07.177-.034.177.072.177.18 0 .247.07.53-.212.707 0 0 0 .07.036.142zm-2.09-6.555c.035-1.24.106-2.518.07-3.758 0-1.134-.07-2.268-.106-3.402-.035-1.203-.035-2.408-.035-3.648 0-.036 0-.106-.036-.177v4.747c0 2.198.07 4.394.07 6.59 0 .852-.07 1.667-.07 2.482 0 .567.07 1.098.07 1.665 0 .175 0 .39-.284.246h-.07c-.64.106-.71.035-.745-.71 0-.53.036-1.062.036-1.593l-.106-2.764v-.107c-.035-2.516-.106-5.032-.106-7.583-.035-.424.036-.85.07-1.31 0-.035.037-.106 0-.142-.282-.39-.105-.815-.14-1.24-.036-.177.07-.248.248-.248-.07-.106-.142-.177-.213-.283 0-.07.07-.142.104-.178.248-.356.532-.746.744-1.1.177-.248.46-.32.708-.39.142-.035.32.07.46.142.036.035.072.106.072.177V21c0 .425 0 .885.035 1.346.035.248-.07.496 0 .78.035.283 0 .602 0 .92v5.243c0 .283 0 .567-.035.85v2.692c0 .285-.036.568-.036.852 0 .567.036 1.17.036 1.736 0 .25-.39.603-.603.532-.07 0-.106-.177-.106-.248-.036-.708-.036-1.382-.036-2.055v-2.482zM64.56 16.43c-.25-.144-.144-.357-.073-.534.106-.177.177-.32 0-.496-.035-.034-.07-.07-.07-.105.176-.425-.072-.92.176-1.31.036-.037.036-.072.036-.107 0-.213.07-.284.247-.213.354.106.71.248 1.063.354.214.07.284.175.25.39v.812c0 .143-.036.32-.284.178 0-.034-.07-.034-.107 0-.037 0-.037.072-.037.108.07.07.106.177.177.177.32.106.355.283.25.602-.072.32-.072.673-.072 1.028-.035.354-.07.425-.46.46-.32.036-.638.036-.957.036-.282-.034-.39-.14-.353-.494.036-.248.142-.496.213-.78 0-.035.034-.106 0-.106zm1.84-.746c0-.07.036-.177.107-.213.07 0 .142.037.212.037-.036.07-.07.106-.107.177 0 0 .036.07.07.07.497.107.71.532.922.957.142.25.32.533.496.78.108.213.07.284-.176.32h-.602c-.177.106-.46-.142-.673.106-.037 0-.18-.142-.285-.142-.32-.035-.035-.14-.035-.248-.035-.142-.106-.283-.106-.425.07-.39.142-.78.178-1.17.035-.07 0-.175 0-.246zm2.977 20.126c-.142 0-.32.072-.46.072-.178 0-.25-.07-.25-.248 0-.567.037-1.17.037-1.737 0-.32.106-.39.354-.425l2.125-.106c.106 0 .248.07.354.142.212.212.39.39.566.602.142.177.284.354.567.283.07-.035.177.036.248.107.214.14.426.07.462-.178.035-.177 0-.39 0-.602v-.177c.035-.07.106-.142.142-.213.035.07.14.107.14.178.037.248 0 .46 0 .708 0 .603.037 1.205.072 1.772 0 .142 0 .212-.142.248-.53 0-1.063.035-1.56.07-.636.072-1.24.107-1.84.178-.285.07-.32 0-.355-.248 0-.425-.037-.46-.462-.425zm2.8-2.232c0-.248.105-.248.247-.07v.39c-.177-.036-.283-.142-.248-.32zm.672-.283c0-.036 0-.036.035-.036v.034h-.036zM61.3 3.425c.035-.07.176-.142.247-.213.036.107.107.177.107.284-.07.53.035.638.566.53.07-.034.178.143.25.25.07.07.07.14.07.176.035-.07.07-.106.07-.177 0-.248.107-.248.213-.106.248.246.567.28.886.28.246 0 .565 0 .53.427-.036.035.105.106.176.177.036-.07.07-.142.07-.177.037-.213.143-.213.285-.178.036.035.07.035.14.07.286.213.25 0 .25-.21 0-.11.036-.286.107-.286.177-.035.248.036.283.248.037.32.214.567.285.85.035.107 0 .25 0 .355-.036.39-.07.39-.426.354-1.24-.176-2.41-.6-3.65-.85-.39-.105-.533-.32-.533-.672.036-.426.036-.78.07-1.135zm-.072 2.622c0-.32.178-.46.496-.39.603.142 1.205.248 1.807.46.463.178.96.142 1.42.284.106.038.248.073.39.11.14.07.354.105.21.353-.033.035 0 .07 0 .07 0 .178.073.426 0 .497-.104.105-.352.105-.494.105-.354.07-.673.106-.886.142-.46-.07-.85-.106-1.24-.142-.46-.07-.958-.106-1.454-.177-.177 0-.283-.07-.248-.248 0-.354-.035-.71 0-1.063zm3.685 2.374c0 .037-.035.073-.035.108-.035 0-.07 0-.07.036v-.107c.035 0 .07-.035.105-.035zm-4.64-2.69l.743-.107c.035.212.07.46.07.708.036.18 0 .32 0 .497 0 .532 0 .532-.495.39-.105-.035-.246-.07-.353-.106-.496-.176-.496-.176-.496-.71 0-.53 0-.53.533-.67zm-44.116 7.086c.178-.178.355-.355.567-.496.886-.746 1.772-1.49 2.693-2.198.496-.426 1.028-.886 1.56-1.31.743-.64 1.488-1.277 2.232-1.915.67-.567 1.344-1.134 2.053-1.7C27 3.777 28.736 2.36 30.437.944c.32-.25.602-.355.992-.213.46.178.955.25 1.38.426.602.248 1.24.425 1.843.602l11.267 3.19c2.41.71 4.785 1.417 7.194 2.125 3.437.993 6.874 1.985 10.276 2.977.106.036.39-.035.32.25.21-.072.46-.037.672.034 1.275.355 2.587.744 3.862 1.1.213.07.425.176.496-.178 0 0 .07-.036.106-.036v.106c.07.142 0 .355.248.426 0 0 0 .14-.035.177-.108.104-.144.175.033.246 0 .035.036.07.036.07 0 .036-.037.107-.037.107-.283-.035-.035.496-.425.354-.178-.07-.39-.106-.603-.177-.638-.21-1.24-.46-1.878-.6-.32-.108-.603-.178-.887-.356-.177-.14-.46-.106-.71-.177-.565-.177-1.132-.354-1.7-.46-.283-.07-.53-.107-.78-.284-.07-.07-.21-.07-.318-.07-.567 0-1.027-.25-1.56-.39-.176-.036-.318-.107-.495-.178-.673-.177-1.382-.39-2.055-.567-1.063-.283-2.09-.566-3.154-.885-1.026-.284-2.054-.603-3.08-.922-.533-.14-1.064-.352-1.596-.494-.885-.248-1.77-.46-2.657-.708-.673-.178-1.347-.39-2.02-.603-.496-.14-1.027-.283-1.523-.46-.603-.178-1.205-.248-1.737-.532-.283-.142-.602-.142-.92-.212-.32-.07-.64-.177-.958-.247-.638-.213-1.276-.39-1.88-.603-.46-.143-.92-.213-1.31-.39-.637-.284-1.346-.284-1.984-.568-.035 0-.142-.035-.142-.07-.105-.32-.317-.248-.6-.213-.143.033-.284-.037-.46-.073-.498-.142-1.03-.248-1.525-.39h-.142c.035.036.07.07.106.07.212.108.425.178.637.285.248.07.567 0 .673.32 0 .034.07.034.107.034.815.035 1.594.354 2.374.567.78.248 1.595.496 2.375.744.673.177 1.31.32 1.95.532.388.105.743.282 1.097.424.035.035.07.035.142.035.78.035 1.488.39 2.232.602.282.07.53.14.78.212.636.177 1.24.354 1.84.496.072.037.178.108.178.143.036.283.284.177.425.177.354 0 .71-.035.956.32.036.034.106.034.142.034.708-.035 1.346.284 2.02.46.673.178 1.346.39 2.02.568l2.763.85c.32.107.745.107.993.39.32-.035.602.07.886.177.885.282 1.806.53 2.692.813.53.177 1.063.39 1.63.496 1.063.177 2.055.602 3.082.85.213.035.426.177.603.25.036.033.072.07.107.07.46-.18.85.14 1.276.247.886.212 1.77.496 2.657.744.106.036.142.213.248.284-.142.107-.106.39-.39.284-.567-.214-1.17-.39-1.77-.568-.32-.107-.674-.177-.993-.284-.32-.106-.674-.177-.922-.496 0 0-.035-.035-.07-.035-.355.106-.71-.036-.993-.248-.07-.037-.177-.037-.248-.037-.46 0-.886-.106-1.31-.32-.18-.105-.427-.07-.64-.14-.637-.177-1.24-.355-1.877-.532-.638-.176-1.276-.318-1.878-.495-.603-.177-1.205-.354-1.772-.53-.425-.143-.85-.214-1.24-.39-.78-.285-1.63-.355-2.374-.745-.037-.036-.107-.036-.178-.07-.39-.072-.78-.178-1.17-.285-.32-.07-.637-.177-.956-.283-.18-.07-.39-.106-.568-.177-.496-.142-.992-.248-1.524-.46-.567-.25-1.24-.32-1.842-.497-.71-.212-1.453-.354-2.126-.638-.46-.14-.957-.248-1.418-.425-.425-.142-.886-.212-1.31-.354-.46-.14-.922-.248-1.347-.425-.71-.355-1.487-.426-2.196-.638-.638-.213-1.276-.46-1.95-.638-.46-.143-.92-.25-1.38-.355-.568-.177-1.1-.355-1.666-.532-.142-.07-.284-.07-.425-.142-.142-.034-.355-.07-.426-.176-.14-.177-.282-.106-.424-.14-.177-.037-.32-.108-.496-.143-.496-.176-.78.213-1.098.46-.356.25-.674.533-.993.816-.07.036-.107.07-.142.07-.284 0-.532.072-.71.32 0 .036-.105 0-.176.036.035-.07.07-.142.07-.178.07-.14.142-.212.32-.283.07 0 .14-.105.176-.176.212-.142.424-.32.6-.46h.037c.39-.355.78-.674 1.17-1.028V1.83c-.036.036-.072 0-.072.036-.672.496-1.345.956-1.983 1.453-.53.387-1.027.85-1.523 1.24-.354.317-.744.635-1.133.92-.212.176-.39.353-.602.53-.353.284-.672.567-1.026.85L22.64 8.03c-.32.248-.603.567-.957.744-.354.177-.53.567-.886.744-.46.176-.71.566-1.1.885-.885.673-1.77 1.417-2.657 2.126-.212.177-.46.354-.708.532-.036.035-.142 0-.213.035 0-.106 0-.213.034-.283zm37.49 9.035l-.427-.105c-.14-.036-.283-.107-.39-.177-.07-.036-.07-.142-.07-.248-.036-.214 0-.462 0-.71 0-.07-.036-.106-.036-.177 0 .07-.035.106-.035.177 0 .248.033.496 0 .744 0 .07-.073.213-.144.213-.177.035-.212-.07-.212-.213v-.39c.035-.53.106-1.063.14-1.594.037-.248 0-.496.037-.71 0-.176-.105-.39.178-.424.034 0 .034-.07.034-.106 0-.355 0-.71.036-1.028 0-.425.07-.53.46-.53.32-.037.674-.037.993 0 .355 0 .426.07.39.388-.07.32-.07.674-.283.922 0 .035 0 .106.034.14.285.143.356.356.32.64 0 .566-.035 1.097 0 1.63.07.53-.142 1.027-.212 1.523 0 .035-.035.07-.07.07-.213.07-.425.07-.638.107-.177.035 0-.142-.106-.142zm-.214 2.694c-.106-.248.177-.213.248-.32.038.072.073.143.073.178.035.533.035 1.064.035 1.596v.177c0-.07.036-.106.036-.177v-1.63c0-.355.07-.355.39-.248.14.07.318.035.496.07.07 0 .14.07.14.107-.07.46 0 .92 0 1.417-.035.425 0 .886-.035 1.31 0 1.24-.035 2.446-.07 3.65 0 .78.035 1.595.035 2.375 0 .353 0 .71-.036 1.062 0 .177 0 .354.036.53 0 .497-.036.568-.532.604-.283.035-.425-.107-.425-.425V28.088c0-.106 0-.248.035-.354-.035.142-.07.283-.07.39-.036.212-.036.425 0 .637.035 1.948-.07 3.897 0 5.846 0 .53-.07.567-.603.638h-.283c-.178-.036-.107-.107 0-.142 0 0 .035-.106 0-.106-.178-.107-.142-.177.035-.32.035-.035.32-.247-.035-.354v-.14c.07-.072.106-.143-.036-.178 0 0-.035-.107 0-.107.106-.07.07-.07 0-.177-.07-.177-.106-.39.07-.53.214-.18.143-.25-.034-.32-.178-.07-.142-.107-.07-.248.105-.177.21-.39.07-.638-.036-.036-.07-.07-.036-.106.213-.39.213-.78 0-1.205 0 0 0-.036.036-.07.283-.143.14-.214-.07-.25v-.176c.034-.142.282-.284-.037-.39-.14-.07-.106-.177 0-.248.177-.073.177-.144.036-.25-.105-.07-.246-.213.037-.283.142-.036.142-.142.036-.355-.036-.07-.036-.142 0-.177.212-.177-.142-.425.106-.567-.285-.214-.32-.39.105-.39-.07-.107-.106-.25-.212-.355-.213-.177-.178-.32.07-.425.036-.036.07-.07.142-.07-.07-.036-.106-.072-.142-.072-.212 0-.283-.07-.248-.283 0-.426-.035-.886-.07-1.31 0-.214.106-.25.283-.25h.354c.108-.035.25-.035.143-.212zm-3.402 15.13c.038.32.038.673.038 1.027 0 .07-.106.108-.142.18-.035-.07-.142-.108-.142-.18 0-.565-.035-1.132-.035-1.7-.036-.354-.036-.673-.07-.99 0-.25-.037-.46-.037-.675 0-.035.106-.106.106-.106.105.07.282.176.32.282.033.214 0 .462 0 .675h.033c-.035.283-.07.567-.106.886 0 .178.035.39.035.603zm-1.557-3.118c-.673-.07-1.38-.177-2.09-.248-.567-.036-1.134-.07-1.7-.07v.034l-1.808-.21c-.142 0-.283-.037-.248-.178.035-.07.142-.178.213-.178.317-.035.672-.035.99-.035.072 0 .178 0 .284.035.85.036 1.7 0 2.516.178.744.14 1.453.106 2.197.14.177 0 .32.037.496.072.283.036.53.07.815.106.39 0 .744.037 1.134.07.283 0 .177.215.177.357.033.212-.144.177-.25.177-.92-.107-1.807-.177-2.73-.248zm.815 1.24c-.035.07-.035.106-.035.177-.035.744-.07 1.524-.106 2.268 0 .107-.036.213-.07.32-.037-.107-.107-.213-.107-.32 0-.495.034-.956.034-1.417 0-.177-.035-.318-.035-.496v-.637c-.038-.214.033-.356.21-.462.036-.035.177.07.213.142.035.106.106.212.106.283v1.205h-.036l.106 1.594v.107c-.035.104-.07.175-.07.246-.07-.07-.213-.142-.213-.213-.035-.425-.07-.85-.07-1.31 0-.462.035-.922.07-1.383v-.105zm-1.275 2.55c0 .072-.07.107-.106.178-.036-.035-.178-.106-.178-.177 0-.354-.14-.744-.036-1.134.106-.283 0-.567 0-.886 0-.248.035-.567 0-.815-.036-.176.106-.21.177-.21.037 0 .143.14.143.21v.568c-.036.355-.07.78-.07 1.205 0 .354.034.71.07 1.063zm-1.276-3.082c0 .036-.035.07-.035.07v.072c-.035.744-.07 1.453-.07 2.197v.638c-.036.07-.07.143-.07.213-.072-.07-.143-.14-.143-.212v-.71c.035-.707.035-1.415.07-2.124v-.32c.036-.176.142-.21.25-.105.14.107.317.214.282.46-.036.958-.036 1.88-.07 2.836 0 .07-.072.142-.107.213-.036-.07-.178-.143-.178-.214V39.07c.036-.566.07-1.133.107-1.7 0-.036-.036-.07-.036-.107zm-.53 1.24c0 .036-.037.07-.037.107-.036-.035-.072-.07-.072-.105v-.71c0-.035-.035-.105-.035-.14 0 .035-.035.105-.035.14 0 .64-.036 1.277-.07 1.88 0 .07 0 .14-.037.176 0 .036-.07.07-.104.107 0-.035-.035-.07-.07-.14V37.16c0-.073.035-.144.07-.18.07 0 .177.036.177.07.106.144.177.285.213.427v1.028zm-.71 1.064v.212l-.106.212c-.035-.07-.106-.142-.106-.248-.035-.213-.035-.46-.035-.71h.034c-.035-.637-.07-1.24-.106-1.84 0-.108.07-.214.07-.285.107.104.284.175.284.282 0 .354-.034.708-.034 1.027v1.346zm-.53-1.878v2.336c-.037.07-.108.142-.143.142-.036 0-.106-.072-.106-.143-.036-.07-.036-.177-.036-.283V37.58c0-.106 0-.248.037-.32 0-.07.105-.105.176-.105 0 0 .07.07.07.142v.39zm-2.198-.427v2.48c0 .107 0 .178-.037.284 0 .036-.035.07-.07.107-.036 0-.07-.036-.107-.07-.035-.037-.035-.108-.035-.143 0 .037-.035.073-.035.108.107.355-.14.32-.354.32-.105 0-.212 0-.32-.036-.033 0-.104-.07-.104-.07.106-.248-.213-.39-.177-.638.07-.248 0-.496-.037-.78v-.14c0-.533.036-1.064.07-1.56v-.355c0-.07-.07-.14-.07-.178.07-.142.142-.283.213-.425-.213-.07-.142-.248-.142-.425 0-.248.177-.284.39-.284.177 0 .354-.106.39.248.035.284.106.567.318.815.143.213.072.567.108.744zm-2.907 2.374c0 .07-.106.213-.142.178-.105 0-.21-.07-.282-.142-.035-.07-.035-.213 0-.32.035-.743.106-1.523.142-2.267.034-.07.07-.14.14-.177 0 .034.07.104.07.175v1.134h-.034c.035.495.07.956.106 1.416zm-2.374-3.755c-.92-.036-1.808-.107-2.73-.142-.39-.036-.743-.07-1.1-.106-.21 0-.175-.142-.14-.213.14-.21.284-.352.53-.282.108 0 .18.036.286.07.07 0 .177-.034.248-.034-.07 0-.142 0-.213-.036-.034 0-.034-.035-.07-.035l.036-.035c.07-.036.106-.036.14-.036.285 0 .533.072.852.037.283-.07.602.07.886.105.177.035.354.035.53.035.037 0 .072.036.072.036 0 .035-.035.07-.07.07h-.214c-.14 0-.247.036-.353.036.105 0 .247 0 .353.035 0 0 .037 0 .037.036.142-.07.283-.14.425-.176.106-.036.284.035.284.07 0 .25.14.213.282.213 1.133.036 2.23.07 3.365.07h.566v.462s-.07.034-.106.034c-.284-.035-.532-.035-.78-.035-1.063-.036-2.09-.107-3.118-.177zm1.806 3.33c0 .142-.035.248-.07.355-.036.035-.107.07-.142.07 0-.035-.07-.07-.07-.106v-1.06h-.037l.107-1.665c.035-.07.106-.107.14-.177.037.07.072.14.072.212.036.425 0 .815 0 1.24v1.134zm4.323-13.82c0-.07.07-.176.105-.247.07.107.213.213.178.32-.107.39.248 6.306-.07 6.66 0 .036 0 .07.034.107.213.248.106.567.106.85 0 .426-.035.85-.07 1.276 0 .07-.036.106-.07.177 0-.07-.037-.142-.037-.213-.07-.708-.106-1.452-.14-2.196h.034c0-.426-.072-6.307-.072-6.733zm.424 9.745c.46 0 .886.07 1.347.07.603.072 1.24.108 1.843.143l2.34.106c.53.036 1.062.107 1.63.142.034.036.105 0 .14.036.036.07.107.14.107.212 0 .036-.107.106-.143.106-.248.036-.496.036-.744.036v.035c-.567-.07-1.134-.14-1.7-.212-.46-.034-.887-.07-1.347-.07l-2.233-.105c-.425 0-.814-.036-1.24-.07-.106 0-.283 0-.283-.214 0-.212.177-.247.283-.212zm7.05-11.41c-.388-.034-.813 0-1.203 0h-.354c-.46.036-.92.072-1.346.072h-1.206l-2.126.104c-.638.036-1.31.142-1.95.106-.46-.034-.884.037-1.31.072-2.02.142-4.004.107-6.023.142-.71 0-1.453.106-2.162.142-.39.035-.39 0-.39-.39 0-.035-.035-.07 0-.07 0-.178-.035-.46.07-.532.214-.213.427-.496.78-.32.178-.035.39-.07.568-.07.108 0 .215 0 .285.035.178.14.355.07.496.07.143 0 .285-.036.427-.07.14 0 .283.105.354-.108.036-.035.214 0 .32-.07.21-.072.354.14.567.07.248-.035.496-.035.744-.035.214-.036.46 0 .674 0 .886-.036 1.736-.036 2.622-.107.603 0 1.205-.14 1.807-.14.922-.036 1.843-.142 2.8-.178.85-.035 1.736-.106 2.586-.177.53-.035 1.062-.035 1.594-.07.46-.036.956-.07 1.417-.142.355-.036.53.14.46.496-.034.28 0 .53-.034.813-.035.32-.142.354-.46.354zm-17.432 3.65c.037.036.037.107.037.142 0 0-.07.034-.07.07.246.176.033.354-.037.53-.07.178-.07.25.142.25.036 0 .07.07.07.07 0 .035-.034.035-.034.035-.07.035-.14.07-.176.07.036.036.107.072.107.072 0 .106 0 .177-.035.248-.034.07-.105.106-.176.177.283.106.07.425.247.567.036 0 .07.034.107.07-.356.035.034.39-.25.567-.177.106 0 .425.07.637.037.07.18.142-.034.178-.035 0-.07.035-.07.07.283.036-.036.284.14.39.036 0 .036.07.036.107-.106.21-.106.424 0 .565.107.142.142.142-.035.178-.07 0-.14.035-.176.07.07.036.106.07.177.107.036.036.07.072.143.072-.072.035-.108.07-.18.07-.14.036-.105.07-.034.213.07.177.07.425.105.638-.32.035-.07.283-.14.425-.072.106-.25.177-.39.177-.108 0-.285-.07-.285-.248v-.177c0-.07-.035-.142-.07-.248v.284c.106.248-.036.39-.213.496-.07 0-.142 0-.213-.036 0-.035.037-.106.037-.142v-.07c-.035-.036-.106-.036-.14-.07-.036 0 0-.072 0-.108-.07-.46-.178-.956-.07-1.417.034-.215.034-.427.317-.427.035 0 .07-.106.106-.142-.036 0-.072-.07-.107-.07-.248 0-.283-.106-.32-.32-.034-.317 0-.6.072-.92.035-.142-.07-.283-.035-.425 0-.142.106-.248.14-.354 0-.07-.14-.14-.14-.247-.036-.142 0-.284 0-.39 0-.425 0-.85.035-1.276 0-.106.177-.177.283-.283-.07-.07-.282-.036-.247-.284 0-.318-.035-.672-.07-1.026 0-.177.035-.355.035-.567 0-.036.035-.07.035-.07.107-.036.248-.036.355-.107.07-.036.07-.178.106-.284.036-.035.107-.035.143-.07.035.035.07.07.07.14-.07.887-.106 1.773-.14 2.66v5.03c.034-.07.034-.177.034-.248v-.92h.037c.035-1.454.035-2.907.07-4.36 0-.744.036-1.452.07-2.196 0-.07.037-.142.072-.213.07.033.14.07.212.14 0 0 0 .035.035.07.71.32.532.993.532 1.56 0 .14-.178.32-.32.425-.106.106-.14.142.035.142zm-9.317 7.76c.035-.177-.07-.425.283-.46.248 0 .32.035.213.283v3.154c0 .142-.036.248-.07.39 0 .14-.214.14-.285.035-.106-.144-.177-.285-.177-.427-.035-.744 0-1.524 0-2.268 0-.177.036-.32.248-.354-.07-.106-.212-.247-.212-.354zm-.46-.92v-.036c-.143 0-.25-.105-.143-.282.248-.496.07-1.027.142-1.56v-1.984c0-.212.035-.353.32-.318.282.036.6 0 .885 0 .07 0 .21.07.21.07-.106.39.355.745.036 1.135-.07.107.248.25 0 .39.177.213.035.46 0 .71 0 .07.035.14.07.247l.07.07c-.07.32-.07.64-.14.887-.142.46-.957.744-1.453.673zm.814-9.426c-.604.037-1.17.073-1.63.108h-2.73c-.497.32-1.064.036-1.56.213-.142.036-.497-.07-.567-.176-.107-.213-.07-.496-.07-.744 0-.037.07-.072.07-.072.425 0 .815-.284 1.204 0 .036.035.107.035.107 0 .212-.284.567-.107.85-.177.283-.07.602-.07.92-.105.568 0 1.1-.07 1.667-.07.71.035 1.42-.07 2.163-.142.32.212.638-.036.957-.07.318-.072.672 0 1.026-.037.886-.035 1.807-.106 2.693-.14.14-.037.282 0 .46-.037.105 0 .247-.036.39-.107.282-.142.46-.036.495.283.035.213 0 .426 0 .603 0 .424 0 .424-.39.46-.71.07-1.417.106-2.162.14-.496.037-.992.037-1.488.07-.07 0-.14.037-.212 0-.355-.21-.71.037-1.063 0h-1.133zm-2.375 8.116c-.036-.177 0-.39 0-.567 0-.07-.036-.107-.036-.143v.107c-.07.638-.07.638-.71.638-.39 0-.78.036-1.205.07-.425 0-.85 0-1.276.037-.036 0-.14-.07-.14-.143 0-.212-.038-.46 0-.673.033-.78.104-1.595.14-2.374 0-.46-.036-.957-.07-1.453v-.07c-.037.035-.037.07-.037.07-.035.106-.07.213-.07.32-.036.212 0 .39-.036.566 0 .71-.07 1.418-.07 2.092 0 .566.07 1.098.07 1.63 0 .14-.036.39-.106.39-.212.035-.46 0-.673-.036-.035 0-.07-.143-.07-.25.035-.424.07-.885.07-1.346.036-.778.036-1.558.036-2.337 0-.32.035-.638.07-.957 0-.035-.035-.106-.035-.142v.142c-.035.815-.07 1.665-.106 2.48 0 .674-.035 1.347-.07 2.02 0 .07-.106.177-.177.283-.07-.07-.142-.142-.177-.25-.036-.105-.036-.14-.177-.034-.142.07-.355.034-.532.034-.39-.07-.78.143-1.134-.105-.035-.036-.106 0-.106 0-.32.283-.673.176-1.028.176-.25.036-.46.036-.71 0-.14 0-.318.07-.39-.177 0 0-.105-.036-.176 0-.284 0-.355-.07-.355-.32 0-.14.034-.32.034-.46.035-.07.035-.14.035-.213.035-1.276.035-2.587.07-3.862V26.21c0 .142-.035.248-.035.39 0 .85.035 1.736 0 2.587-.036 1.17-.107 2.338-.177 3.508 0 .177-.037.248-.214.248-.07 0-.142.036-.213.036-.46.105-.53.07-.495-.426.036-.708.107-1.416.142-2.125.034-.426.07-.887.105-1.31v-5.57c-.035.107-.035.213-.035.32-.036 1.027-.07 2.02-.07 3.047-.036.957.034 1.913-.036 2.835-.07 1.027-.177 2.02-.177 3.01 0 .072 0 .143-.035.214 0 .035-.07.07-.14.106-.036 0-.072-.106-.072-.14 0-.18-.035-.39 0-.568.107-.426.107-.815 0-1.24-.035-.107-.035-.213-.035-.32V28.51c.036-.316.07-.67.036-1.025-.07-.673-.035-1.347-.035-2.055 0-.143-.035-.356.25-.356.07 0 .106-.106.142-.177-.036-.035-.107-.106-.142-.106-.212-.033-.14-.21-.14-.317-.036-.07.035-.283-.143-.07-.035 0-.035 0-.035.035-.035-.178-.07-.32-.07-.46 0-.107.035-.178.07-.25.035 0 .106.036.106.072.036.034.036.105.036.14 0-.035.035-.106.035-.14-.108-.355.07-.64.246-.887.036-.035.142-.07.213-.106 0 .07.07.106.07.177v.53c0-.247 0-.495.035-.707 0-.107.036-.248.07-.248.25.033.533.033.78.104.07 0 .107.213.107.354-.036 1.027-.07 2.09-.106 3.117.035-.14.035-.283.035-.425l.107-2.55c0-.32.248-.462.39-.674 0-.036.106 0 .177 0 .284 0 .532.035.815.035.743.07 1.523.143 2.267.143.283 0 .496 0 .71.177.105-.283.07-.638.034-.957v-.177c.214-.177.07-.39.036-.53-.14-.32-.035-.64.036-.922.035-.07.142-.142.248-.142.143-.036.178.035.178.177.035.106.07.213.07.32-.035.743-.07 1.523-.07 2.267 0 .283-.07.53-.213.744 0 .036-.07.07-.14.07-.037.037-.072-.07-.072-.105-.036-.212-.036-.46-.07-.673v.567c-.036.07-.107.14-.178.212l-.744.035c-.105.177-.21.39-.282.567.248.213.107.46.036.71-.036.176-.036.282.14.317.143 0 .214.108.427.037.284-.106.39.07.284.46l.036.07c.247.072.21.285.21.462-.034 1.275-.07 2.515-.105 3.79v.993c0 .035.035.106.035.14v-.14c.036-.036 0-.036 0-.07.036-1.525.07-3.05.107-4.572 0-.247.106-.39.318-.495.036 0 .142.035.178.07.035.036.035.107.07.178v-.213c.07-.282.107-.318.355-.176.283.177.425.425.425.744v.886c0 .07.035.106.035.142v-.107c.036-.32.107-.64.07-.923 0-.177.285-.248.072-.46-.106-.07 0-.32-.07-.497-.072-.247.106-.247.212-.282.212 0 .39.035.602.035.603.036 1.205.07 1.807.107h.39c.25 0 .32 0 .286.32-.07.884 0 1.77-.036 2.656 0 .425-.107.85-.143 1.276-.035.14.07.283.07.425v1.488c.037-.07.037-.106.037-.177v-1.31c0-.285.106-.356.32-.32h.21c.604 0 .64 0 .674.602 0 .425-.07.886-.07 1.31 0 .25.035.462.07.71.036.53.036 1.063.07 1.594 0 .213-.07.355-.282.355-.284-.038-.567-.038-.815-.038-.175-.035-.246-.177-.21-.354.106-.39.106-.745-.036-1.135zm-6.414 4.89c-.212-.036-.602-.142-.992-.213-.283-.035-.53-.035-.815-.035-.07 0-.14-.036-.177-.036.036-.07.106-.14.177-.14.46-.107.957-.213 1.418-.284.284-.035.53-.035.816-.106.14-.035.14.035.212.142.142.425-.035.673-.638.673zm-2.267-2.94c.035.39 0 .743 0 1.133v.034c-.107.177-.248.32-.284.46 0 .143.14.284.176.462.07.177 0 .354-.248.354-.354.034-.744.034-1.098.07-.178.035-.214-.07-.25-.248-.034-.638-.07-1.276-.105-1.95h.035v-1.168c0-.567.142-.745.71-.78.105 0 .39-.248.39.142 0 .035.034.035.07.035 0 0 0-.033.035-.07.035-.034.106-.105.177-.105.106 0 .248.035.354.07-.035.107-.035.25-.07.39 0 .036-.036.072-.036.072.32.354.106.744.142 1.098zM23.14 19.76c.21-.107.46-.036.707 0 .07 0 .178.106.248.212 0 0-.035.106-.07.106-.78.107-1.595.248-2.41.213-.354-.033-.708-.104-.992.037-.567.213-1.134 0-1.665.178-.07.035-.142-.036-.213-.07-.142-.143-.106-.178.106-.214.675-.105 1.383-.21 2.09-.32h.57c.176.073.46-.14.637.144.035.035.248-.035.32-.106.176-.248.46-.07.672-.178zm-.108-9.036c0-.354-.034-.744.18-1.098.034-.107.247-.142.388-.142.036 0 .142.142.178.212.07.178.07.32.07.497 0 .496-.212.744-.566.708-.107-.033-.25-.104-.25-.175zm3.757.177c.07.038.106.11.14.18h-.285c-.674-.07-1.31-.14-1.985-.178-.53-.034-.707-.21-.707-.743 0-.107 0-.25.035-.355.036-.07.142-.142.177-.142.07 0 .178.036.248.036.39.035.744.177 1.063.39.426.283.886.53 1.31.814zm-.886-5.242c.07-.07.177-.142.283-.212.035 0 .07.035.177.106-.142.107-.248.178-.354.213-.036 0-.07-.07-.106-.106zm1.31 5.882c.426.105.816.247 1.17.495.354.213.638.46.957.673.07.07.14.142.21.177-.104.036-.175.07-.246.07-.354-.07-.673-.105-1.027-.176-.426-.037-.886-.108-1.347-.144-.426-.07-.46-.14-.39-.53.035-.072.035-.107.035-.178.07-.426.177-.497.638-.39zm-.177-6.733c0-.036.036-.07.07-.07.037 0 .037.034.108.07-.07.035-.107.07-.142.07 0-.035-.035-.07-.035-.07zm3.58 12.295c-.072.035.07.213-.143.213-.212-.036-.425 0-.496-.248-.035-.248-.035-.532.036-.745.035-.106.283-.177.39-.248.177.036.248.07.354.107.07.037.142.037.035.18-.14.212.037.495-.176.743zM29.73 14.8c.355 0 .178.317.248.494.107.213 0 .425-.212.53-.036.037-.07.143-.07.18.212.46.14.92-.037 1.38 0 .036.035.142.07.142.213.036.25.213.25.355 0 .213-.037.426-.07.638 0 .035-.11.07-.144.106-.036.035-.107.035-.142.07-.07.25-.07.284-.248.25-.106-.037-.177-.18-.283-.285-.035-.035 0-.106 0-.106.32-.107.107-.284.107-.46-.036-.355-.248-.78.142-1.1.034 0 0-.106-.037-.14-.177-.072-.177-.214-.07-.39.035-.036.07-.178.035-.213-.213-.283-.107-.46.177-.53.035-.036.035-.107 0-.143-.213-.177-.46-.354-.142-.637-.142-.495.213-.814.425-1.17.036-.07.107-.105.178-.14.035.07.07.14.14.248-.105.177-.176.39-.353.53-.213.143.035.25.035.39zm-5.137 5.81c.07-.037.142-.107.25-.107.034 0 .14.07.14.106.07.176.07.353.107.46-.036.744-.07 1.452-.107 2.16 0 .07-.07.214-.14.25-.143.034-.143-.143-.18-.178-.282-.142-.21-.355-.21-.603.034-.53.07-1.064.07-1.595.035-.177.248-.32.07-.496zm0-1.844c-.035 0-.14-.07-.177-.14-.035-.037.036-.143.07-.18.285-.105.462-.46.852-.388.035.034.07-.072.106-.108.072-.07.107-.177.214-.248.07-.07.212-.106.283-.07.07.035.07.177.107.212-.035.213-.035.39-.07.532-.036.07-.107.14-.142.14-.424.108-.814.178-1.24.25zm-2.373-.815c-.07.037-.142 0-.213 0-.673-.034-1.31-.105-1.984-.14-.248-.036-.177-.213-.248-.355-.178-.212-.107-.46.035-.637.142-.214.32-.108.496-.037.32.07.673.107.957.285.32.248.71.425 1.063.637.07.036.106.142.142.213-.07 0-.178.035-.248.035zm-2.374-1.63c-.603-.034-1.205-.034-1.843-.07h-.425c-.213 0-.355-.177-.355-.425 0-.106 0-.212-.14-.14-.037 0-.108-.072-.108-.108 0-.32.142-.46.567-.46.247.106.673.177 1.027.354.46.178.885.46 1.31.674l.106.107c-.035.036-.07.07-.14.07zm7.015 18.46h.604v-.033c.426.035.816.106 1.205.106.425.035.814.07 1.24.07.32.036.637.036.956.036.07 0 .177-.036.213.035.07.035.14.177.14.248 0 .07-.106.14-.177.14-.426 0-.816-.034-1.205-.034-.07-.036-.107-.036-.178-.036-.814-.036-1.665-.107-2.48-.178-.106 0-.212.036-.283 0-.07 0-.177-.07-.213-.14-.034-.108.037-.214.178-.214zm4.076-15.34c-.425.035-.85.07-1.24.106-.39 0-.744.035-1.1.07-.105 0-.21-.035-.282-.07-.105-.106-.14-.248.036-.284.497-.07.993-.14 1.453-.177.07 0 .14.142.212.213.07-.107.07-.214.142-.25.07-.07.177-.035.248-.035.106-.035.212-.035.354-.035.07 0 .14 0 .176.035.106.142.142.107.213-.035 0-.035.105-.07.176-.07.708-.036 1.382-.107 2.09-.178.85-.07 1.666-.142 2.516-.248.035 0 .07-.036.105-.036.178-.07.284.248.32.142.106-.248.283-.142.39-.177h.53c.213-.105.39-.282.568.036 0 0 .07 0 .07-.035.07-.282.355-.212.532-.212.46-.07.992-.106 1.488-.106.248 0 .567-.177.815.07 0 0 .106 0 .106-.034.32-.355.78-.32 1.205-.426.284-.106.354 0 .354.32v3.082c0 .32.07.638.107.92 0 .214.036.39-.283.39-.39 0-.567-.07-.602-.353v-.283c.035-.816.035-1.595.035-2.41v-.355c0-.106.247-.354-.142-.248 0-.07-.036-.106 0-.14 0-.037.07-.072.106-.108l.106-.213c-.035.07-.07.14-.106.14l-.85.108c-.497 0-1.028-.106-1.49.036-.53.177-1.062 0-1.558.177-.248.107-.32.036-.425-.32 0 .427 0 .39-.39.427-.777.07-1.557.177-2.372.248-.354.035-.708.035-1.063.07-.85.07-1.7.178-2.55.25zm-.07-15.272c.035-.178.035-.39.106-.568.034-.213.21-.283.388-.213.213.035.39.106.39.354l-.106.745c-.036.248-.248.283-.425.32-.214.034-.356-.072-.356-.285v-.354zm9.283 2.338c-.108-.036-.108-.25.07-.25.212 0 .425 0 .637.037.07.035.107.142.177.248.037.036 0 .107.037.178.143.602.036.85-.814.886 0 0-.177-.035-.248-.106-.106-.178 0-.638.142-.744.177-.107.283-.142 0-.248zm-8.86 17.078c.036-.39.284-.567.674-.425.32.106.39.213.355.673-.036.496-.25.71-.674.71-.355 0-.355 0-.355-.32v-.637zm13.29-2.834c.033.32.07.637.07.956 0 .107.034.284-.178.284-.214 0-.18-.142-.18-.284-.034-.106 0-.177 0-.283.037-.78.037-1.524.072-2.303 0-.036.07-.107.107-.177.035.07.07.14.07.177.036.567 0 1.098.036 1.63zm.6 1.098c0-.638 0-1.276.036-1.913 0-.32.035-.638.035-.957.036-.07.07-.106.07-.177.073.036.144.07.18.107.034.105.034.212.034.318.037.39 0 .78 0 1.205 0 .39.037.78 0 1.17 0 .105 0 .212-.034.282-.035.07-.142.07-.213.107-.035 0-.106-.108-.106-.143zm1.524-2.94c0-.107.036-.178.072-.284.07.07.177.106.212.177.07.107.07.25.07.355.037.39.072.815.037 1.205 0 .46-.035.957-.07 1.417 0 .035-.07.07-.107.105-.035-.035-.07-.106-.07-.14-.07-.568-.107-1.135-.142-1.702.036 0 .036 0 .072-.035-.036-.355-.07-.745-.07-1.1zm1.985 2.41v.282c0 .142-.036.248-.214.213-.07 0-.14-.142-.14-.213-.037-.354-.037-.71-.037-1.063V18.73c0-.07.035-.178.07-.25.07.036.177.07.25.107.034.07.07.177.07.284-.036.107-.107.25-.107.355.034.71.07 1.382.105 2.09zm2.125-2.02c0-.178.036-.355.072-.568 0-.036.07-.036.106-.07.036.034.036.07.07.14v.036c.036.744.072 1.524.072 2.268v.177c0 .143.035.355-.177.355-.213 0-.177-.212-.177-.354v-.6h-.035c.036-.32.07-.603.106-.886 0-.177-.07-.32-.034-.496zm.816-1.666c-.353-.036-.637-.107-.885-.07-.39.07-.85 0-1.205.21-.07.037-.212.072-.283 0-.248-.14-.46-.07-.71 0l-.034.037c-.213-.036-.496-.177-.638-.07-.213.105-.39.14-.602.14-.957.07-1.878.178-2.835.25-.46.034-.92.07-1.382.07-.07 0-.247.07-.247-.14 0-.18.07-.286.247-.286.71-.07 1.42-.106 2.127-.177.106 0 .213-.035.354-.07.037-.036.108-.107.18-.072.388.107.743-.035 1.133-.035.39.036.815-.07 1.205 0 .284.072.603.072.85-.035.178-.035.32-.14.497-.14 1.027-.108 2.02-.214 3.012-.32.106 0 .248.035.248.035.035.142.035.32 0 .46h-.248c-.213.036-.39.072-.603.143-.105 0-.176.07-.176.07zm-.672-7.76c0-.07.035-.107.035-.142.32.177.177-.284.355-.248.283.106.566.212.85.283l.106.107c.106.14.106 1.098 0 1.24-.072.07-.143.142-.213.142-.14.035-.283.07-.46.035-.142 0-.283-.07-.425-.248-.247-.248-.283-.496-.247-.78 0-.14-.036-.283 0-.39zm.744 12.153c0-.035.106-.142.106-.142.284.178.567-.07.85-.035.355.07.46.142.46.532v.816c-.034.284-.176.426-.424.426-.214.035-.426.035-.603.07-.247.036-.39-.035-.39-.247-.035-.497 0-.957 0-1.418zm-40.542-2.23c0-.07-.034-.106-.07-.177.107-.036.178-.07.284-.07.106 0 .213.07.283.105.142.036.142.07.07.142.18.07.39.177.568.213.567.035.957.425 1.453.673l.035.073c-.035.035-.07.07-.14.07-.178.036-.356.036-.533.036-.46 0-.92 0-1.382.07-.32.07-.39-.213-.53-.32-.214-.176-.214-.39-.037-.6.038-.07.038-.143 0-.214zm-.105 1.984c.036-.25-.142-.604.142-.746.142-.106.39-.07.602-.07.282.035.565.07.884.106.532.036 1.098 0 1.595.178.565.212 1.062.567 1.593.886.07.035.07.07.106.14-.07 0-.107.037-.178.037h-.957c0 .037 0 .037-.035.037-.708-.035-1.416-.07-2.125-.142-.142 0-.283-.106-.39-.106-.14 0-.283.14-.425.14-.213 0-.425-.07-.673-.14-.177-.036-.177-.178-.142-.32zm0 3.54c0-.034.142-.14.177-.14.07.035.177.14.177.21-.037.64-.037 1.313-.07 1.95 0 .143.033.285-.215.285-.177 0-.283-.036-.248-.248.035-.107 0-.248 0-.355h-.035c.07-.567.14-1.134.212-1.7zm-.177 4.82c.035-.39.035-.815.106-1.24 0-.142.107-.25.177-.354 0-.036.11-.036.11 0 .034.035.07.106.07.142v1.132l-.107.957c0 .035-.035.105-.07.176-.036-.07-.036-.106-.107-.14-.248-.18-.142-.427-.177-.675zm0 5.705c.035-.177.07-.39.07-.567.072-.25 0-.532.213-.745.073-.07.073-.07-.104-.354v-.07c.07-.214.106-.46-.106-.64.034-.034.07-.07.105-.07h.284v-.035h.53c0 .212-.036.39-.036.567 0 .815-.036 1.63 0 2.48.035.32-.107.602-.213.886 0 .07-.212.14-.353.14-.107.036-.248.107-.32-.14-.035-.143-.176-.25-.035-.426.036-.036-.106-.178-.106-.248 0-.284.036-.532.07-.78zm-1.843 2.48c-.212-.106-.53-.07-.78-.106-.07-.036-.14-.036-.212-.036-.14-.07-.32-.107-.212-.32.037-.14 0-.283 0-.424 0-.212.073-.39.356-.283.07.036.177 0 .284 0 .282.036.565.106.85.142.282.033.566 0 .85.033.106.036.283-.106.318.142 0 .142.106.248-.106.39-.177.106-.32.354-.567.46-.248.107-.496.178-.78 0zm1.063 5.918c0 .07-.07.177-.106.177-.07 0-.177-.035-.248-.105-.248-.284-.32-.674-.248-1.063.035-.142.035-.39.354-.32.248.036.355.178.32.568 0 .177-.036.46-.072.744zm7.583-5.634c-.033.85-.07 1.7-.07 2.515 0 .744 0 1.452-.034 2.16v.25c-.036.035-.106.07-.142.07-.035 0-.106-.035-.106-.07-.036-.107-.036-.214-.036-.32.037-.992.072-2.02.072-3.012.036-.46.036-.92 0-1.382 0-.07 0-.105-.035-.14 0 .035-.07.07-.07.106V39c-.038 1.063-.038 2.126-.073 3.19 0 .388.035.778 0 1.132-.035.25-.354.46-.602.46-.177.037-.39.072-.603.107-.425 0-.886 0-1.31.07-.39.106-.816.035-1.24.212-.39.142-.816.142-1.24.177-.533.07-1.064.07-1.63.105-.25 0-.32-.07-.355-.354-.036-.495.14-.956.212-1.416.035-.07.106-.107.176-.177.567-.32 1.1-.638 1.63-.993.674-.425 1.347-.885 2.02-1.346-.567.353-1.098.672-1.665 1.026-.177.107-.355.178-.532.284-.035.035-.07.035-.14.07-.108.107-.25.178-.356.284-.318.213-.672.39-.956.603-.212.177-.425.248-.708.212l-.213-.107c.036-.07.107-.106.142-.177-.602.177-1.24.106-1.878 0-.355-.07-.745-.107-1.135-.142-.106 0-.248-.07-.283.143 0 0-.142.035-.213.035l-1.064-.21c-.035 0-.106-.072-.142-.108l.107-.106c.354-.213.708-.46 1.063-.673.425-.283.85-.566 1.275-.814.39-.248.744-.532 1.24-.532.036 0 .142-.035.142-.035-.036-.496.283-.177.46-.213h.177c-.036 0-.07 0-.106-.035-.105-.036-.176-.07-.246-.106.07-.036.106-.142.177-.178.32-.178.603-.426.993-.32-.07-.035-.106-.07-.177-.07.035-.07.07-.142.106-.178.25-.177.462-.318.71-.496.248-.106.53-.177.708.036.178.212.178-.07.248-.07-.177-.143-.106-.32 0-.426.178-.248.46-.39.78-.355.92.142 1.807.25 2.728.426.213.035.496-.036.673.212 0 .035.035.07.07.106-.07.035-.106.07-.14.07-.427-.106-.85-.035-1.24-.283-.037-.034-.143 0-.214 0-.603-.07-1.205-.14-1.772-.212-.106-.035-.248-.106-.283.107-.036.177.106.106.21.14l.32.214c-.105.035-.247.035-.353.035-.07.036-.142 0-.213 0h-.177c.07.036.106.07.142.07.956.072 1.912.214 2.904.178.355 0 .71-.035 1.028-.283.143-.105.426-.034.674-.034l-.106.212c.106-.035.248-.035.354-.07.32-.142.32-.142.32.212zm1.207 4.286c0 .177-.036.248-.213.248-.212 0-.425.036-.602.036-.283.036-.353 0-.353-.283 0-.496.034-.992.07-1.452V38.68c0-.46-.036-.494-.497-.53-.14-.035-.247-.07-.388-.106-.178-.106-.284-.248-.248-.496v-.496c-.036-.212 0-.39.283-.39.035 0 .07-.034.106-.034l-.07-.07c-.142-.108-.142-.108-.142-.32.036 0 .036-.07.036-.07-.354-.178-.106-.462-.142-.71 0-.14.036-.32 0-.496-.07-.32.107-.602.036-.956-.036-.107.177-.355.354-.426.177-.07.39.036.567.107.037 0 .072.14.072.212 0 .176.035.354 0 .53-.142.567.035 1.17 0 1.736-.035.496-.07.957-.07 1.453 0 .105.035.21.035.32.035-.11.07-.215.07-.357v-.602h.036c0-1.027.035-2.054.035-3.082 0-.212.07-.283.284-.248.32.035.602-.072.886-.072.177 0 .354.107.496.178.034.035 0 .248-.07.318-.144.142-.463.107-.605-.07-.283-.248-.354.106-.53.14-.178.037 0 .178.034.25.07.177.14.354.14.53 0 .78-.034 1.56 0 2.375 0 .21-.07.39-.212.53-.106.14-.106.212-.106.354.036.425 0 .815 0 1.24 0 .177.106.212.248.32.46.282.532.495.532 1.133-.036.673-.07 1.346-.07 2.02zm3.472 1.134c-.284 0-.568-.07-.85-.105l-1.49-.213c-.212-.035-.46-.07-.71-.07-.14-.036-.352-.036-.352-.25 0-.247.177-.247.354-.176.036 0 .072-.035.107-.035.354-.07.71.108 1.062.18l1.382.212c.036.036.107 0 .107.036.07.07.14.177.177.248.106-.07.177-.142.283-.177.035 0 .105.07.105.105-.035.07-.106.248-.177.248zm10.417-.495c0-1.027.035-2.02.07-3.012v-.177c-.035-.07-.07-.177-.106-.283 0 .106-.034.177-.034.283v1.63c0 .496.035.992 0 1.488-.107 5.173-1.205 1.524-1.453 1.382-.035-.035-.07-.212-.035-.32 0-.53.035-1.097.07-1.664 0-.425-.035-.85 0-1.276 0-.14.07-.283.107-.46 0 0 .035-.036.07-.036-.39-.248-.106-.602-.177-.92-.035-.072-.07-.178-.106-.25 0 .072-.034.143-.034.25v.637c0 .14-.07.212-.213.177-.248 0-.53 0-.78-.07-.46-.143-.92-.143-1.38-.214-.64-.07-1.312-.106-1.95-.212-.673-.07-1.31-.177-1.984-.248-.567-.07-1.134-.142-1.7-.248-.568-.07-1.1-.142-1.667-.248-.14 0-.283-.036-.39-.07-.53-.037-1.062-.037-1.594-.072-.07 0-.178-.035-.213-.07-.107-.143-.178-.072-.284-.036-.212.035-.425-.036-.638-.107-.035 0-.07-.07-.07-.143.106-.32-.036-.71.318-.992.142-.107.178-.107.355-.107.248.035.53.247.815.035.07-.036.212 0 .354.035.354.142.815-.035 1.134.284 0 .035 0 .035.036 0 .39-.213.744-.07 1.1.106.247-.248.424.106.672.07.213-.07.46-.035.673-.035.107 0 .178.107.25.142.247.106.495.142.78.177.176 0 .353-.07.53-.106.25-.106.284.177.46.177.107 0 .25-.142.39-.142.25 0 .53.07.78.108.92.14 1.807.248 2.728.39.567.07 1.1.106 1.666.177.07 0 .177-.036.248-.07-.035-.072-.105-.108-.14-.178-.072-.108-.143-.25-.143-.39 0-.993.035-1.95.07-2.942v-.71c0-.14-.07-.318.177-.318.036 0 .07-.035.107-.035H31.5c-.213-.07-.106-.248-.142-.39 0-.177.142-.177.284-.142.14 0 .354-.106.46.142.036-.035.036-.07.107-.07.104-.036.246-.072.387-.072.036 0 .107.178.107.284 0 .638-.036 1.31-.07 1.984 0 .214.07.39.07.603 0 .568-.036 1.1-.07 1.667 0 .176.07.318.105.495 0-.177.035-.32.035-.496 0-.64-.036-1.277 0-1.915 0-.6.035-1.17.07-1.77v-.25c0-.14-.106-.353-.035-.39.143-.14.355-.175.568-.21.213-.036.425 0 .638.035.177 0 .354-.037.53-.037 0 0 .037 0 .072.036 0 0 0 .034-.035.034-.177.036-.177.213-.213.355-.035.034-.106.07-.177.07-.142 0-.284 0-.425-.036-.07 0-.177-.07-.284-.106 0 .14-.035.284-.035.39-.038.248-.144.497-.073.71.32.85.106 1.735.142 2.586 0 .39 0 .744-.285 1.063-.106.105-.212.32-.07.6.14.214 0 .603 0 .887-.036.142-.036.248-.036.354 0 .108-.07.285.212.178.177-.07.78.603.78.815 0 .496-.036.992-.036 1.453 0 .32.035.638.035.992.036.284-1.416 3.083-1.345-1.24zm.78-2.197c-.036 0-.107-.035-.143-.07.036-.036.07-.036.107-.072l-.035-.035c-.14 0-.248 0-.212-.175 0-.39.035-.78.07-1.17 0-.177.07-.177.213-.14.213.07.46.105.673.14.354.07.71.107 1.062.142.71.07 1.42.142 2.127.213.46.034.885.07 1.346.14 1.134.107 2.232.142 3.33.39.355.07.745 0 1.063.036.425.07.814 0 1.204.177.284.106.638.035.957.035.71.07 1.38.107 2.055.178.78.07 1.524.212 2.303.32l1.453.105c.25 0 .355.108.355.356 0 .177.036.354.07.532.143-.142.32-.213.462-.39.248-.284.567-.32.886-.248.106.034.177.034.248.07.14 0 .284.035.426.07-.106.107-.213.213-.284.32.072-.036.18-.107.25-.142.035-.036.14 0 .14.035.037.142.178.284-.034.425-.213.142-.177.284.106.355h.46c0-.036-.035-.036-.07-.036-.248.036-.248-.14-.284-.32 0-.176-.035-.388 0-.566 0-.07.177-.104.248-.14-.035-.035-.035-.07-.07-.14l-.07.07c-.25-.14-.533 0-.78-.07-.284-.036-.568-.107-.816-.036-.248.07-.425.283-.602.46-.142.142-.177.106-.177-.035.036-.214-.14-.46.25-.533.14-.035 0-.14-.037-.177-.248-.143-.248-.25 0-.355.036 0 .07-.07.106-.07h-.107c-.177.034-.212-.037-.212-.178 0-.886-.07-1.772.036-2.622.07-.532.034-1.028-.036-1.524 0-.07.036-.21.036-.317.035-.106.07-.248.035-.32-.105-.247-.105-.353.214-.424.53-.178 1.062-.143 1.594-.107.317.035.317.248.353.46.035.39.035.78.035 1.205 0 .248-.07.496-.07.744 0 .852.035 1.667.07 2.482.036.46.07.885.107 1.31V39.32c.034-.18.105-.355.07-.567-.036-.744-.107-1.49-.14-2.233v-.638c0-.213.14-.46.352-.497.07 0 .177.07.177.107.035.248.07.32.247.07.036-.07.213-.14.284-.106.213.107.497-.14.745.107 0 .035.213-.107.32-.142-.07-.07-.142-.14-.248-.14-.07 0-.178.036-.284.036-.142 0-.283 0-.283-.213V30.85c0-.176-.07-.353-.07-.53.034-.355.07-.71.105-1.063.638-.78 1.276-1.524 1.914-2.233.07-.07.176-.106.282-.14 0 .07.035.176.035.247V30c.036-.036.036-.107.036-.178v-3.224c0-.177.035-.32.177-.496.354-.46.673-.92 1.028-1.417.14-.177.318-.355.496-.496.034-.073.14-.11.21-.144-.105 0-.176-.036-.282-.07-.213-.036-.425-.072-.638-.072-.496-.035-.992 0-1.488-.035-.39 0-.815-.037-1.205-.07-.71-.073-1.452-.144-2.16-.25-.142 0-.355.106-.25-.213 0 0-.034-.035-.07-.035-.212.142-.176-.036-.176-.142.035-.318.07-.637.106-.99 0-.143.07-.178.248-.143.213.036.425.036.638 0 .248-.035.425 0 .53.213.037.035.072.035.108.035.106-.283.354-.14.53-.14.25 0 .497.07.71.07.637.035 1.275.035 1.878.07.177.036.32.07.425.142.425.213.744.213 1.17-.035.035-.036.105-.036.14-.036.072.036.178.106.213.07.32-.14.426.072.532.284.425.674.815 1.347 1.24 2.056 0 .035.036.07.036.106-.142.283.07.496.177.71.497.884 1.064 1.7 1.524 2.585.212.39.212.886 0 1.31-.07.214-.07.39-.14.604.28.07.14.32.175.46v1.17c0 .214.106.32.283.39.107.037.213.107.32.178.176.178.318.355.495.532.32.39.532.778.496 1.31-.07.46 0 .886 0 1.346 0 .248-.036.496-.036.744l.105 1.985c0 .46 0 .92-.036 1.382 0 .212-.107.39-.107.567.036.177-.035.177-.14.212-.887.106-1.773.213-2.66.354-.21.036-.247-.035-.247-.177.036-.354.106-.673.07-1.027 0-2.09-.034-4.146-.07-6.237 0-.568.07-1.135.07-1.7-.034-1.03-.105-2.093-.14-3.12V28.333c-.036.035-.036.07-.036.07v8.823c0 .992-.036 2.02 0 3.012 0 .282-.106.46-.39.495-.32.07-.638.07-.957.142-.32.07-.354.035-.354-.284.034-.354.07-.71.07-1.063.035-1.24 0-2.48-.142-3.72-.07-.673-.07-1.346-.07-2.02l-.106-5.845v-1.56c0-.248-.034-.496-.07-.744 0-.033-.035-.07-.035-.104v.106c0 .214.07.427.07.64.035 2.125.07 4.287.07 6.413.036 2.126 0 4.216 0 6.307v1.382c.036.46.036.46-.354.602-.07.035-.142.035-.177.035l-1.383-.106c-.177 0-.248-.07-.248-.248v-.85c0-.036-.036-.07-.036-.142V40.7c0 .107-.036.178-.178.142-.354-.035-.708-.035-1.063-.106-.213-.036-.39-.142-.39-.425.035-.246.14-.565.035-.742-.283-.567-.142-1.134-.177-1.7-.034-.497 0-1.03 0-1.56 0-.107-.07-.213-.07-.355-.035.107-.07.213-.07.32v3.295c0 .53.035 1.063 0 1.594 0 .107-.178.285-.284.32-.248.07-.532.106-.78.177-.035 0-.07.035-.106.035.035 0 .07.035.106.035.815-.213 1.595 0 2.374.07.744.072 1.453.143 2.197.213-.567-.07-1.17-.105-1.736-.21-.46-.037-.956-.143-1.416-.214-.212-.036-.247-.14-.177-.284.036-.142.107-.284.213-.425.106-.177.283-.035.425-.035.64.07 1.24.142 1.88.213l1.275.106c.07.036.212.072.248.036.248-.425.673-.212 1.027-.248.496-.07.992 0 1.49-.212.21-.07.46-.07.672-.106.567-.036 1.134-.07 1.7-.107.07 0 .178.036.213.07.32.497.213.816-.354.993-.176.036-.176.142-.14.213.07.21.176.424.247.637.07.14.07.212-.106.177-.176 0-.354-.036-.566-.07-.71-.107-1.452-.214-2.196-.32-.248-.035-.53-.035-.815-.07-.603-.036-1.24-.036-1.843-.072.39.036.814.07 1.204.107.07 0 .108.07.178.07-.07.035-.14.14-.176.14l-1.63-.105c-.035-.036-.106-.036-.177-.036.07.036.142.07.177.07 1.063.143 2.126.32 3.154.427.886.106 1.736.106 2.622.177.106 0 .213.035.283.07-.07.107-.105.213-.21.32-.07.035-.177.07-.248.07-.284 0-.567-.035-.85-.035.14.034.283.034.425.07.14.035.283.035.425.07v.14c.035 0 .035.038.035 0 .39-.565.957-.423 1.524-.352.213.035.39.035.603.035.106.036.213 0 .213.213 0 .07.106.106.142-.035.07-.177.247-.177.388-.14h.142c-.035-.037-.106-.037-.142-.07-.602-.037-1.17-.108-1.77-.144-.214-.035-.25-.07-.25-.283-.035-.425-.106-.886-.07-1.31 0-.745.106-1.454.106-2.163.035-.497-.035-.957-.035-1.453V36.2c0-.035.105-.177.14-.177.32 0 .638-.07.922.177.105.107.105.036.14-.07 0-.036.107-.036.177-.036.178.036.355.07.497.07.496.072.53.072.53.603.036 3.72.036 7.406.072 11.126.034 1.205.07 2.374.07 3.58v.035l-.815-.25c-.035-.884-.035-1.77-.035-2.62 0-.957.035-1.914 0-2.87 0-.46-.036-.957-.07-1.453v-.107c0 .036-.037.07-.037.107v.567l-16.05-1.63c0-.036.034-.142.034-.213-.106.14-.248.175-.425.175l-1.17-.106c-.14-.037-.283-.037-.424-.07-.815-.108-1.595-.215-2.374-.356-.675-.107-1.348-.177-1.986-.284-.568-.07-1.1-.176-1.63-.247-.284-.035-.567-.07-.85-.07-.674-.072-1.383-.107-2.056-.178-.602-.07-1.205-.212-1.807-.212-.566 0-1.1-.248-1.7-.07-.177.07-.46.14-.64-.178-.033-.036-.28 0-.423 0-.106 0-.248.035-.39.035-.035 0-.035-.07-.07-.07.07-.036.106-.072.177-.072h-.178c-.46-.106-.92-.106-1.417 0zm33.377 7.44v2.446-2.445zm-28.56-1.912c.39.07.816.106 1.206.177.14.035.282.106.39.177-.143 0-.285.036-.427 0-.283-.035-.567-.177-.886-.177-.53 0-1.027-.213-1.594-.213-.213 0-.46-.07-.71-.106-.07 0-.105-.07-.176-.142.07 0 .177-.07.213-.07.32.035.638.106.92.14.143.037.32.037.462.037-.142-.038-.284-.073-.46-.11-2.765-.495-3.9-1.274-1.595-.743 0 0 .035.107.035.142-.035.034-.106.034-.177.07.07 0 .142.035.212.07.46.07.922.107 1.382.178.21.034.39.07.565.07h.142c-.07 0-.106-.036-.142-.036h-.106c-.07-.07-.107-.106-.143-.177.036-.035.106-.106.177-.106.178.035.355.07.567.07.07.036.143 0 .214 0-.106 0-.213-.035-.284-.035-.21.036-.282-.14-.353-.283 0-.036.07-.142.106-.142.142 0 .284.036.426.072.565.07 1.13.142 1.663.248.815.106 1.594.213 2.41.354.07 0 .14.107.177.142 0 .142-.07.213-.212.177l-1.063-.106c-.92-.106-1.878-.248-2.835-.354 1.063.177 2.09.354 3.154.496.425.07.815.14 1.24.175.07.035.106.106.177.142-.07 0-.14.07-.21.07-.355-.07-.745-.14-1.1-.212-.32-.036-.637-.07-.92-.107h-.213c.07 0 .107.035.177.035.567.07 1.1.177 1.63.248l1.807.32c.46.07.923.106 1.383.177.036 0 .07.034.142.034-.035.037-.035.108-.07.143-.107.177-.284.213-.46.177-1.17-.212-2.34-.425-3.545-.637-.568-.107-1.17-.178-1.772-.248-.532-.07-1.028-.178-1.524-.25h-.248c.07.037.177.108.248.108zm48.473-.32c-.035.497 0 .497-.46.532-.106.036-.248.036-.32.107-.105.14-.212.177-.39.07-.14-.035-.21 0-.034.107-.036 0-.07.035-.107.035-.283.07-.566.142-.85.177-.07 0-.177-.07-.177-.14-.037-.178-.037-.178-.214-.108-.07.036-.14.07-.177.07-.036.037-.07.037-.107.037.177.035.283.177.106.212-.25.07-.39.355-.71.213-.177-.07-.354-.106-.46.142-.036.035-.106.07-.177.07-.355-.07-.638.142-.992.142-.25 0-.53.177-.78.248-.212.107-.424.213-.637.248-.39.107-.78.07-1.134.213-.213.108-.39.18-.603.037-.035 0-.07-.035-.106-.07.07 0 .07-.036.14-.036.25-.07.498-.105.747-.176.035 0 .07-.036.106-.07-.036 0-.106.034-.142.034-1.026.248-2.09.532-3.117.78s-2.055.53-3.083.78c-.922.212-1.843.39-2.8.602-.07 0-.142.07-.213.07h-.212c.035-.107.035-.248.106-.284.108-.07.25-.07.39-.106.25-.035.498-.07.78-.142h.39c.32-.07.64-.177.958-.248.035 0 .07-.07.106-.07.886-.142 1.736-.532 2.622-.674.355-.07.71-.248 1.063-.32.32-.07.637-.105.956-.176.496-.142.992-.32 1.488-.46.106 0 .213-.036.32-.07.034 0 .105-.037.14-.072h-.176c-.922.248-1.843.496-2.764.708-.142.036-.354-.035-.532-.07.18-.07.32-.142.497-.213.39-.07.78-.142 1.17-.248.743-.177 1.45-.39 2.196-.603.035 0 .07-.035.106-.035.32.035.32.035.567-.177.39-.39.78-.744 1.203-1.063.037-.036.18-.036.25 0 .07.07.106.177.106.283.034.178.034.39 0 .567-.07.32.14.107.21.142.037 0 .07-.037.108-.037-.036 0-.107 0-.107-.036-.034-.035-.07-.07-.034-.142 0-.212.035-.425.035-.673v-.744c0-.072 0-.143.037-.178.106-.106.248-.213.39-.32.035.107.07.25.106.355.035.07.035.142.035.213 0-.07.036-.142 0-.213-.035-.354.142-.567.355-.85.53-.602 1.17-1.098 1.77-1.595l.64-.637c.14-.107.283-.177.424-.248.07-.036.177 0 .177-.178 0-.107.214-.213.356-.32 0 0 .035-.035.035-.07h-.105c-.035.035-.106.14-.177.14-.142.037-.213.214-.425.072-.178-.07-.46.035-.674.07-.71.106-1.418.213-2.127.355-1.382.248-2.763.53-4.145.78-1.205.212-2.41.46-3.614.672-.815.107-1.595.213-2.374.32-.71.105-1.382.247-2.09.39h-.107c-.638.034-.567.105-.567-.497 0-.32-.036-.673-.036-1.028-.035-.177.07-.283.248-.283.036-.037.07-.037.107-.037-.037 0-.07 0-.108-.035h-.283c-.037-.247.176-.212.282-.247.567-.105 1.134-.176 1.7-.283.355-.036.71-.107 1.064-.142.567-.07 1.134-.107 1.7-.177.462-.035.887-.106 1.347-.14.177-.037.354.034.53.034-.176.036-.353.107-.53.142-.497.106-.957.177-1.453.248-.496.07-1.028.106-1.56.177-.07 0-.106 0-.177.036h.213c.142-.036.32-.036.46-.07.532-.072 1.064-.108 1.595-.178.64-.108 1.31-.18 1.985-.285.815-.142 1.63-.32 2.445-.46.957-.178 1.914-.32 2.87-.497h.107c-.036 0-.107-.035-.142-.035l-.036-.034c0-.036.035-.07.07-.07.355-.108.674-.108 1.03-.037.033.036.104 0 .14 0-.036 0-.107 0-.14-.035v-.106c.104 0 .175-.037.246 0 .567.176 1.063-.108 1.594-.108.142 0 .284-.07.426-.07.177 0 .283-.036.212-.25-.035-.105.213-.21 0-.388-.106-.07-.106-.284-.142-.46-.035-.143-.07-.284-.07-.39v-1.772c.035-.284.07-.603.106-.886.034-.248-.037-.284-.285-.248-.212 0-.425 0-.602-.037-.248-.034-.425-.07-.567.143-.07.035-.142.035-.248.035l-.035-.106c-.213-.035-.426-.035-.638-.035-.425.07-.886.105-1.347.176h-.212c.07 0 .142.035.177.035.07 0 .142.037.177.072-.035 0-.106.07-.177.07h-.283c-.32-.034-.603-.034-.922-.034h-.425c-.142 0-.283 0-.425.177-.036.07-.213.106-.32.106-.14.035-.247 0-.39.035.108-.07.214-.14.32-.177.036-.036.07-.036.106-.036h-.106c-.496.035-.957.035-1.417.07-.354.036-.672.107-1.027.142-.425.036-.85.07-1.275.107-.425.036-.85.07-1.31.107-.39.035-.815.105-1.24.14-.603.072-1.24.107-1.843.143-.284.035-.567 0-.815.035-.214 0-.426.07-.603.07-.07.036-.214 0-.214-.035 0-.14-.106-.318.106-.318.46-.036.886-.07 1.31-.107.32-.035.604-.142.887-.142.566-.035 1.17 0 1.735-.035.78-.07 1.56-.14 2.34-.212.46-.035.885-.035 1.345-.106.638-.07 1.31-.142 1.985-.212.354-.07.708-.07 1.063-.107.567-.07 1.134-.105 1.7-.176h.107c-.036-.035-.07-.035-.107-.035-.14 0-.283 0-.212-.14 0-.073.142-.144.248-.144.71-.07 1.417-.177 2.126-.248.07 0 .106 0 .142-.036h-.142c-.567.035-1.134.106-1.7.14h-.11c-.637.108-.672.072-.672-.6v-.78c-.036-1.276-.07-2.516-.07-3.792-.037-.07-.037-.106-.037-.177 0 .07-.033.106-.033.177v2.906c.035.708.07 1.382.106 2.055 0 .32-.035.32-.425.32-.248 0-.39-.036-.39-.32.036-.743.036-1.487.036-2.23h.035c0-.71-.036-1.418 0-2.16 0-.85 0-1.738.034-2.588 0-.39-.14-.46-.53-.426-.39.07-.816.07-1.206.07-.07 0-.14-.105-.212-.14.07-.036.106-.107.14-.142.214-.177.427-.284.745-.248h.994c-.07-.036-.107-.036-.142-.036H80.4c-.07 0-.178 0-.284-.034-.106-.036-.283-.07-.07-.284l2.48-1.56c.035 0 .106-.034.14-.034.108-.532.604-.71.852-1.063.106-.142.212-.284.212-.425.036-.213.178-.284.355-.284.354.036.744 0 1.098 0 .178.036.32 0 .426-.177.106-.18.283-.32.424-.463.072-.07.18-.07.285-.07.46.035.566.46.566.78.07.956.035 1.948.035 2.94 0 .07-.14.213-.21.213-.214.036-.143-.14-.143-.247-.035-.248 0-.496-.035-.744v-.11c0 .037-.036.07-.036.108v1.522c0 .036.036.07.036.142 0-.07 0-.106.035-.142 0-.07.035-.142.07-.177.036.035.107.07.143.106.035.142.14.32.14.46-.034 1.1-.105 2.233-.14 3.33v.248c-.036-.035-.107-.07-.142-.106V28.155c0-.07 0-.106-.036-.177v3.117c0 .107 0 .285.07.355.25.32.143.674.143 1.028.036.035 0 .106-.034.142-.035-.036-.035-.107-.07-.142v-.213c-.036.07-.036.142-.036.213v2.94c0 1.56.035 3.12.07 4.678 0 .638.07 1.276.106 1.913 0 .567.036 1.134-.035 1.666-.105.957.107 1.913.036 2.87zm-16.407-8.04c0-.07.036-.143.072-.214.07.072.177.143.177.214 0 .46 0 .92.033 1.38 0 .037-.035.072-.07.108 0-.036-.07-.07-.07-.107v-.992c0-.035 0-.07-.037-.106v1.308h-.035c.036.496.07 1.028.107 1.524 0 .07.036.177 0 .212-.035.07-.106.107-.177.142 0-.07-.034-.106-.034-.177 0-.498.035-1.03.035-1.56 0-.037-.033-.107-.033-.143 0 .036-.036.07-.036.142v1.24c0 .07.037.14 0 .176-.034.142-.07.248-.14.354 0-.105-.036-.21-.036-.317-.036-.497-.036-1.028-.036-1.56 0-.46.036-.92.036-1.346v-.32l.106-.105c.035.035.07.07.07.142.036.035 0 .106 0 .14.036.037.036.072.036.108 0-.036.035-.07.035-.107 0-.035-.033-.106 0-.14zm1.03.317c-.037.886-.072 1.808-.108 2.73 0 .07-.035.105-.07.176 0-.036-.036-.107-.036-.178-.036-.247-.07-.495-.07-.743l-.107-2.056c0-.107-.038-.213.033-.284.036-.106.106-.177.213-.248.035 0 .142.106.212.177.035 0 .14 0 .14.035 0 1.027 0 2.055.037 3.082 0 .07 0 .107-.036.178 0 .035-.07.106-.106.14-.036-.034-.07-.07-.07-.14-.036-.142-.107-.284-.072-.426 0-.957.036-1.88.07-2.835-.034.14-.034.248-.034.39zm2.55 1.524c0 .213.035.39.07.602 0 .07 0 .177-.035.247s-.142.142-.212.213c-.036-.072-.107-.143-.107-.214-.035-.46-.035-.92-.035-1.417h.037c-.035-.533-.07-1.1-.106-1.667 0-.07 0-.07.143-.106h.035c.354-.107.354-.107.354.248v.602c0 .07-.034.106-.034.177-.035-.07-.07-.106-.07-.142 0-.177-.036-.354-.036-.53v.566c-.036.46-.036.955 0 1.416zm1.842-2.232c0-.106.07-.213.142-.284.035-.07.106-.07.177-.105 0 .035.038.106.038.177-.036.568-.07 1.135-.07 1.702 0 .213.07.425.07.638v.708c0 .07-.107.142-.142.213-.07-.07-.142-.14-.142-.212l-.106-1.7h.035v-1.133zm1.843 1.453c0 .354-.036.708-.07 1.063-.037.07-.107.14-.143.25-.035-.108-.106-.18-.106-.25-.036-.425-.07-.85-.036-1.31.036-.32.07-.603-.07-.922-.07-.248 0-.53-.036-.815 0-.035.036-.07.07-.106 0 .035.036.07.036.106.036.177.036.32.036.496 0-.178 0-.355.035-.497 0-.07.11-.14.144-.177 0 .036.07.106.07.177v.85H77.6l.107 1.135zm5.67.39c-.072.07-.107.106-.178.14-.036-.034-.106-.105-.106-.176V38.79c0-.07.037-.143.037-.214h-.035v-1.31c0-.07.107-.178.142-.25.036.072.142.18.142.25v2.69zm3.507-9.39c0-.426.07-.886.07-1.347v-1.487c0-.142 0-.248.036-.354.036-.143.177-.18.32-.143.035.035.07.177.035.248-.07.177.035.283.035.39.035.425.142.92-.035 1.275-.142.283-.036.424.035.672.07.25.106.532.106.815 0 .213-.177.213-.354.178-.213.07-.248-.07-.248-.248zm.142 2.905c.035 0 .035-.035.035-.035-.037-.46-.073-.922-.108-1.418-.036-.178.177-.532.354-.568.036 0 .07.036.07.036.036.32.214.142.355.07.214-.106.214.142.25.178 0 .283-.036.602-.036.886-.036.354-.036.708-.036 1.063v.425c-.036.142 0 .354-.25.32-.034 0-.105-.214-.105-.32-.035-.284-.035-.532-.035-.815v-.106c0 .033-.036.07-.036.104v.958c-.035.14-.035.32-.283.32-.248 0-.14-.214-.14-.32-.037-.284-.037-.532-.037-.78zm.708 13.323c0 .106-.07.248-.106.248-.177.035-.32 0-.32-.213-.034-.034-.034-.07-.034-.14v-1.843c0-.07.035-.177.07-.248.036-.07.142-.178.25-.178.034 0 .14.143.14.214v2.16zm-.106-3.118c-.035.07-.177.106-.248.142-.035 0-.07-.108-.07-.143-.036-1.028 0-2.055 0-3.083 0-.142-.036-.248-.036-.39.035-.07.035-.212.07-.212.142-.036.213 0 .25.177 0 .246.07.46.105.707h-.036v2.515c0 .107.038.213-.033.284zm10.63.07c0 .32-.213.46-.532.532-.07.035-.14.105-.212.14-.284.072-.567.178-.85.284-.39.107-.78.213-1.205.32-.248.035-.496.035-.744.106-.248.035-.532.106-.78.177-.177.035-.354.106-.53.177-.356.07-.746.177-1.135.283-.107.036-.177.07-.284.07-.07 0-.14-.034-.14-.07 0-.035 0-.106.034-.14.177-.072.354-.18.53-.214.604-.177 1.242-.283 1.88-.425.106-.036.212-.036.318-.106.07-.036.39-.07.036-.213-.036-.037-.036-.18-.036-.286v-.992c0-.283 0-.602-.177-.85-.073-.035-.073-.142-.073-.177-.035-.603-.283-1.063-.673-1.488-.425-.39-.92-.355-1.276.106-.426.567-.638 1.205-.71 1.913-.07.674-.106 1.347-.176 2.02 0 .142.07.32-.213.32-.106 0-.07.282.106.353.07 0 .142 0 .213.07.034.035.07.142.105.213-.07 0-.106.035-.177.07-.355.07-.745.142-1.1.25-.106.034-.177.14-.318.176-.142 0-.46.21-.567.21-.46-.034-.92.143-1.382.25-.32.106-.353.07-.353-.25 0-.672-.037-1.38-.037-2.054 0-.07.07-.142.106-.177.07-.07.177-.107.247-.178.178-.142.036-.284-.07-.284-.284 0-.32-.142-.32-.355 0-.496.036-.957 0-1.453 0-.496-.035-1.027-.07-1.523 0-.25 0-.462.32-.533.21-.07.21-.32-.037-.46-.14-.07-.32-.142-.283-.39 0 0-.036-.036-.036-.07 0 0-.034.034-.034.07-.07.142-.177.354-.39.283-.212-.07-.212-.32-.212-.53.036-.462 0-.887 0-1.348 0-.46 0-.92.036-1.418 0-.106.034-.248.105-.354.07-.07.214-.106.285-.106.07.036.105.178.105.248.036.85.036 1.7.036 2.516v.177c0-.035.036-.106.036-.14v-.64c0-.176.142-.247.248-.176.213.14.248-.037.39-.072.07-.036.212-.036.248 0 .106.106.177.14.177-.036 0-.284-.036-.568 0-.816 0-.07 0-.14.034-.212.07.035.106.07.177.07.212.107.14.32.14.46-.07.285.072.285.285.25.212-.036.425-.072.673-.072.53-.07 1.028-.106 1.56-.14.318-.037.424-.143.353-.462-.035-.212 0-.424 0-.637.07-.424-.035-.85-.035-1.24-.035-.105-.07-.176-.07-.247-.036-.815-.072-1.594-.072-2.41l-.105-3.082c0-.39-.036-.424.425-.424.46 0 .92 0 1.417.035.32 0 .426.107.426.39.035.958.07 1.914.07 2.836.036.248-.035.46-.035.708-.035.07-.035.142 0 .177.213.25.106.497.142.746 0 .39.035.744.035 1.098.036.142.07.283.036.354-.14.177-.106.284-.07.46.07.143.21.355-.106.426 0 .036.034.07.034.07.248.32.248.32-.035.532-.037.036-.072.107-.072.142 0 .036.07.07.107.07.07.036.106.036.177.036.462-.07.958-.106 1.418-.177.248-.036.496-.072.71-.072.176-.035.247-.14.176-.248-.283-.354-.106-.744-.14-1.098-.072-.53 0-1.1 0-1.63-.037-.92-.143-1.808-.18-2.694v-1.843c0-.284.143-.32.427-.178.107.07.213.106.355-.036.07-.107.212-.178.32-.25.105-.034.282-.07.282-.07.07.106.142.32.107.354-.108.106-.18.14 0 .248.07 0 .07.14.105.248-.106 0-.177.035-.248.035-.248 0-.46-.034-.71-.034-.034 0-.07.036-.105.07.035.037.07.07.106.07.142.038.284.038.425.038.39 0 .496.07.567.425.07.283 0 .567 0 .815-.283-.07-.638.07-.886-.213-.07-.106-.107-.07-.107.07 0 .072-.106.143-.106.214 0 .07.143.105.143.176.07.32.105.674.105.993 0 .637-.07 1.275-.07 1.912 0 .284.07.567.07.815.035.18.07.356.07.533.036.39 0 .39.25.71.07.14.247.282.176.495 0 .035.107.106.143.14.07 0 .106-.07.177-.105.07-.035.177-.07.248-.106.035.14.035.283.07.425-.212-.107-.247.034-.318.14-.07.14-.213.213-.32.284-.105.106-.212.142 0 .177.214.037.355.356.603.143 0 .07.036.106.036.142.034.886.07 1.77.105 2.622 0 .07-.07.142-.106.212-.037-.036-.072-.107-.108-.14h-.106c-.07.14-.142.28-.177.387-.07.142-.177.32-.142.355.107.106.284.177.425.212.07.036.142 0 .213-.035-.035.14 0 .32-.106.39-.178.21-.178.495.07.672.035.035.07.106.07.142.036.46.036.885.036 1.31zM95.528 29.15c-.178-.32.177-.32.248-.46.07.034.177.07.177.14v.638c.07 1.1.106 2.162.14 3.19.037.637.037 1.31.037 1.948 0 .177.07.39.07.567 0 .106-.035.248-.106.32-.106.034-.248.034-.39.034l-.07-.142c.39-.106 0-.14 0-.212-.07-.142-.177-.32-.213-.496V30.07c.038-.282-.21-.6.144-.813 0-.036 0-.107-.035-.107zm.496 6.554c.212-.035.283.07.283.284 0 .177-.106.212-.283.248-.496.035-.957.106-1.418.177-.177.035-.32.035-.32-.142 0-.14-.105-.352.18-.423l.636-.106v.07c.284-.034.603-.07.922-.105zm1.842-.14c-.212.07-.602-.037-.673-.214-.07-.177-.07-.354-.106-.53v-.285c-.07-.46-.036-.496.425-.496.39 0 .638.317.567.707 0 .14-.038.283-.073.425-.036.142.106.32-.142.39zm-.425-1.808c-.282.035-.352 0-.352-.32V31.63c0-.39.283-.603.602-.46.07.034.14.14.14.212.072.602.072 1.204.107 1.807 0 .317-.213.53-.496.565zm3.26-10.134c.18.035.356.035.533.07.07.036.142.213.142.284 0 .213-.035.46-.07.673 0 .034-.072.105-.072.105-.354-.142-.638.106-.92.106-.284 0-.532-.07-.78-.07-.39-.035-.78-.035-1.205-.07-.248-.036-.496-.143-.744-.178-.496-.035-.992-.07-1.49-.07-.6-.036-1.24-.072-1.84-.107-.178 0-.32-.036-.462-.07-.176-.037-.388-.072-.6-.072h-1.277c-.177 0-.32-.035-.177-.283.036 0 0-.07 0-.106-.248.177-.142-.07-.177-.14-.035-.25-.035-.462-.07-.675v-.108c.212-.177.035-.39 0-.602-.036-.673-.036-1.38-.07-2.054v-.284c-.037-.106-.037-.248-.037-.354-.036.14-.036.283-.036.425v.85c0 .39.036.744 0 1.134 0 .177 0 .39-.248.46-.32.072-.568 0-.71-.212-.247-.46-.247-.956-.212-1.417v-.07c.106 0 .177-.036.284-.072-.14-.035-.212-.106-.177-.248 0-.106.178-.177.142-.248-.035-.106-.142-.142-.248-.248v-.07c.212-.46-.07-.957.07-1.418.07-.142-.283-.354.07-.496v-.07c-.142-.25-.142-.214.14-.25.18 0 .356-.034.498-.034.106-.036.212 0 .283.035.178.104.355.21.497.317.107.07.142.496.107.638-.07.177-.213.46-.142.567.32.354-.035.78.107 1.17.14.424.035.885.035 1.31.035.354.035.673.07 1.027 0 .035.07.07.142.07.106.036.213.07.354.07.638-.034 1.24.107 1.878.178.71.106 1.453.14 2.162.176.318 0 .672.07.99.036.214-.036.426.035.674.07.39.072.85-.035 1.24.25.46.034.922.07 1.347.07zm-.39-3.933c-.104.033-.21.07-.352.104-.674-.142-1.418-.177-2.09-.39-.284-.07-.603 0-.887-.106-.176-.072-.39.034-.566-.178 0-.036-.177 0-.283 0-.283-.036-.566-.07-.85-.107-.106 0-.177-.035-.25-.07-.46-.036-.92-.107-1.344-.142-.496-.07-.992-.212-1.488-.247-.248-.036-.248-.177-.213-.355.036-.212.177-.177.32-.106.247.106.566.036.708.354 0 0 .106 0 .106-.035.035-.247.247-.176.353-.14.355.036.71.142 1.063.213.142.07.284.248.426.248.178.036.355-.07.497-.035.32.036.6.142.92.178.53.106 1.03.177 1.56.283.105 0 .105 0 .212-.142.035-.035.106-.035.14-.035.18.07.356.14.533.247.212.106.248.142.46.106.178-.035.355-.07.532-.07.177-.036.177 0 .354.212 0 .035.107 0 .177.035.036.037.07.072.142.143-.07 0-.107.036-.178.036zm8.754.246c-.07.212-.177.14-.32.14-.92-.176-1.84-.318-2.763-.46-.14-.035-.32-.07-.46-.106-.53-.105-1.062-.21-1.594-.317-.07 0-.106-.036-.142-.07-.07-.037-.106-.108-.177-.143l.213-.106h.353v-.036c.355.07.673.142.992.213.142 0 .284-.034.426 0 .32.073.604.144.887.18.07.034.142.105.213.105.78-.106 1.416.32 2.125.39.142.035.32 0 .248.213z"/><g class="text-group"><path class="text text-1" fill="#fefefe" d="M71.858 52.11h.07c-.034 0-.034-.036-.07-.036v.036z"/><path class="text text-2" fill="#2b2a29" d="M29.197 53.35c4.43.46-10.843 23.882-13.43 29.764-4.145 9.638 1.1 5.102 4.997.815 2.126-2.34 3.65-5.034 5.634-7.16l.14 1.382c-.21 4.606-6.766 13.146-10.63 15.414-1.84 1.063-6.66 2.232-7.936-1.134-4.464-11.835 33.378-56.197 2.304-23.28-9.603 10.17 5.42-17.22 18.92-15.803zm22.96 8.823c-2.657 8.716-18.885 26.114-6.98 26.61l2.232.248-1.844 1.42c-1.382.744-3.97 1.275-5.563 1.027C25.76 89.28 57.933 43.18 52.157 62.173z"/><path class="text text-3" fill="#2b2a29" d="M70.866 68.055c-3.756-1.488-5.74-1.914-9.85-.142-5.103 2.232-9.85 8.894-9.638 14.386.142 3.116 1.772 1.947 3.862.707 4.96-2.906 10.453-9.39 15.343-13.394l1.063-.85v.035c.78-.533 1.665-.71 2.338.282.85 1.276-.425 2.233-1.204 2.977l-.532.53c-2.16 3.047-4.075 9.886-4.5 12.366L67.5 86.48l-.673-1.488c-.39-1.595-.07-4.358.567-7.158-2.693 3.012-5.422 6.06-8.22 8.22-5.422 4.182-12.225 3.97-11.977-3.79.248-9.142 10.31-19.453 20.09-16.973 1.878.463 2.658 1.17 3.58 2.766z"/><path class="text text-4" fill="#2b2a29" d="M73.346 75.177c-.14.425-1.594 4.535-.744 4.96 0 0 1.595-.673 2.304-1.204 5.066-3.756 6.307-7.796 10.594-11.764.92-.85 2.55-2.695 3.97-1.278 1.38 1.31-.18 2.658-.816 3.544-1.737 2.41-4.748 8.433-2.126 11.16.318.32 1.807 1.525 1.807 1.525-1.666 0-2.34.07-3.58-1.31-1.275-1.42-1.664-3.296-1.487-5.28-2.41 2.62-5.032 5.03-8.256 6.307-3.19 1.31-5.35-.212-4.18-3.614.637-1.913.92-1.984 2.514-3.047zm21.474-2.41c1.452-.53 6.34-1.63 6.2-3.72-.07-.886-2.162.07-2.34.177-1.274.673-7.475 5.634-5.774 7.193 2.09 1.913 7.653.106 10.098 0v.035l-.673.603c-2.3 1.736-8.22 3.082-10.84 1.24-4.253-2.976 1.487-8.894 4.57-10.665 1.88-1.063 5.953-2.552 6.945.496.85 2.622-2.303 4.358-4.43 4.854-1.452.32-2.338.248-3.755-.213zM39.224 62.173c-2.622 8.716-16.122 25.618-4.393 26.15l2.2.248c-2.553 1.986-6.557 3.44-9.78 2.907-14.03-2.197 17.68-48.295 11.975-29.303z"/></g></g></svg>