<svg class="svg-icon icon-trefol" xmlns="http://www.w3.org/2000/svg" viewBox="0 0 144.739 106.747"><defs><linearGradient id="a" x1="6328.07" x2="6328.07" y1="5802.16" y2="4450.53" gradientTransform="matrix(.049 0 0 .049 66.163 161.546)" gradientUnits="userSpaceOnUse"><stop offset="0" stop-color="#009846"/><stop offset=".722" stop-color="#58B133"/><stop offset="1" stop-color="#B0CB1F"/></linearGradient></defs><g fill-rule="evenodd" clip-rule="evenodd" image-rendering="optimizeQuality" shape-rendering="geometricPrecision" text-rendering="geometricPrecision"><path class="border border-1" fill="#fefefe" d="M64.873 47.623l-.147.098-.05.05-.098.05-.05.05-.048.05h-.05l-.048.05-.098.047-.05.05-.05.05-.097.048-.098.05-.1.048-.1.05-.097.098-.098.05-.1.05-.146.097-.15.098-.146.1-.148.097-.196.05-.147.098-.147.1-.147.048-.2.098-.146.05-.197.048-.147.1-.196.048-.147.05-.197.097-.148.05-.147.05-.197.047-.147.05-.145.048-.197.098-.147.05-.147.05-.295.098-.098.05-.15.05h-.097l-.147.05-.1.05-.343.145h-.54l-.05.05H57.5l-.294-.05h-.098l-.147-.05-.097-.048h-.147l-.098-.05-.148-.05-.1-.048h-.097l-.1-.05-.146-.05-.098-.05-.1-.047-.1-.05-.097-.05-.1-.048-.048-.05-.098-.048-.098-.05-.1-.048-.05-.05-.097-.05-.05-.05-.097-.05-.05-.047-.098-.05-.05-.048-.098-.05-.05-.05-.05-.048-.097-.05-.246-.146-.197-.245-.05-.05-.05-.048v-.05h-.048v-.05h-.05v-.048l-.048-.05-.05-.05-.048-.05-.05-.047-.05-.1-.05-.097-.097-.05-.05-.048-.098-.1-.1-.097-.097-.097-.1-.148-.098-.098-.098-.098-.1-.1-.097-.098-.197-.197-.097-.1-.1-.097-.098-.098-.098-.148-.344-.295-.148-.344-.05-.097-.048-.098-.05-.05-.048-.098-.05-.098-.05-.1-.048-.048-.05-.1-.097-.097-.05-.098-.097-.1-.05-.098-.097-.147-.147-.197-.05-.098-.1-.098-.05-.148-.096-.098-.1-.148-.048-.098-.098-.147-.098-.098-.05-.147-.098-.148-.098-.147-.05-.147-.098-.148-.05-.196-.097-.15v-.048l-.05-.098-.05-.1-.05-.097-.05-.1-.096-.1-.05-.097-.048-.098-.05-.098-.048-.1-.1-.097-.048-.1-.05-.098-.097-.098-.05-.098-.05-.148-.097-.098-.05-.098-.147-.197-.05-.098-.05-.148-.097-.1-.05-.098-.098-.098-.05-.1-.098-.146-.05-.1-.048-.098-.1-.147-.05-.098-.146-.197-.05-.197-.05-.097-.05-.098-.048-.1-.05-.097-.048-.147-.05-.1-.048-.096v-.147l-.05-.1-.05-.147-.048-.147v-.1l-.05-.146-.048-.148v-.148l-.05-.148v-1.03l-.048-.05-.148-.097-.098-.098-.098-.1-.148-.147-.05-.098-.097-.1-.1-.097-.097-.148-.05-.1-.097-.097-.05-.098-.05-.1-.098-.097-.05-.098-.048-.098-.05-.1-.048-.097-.05-.098-.05-.05-.05-.1-.05-.146-.146-.294v-.1l-.097-.147v-.1l-.098-.196-.1-.295-.05-.197-.05-.197-.047-.196-.05-.197-.05-.197-.048-.196-.05-.197-.05-.245-.097-.344-.05-.197-.048-.196-.05-.195-.048-.197-.1-.195-.05-.197-.048-.197-.05-.196-.048-.197-.05-.245-.05-.197-.048-.197-.05-.197-.048-.196-.05-.246-.048-.196-.05-.197v-.245l-.05-.197-.048-.197-.05-.294V26l-.048-.15v-1.965l.05-.097v-.444l.048-.1V22.9l.05-.098V20.74l.05-.148v-.245l.048-.1v-.245l-.05-.245.295-.64v-.048l.05-.1.05-.05v-.098l.048-.05.05-.097.245-.54.295-.345.147-.146.05-.05.048-.05.1-.048.097-.098.05-.05.097-.048.1-.1.146-.048.148-.098.147-.05.147-.098.197-.05.097-.048h.1l.097-.05.098-.048.098-.05h.1l.146-.048.05-.05h.196l.098-.05h.197l.098-.048h.353l.05-.05h.587l.147-.048.148-.05h.148l.148-.048h.295l.15-.05h.687l.148.05H51.7l.098-.05h1.134l.146.05h.246l.147.05h.15l.196.048.148.05h.147l.15.048h.195l.148.05.147.048h.147l.147.05.147.05h.2l.146.048.148.05h.147l.15.048.146.05.148.048h.196l.147.05.147.05.148.048h.147l.145.05.148.048.147.05.15.05h.146l.148.048.245.05.195.097h.098l.1.05.097.048.148.05.1.05.146.048.147.05.15.048h.147l.148.05.147.05.198.1.147.05.148.047.196.05.148.048.147.05.197.05.148.048.148.05.196.048h.05l-.148-.146-.147-.197-.1-.147-.147-.198-.147-.147-.098-.197-.098-.197-.148-.145-.1-.197-.097-.196-.148-.147-.098-.196-.1-.198-.1-.196-.097-.197-.098-.148-.098-.197-.1-.197-.097-.196-.05-.197-.1-.246-.097-.197-.05-.196-.097-.196-.05-.196-.05-.245-.097-.197-.05-.198-.05-.246-.098-.345v-.344l-.05-.05v-.636l-.05-.05v-1.33l.05-.098v-.344l.05-.098V9.24l.05-.148v-.246l.048-.098v-.344l.05-.147V8.01l.05-.097v-.246l.048-.246v-.39l.05-.147v-.245l.05-.098v-.25l.048-.147v-.147l.05-.197v-.15l.048-.098v-.146l.05-.098v-.05l.048-.098v-.196l.05-.098v-.1l.05-.048V4.62l.048-.1v-.097l.05-.147.048-.1V4.08l.05-.1.048-.097.05-.1v-.146l.05-.098.048-.1.05-.148.097-.098.05-.1.05-.146.05-.1.098-.098.05-.147.245-.295.295-.246.147-.098.148-.098.196-.1.147-.048.147-.05.148-.097.1-.05.146-.05h.148l.098-.047.098-.05h.1l.097-.048h.05l.047-.05h.098V1.23h.05l.05-.05h.048l.05-.05h.05l.048-.05h.1l.05-.048.195-.098.344-.1.196-.048.197-.05.196-.048h.196l.196-.05.245-.048.197-.05.196-.05h.197l.196-.048.198-.05h.198l.196-.048h.198l.196-.05.197-.048h.394l.196-.05h.197l.197-.05h.393l.19-.046h.64l.195-.05h2.458l.246-.05h1.228l.247.05h.786l.246.048h.243l.295.05.245.05.295.048.246.05.295.048.245.098.295.1.247.097.295.096.245.098.295.148.394.197.196.146.098-.05h.1l.146-.048.098-.05h.148l.098-.05h.098l.1-.05h.195l.148-.048h.25l.097-.05h.983l.098.05h.395l.147.05h.147l.098.048h.246l.15.05h.097l.147.05h.1l.147.048h.1l.147.05h.098l.1.048h.147l.098.05h.098l.1.048h.146l.097.05h.1l.098.05h.147l.1.048.245.05.197.048.147.05.098.048.098.1.098.048.05.05h.05l.244.097.197.05.245.1.246.1.247.096.246.1.197.097.245.098.246.1.247.098.196.097.246.098.245.148.246.1.246.1.198.146.246.098.245.148.196.098.247.148.245.148.197.147.245.098.196.15.247.197.197.147.244.147.197.15.247.195.196.148.246.246.294.293.147.148.198.198.098.147.15.098.097.1.05.097.097.048.048.05v.048l.05.05h.05l.048.05.098.048.098.098.1.05.097.048.097.1.1.048.097.05.098.097.1.05.097.048.097.1.097.048.1.1.097.05.098.1.1.047.097.098.097.05.098.098.1.098.097.05.05.098.098.1.098.048.098.098.098.098.1.05.048.1.098.097.246.245.196.295.1.196.097.197.097.197.05.197.05.197.048.246.05.246.048.197v.244l-.048.197v.247l-.05.197-.048.197-.05.196-.098.295-.197.394-.148.294-.147.294-.148.295-.196.294-.147.295-.196.294-.196.246-.147.294-.197.295-.197.246-.197.295-.246.247-.196.245-.196.296-.197.246-.244.246-.197.245-.247.246-.246.246-.197.246-.246.197-.244.245-.246.246-.246.245-.197.197-.244.247-.246.195-.246.197-.245.246-.247.196-.198.148-.05.05-.097.097-.1.147-.146.098-.1.098-.147.1-.098.098-.147.1-.1.097-.146.1-.098.097-.148.05-.098.098-.148.1-.098.048-.147.098-.1.098-.146.05-.1.098-.146.05-.098.048-.148.098-.098.05-.1.098h-.048.54l.197.05h.244l.245.048h.49l.247.05.245.048h.246l.245.05.295.05.245.048.148.05h.148l.197.048.147.05.148.048h.196l.148.05.147.05.198.048.147.05.148.048.147.05h.197l.146.048.148.05.197.05.148.048.147.05.197.048.146.05.147.05.196.048.147.098.148.05.147.048.197.05.146.05.147.048.196.098.147.05.247.097.196.1.197.098.147.05.148.097.147.05.147.098.147.098.147.1.15.098.146.05.147.097.196.1.147.098.148.098.148.148.147.098.148.098.148.098.147.148.148.098.148.148.148.147.147.097.148.15.148.146.148.148.098.148.147.15.15.195.1.148.145.197.197.343.098.295.05.098v.05l.05.05v.14l.05.096v.05l.048.097v.148l.05.05v.147l.048.097v.148l.05.05v.146l.05.097v.2l.048.096v.198l.05.097v.15l.048.245-.05.295v.197l-.048.147v.148l-.05.196v.148l-.05.147-.048.148-.05.15-.048.147v.147l-.05.147-.048.15-.05.146-.05.148-.048.147-.05.15-.048.097-.05.147-.098.148-.05.1-.048.147-.05.146-.048.098-.05.148-.048.098-.05.098-.05.148-.097.245-.05.1-.048.097-.05.05v.048l-.05.1-.097.146-.05.05v.05l-.048.05-.05.05v.047l-.048.05-.05.048v.05l-.05.048v.05l-.048.05v.048l-.05.05-.048.05v.05l-.05.047-.05.05v.05l-.048.048-.05.05-.048.048-.05.098-.048.05-.05.1-.05.05-.048.096-.05.1-.048.097-.098.098-.05.1-.196.245-.147.197-.1.05-.048.098-.1.05-.05.098-.147.147-.098.05-.05.048-.097.1-.05.05-.05.097-.098.05-.05.098-.098.05-.05.097-.097.05-.05.097-.097.05-.05.097-.05.05-.097.047-.05.098-.096.05-.05.098-.147.148-.1.05-.196.246-.195.197-.197.246-.196.244-.196.198-.148.196-.147.148-.147.197-.147.146-.098.146-.1.1-.097.146-.097.097-.098.1-.1.096-.048.098-.1.05-.048.098-.05.05-.05.048-.05.05-.05.048-.047.05v.05l-.05.048h-.048v.05l-.05.048h-.05v.05l-.048.048-.147.148-.197.098-.05.05-.097.098-.05.05-.1.048-.048.05-.098.048-.098.05-.1.048-.097.05-.1.05-.098.048-.098.05h-.1l-.147.048-.098.05-.098.048h-.148l-.1.05-.05.098-.096.196-.1.197-.098.147-.147.295-.198.246-.147.15-.147.146-.147.146-.147.1-.147.146-.147.097-.1.147-.146.098-.1.098-.146.1-.098.098-.1.1-.097.1-.098.096-.198.147-.295.246-.196.147-.245.098-.196.147-.196.147-.197.146-.195.148-.198.147-.197.147-.245.1-.197.146-.197.148-.195.148-.197.098-.245.148-.197.147-.196.15-.196.097-.197.147-.245.148-.196.148-.198.1-.196.146-.197.148-.197.098-.344.196-.296.197-.197.147-.196.148-.196.098-.246.148-.196.147h-.05l-.05.05-.195.148h-.05l-.097.05-.05.05-.05.05h-.048l-.1.047-.048.05-.05.05-.048.048h-.1l-.05.05-.05.048-.047.05-.098.048h-.05l-.048.05-.1.05-.048.05-.05.05h-.05l-.097.047-.1.098-.146.05-.147.098-.1.05-.146.048-.097.05-.1.05-.097.05h-.148l-.098.05-.098.047h-.098l-.1.05h-.097l-.146.048h-.197l-.098.05h-.29l-.05.048h-.786l-.098.05h-.295l-.244-.05h-.147l-.1-.05h-.1l-.145-.048-.098-.05h-.1l-.097-.048h-.05l-.098-.05-.05-.05h-.098l-.05-.048h-.048l-.05-.05-.196-.05-.295-.196-.098-.048-.147-.098-.1-.098-.146-.1-.098-.097-.148-.05-.098-.098-.1-.1-.097-.097-.147-.098-.1-.1-.097-.097-.1-.098-.098-.098-.197-.197-.147-.197-.05-.05-.05-.048-.05-.05-.048-.097v-.05l-.05-.05-.048-.097-.05-.05-.05-.096-.048-.048-.098-.1-.05-.097-.048-.15-.1-.097-.146-.247-.098-.245-.05-.1-.688-.784.197-.344-.05-.1-.048-.098-.05-.098-.05-.098V49.1l-.048-.1-.05-.097-.05-.097-.048-.1-.05-.146-.05-.197-.05-.098v-.147l-.05-.1-.047-.097v-.097l-.098.246-.737 1.67-.737 1.67-.736 1.67-.786 1.574-.836 1.525-.786 1.473-.835 1.375-.884 1.278-.836 1.13-.933 1.082-.886.884-.982.786-1.03.59-1.13.442-1.23.098-1.23-.246-1.08-.54-2.8-2.015 1.57-1.72.296-.345.295-.245.246-.246.295-.246.296-.196.245-.197.296-.146.246-.197.246-.147.244-.15.246-.146.246-.148.196-.196.295-.148.246-.196.247-.246.294-.246.296-.245.343-.347.343-.344.344-.394.394-.442.443-.492.442-.54.443-.64.492-.638.54-.737.59-.786.54-.884.64-.934.64-.983.392-.69.393-.687.246-.442-.097.1-.098.05-.1.096-.097.05-.098.098"/><path class="border border-2" fill="#fefefe" d="M72.786 29.832v-.688c0-.05.05-.098.098-.147 0 0 .05 0 .05.05 0 .146 0 .294.05.49-.1.1-.15.197-.198.295zm-.098-.737c-.885 1.523-2.015 3.047-2.605 4.718-.492 1.77-.786 3.588-1.278 5.406-.64 1.817-1.474 3.49-2.605 5.11-.688.884-1.425 1.67-2.31 2.41l-1.18.784c-.982.688-3.34 1.376-4.472 1.818-.196 0-.393.05-.59.05-.835-.148-1.523-.64-2.26-1.13-.05-.1-.098-.148-.59-.738L53.275 46c-.1-.195-.197-.392-.344-.588-.342-.64-.834-1.23-1.227-1.82-.147-.245-.246-.54-.344-.785l-.886-1.475c-.344-.59-.688-1.13-1.08-1.67-.05-.1-.1-.197-.148-.295-.197-.492-.443-.983-.492-1.524.1.344.246.688.393.983.05.098.1.197.148.295.344.59.737 1.13 1.08 1.673.296.49.59.983.837 1.523.1.246.246.492.394.738.393.638.884 1.228 1.228 1.867.1.198.246.345.344.54.492.54.983 1.034 1.475 1.574.54.54.54.64.64.738.688.443 1.425.984 2.26 1.082h.59c1.13-.442 3.49-1.13 4.473-1.868.737-.442.737-.442 1.13-.737.934-.738 1.622-1.574 2.36-2.458 1.13-1.573 1.965-3.244 2.604-5.062.49-1.82.786-3.637 1.278-5.456.59-1.67 1.72-3.194 2.604-4.718h.098v.54zm-23.837 6.88c-.047 0-.096 0-.145-.05.147-.097.344-.244.393-.392h-.442c-.688-.098-1.13-.54-1.475-1.032-.05-.145-.146-.342-.244-.49-.1-.196-.197-.393-.246-.59-.443-1.77-.984-3.54-1.377-5.307.393 1.622.835 3.195 1.23 4.767.097.196.195.392.293.638.05.148.148.344.246.492.344.49.787.884 1.475 1.032.147 0 .294-.05.442-.05-.05.197-.248.295-.395.443.05 0 .147.05.196.05h.493c-.05.146-.295.294-.393.392 0 .05-.048.05-.048.1zm24.478-8.6c-.05 0-.05-.05-.1-.05-.048-.147-.097-.245-.146-.343-.638-.59-1.375-1.18-1.916-1.868-.737-.64-1.474-1.278-2.26-1.867-.935-.934-1.868-1.82-2.9-2.704-1.033-.688-1.917-1.474-2.753-2.36-.44-.54-.834-1.03-1.178-1.57-.64-1.033-1.08-2.115-1.376-3.343v-.1c.294 1.033.687 2.016 1.227 2.9.344.542.738 1.082 1.18 1.623.885.835 1.77 1.622 2.8 2.36.984.834 1.967 1.72 2.9 2.653.738.64 1.524 1.228 2.262 1.916.54.69 1.227 1.23 1.915 1.82.05.146.1.245.148.343.05.05.098.098.098.147.05.1.15.197.198.295-.05.1-.05.148-.1.148zM77.65 3.833c.05 0 .05.05.1.05v.245s0 .05-.05.05c0-.05 0-.197-.048-.345zm.296.64c.05-.05.05-.1.1-.148v.295h-.05s0-.1-.05-.148zm17.546 7.175c.147.393.147.786-.05 1.327-1.375 2.95-3.685 5.455-6.24 7.568-.935.983-2.262 1.622-3.44 2.31-.444.246-.935.492-1.377.737h-.05c-.54.246-1.228.64-1.818.69v.048c-.737.245-.737.245-1.867.64-1.426.588-2.95 1.03-4.375 1.57-.344.247-1.228.444-1.572.837-.05-.1-.148-.148-.197-.197-.05-.64 1.18-.835 1.67-1.13 1.426-.59 2.95-.983 4.375-1.573 1.133-.393 1.133-.393 1.82-.64.05 0 .05-.048.05-.048.59-.098 1.278-.442 1.77-.737.05 0 .05.05.05.05.49-.247.98-.493 1.423-.738 1.18-.688 2.458-1.327 3.392-2.31 2.555-2.163 4.914-4.62 6.29-7.57.1-.343.148-.59.148-.834zm3.833 19.51c.148.394.197.837.246 1.28-.097 1.326-.735 2.604-1.276 3.88-.442.69-.442.69-1.278 1.967l-2.31 2.31c-2.36 2.752-2.36 2.752-2.604 3.047-.638.443-1.277.787-2.064.492-.245-.197-.294-.246-.393-.295 0-.15-.098-.297-.245-.494.05 0 .05-.05.05-.05.146.05.146.05.49.296.737.295 1.425-.05 2.064-.49.246-.247.246-.247 2.605-3 .736-.786 1.523-1.572 2.26-2.31.884-1.277.884-1.277 1.327-1.965v-.05c.54-1.228 1.18-2.506 1.278-3.832-.05-.295-.1-.54-.148-.787zm-9.583 13.025c.245.54.05.983-.344 1.622-.54.64-1.278 1.13-1.868 1.72-2.113 1.523-4.325 2.9-6.487 4.276-.688.444-1.327.837-2.015 1.28-.738.393-1.524.393-2.36.44-.344-.047-.638-.195-.933-.342-.59-.344-1.08-.737-1.524-1.23-.244-.245-.293-.343-.54-.736-.195-.49-.195-.49-.293-.54.05 0 .05-.05.05-.05l-.1-.097c-.196-.492-.393-1.032-.59-1.573-.196-.49-.294-.983-.393-1.474.05.344.148.64.246.983.245.49.442 1.03.638 1.57.05 0 .05.05.1.05-.05.05-.05.05-.05.1.048.05.048.05.294.49.246.444.295.493.492.788.49.49.983.884 1.523 1.228.344.1.64.246.983.295.836-.05 1.573-.05 2.36-.44.687-.394 1.326-.837 2.014-1.23 2.163-1.425 4.374-2.8 6.488-4.276.59-.638 1.327-1.08 1.867-1.77.244-.392.39-.736.44-1.08zM74.555 29.34c-.05.148-.098.246-.147.345v-.738c0-.05.05-.098.05-.147.048 0 .097 0 .097.05v.49zm-.295-.442c-.05.1-.098.246-.147.393.147.396.05 1.477-.246 3-.147.738-.344 1.475-.49 2.163-.15.54-.296 1.08-.444 1.622-.294.983-.64 1.916-.933 2.85-.1.393-.197.787-.295 1.13-3.686 11.403-10.91 27.08-15.973 23.493l-.688-.492.246-.245.295.246c7.52 5.26 19.61-31.257 18.38-34.304.1-.147.148-.294.246-.44 0 .048.05.048.05.097v.49zM71.705 41.48c.05-.688.245-1.376.393-2.015.49-1.376.934-2.752 1.327-4.128.05-.1.05-.246.05-.344.44-1.72.834-3.49.884-5.26.194.492.096 1.574-.248 3.097-.148.737-.295 1.425-.442 2.064v.05c-.147.49-.294 1.03-.442 1.62-.295.935-.64 1.87-.983 2.803-.05.393-.147.786-.245 1.18-.1.294-.197.638-.295.933z"/><path class="dark" fill="#434242" d="M54.503 62.27c2.704-3.146 4.13-.886 11.452-12.386 4.423-7.667 6.93-14.89 6.733-21.33h-.1c-.883 1.524-2.014 3.047-2.603 4.718-.492 1.82-.787 3.637-1.278 5.456-.64 1.818-1.475 3.49-2.605 5.062-.737.884-1.425 1.72-2.36 2.457-.392.295-.392.295-1.13.737-.982.738-3.34 1.426-4.472 1.868h-.59c-.835-.098-1.572-.64-2.26-1.08-.1-.1-.1-.198-.64-.74-.54-.588-1.03-1.13-1.572-1.67-.59-1.228-1.67-2.26-2.113-3.538-.64-1.18-1.425-2.26-2.114-3.44-.44-.885-.784-2.015-.243-2.95.147-.147.344-.245.393-.44-.15 0-.296.048-.443.048-1.082-.197-1.573-1.13-2.015-2.015-.1-.197-.197-.394-.246-.59-.54-2.113-1.18-4.178-1.573-6.34-.05-1.08-.05-2.064.1-3.096v-1.77c.048-.686.195-1.226.146-1.275.096-.197.195-.394.293-.54l.246-.443c.195-.196.49-.442.834-.442.64-.393 1.23-.344 2.015-.393.59-.147 1.08-.196 1.67-.147.737-.05 1.425.05 2.163-.05.245.05.49.05.737.05 1.623.245 3.195.64 4.768 1.032 1.08.442 3.54 1.08 4.62 1.523 1.327.344 2.36.934 3.44 1.67.393.296.786.64 1.13.935.443.442.836.836 1.524 1.475.344.294.688.54 1.032.835l1.032.59c.492.196.492.196 1.032.442.344.246 1.327.983 1.622.295-.05-.098-.098-.197-.147-.344-.688-.59-1.376-1.13-1.917-1.817-.737-.69-1.524-1.278-2.26-1.917-.935-.935-1.918-1.82-2.9-2.655-1.033-.737-1.917-1.524-2.802-2.36-1.376-1.67-2.31-3.292-2.8-5.405-.05-.738-.1-1.426-.05-2.212.196-1.278.295-2.605.49-3.883.198-.884.345-1.867.886-2.604.442-.392.934-.49 1.474-.64.246-.146.492-.244.737-.342 1.968-.492 3.934-.737 5.998-.787 2.458 0 5.062-.392 7.225.837.196.196.393.344.54.59.05.442.1.835.1.933.048 0 .048-.05.097-.05.048-.195.147-.392.196-.588.442-.64 1.573-.74 2.31-.837 1.18.05 2.408.393 3.538.64.197.048.295.097.443.196 2.408.933 4.816 1.916 6.733 3.587 1.18 1.23 1.18 1.23 1.425 1.475.983.59 1.917 1.28 2.703 2.065.393.64.442 1.08.197 1.818-1.376 2.95-3.735 5.406-6.29 7.57-.935.982-2.213 1.62-3.392 2.31-.443.245-.934.49-1.426.736 0 0 0-.05-.05-.05-.49.296-1.178.64-1.768.738 0 0 0 .05-.05.05-.69.245-.69.245-1.82.638-1.425.59-2.95.983-4.373 1.573-.492.294-1.72.49-1.67 1.13.048.05.146.1.195.196.786.05 1.622-.05 2.408-.197 1.23-.296 2.31-.787 3.442-1.23l1.18-.294c.835-.197 1.08-.197 1.18-.246 2.456-.394 4.815-.394 7.272 0 1.67.343 3.342.785 4.915 1.424 1.472.737 3.045 1.67 3.93 3.096.196.64.344 1.278.442 2.015-.098 1.327-.737 2.605-1.278 3.834v.047c-.442.688-.442.688-1.327 1.966-.737.737-1.523 1.523-2.26 2.31-2.36 2.752-2.36 2.752-2.605 2.998-.64.443-1.327.787-2.064.49-.345-.244-.345-.244-.493-.293 0 0 0 .05-.05.05.493.737.345 1.18-.097 1.916-.54.688-1.278 1.13-1.868 1.77-2.113 1.474-4.325 2.85-6.487 4.275-.688.392-1.327.835-2.015 1.228-.787.393-1.524.393-2.36.442-.343-.05-.638-.196-.982-.295-.54-.344-1.032-.737-1.524-1.228-.246-.344-.246-.344-.786-1.23-.197-.44-.197-.44-.295-.54.05 0 .05-.05.05-.05-.05 0-.05-.048-.1-.048l-.59-1.623c-.342-1.032-.54-2.113-.686-3.243-.05-.64-.05-1.277-.05-1.916-.245-1.278.1-2.605.394-3.883.442-1.375.934-2.702 1.327-4.08 0-.145.05-.244.05-.39.49-2.016.933-4.03.884-6.046 0-.05-.05-.05-.05-.098-.098.146-.147.293-.245.44 1.228 3.048-10.862 39.564-18.38 34.305l-1.082-.785z"/><path class="gradient" fill="url(#a)" d="M377.656 407.673v-.737h-.1c-.883 1.523-2.014 3.047-2.604 4.718-.49 1.818-.786 3.637-1.277 5.455-.64 1.817-1.475 3.49-2.605 5.06-.737.885-1.425 1.72-2.36 2.46-.392.292-.392.292-1.13.735-.983.737-3.342 1.425-4.472 1.867h-.59c-.835-.098-1.572-.64-2.26-1.08-.1-.1-.1-.197-.64-.738-.49-.54-.982-1.032-1.474-1.573-.098-.195-.245-.343-.344-.54-.344-.64-.835-1.23-1.228-1.867-.148-.246-.295-.49-.394-.737-.245-.54-.54-1.032-.835-1.524-.344-.54-.737-1.08-1.08-1.67l-.15-.296c-.44-.884-.834-1.965-.245-2.948.1-.1.344-.247.394-.395h-.492c-.05 0-.147-.05-.196-.05.147-.146.344-.244.393-.44-.148 0-.295.048-.443.048-.688-.146-1.13-.54-1.474-1.03-.098-.147-.197-.344-.246-.49-.098-.247-.196-.444-.295-.64-.493-2.114-1.18-4.178-1.525-6.29-.1-1.08-.05-2.065.098-3.147v-1.77c.05-.687.148-1.227.148-1.227.1-.197.197-.394.246-.59.05 0 .05 0 .246-.393.246-.197.54-.492.885-.492.64-.343 1.228-.343 1.966-.392.59-.15 1.13-.15 1.72-.1.737-.05 1.425.05 2.162-.05h.737c1.622.247 3.195.64 4.768 1.083 1.082.394 3.49 1.08 4.62 1.475 1.278.344 2.36.934 3.44 1.67.394.345.738.64 1.13.984.443.393.787.835 1.476 1.474.344.246.737.492 1.08.787l1.033.59c.49.197.49.197 1.03.49.344.2 1.28.936 1.622.248-.05-.1-.148-.198-.197-.296 0-.05-.05-.1-.098-.148-.05-.098-.1-.196-.148-.344-.69-.59-1.377-1.13-1.917-1.818-.738-.688-1.524-1.278-2.26-1.917-.935-.934-1.918-1.818-2.9-2.654-1.033-.736-1.917-1.522-2.802-2.36-.44-.54-.835-1.08-1.18-1.62-.59-.983-1.03-2.064-1.326-3.292-.05-.787-.098-1.475-.05-2.212.198-1.327.296-2.654.444-3.932.244-.884.392-1.867.932-2.605.394-.344.934-.44 1.475-.638.246-.1.49-.246.737-.344 1.966-.493 3.932-.74 5.996-.788 2.408.05 5.013-.344 7.175.836.148.098.246.196.344.295 0 .394.048.69.048.787.05 0 .05-.05.1-.05.048-.1.097-.197.097-.344.05.393.05.786.1.835.048 0 .048 0 .097-.048.05-.196.097-.393.196-.59.392-.64 1.57-.737 2.31-.786 1.178.05 2.358.344 3.537.59.148.05.295.098.393.245 2.458.885 4.866 1.917 6.783 3.59 1.18 1.227 1.18 1.227 1.424 1.423.934.59 1.818 1.23 2.605 2.015.195.442.195.835 0 1.425-1.378 2.95-3.737 5.406-6.29 7.568-.936.984-2.214 1.623-3.393 2.31-.442.247-.933.493-1.425.738 0 0 0-.05-.05-.05-.49.296-1.178.64-1.768.74 0 0 0 .048-.05.048-.687.245-.687.245-1.818.64-1.426.588-2.95.98-4.375 1.57-.49.296-1.72.493-1.67 1.132.05.05.148.098.197.196h.148c-.05.1-.098.148-.098.295.098.05.148.1.246.15.786.096 1.622-.05 2.408-.15 1.18-.295 2.26-.835 3.44-1.23.984-.244.984-.244 1.18-.343.836-.147 1.08-.196 1.18-.245 2.458-.344 4.817-.344 7.225 0 1.72.393 3.342.835 4.964 1.425 1.326.688 2.75 1.523 3.685 2.703.196.64.295 1.28.393 1.967-.098 1.327-.736 2.605-1.277 3.833v.05c-.44.687-.44.687-1.326 1.965-.737.737-1.523 1.524-2.26 2.31-2.36 2.752-2.36 2.752-2.605 2.998-.64.442-1.327.786-2.065.492-.344-.246-.344-.246-.49-.295 0 0 0 .05-.05.05.49.736.344 1.178-.1 1.916-.54.688-1.276 1.13-1.866 1.77-2.114 1.473-4.326 2.85-6.488 4.275-.69.395-1.327.837-2.015 1.23-.787.393-1.524.393-2.36.443-.344-.05-.638-.197-.982-.295-.54-.344-1.033-.738-1.524-1.23-.196-.294-.245-.343-.49-.785-.246-.443-.246-.443-.295-.492 0-.05 0-.05.05-.097-.05 0-.05-.05-.1-.05-.196-.54-.393-1.08-.64-1.572-.343-1.08-.49-2.16-.637-3.243-.05-.64-.05-1.327-.05-1.966-.246-1.276.05-2.603.343-3.88.493-1.328.935-2.704 1.378-4.08 0-.148 0-.246.05-.394.49-1.965.932-3.98.883-6.045 0-.05-.05-.05-.097-.05-.05.1-.1.248-.197.395v-.786c0-.05-.05-.05-.05-.1-.097.148-.146.296-.245.443 1.23 3.047-10.86 39.563-18.38 34.305l-.64-.492c2.606-2.9 4.13-.934 11.256-12.237 4.473-7.62 6.98-14.893 6.733-21.28 0-.05-.05-.05-.05-.05-.097.097-.146.195-.195.294zm-1.13 11.697c.098-.688.245-1.376.442-2.064.442-1.376.933-2.703 1.326-4.08 0-.147.05-.245.05-.393.393-1.72.835-3.44.884-5.21.393 1.082-.737 5.948-2.703 11.747z" transform="translate(-304.968 -378.38)"/><path class="text-light" fill="#fefefe" d="M20.05 76.474v-.05l-.048-.098-.05-.098v-.1l-.982-3.34H1.18l-.984 3.34v.1l-.05.098-.048.1v.048l-.05.098v.1L0 76.768v.246l.05.097v.1l.097.098.05.098.147.1.147.048h.2l.196-.098.1-.05.097-.098.1-.05.05-.097.097-.05.05-.097.098-.05.098-.097.098-.148.15-.098.097-.1.15-.097.097-.148.148-.098.148-.1.148-.098.1-.1.146-.147.15-.098.195-.098.15-.1.146-.097.148-.1.196-.048.148-.098.196-.098.148-.1.196-.05.197-.048.196-.098.197-.05.197-.05.195-.048.196-.05h.246l.196-.048h.246l.197-.05h.64l.146.05h.147l.1.05h.097l.1.048h.048v.05h.05v.048l.048.05v.098l.05.098V87.43l-.05.195v.49l-.05.15v.1l-.048.145v.1l-.05.097v.1l-.048.098-.05.098v.05l-.05.098-.048.05-.05.05-.05.05-.048.047-.05.1-.048.048-.05.05-.048.048-.1.05H7.08l-.05.048-.1.05-.097.05-.05.05h-.098l-.098.047h-.05l-.147.05-.147.05-.148.146-.098.295.05.198.048.147.1.147.097.05.148.05.098.048h.098l.1.05h.048l.05-.05h1.18l.147-.05h3.886l.098.05h1.276v.05h.05l.147-.05.148-.05.098-.048.05-.05.098-.098.05-.05.1-.147.05-.196-.1-.246-.098-.147-.098-.1-.098-.048-.1-.05-.097-.05h-.148l-.1-.05-.195-.047-.148-.05-.148-.048-.1-.1-.097-.048-.1-.098-.097-.15-.05-.097-.097-.148-.05-.147-.05-.148-.05-.197v-.197l-.047-.196V74.9l.05-.098v-.098l.048-.05v-.05h.05v-.048h.05l.098-.05h.098l.1-.048h.146l.15-.05h.638l.196.05h.246l.196.05h.246l.197.048.196.05.197.048.197.05.195.098.197.05.196.048.148.1.196.097.148.098.196.05.148.098.147.098.15.1.196.1.148.097.147.148.1.098.147.1.148.097.147.097.1.148.147.098.097.1.148.097.098.148.15.098.048.05.05.097.098.05.05.098.098.05.098.1.1.05.196.097h.197l.147-.05.147-.098.05-.1.1-.097v-.1l.05-.097v-.246l-.05-.1v-.098l-.05-.098zm16.22-2.31l-.295-.148-.344-.196-.293-.1-.344-.146-.344-.098-.345-.148-.344-.05-.343-.097-.344-.097-.344-.05-.345-.048-.344-.05-.343-.048-.344-.05h-.295l-.344-.048H20.887l-.1.05-.146.047-.097.147-.098.148-.05.246.05.197.098.197.148.05.1.048.05.05h.05l.096.048h.05l.146.098.1.05.098.098.1.098.048.1.05.097.048.147.05.098.048.147.05.148v.393l.048.15v11.643l-.05.197v.59l-.048.147v.1l-.05.146v.198l-.048.097-.05.1v.1l-.048.05-.05.097v.05l-.048.097-.05.05-.05.048-.048.05-.05.05-.048.05-.05.048-.097.05-.05.048-.098.05-.1.097-.05.05-.1.05h-.097l-.097.048h-.05l-.098.05-.098.05-.15.097-.146.295.05.246.097.148.05.1.1.048.098.05.1.048h.097l.098.05h.05l.05-.05h.736l.097-.048h4.378l.1.05h1.37l.05.048h.047l.098-.05h.1l.097-.048.097-.05.1-.098.097-.098.05-.147.05-.296-.197-.295-.197-.05-.1-.05-.097-.05h-.15l-.097-.048-.1-.05h-.097l-.197-.097-.148-.1-.148-.097-.147-.098-.098-.1-.1-.097-.05-.1-.096-.097-.05-.147-.05-.1-.048-.146v-.197l-.05-.147v-5.407h.35l.097.05h1.18l.1.048h1.323l.392-.047h.738l.393-.05.392-.048.393-.05.392-.05.393-.048.443-.05.393-.097.394-.1.393-.098.393-.098.394-.148.393-.098.393-.148.344-.196.344-.148.344-.196.295-.197.344-.197.247-.245.295-.244.244-.246.197-.296.198-.295.148-.346.147-.344.1-.343.048-.344.05-.393-.05-.393-.05-.344-.047-.344-.148-.346-.147-.344-.148-.294-.196-.246-.246-.295-.197-.245-.293-.197-.247-.246-.295-.147-.295-.197zm-2.31 4.08l-.05.196-.048.147-.05.197-.098.147-.05.2-.097.146-.1.148-.146.147-.097.15-.147.146-.147.147-.198.1-.146.146-.197.1-.198.145-.196.1-.246.097-.197.1-.244.048-.296.1-.245.048-.296.098-.295.05-.296.05-.344.048h-.294l-.344.05h-2.168l-.147-.05h-.295l-.148-.05h-.147l-.05-.05V74.41h3.197l.197.05h.492l.247.05h.196l.245.048.246.05.197.048.245.05.197.048.197.05.246.098.197.05.196.097.197.096.148.1.196.097.15.148.146.1.147.147.1.098.146.147.1.148.096.148.098.148.05.196.05.197.048.195.05.196.05.198v.44l-.05.2v.195zM57.845 86.4l-.05-.048v-.098l-.048-.147-.098-.1-.1-.097-.1-.05h-.293l-.148.05-.1.05-.098.097-.148.05-.098.098-.148.098-.1.148-.147.1-.146.147-.147.148-.198.147-.198.15-.147.146-.197.1-.195.146-.197.148-.246.098-.196.147-.197.1-.246.097-.196.148-.246.098-.195.098-.246.1-.247.097-.196.05-.246.098-.245.1-.196.048-.247.1-.246.05-.197.05-.245.047-.197.05h-.246l-.197.048-.197.05H45.8l-.245-.05-.246-.05-.198-.048-.147-.05-.098-.048-.1-.1-.097-.098-.1-.1-.048-.147-.05-.147-.048-.197-.05-.246v-.295l-.048-.345v-5.21h4.08l.196.05h.883l.147.05h.196l.148.048h.197l.148.05h.148l.148.048.147.05.148.05.148.05.148.05.147.096.098.05.15.098.097.05.1.097.147.1.1.098.097.098.05.148.098.098.1.15.05.146.097.148v.098l.05.098.05.1.048.097.05.097.195.148.246.05.246-.05.196-.148.1-.147.048-.148v-5.458l-.05-.1-.098-.146-.196-.15-.197-.048h-.196l-.15.05-.097.098-.1.05-.048.097-.05.1-.048.097-.05.05v.098l-.048.05-.05.097-.05.048-.048.1-.05.048-.05.098-.097.05-.05.1-.097.05-.098.096-.1.048-.098.1-.098.048-.15.098-.097.05-.147.048-.098.05-.147.048-.147.05-.147.05-.148.048-.147.05-.147.048-.147.05h-.148l-.196.048h-.295l-.196.05h-4.86v-6.19h4.766l.197.05h.49l.198.05h.248l.245.048.246.05.196.048.245.05.247.048.197.05.245.098.196.05.197.097.245.05.197.096.196.098.198.1.197.097.196.1.15.098.195.146.148.1.147.097.147.15.147.147.148.1.098.146.147.147.1.15.097.146.05.1.048.097.1.05.048.048.098.1.1.05.146.05h.148l.196-.05.148-.05.098-.1.098-.096.05-.098v-.1l.05-.097v-.296l-.05-.1v-.146l-.05-.1v-.048l-.05-.1v-.147l-.048-.048v-.05l-.05-.097v-.1l-.048-.048-.835-2.85H39.12l-.098.048-.148.098-.196.1-.098.195v.248l.098.246.147.147.1.1h.097l.1.05.097.05h.047l.098.047.1.05h.097l.05.048h.048l.05.05.05.048.05.05.048.05.05.048v.05l.048.05v.05l.05.096.048.05v.098l.05.098v.148l.048.097v.246l.05.098v.69l.05.147V86.45l-.05.197v.883l-.05.148v.296l-.05.098v.246l-.048.098-.05.1v.097l-.048.05v.098l-.05.1-.048.05-.05.1v.047l-.048.05-.05.097-.05.05-.097.048-.05.05-.048.098-.1.05-.048.05-.098.048-.05.05-.05.048-.1.05-.146.05-.098.048-.148.05-.198.146-.196.295.147.393.198.197.147.05h.295l.148.048H56.47l1.277-4.226v-.1h.05V86.5l.048-.097zm15.187-11.548l-.443-.05h-.346v-.147l.05-.097v-.098l.048-.1.05-.05.05-.097.048-.05.05-.05.05-.048.048-.05h.098l.05-.048h.098l.098-.05.1-.097.097-.1.097-.097.05-.1v-.146l.048-.147-.1-.295-.244-.148-.147-.05-.147-.048h-1.132l-.148.047h-.393l-.147.05H69.44l-.147-.05h-.49l-.148-.05h-1.23l-.147.05-.147.05-.196.147-.098.295v.146l.05.147.048.1.05.097.097.1.1.098.147.05h.048l.1.048h.048l.098.05.05.048.05.05.05.05v.097l.05.05.047.1.05.098v.098l.048.1v.048h-.344l-.44.05-.493.048-.442.05-.443.1-.442.097-.393.097-.442.1-.443.146-.393.1-.443.196-.393.147-.394.196-.393.197-.344.196-.393.197-.344.246-.296.244-.344.296-.295.295-.244.296-.246.296-.246.345-.246.345-.147.343-.196.393-.147.394-.098.393-.05.393-.05.442-.05.442.05.443.05.393.05.442.147.393.098.395.197.344.147.392.245.344.246.295.247.345.245.295.295.294.344.245.296.246.343.247.392.245.344.197.393.196.393.197.393.148.393.197.44.15.394.097.443.148.394.098.443.098.443.05.44.05.443.05.442.048h.196v.098l-.05.1-.048.097-.05.05-.048.098-.1.1-.048.048-.05.05-.097.048-.048.1-.1.048h-.05l-.097.05-.1.048-.097.05-.05.048-.1.098-.097.1-.05.146v.197l.05.246.097.147.15.05.097.048.1.05h.197l.098.05.05-.05h1.18l.245-.05h2.8l.197.05h1.184l.1.05.097-.05h.198l.098-.05.1-.05.097-.047.148-.147.05-.246-.05-.196-.05-.147-.05-.1-.096-.097-.098-.05-.1-.048-.097-.05-.05-.048h-.1l-.05-.05-.096-.098-.05-.05-.098-.048-.05-.05-.048-.098-.05-.098-.048-.05-.1-.097-.05-.1v-.097h.247l.393-.05.443-.048.442-.05.442-.05.443-.097.442-.098.393-.148.442-.098.394-.15.444-.196.393-.148.393-.196.343-.196.393-.197.344-.245.345-.246.344-.246.292-.246.295-.294.295-.295.246-.344.245-.293.196-.344.197-.393.147-.345.148-.394.098-.39.1-.443.05-.393v-.885l-.05-.443-.1-.393-.097-.394-.148-.394-.147-.393-.197-.344-.194-.346-.246-.344-.247-.294-.295-.295-.295-.293-.294-.295-.346-.244-.345-.246-.345-.197-.393-.196-.393-.198-.394-.196-.393-.148-.393-.196-.442-.1-.393-.146-.442-.1-.443-.097-.442-.1-.442-.1-.442-.05-.443-.047zm3.686 9.83l-.1.196-.097.196-.146.197-.147.2-.148.195-.148.197-.146.148-.197.197-.198.147-.196.148L75 86.6l-.247.148-.244.098-.247.098-.246.1-.295.097-.296.05-.294.05-.344.05-.344.047h-.246v-.05l-.05-.147V76.474h.246l.344.05.344.048.345.05.294.098.246.05.295.097.247.1.245.146.247.148.196.1.196.147.197.197.196.148.147.197.148.196.15.196.146.197.148.195.1.246.098.197.098.245.098.247.05.294.098.246.05.295.048.245v.295l.05.295v1.18l-.05.295v.245l-.05.295-.048.246-.098.246-.05.245-.098.247-.098.246zm-8.7 2.162v.493h-.294l-.344-.05-.295-.05-.295-.048-.295-.05-.295-.1-.295-.097-.245-.098-.246-.1-.197-.146-.245-.1-.197-.147-.197-.148-.147-.196-.195-.15-.147-.195-.148-.197-.148-.196-.098-.196-.148-.196-.098-.197-.1-.245-.048-.246-.098-.246-.05-.246-.048-.246-.05-.295-.05-.246v-.295l-.048-.296v-.59l.05-.295v-.296l.05-.295.048-.246.05-.295.048-.247.098-.294.05-.246.098-.245.098-.198.148-.246.098-.196.147-.197.146-.197.147-.197.197-.197.148-.148.197-.197.197-.147.245-.097.197-.148.246-.147.245-.1.295-.097.295-.05.295-.097.295-.05.344-.048.342-.05h.246v10.37zm36.37-4.964l-.05-.54-.05-.54-.048-.493-.098-.49-.148-.493-.147-.49-.197-.493-.197-.44-.196-.442-.246-.393-.293-.443-.295-.392-.294-.344-.344-.344-.344-.344-.393-.344-.344-.295-.392-.296-.44-.295-.394-.246-.443-.197-.442-.246-.49-.196-.443-.148-.49-.196-.493-.1-.49-.147-.492-.1-.49-.048-.542-.05-.49-.048h-1.032l-.542.05-.49.048-.493.05-.542.098-.49.147-.442.1-.492.195-.49.148-.444.196-.443.244-.443.197-.443.246-.393.295-.393.296-.393.295-.344.345-.345.344-.344.343-.293.344-.295.393-.294.444-.246.393-.245.442-.197.44-.196.492-.148.49-.098.493-.1.49-.097.493-.05.54v1.08l.05.54.098.542.1.49.097.493.148.49.196.444.196.44.245.443.247.442.295.394.296.392.295.393.345.345.344.343.343.344.393.295.393.295.393.246.443.245.442.246.442.196.442.197.49.197.493.147.442.15.49.097.542.1.49.097.49.05.54.05h1.033l.492-.05.54-.05.492-.097.492-.1.49-.097.492-.15.49-.146.443-.197.492-.196.442-.196.442-.245.393-.245.442-.246.393-.295.345-.296.393-.344.344-.344.344-.345.295-.392.297-.393.295-.395.247-.442.195-.442.197-.44.197-.444.146-.49.148-.493.098-.49.05-.543.048-.54.05-.54zm-4.62 0v.393l-.05.344v.393l-.05.344-.048.394-.05.344-.048.344-.098.344-.1.393-.097.344-.1.295-.146.344-.097.344-.147.295-.197.294-.148.293-.196.295-.196.245-.197.246-.245.245-.245.197-.246.246-.295.146-.247.197-.294.148-.345.148-.294.098-.393.1-.344.097-.393.05-.394.05h-.835l-.44-.05-.345-.05-.393-.096-.343-.1-.345-.097-.295-.148-.295-.148-.295-.197-.245-.147-.246-.247-.247-.196-.245-.245-.196-.246-.198-.246-.196-.296-.197-.295-.147-.295-.148-.295-.147-.344-.1-.344-.146-.296-.098-.344-.098-.393-.05-.344-.097-.344-.05-.345-.05-.394v-.343l-.05-.393V81.14l.05-.344v-.394l.05-.344.05-.345.096-.393.05-.344.097-.344.1-.344.146-.344.1-.344.145-.295.148-.345.147-.295.196-.245.196-.295.197-.246.194-.296.246-.197.247-.246.246-.196.245-.196.295-.148.295-.196.295-.1.344-.146.344-.1.395-.097.344-.05h.442l.394-.047.442.048h.393l.393.05.344.098.394.1.295.146.345.1.293.196.246.148.293.196.246.197.244.247.246.196.198.294.196.246.197.295.15.245.196.295.147.344.1.294.146.344.1.344.096.344.1.344.097.344.05.393.048.344.05.344.05.393v.344l.05.393v.344zm26.293 8.06l-.047-.05h-.1l-.048-.048-.05-.05-.195-.098-.15-.05-.195-.097-.1-.1-.146-.146-.1-.096-.148-.1-.098-.146-.1-.148-.097-.148-.1-.197-.146-.196-.1-.2-.096-.245-.147-.245-.1-.245-7.076-14.548h-2.456l-.1-.05h-.54l-.148-.048h-1.228l-.1.047-.147.05-.147.098-.196.295.048.296.098.196.1.1.097.097.1.047h.048l.05.05.098.048.148.1.098.048.098.098.1.05.097.05.048.1.05.047.048.098.05.05.05.098.048.05.05.097.05.05.05.1.047.097v.1l.295.588-4.964 9.73-.048.15-.098.097-.05.148-.098.147-.05.1-.097.146-.1.147-.098.148-.1.147-.1.148-.096.147-.1.148-.146.147-.098.148-.098.098-.098.15-.148.147-.098.147-.1.148-.146.1-.098.147-.1.097-.146.148-.1.098-.097.148-.097.1-.1.098-.097.1-.1.048-.097.098-.098.1-.1.05-.097.048-.05.098-.098.05-.098.098-.1.098-.098.147-.05.147-.048.295.098.246.197.197.146.05.148.048h.098l.148.05h.59l.1-.05h.344l.148-.05h2.066l.1.05h.394l.146.05h.985l.098-.05.1-.05.147-.097.147-.148.05-.295-.1-.294-.147-.147-.197-.147-.147-.05-.1-.05-.147-.048-.1-.05h-.048l-.147-.048-.05-.098-.097-.05-.098-.05-.05-.05-.048-.048-.05-.05v-.048l-.048-.05v-.048l-.05-.05v-.148l-.05-.048v-.296l.05-.048v-.248l.05-.098v-.05l.05-.098.047-.098.05-.098v-.1l.048-.097.05-.097.048-.098.05-.147.048-.1.05-.097.05-.1.05-.096.05-.098.047-.148.05-.098.048-.1.05-.098.048-.1.1-.097.048-.098.05-.1.05-.097.05-.1.047-.097 3.883-7.863 3.784 8.207.1.098.05.148.048.098.05.15.097.147.05.1.047.146.05.148.098.1.05.146.05.148.048.098.1.15.048.097.05.147.05.098.05.098.047.15.05.097.048.1.05.097.048.098v.1l.05.097.05.098v.145l.048.05v.196l-.05.1-.047.098-.05.05-.05.05-.097.048-.097.05h-.05l-.148.048-.098.05-.148.048-.098.05-.1.1-.146.195-.05.246.05.247.098.147.148.1.098.048h.1l.097.05h1.085l.097-.05h.642l.097-.05h2.844l.1.05h.687l.098.05h.884l.148-.05.098-.05.1-.05h.147l.097.05h.148l.147.05h.885l.098-.05h5.36l.147.05h1.228l.147.05h1.92l.148-.05h.59l.197-.05h.393l.247-.05h.393l.246-.048.246-.05.247-.048.295-.05.246-.05.246-.05.294-.047.246-.1.295-.048.245-.098.245-.1.295-.097.246-.098.247-.15.246-.097.244-.148.246-.147.246-.197.196-.146.197-.197.245-.196.146-.245.198-.247.147-.197.148-.295.147-.245.098-.295.1-.295.097-.295.05-.344v-.344l.048-.345-.05-.393-.048-.344-.05-.344-.146-.344-.1-.295-.196-.344-.198-.294-.196-.247-.246-.245-.246-.246-.295-.247-.296-.245-.295-.197-.295-.146-.344-.197-.393-.148-.344-.148-.393-.147-.393-.148-.393-.1-.393-.1-.393-.097-.44-.098-.443-.1-.393-.048-.443-.05-.44-.048-.443-.05-.443-.05h-2.954l-.097.05h-.542l-.1.05h-.195v-5.212l.05-.147v-.146l.05-.147.048-.148.05-.1.048-.097.05-.1.1-.097.05-.05.047-.048.098-.05.1-.05.146-.048h.1l.05-.05.05-.05h.047l.098-.048.05-.05.098-.097.147-.246-.097-.346-.148-.148-.196-.098-.1-.05h-1.376l-.196.05h-.738l-.197.048H129.5l-.147-.05h-.737l-.196-.048h-1.425l-.1.05-.146.097-.148.148-.098.344.1.245.146.098.05.05.048.048h.05l.098.05.05.05h.097l.15.048.097.05.05.05.098.048.05.05.048.097.05.1.048.098.05.098.05.148.048.147.05.15v.147l.048.148v12.483l-.05.245v.245l-.048.197-.05.197-.097.196-.048.148-.1.098-.048.148-.1.098-.1.098-.145.1-.1.048-.146.098-.198.05-.147.048-.098.05h-.1l-.097.05h-.1l-.146.048v.05zm13.22-1.67l-.145.097-.098.1-.148.146-.148.1-.147.048-.147.1-.148.1-.196.05-.197.096-.147.05-.197.048-.245.05h-.196l-.198.048-.246.05h-3.686l-.098-.05h-.15l-.098-.048h-.05l-.048-.05-.05-.048h-.048v-.05l-.05-.048h-.05v-.05l-.048-.098v-.05l-.05-.097-.048-.097v-.197l-.05-.15v-.146l-.048-.147V81.98h.294l.05-.05h1.28l.098-.047h1.228l.246.05h.393l.246.048h.198l.246.05.197.05.246.05.246.097.198.05.245.098.197.05.197.097.244.097.197.1.196.145.148.1.197.146.148.148.147.147.148.148.147.147.147.196.098.147.1.197.097.196.05.246.048.197.05.243.048.246v.54l-.05.246v.197l-.048.246-.05.194-.048.197-.05.197-.048.197-.1.147-.048.15-.098.146-.1.148-.097.147-.096.15z"/><path class="text" fill="#fefefe" d="M19.56 76.523c0-.098-.148-.344-.197-.64l-.884-3.046H1.423L.54 75.884c-.098.295-.196.54-.196.64 0 .097.05.146.147.146.05 0 .297-.245.493-.442 1.23-1.18 3.048-2.703 5.7-2.703 1.23 0 1.672.197 1.672 1.278v11.304c0 2.506-.196 3.292-1.474 3.833-.245.098-.49.098-.49.197 0 .098.05.147.245.147.148 0 1.77-.098 3.293-.098 1.573 0 3.195.098 3.39.098.15 0 .247-.098.247-.147 0-.1-.197-.197-.442-.246-1.23-.195-1.622-1.276-1.622-2.603V74.803c0-1.08.49-1.278 1.72-1.278 2.655 0 4.473 1.524 5.7 2.703.2.197.444.442.494.442.098 0 .147-.05.147-.147zm18.43.885c0-3.686-5.26-4.57-8.06-4.57h-8.896c-.147 0-.295.048-.295.146 0 .1.146.1.392.197 1.032.543 1.032 1.526 1.032 2.705V86.4c0 2.213-.246 3-1.475 3.59-.148.098-.394.147-.394.196 0 .05.1.098.197.098.147 0 .64-.098 3.243-.098 1.524 0 3.342.098 3.588.098.148 0 .197-.05.197-.147 0-.05-.392-.1-.687-.246-1.278-.49-1.524-1.276-1.524-2.603V81.98c.785.05 1.867.1 3.243.1 3.538 0 9.436-.985 9.436-4.67zm-3.637-.148c0 2.556-2.26 4.178-6.29 4.178-1.082 0-1.967 0-2.753-.246v-7.667h3.49c2.506 0 5.553.885 5.553 3.735zm22.853 8.847c0-.1-.05-.1-.098-.1-.05 0-.393.247-.737.542-1.72 1.72-4.765 2.996-7.026 2.996h-3.096c-1.82 0-2.507-.443-2.507-2.408v-5.752h4.18c1.915 0 4.127.1 4.913 2.114.1.196.1.393.246.393.05 0 .097-.1.097-.59V78.83c0-.245-.05-.392-.098-.392-.1 0-.198.098-.247.245-.393 1.13-2.113 2.015-4.08 2.015H43.74v-7.175h4.964c2.555 0 5.455.983 6.586 2.85.05.148.196.246.294.246.1 0 .148-.098.148-.196 0-.344-.148-.738-.246-1.033l-.737-2.554H39.462c-.393 0-.54.098-.54.196 0 .05.295.148.49.246 1.082.245 1.18 1.424 1.18 3.194v9.19c0 2.457-.196 3.244-1.18 4.03-.195.148-.785.344-.785.393 0 .1.195.1.834.1h16.514l1.18-3.884c0-.097.048-.146.048-.195zm23.984-4.62c0-4.374-5.062-6.586-9.633-6.586.05-.833.246-1.57.983-1.816.148 0 .197-.1.197-.197 0-.147-.344-.147-.492-.147-.59 0-1.278.146-2.26.146-.64 0-1.72-.147-2.31-.147-.1 0-.492 0-.492.145 0 .1.05.197.197.197.786.245.983.983.983 1.818-4.57 0-9.633 2.213-9.633 6.587s5.11 6.684 9.534 6.684c-.147.886-.54 1.476-1.18 1.77-.196.1-.294.148-.294.247 0 .05.147.098.295.098.246 0 1.573-.098 2.9-.098 1.277 0 2.604.098 2.85.098.147 0 .295-.05.295-.098 0-.1-.1-.148-.295-.246-.64-.294-.983-.884-1.18-1.77 4.424 0 9.535-2.31 9.535-6.682zm-3.588.196c0 3.342-1.77 5.85-5.996 5.85-.05-.738-.05-1.574-.05-2.508V75.59c4.326 0 6.046 2.653 6.046 6.093zm-9.19 3.342c0 .934 0 1.77-.05 2.507-4.226 0-5.995-2.507-5.995-5.85 0-3.44 1.67-6.093 6.045-6.093v9.434zm35.336-3.49c0-5.602-4.914-9.24-10.222-9.24s-10.272 3.638-10.272 9.24c0 5.604 4.964 9.19 10.272 9.19s10.222-3.586 10.222-9.19zm-3.637 0c0 4.03-1.67 8.552-6.583 8.552-4.964 0-6.635-4.52-6.635-8.55 0-4.03 1.672-8.553 6.636-8.553 4.914 0 6.585 4.522 6.585 8.552zm25.657 8.602c0-.05-.197-.148-.295-.197-1.178-.54-1.522-1.23-2.26-2.752l-6.93-14.35h-1.72c-.737 0-1.474-.1-2.064-.1-.098 0-.442.05-.442.148 0 .147.148.197.344.295.885.444 1.08.985 1.278 1.476l.344.787-5.013 10.026c-.738 1.375-2.36 3.39-3.343 4.127-.197.147-.49.393-.49.54 0 .148.343.197.588.197.443 0 .738-.147 1.917-.147 1.327 0 1.622.147 2.408.147.246 0 .344-.05.344-.147 0-.148-.49-.295-.688-.394-.737-.344-.934-.786-.934-1.425 0-.786.787-2.26 1.278-3.243l4.374-8.75 4.227 9.094c.64 1.375 1.474 2.947 1.474 3.586 0 .197-.245.787-.786.885-.246.05-.49.148-.49.247 0 .098.146.147.343.147 1.033 0 1.475-.147 3.048-.147 1.67 0 2.408.147 2.998.147.245 0 .49-.098.49-.196zM144.1 85.32c0-3.637-4.965-5.013-9.585-5.013-1.67 0-2.457.1-3.047.197v-5.26c0-1.13.295-2.014 1.18-2.21.147-.05.245-.148.245-.197 0-.05-.147-.098-.393-.098-.443 0-1.72.096-2.606.096-.835 0-2.162-.098-2.604-.098-.246 0-.394.048-.394.097 0 .05.148.147.246.197.885.196 1.18 1.08 1.18 2.21V87.14c0 1.67-.59 2.456-1.72 2.75-.295.1-.492.1-.492.247 0 .05.148.147.737.147.443 0 .737-.098 1.278-.098h2.212c2.36 0 4.275.147 4.865.147.737 0 1.868-.05 2.9-.196 2.506-.295 5.996-1.327 5.996-4.817zm-3.638 0c0 2.95-1.817 4.227-4.62 4.227h-2.456c-1.72 0-1.917-.64-1.917-3.293v-5.062c.59-.098 1.523-.148 3.292-.148 2.212 0 5.7.983 5.7 4.276z"/><path class="text-down" fill="#fefefe" d="M18.282 73.132H1.622l-.836 2.85v.05l.147-.1.1-.146.146-.1.097-.097.147-.15.147-.098.15-.148.097-.098.197-.098.147-.15.15-.097.146-.1.197-.145.147-.098.198-.1.147-.098.197-.1.197-.098.194-.098.197-.1.197-.097.197-.05.246-.098.197-.05.246-.05.197-.05.245-.047.246-.05h.248l.245-.048h1.13l.197.05h.196l.147.048.148.098.15.05.1.1.145.146.05.147.098.147.05.148.048.196V87.14l-.05.197v.344l-.047.197v.295l-.05.147-.048.146v.148l-.05.098-.05.148-.048.098-.05.098-.048.148-.05.098-.098.1-.05.097-.097.05-.098.096-.05.1-.098.048-.1.098-.1.05-.097.05h.638l.1-.05H11.8l.098.05h.592l-.1-.05-.196-.148-.148-.147-.196-.148-.1-.148-.146-.197-.1-.197-.048-.245-.098-.196-.05-.246v-.244l-.048-.246V74.41l.05-.198.048-.147.05-.147.097-.148.15-.147.097-.1.148-.048.147-.098.148-.05h.196l.196-.048h1.13l.245.047h.246l.245.05.247.048.197.05.245.048.196.05.246.098.197.05.196.098.196.097.197.1.196.097.196.1.148.097.196.1.148.097.196.147.148.1.147.097.148.15.148.097.148.098.148.148.147.098.148.15.1.097.147.098.098.148.148.098-.05-.05-.786-2.85zm8.06 8.65h.688l.1.05h2.114l.344-.05h.344l.393-.05h.393l.344-.05.393-.048.393-.098.393-.05.396-.098.393-.05.392-.097.345-.096.393-.148.344-.098.344-.148.344-.148.295-.148.295-.196.295-.148.295-.196.246-.197.196-.196.197-.244.196-.197.148-.246.147-.295.1-.247.05-.295.05-.295.047-.295-.05-.295-.048-.294-.05-.296-.1-.246-.097-.246-.148-.245-.147-.245-.197-.197-.195-.196-.197-.198-.246-.197-.244-.196-.246-.15-.295-.147-.295-.148-.295-.098-.295-.147-.294-.1-.345-.098-.293-.1-.344-.048-.344-.098-.345-.05-.295-.048-.344-.05-.295-.05-.343-.048h-.295l-.295-.05h-9.24l.1.05.147.148.148.147.148.197.1.147.048.195.1.196.05.198v.196l.047.196v.442l.05.196v11.358l-.05.197v.69l-.05.147v.295l-.048.15v.146l-.05.1-.05.147v.098l-.05.148-.047.098-.05.1-.05.1-.097.096-.048.1-.05.098-.098.098-.098.1-.05.048-.097.098-.1.05-.098.098h.098l.1-.05h4.17l.1.05h.59l-.1-.05-.196-.147-.15-.1-.195-.147-.148-.196-.098-.147-.1-.196-.098-.197-.05-.196-.048-.196-.05-.196-.048-.245v-.443l-.05-.245v-5.603h.394l.1.05h.54l.098.048h.197zm8.306-4.522v.246l-.05.246-.048.245-.05.246-.048.197-.05.245-.098.197-.098.246-.148.196-.098.197-.148.198-.196.148-.148.197-.196.147-.197.146-.196.148-.2.147-.245.15-.245.098-.245.148-.246.098-.297.098-.295.1-.296.05-.294.097-.345.05-.294.05-.344.047h-.394l-.344.05h-2.263l-.15-.05h-.337l-.147-.05-.196-.05h-.147l-.148-.048-.394-.1v-8.11h4.522l.245.05h.246l.245.05.245.05h.245l.246.096.248.05.245.05.246.097.245.05.196.098.247.1.197.097.246.148.195.098.197.148.147.148.195.148.147.196.148.198.148.147.148.246.098.197.098.246.1.197.048.246.05.293.048.246v.294zm6.143 10.32v.148l-.047.148v.147l-.05.1v.146l-.048.097-.05.147-.048.098-.05.1-.048.146-.05.098-.05.098-.05.098-.05.1-.096.097-.05.05-.098.1-.05.096-.097.05-.1.098-.098.098-.097.05-.05.048h16.22l1.03-3.34-.048.048-.148.148-.148.147-.197.148-.196.15-.198.147-.196.147-.197.148-.197.148-.245.147-.197.148-.245.098-.196.15-.247.097-.246.148-.245.098-.247.098-.197.1-.245.098-.245.1-.246.097-.247.097-.245.05-.246.098-.246.05-.246.05-.245.048-.246.05-.246.048-.245.05h-.247l-.197.05h-4.178l-.295-.05-.295-.05-.246-.05-.245-.096-.197-.15-.197-.146-.196-.147-.1-.196-.146-.246-.096-.246-.05-.294-.05-.295v-.345l-.048-.344V81.15h5.802l.147.05h.392l.197.047.196.05h.148l.196.048.197.05.147.05.197.048.197.1.148.048.147.1.197.1.15.047.146.147.147.098.148.147.1.1.147.145.098.148.148.197.05.148V79.18v.048l-.1.148-.098.098-.1.098-.097.1-.097.097-.1.097-.097.098-.148.098-.098.05-.147.098-.148.1-.147.05-.148.097-.147.05-.148.048-.147.05-.197.098-.146.05-.147.048h-.196l-.147.05-.197.05-.197.05h-.345l-.196.047h-5.703V73.28h5.994l.296.05h.246l.247.05.244.05.246.05h.246l.246.096.245.05.246.048.247.1.196.048.246.098.245.1.246.098.197.098.197.1.246.097.196.147.196.1.196.146.196.148.197.147.147.15.147.147.196.148.147.147.1.198.147.147.05.098v-.05l-.05-.048v-.15l-.05-.05v-.047l-.048-.05v-.148l-.05-.048v-.05l-.688-2.358H39.808l.098.05.1.048.097.05.05.097.098.05.05.1.1.098.05.1.047.097.05.1.05.097.048.1v.098l.05.147.048.1v.146l.05.1v.245l.048.148v.884l.05.148v9.776l-.05.197v1.132l-.05.197v.145zm21.53-1.13l.343.197.393.148.344.147.392.148.393.147.393.147.394.1.393.097.442.1.393.05.393.05.443.05.393.047h.44l.737.05-.098.44-.05.198-.05.148-.05.147-.047.146-.1.148-.048.147-.098.1-.1.148-.048.1-.1.097-.147.098-.098.1-.05.048h.79l.245-.05h2.85l.197.05h.836l-.1-.05-.098-.097-.1-.098-.097-.098-.098-.1-.1-.146-.097-.1-.05-.145-.048-.148-.1-.147-.048-.148-.05-.148v-.197l-.097-.442.737-.05h.393l.393-.048.442-.05.394-.048.44-.05.393-.1.393-.098.393-.1.393-.146.393-.147.393-.15.392-.146.344-.148.344-.196.345-.196.344-.246.293-.196.295-.246.294-.246.246-.246.245-.245.246-.297.197-.295.196-.296.148-.344.148-.295.098-.344.098-.344.098-.344.05-.393v-.738l-.05-.393-.098-.345-.098-.344-.1-.344-.146-.344-.148-.294-.196-.296-.197-.295-.246-.296-.245-.245-.247-.246-.295-.246-.296-.246-.295-.196-.345-.245-.344-.198-.343-.148-.344-.197-.392-.147-.393-.147-.393-.146-.394-.1-.393-.097-.442-.1-.393-.098-.443-.05-.394-.098h-.442l-.44-.05-.395-.05h-.737l.05-.44v-.296l.05-.148v-.197l.05-.146.048-.148.05-.098.097-.148.1-.147.097-.098.098-.15.1-.097h.048-.344l-.148.05h-.394l-.148.048h-.686l-.196.05h-.294l-.148-.05H69.1l-.15-.048h-.49l-.148-.05h-.443.05l.096.1.148.147.098.097.05.147.098.147.05.098.05.148.048.147v.197l.05.147v.294l.048.442h-.688l-.442.05-.443.05h-.393l-.442.097-.393.05-.443.098-.393.1-.444.097-.393.1-.393.146-.393.148-.344.148-.393.197-.344.148-.344.197-.344.244-.295.196-.295.247-.294.245-.246.246-.246.246-.246.295-.196.294-.197.294-.147.293-.148.344-.098.346-.1.344-.097.344v.393l-.05.344.05.394.05.393.048.344.1.345.1.345.146.295.148.344.197.294.197.294.246.295.246.244.244.246.295.246.294.245.295.196.343.247.344.197zm15.53-4.767v.64l-.05.294-.05.295-.05.295-.047.295-.05.295-.098.295-.098.245-.1.295-.146.246-.147.246-.147.245-.148.244-.147.197-.196.246-.196.197-.197.197-.244.148-.246.197-.247.147-.246.148-.295.098-.294.147-.295.1-.344.097-.297.1-.344.048-.394.05-.344.048H71.36l-.05-.393v-.443l-.048-.147v-11.5h.688l.394.048h.393l.344.098.346.05.344.1.343.097.295.098.295.148.294.098.246.198.246.146.244.148.245.196.196.197.197.246.196.197.196.245.147.246.148.246.1.246.146.295.1.295.097.246.1.294.048.295.05.344.05.295.05.295.047.345v.64zm-9.19 3.54v1.867l-.05.147v.54h-1.033l-.393-.05-.344-.047-.345-.05-.344-.098-.342-.098-.295-.1-.295-.146-.245-.1-.295-.146-.246-.148-.245-.196-.196-.148-.246-.196-.197-.197-.147-.245-.198-.197-.147-.246-.148-.248-.147-.245-.098-.246-.148-.294-.098-.246-.05-.293-.098-.295-.05-.295-.048-.295-.05-.295v-.295l-.048-.295v-.688l.05-.297V80.7l.048-.295.05-.295.048-.344.1-.294.048-.295.098-.246.098-.293.148-.295.098-.245.148-.245.196-.246.148-.246.196-.196.197-.246.197-.197.245-.196.246-.148.248-.196.246-.15.294-.097.295-.148.295-.098.344-.098.345-.1.344-.05.393-.098h.344l.394-.05h.69v9.928zm34.844-3.687l-.05-.492-.05-.49-.048-.492-.098-.492-.1-.442-.146-.443-.146-.393-.197-.442-.198-.393-.245-.393-.246-.394-.295-.344-.295-.344-.296-.344-.295-.295-.346-.294-.344-.297-.392-.246-.393-.295-.393-.197-.393-.245-.396-.196-.442-.196-.442-.148-.44-.147-.444-.148-.49-.098-.444-.1-.49-.048-.493-.05-.444-.05h-.983l-.49.05-.493.05-.44.047-.492.1-.443.097-.442.148-.492.147-.39.147-.443.196-.442.197-.394.246-.392.197-.393.295-.344.246-.343.295-.344.292-.344.295-.296.344-.295.345-.247.344-.245.393-.246.393-.196.393-.196.44-.148.394-.147.443-.148.442-.098.49-.05.49-.05.493v.982l.05.493.05.49.096.443.148.49.147.444.15.394.195.442.197.393.247.393.244.344.246.393.295.344.295.344.344.295.344.295.344.295.344.246.393.247.392.245.394.246.442.198.442.196.393.148.493.147.442.147.443.098.49.098.444.05.493.05.49.048h.983l.443-.048.49-.05.492-.05.443-.097.49-.098.444-.148.44-.148.443-.15.442-.195.394-.197.393-.245.393-.245.393-.246.392-.246.345-.295.344-.294.295-.294.295-.345.294-.345.295-.393.244-.345.245-.393.196-.393.197-.443.147-.394.148-.442.1-.49.097-.443.05-.49.048-.493.05-.49zm-3.097 0v.393l-.05.39v.394l-.048.394-.05.343-.05.394-.097.393-.05.392-.098.392-.098.344-.148.393-.148.343-.147.344-.147.345-.197.344-.196.343-.197.294-.246.294-.195.295-.295.246-.247.245-.295.245-.344.245-.295.197-.346.196-.393.148-.343.148-.393.1-.442.097-.443.05-.443.05h-.933l-.442-.05-.442-.05-.394-.097-.393-.1-.393-.146-.344-.147-.344-.196-.344-.197-.295-.245-.295-.246-.295-.247-.245-.247-.246-.295-.246-.294-.196-.295-.197-.345-.148-.345-.196-.344-.15-.343-.147-.344-.098-.395-.1-.345-.097-.393-.1-.393-.05-.394-.097-.393-.05-.344v-.395l-.047-.393V80.75l.05-.394v-.393l.048-.393.1-.393.05-.344.1-.393.096-.393.1-.345.097-.393.147-.346.15-.344.195-.343.148-.344.197-.344.196-.297.246-.295.246-.295.245-.246.295-.296.295-.196.295-.245.344-.198.344-.197.344-.147.393-.146.393-.1.394-.097.442-.05.442-.048h.934l.442.048.443.05.442.097.393.1.344.146.393.148.344.197.293.197.344.245.295.197.246.295.294.245.196.294.246.294.197.295.197.343.196.344.147.344.148.345.148.345.148.392.098.345.098.393.05.393.098.344.05.393.048.393.05.393v.395l.048.393v.393zm8.945 4.52l.05-.146.05-.098.048-.1.05-.097.05-.1.048-.097.05-.098.048-.1.05-.097.048-.1 4.62-9.287 4.472 9.632.05.148.048.098.1.148.048.147.05.097.048.147.098.147.05.1.05.147.048.1.098.146.05.148.048.1.05.146.05.1.097.146.05.1.047.146.05.098.048.098.05.147.05.1v.098l.048.1.05.097v.098l.05.1v.097l.048.1v.392l-.05.147-.047.15-.1.194-.146.148-.197.147v.05h.197l.147-.05h.69l.05-.05h2.746l.1.05h.738l.048.05h.494l-.148-.1-.197-.098-.147-.148-.197-.147-.145-.148-.147-.148-.148-.148-.1-.196-.147-.198-.098-.196-.148-.197-.098-.247-.15-.245-.1-.246-.145-.247-6.832-14.203h-2.163l-.1-.05h-.535l-.148-.048h-.49l.147.098.148.098.1.1.146.098.1.1.097.097.05.098.098.15.05.1.05.097.048.098.05.098.05.1.05.097.047.1.393.884-5.11 10.124-.05.148-.098.147-.05.148-.098.15-.1.147-.098.147-.098.148-.1.148-.097.147-.097.148-.1.147-.147.148-.1.147-.097.148-.148.147-.1.148-.098.147-.148.148-.098.147-.148.147-.098.147-.147.098-.1.148-.097.1-.148.147-.098.098-.098.098-.1.1-.146.097-.1.1-.097.097-.1.098-.05.05-.047.05-.098.048-.05.05h.59l.05-.05h.44l.147-.05h1.87l.146.05h.54l.098.05h.148l-.1-.05-.146-.1-.1-.048-.146-.098-.098-.1-.1-.097-.048-.098-.098-.1-.05-.097-.05-.148-.048-.098-.05-.1v-.147l-.048-.098v-.445l.05-.098v-.197l.048-.147v-.1l.05-.097.05-.1.048-.097v-.098l.05-.148.048-.098.05-.1.048-.097.05-.147.048-.1.05-.097.048-.146.05-.098.098-.1.05-.097zm19.267-10.81v12.186l-.05.294-.05.295-.05.247-.05.245-.097.245-.1.197-.097.197-.147.197-.15.148-.146.147-.197.148-.197.098-.1.1h.15l.097-.05h5.16l.198.05h1.375l.148.048h1.82l.196-.05h.736l.247-.048h.393l.197-.05h.196l.197-.048.245-.05h.246l.248-.048.246-.05.245-.048.245-.1.246-.048.247-.05.245-.097.247-.1.245-.097.245-.1.246-.097.197-.147.197-.1.246-.147.197-.148.196-.147.147-.15.196-.195.148-.148.148-.196.148-.197.098-.246.1-.196.098-.245.098-.246.05-.246.05-.295v-.296l.048-.295-.05-.296-.05-.295-.048-.296-.098-.294-.098-.245-.148-.246-.147-.248-.15-.196-.195-.246-.245-.196-.246-.196-.247-.197-.295-.194-.294-.148-.295-.147-.296-.196-.344-.098-.344-.148-.394-.147-.344-.1-.395-.096-.393-.098-.393-.05-.442-.098-.393-.05-.443-.048-.392-.05-.442-.05-.443-.048h-2.803l-.097.05h-.54l-.1.048h-.395l-.05.05h-.245l-.343.048v-6.192l.05-.197.048-.2.05-.195.048-.148.05-.196.097-.147.1-.147.097-.148.148-.148.05-.05h-.05l-.344.05h-.74l-.195.05h-1.474l-.147-.05h-.787l-.295-.05h-.1l.05.05.147.147.098.147.1.147.097.15.05.195.098.148.05.196v.196l.048.196v.196l.05.246v.196zm12.14 10.074v.246l-.05.295v.248l-.05.294-.05.247-.05.245-.1.196-.047.246-.098.197-.1.196-.146.196-.1.197-.147.147-.148.147-.147.196-.148.148-.148.1-.197.147-.196.1-.2.097-.195.1-.197.097-.197.1-.245.05-.197.05-.246.047-.245.05-.247.048h-.246l-.246.05h-3.44l-.146-.05h-.295l-.1-.05-.147-.048-.098-.05-.1-.048-.097-.05-.1-.1-.097-.097-.097-.05-.05-.098-.05-.147-.096-.1-.05-.097v-.147l-.048-.147-.05-.147v-.15l-.048-.146v-.148l-.05-.196v-6.784l.295-.05h.247l.05-.048h.59l.05-.05h1.523l.147-.048h.64l.197.05h.688l.246.048.247.05.246.048.246.05.245.048.245.05.245.098.246.098.248.1.245.097.246.1.245.146.196.098.247.15.197.196.196.148.196.197.147.197.197.197.147.196.148.245.098.246.148.247.05.246.1.295.05.295.047.295v.344zM88.07 98.098v6.045h-.737v-6.045h.738zm2.802 6.045l-2.85-3.194 2.702-2.853h.885l-2.803 2.85 2.998 3.195h-.934zm.983-3.047c0-.884.295-1.62.884-2.21.637-.64 1.375-.935 2.21-.935.885 0 1.622.297 2.26.936.59.59.885 1.327.885 2.21 0 .886-.294 1.672-.884 2.262-.64.59-1.375.885-2.26.885-.835 0-1.573-.295-2.212-.885-.59-.64-.885-1.376-.885-2.26zm.737 0c0 .738.197 1.327.64 1.77.44.49 1.03.688 1.72.688.736 0 1.326-.197 1.768-.688.443-.443.64-1.032.64-1.77 0-.737-.197-1.327-.64-1.77-.442-.44-.983-.687-1.77-.687-.687 0-1.277.244-1.72.686-.44.442-.638 1.032-.638 1.77zm9.633 2.212l2.113-5.21h1.08v6.045h-.687v-4.718c0-.196 0-.393.05-.54h-.05l-2.21 5.258h-.59l-2.21-5.406v5.406h-.69v-6.045h1.13l2.066 5.21zm5.21.835h-.738v-6.045h4.62v6.045h-.737v-5.357h-3.146v5.357zm6.93-6.045h.59l2.456 6.045h-.784l-1.917-4.914h-.05l-1.966 4.912h-.786l2.457-6.045zm8.845 2.605c-.294-1.376-1.13-2.064-2.408-2.064-.64 0-1.13.195-1.523.54-.395.392-.69.883-.74 1.522h4.67zm.688.59h-5.406c0 .688.246 1.278.64 1.67.442.394 1.03.59 1.72.59.982 0 1.67-.343 2.064-1.08h.835c-.637 1.18-1.62 1.77-2.9 1.77-.93 0-1.67-.296-2.26-.886-.54-.54-.834-1.327-.834-2.26 0-.934.295-1.72.885-2.26.59-.59 1.377-.886 2.26-.886.984 0 1.72.346 2.26.985.494.59.74 1.376.74 2.36zm1.72-3.195v6.045h-.687v-6.045h.69zm2.85 6.045l-2.85-3.194 2.655-2.853h.884l-2.8 2.85 2.997 3.195h-.885zm1.918-3.047c0 .738.196 1.327.59 1.77.442.49.983.688 1.67.688.492 0 .885-.1 1.278-.344.394-.246.64-.54.836-.983h.737c-.196.64-.59 1.13-1.08 1.474-.542.395-1.13.543-1.77.543-.836 0-1.573-.295-2.114-.934-.59-.59-.884-1.328-.884-2.213 0-.884.293-1.62.882-2.21.54-.64 1.278-.935 2.114-.935.64 0 1.228.148 1.72.492.49.344.835.836 1.08 1.426h-.736c-.392-.836-1.08-1.23-2.063-1.23-.688 0-1.278.247-1.67.69-.395.44-.59 1.03-.59 1.768zm-52.538 2.065l3.39-5.06h.837v6.044h-.688V99.08l-3.44 5.063h-.787v-6.045h.688v5.063zm2.703-7.272h.74c-.148.786-.738 1.18-1.67 1.18-.936 0-1.525-.394-1.673-1.18h.737c0 .196.1.344.345.49.195.1.392.15.59.15.195 0 .39-.05.59-.15.244-.146.342-.294.342-.49zm-11.203 8.256V98.1h.737v2.506h1.18c.54 0 .982.147 1.277.49.296.296.443.74.443 1.28 0 .49-.147.933-.442 1.277-.343.295-.736.49-1.277.49h-1.916zm.737-2.9v2.212h1.13c.737 0 1.08-.393 1.08-1.08 0-.787-.343-1.13-1.08-1.13h-1.13zm3.538 2.9V98.1h.74v6.044h-.74zm-6.732-2.85h-3.293v2.85h-.688V98.1h.687v2.555h3.293V98.1h.688v6.044h-.688zm-6.487 0H57.16v2.85h-.737V98.1h.737v2.555h3.24V98.1h.738v6.044H60.4zM54.21 98.1h.74v6.044h-.74v-1.032c-.59.788-1.375 1.18-2.36 1.18-.882 0-1.62-.294-2.21-.933-.59-.59-.884-1.328-.884-2.213 0-.933.295-1.67.934-2.31.59-.59 1.327-.884 2.21-.884 1.034 0 1.77.443 2.31 1.28V98.1zm0 2.997c0-.688-.244-1.228-.687-1.72-.442-.49-.983-.737-1.622-.737-.687 0-1.276.245-1.72.736-.44.492-.64 1.08-.64 1.77 0 .688.2 1.228.69 1.72.443.49.983.737 1.62.737.494 0 .936-.148 1.33-.442.343-.293.64-.637.835-1.08.147-.295.196-.64.196-.983zm-7.076-.05c0-.638-.195-1.227-.687-1.72-.442-.49-1.032-.687-1.67-.687-.69 0-1.23.245-1.672.736-.44.492-.687 1.08-.687 1.77 0 .638.246 1.18.688 1.67.493.54 1.033.787 1.623.787.687 0 1.277-.246 1.72-.786.49-.492.687-1.082.687-1.77zm-4.717-2.997v1.18c.688-.886 1.475-1.28 2.458-1.28.885 0 1.573.296 2.163.886.59.64.835 1.376.835 2.26 0 .885-.294 1.67-.884 2.26-.59.59-1.328.886-2.26.886-.887 0-1.673-.393-2.31-1.18v3.686h-.69v-8.7h.69zm-8.06 3.046c0-.884.344-1.62.934-2.21.59-.64 1.328-.935 2.213-.935.883 0 1.62.297 2.21.936.59.59.885 1.327.885 2.21 0 .886-.295 1.672-.885 2.262-.59.59-1.327.885-2.21.885-.886 0-1.623-.295-2.213-.885-.59-.64-.934-1.376-.934-2.26zm.737 0c0 .738.246 1.327.688 1.77.443.49.983.688 1.72.688.69 0 1.278-.197 1.72-.688.443-.443.64-1.032.64-1.77 0-.737-.197-1.327-.64-1.77-.393-.44-.982-.687-1.72-.687-.737 0-1.326.244-1.77.686-.392.442-.638 1.032-.638 1.77zm-5.455-2.31V98.1h3.685v.69h-1.523v5.355h-.688V98.79zm-5.8 2.31c0 .738.196 1.327.59 1.77.393.49.933.688 1.67.688.443 0 .885-.1 1.23-.344.392-.246.687-.54.835-.983h.738c-.197.64-.54 1.13-1.08 1.474-.493.395-1.083.543-1.722.543-.883 0-1.57-.295-2.16-.934-.59-.59-.836-1.328-.836-2.213 0-.884.244-1.62.834-2.21.59-.64 1.278-.935 2.162-.935.64 0 1.18.148 1.67.492.493.345.886.836 1.083 1.426h-.74c-.392-.836-1.03-1.23-2.014-1.23-.738 0-1.278.247-1.67.69-.395.44-.59 1.03-.59 1.768zm-2.163-.393c-.295-1.376-1.08-2.064-2.408-2.064-.59 0-1.13.195-1.524.54-.394.392-.64.883-.738 1.522h4.67zm.737.59H16.96c0 .688.245 1.278.687 1.67.393.394.983.59 1.67.59.984 0 1.672-.343 2.065-1.08h.836c-.64 1.18-1.573 1.77-2.85 1.77-.934 0-1.72-.296-2.31-.886-.54-.54-.836-1.327-.836-2.26 0-.934.295-1.72.885-2.26.59-.59 1.376-.886 2.31-.886.933 0 1.67.346 2.21.985.493.59.787 1.376.787 2.36zm-7.863-.246c0-.64-.245-1.228-.687-1.72-.443-.49-1.033-.688-1.672-.688-.687 0-1.23.244-1.72.735-.442.492-.64 1.08-.64 1.77 0 .638.198 1.18.69 1.67.44.54.983.787 1.62.787.69 0 1.23-.246 1.72-.786.444-.492.69-1.082.69-1.77zM9.83 98.05v1.18c.638-.886 1.473-1.28 2.456-1.28.836 0 1.573.296 2.163.886.54.64.833 1.376.833 2.26 0 .885-.295 1.67-.884 2.26-.59.59-1.378.886-2.26.886-.936 0-1.673-.393-2.31-1.18v3.686h-.69v-8.7h.69z"/><path class="cover" fill="#30a747" d="M72.688 29.293v-.737h-.1c-.883 1.523-2.014 3.047-2.604 4.718-.49 1.818-.786 3.637-1.277 5.455-.64 1.817-1.475 3.49-2.605 5.06-.737.885-1.425 1.72-2.36 2.46-.392.292-.392.292-1.13.735-.983.737-3.342 1.425-4.472 1.867h-.59c-.835-.098-1.572-.64-2.26-1.08-.1-.1-.1-.197-.64-.738-.49-.54-.982-1.032-1.474-1.573-.098-.195-.246-.343-.344-.54-.344-.64-.835-1.23-1.228-1.867-.148-.246-.295-.49-.394-.737-.245-.54-.54-1.032-.835-1.524-.344-.54-.737-1.08-1.08-1.67l-.15-.296c-.44-.884-.834-1.965-.245-2.948.1-.1.344-.247.394-.395h-.492c-.05 0-.147-.05-.196-.05.147-.146.344-.244.393-.44-.15 0-.297.048-.445.048-.688-.146-1.13-.54-1.474-1.03-.097-.147-.196-.344-.245-.49-.098-.247-.196-.444-.295-.64-.49-2.114-1.178-4.178-1.522-6.29-.1-1.08-.05-2.065.098-3.147v-1.77c.05-.687.148-1.227.148-1.227.098-.197.196-.394.245-.59.05 0 .05 0 .244-.393.246-.197.54-.492.885-.492.64-.343 1.227-.343 1.965-.392.59-.15 1.13-.15 1.72-.1.737-.05 1.425.05 2.162-.05h.737c1.622.247 3.195.64 4.768 1.083 1.08.394 3.49 1.08 4.62 1.475 1.277.344 2.36.934 3.44 1.67.393.345.737.64 1.13.984.442.393.786.835 1.475 1.474.344.246.737.492 1.08.787l1.033.59c.492.197.492.197 1.033.49.344.2 1.278.936 1.622.248-.05-.1-.148-.198-.197-.296 0-.05-.05-.1-.098-.148-.05-.098-.1-.196-.148-.344-.688-.59-1.376-1.13-1.916-1.818-.738-.688-1.524-1.278-2.26-1.917-.935-.934-1.918-1.818-2.9-2.654-1.033-.736-1.917-1.522-2.802-2.36-.442-.54-.836-1.08-1.18-1.62-.59-.983-1.032-2.064-1.327-3.292-.05-.787-.098-1.475-.05-2.212.198-1.327.296-2.654.444-3.932.247-.884.395-1.867.935-2.605.394-.344.934-.44 1.475-.638.245-.1.49-.246.736-.344 1.966-.493 3.932-.74 5.996-.788 2.408.05 5.013-.344 7.175.836.148.098.246.196.344.295 0 .394.05.69.05.787.05 0 .05-.05.1-.05.05-.1.098-.197.098-.344.05.393.05.786.1.835.048 0 .048 0 .097-.048.05-.196.098-.393.197-.59.394-.64 1.573-.737 2.31-.786 1.18.05 2.36.344 3.54.59.147.05.294.098.392.245 2.458.885 4.866 1.917 6.783 3.59 1.18 1.227 1.18 1.227 1.425 1.423.934.59 1.818 1.23 2.605 2.015.196.442.196.835 0 1.425-1.377 2.95-3.736 5.406-6.29 7.568-.935.984-2.213 1.623-3.392 2.31-.443.247-.934.493-1.426.738 0 0 0-.05-.05-.05-.49.296-1.18.64-1.77.74 0 0 0 .048-.05.048-.687.245-.687.245-1.82.64-1.423.588-2.946.98-4.372 1.57-.49.296-1.72.493-1.67 1.132.05.05.147.098.196.196h.147c-.05.1-.097.148-.097.295.098.05.147.1.246.15.785.096 1.62-.05 2.407-.15 1.18-.295 2.26-.835 3.44-1.23.983-.244.983-.244 1.18-.343.835-.147 1.08-.196 1.18-.245 2.457-.344 4.816-.344 7.224 0 1.72.393 3.343.835 4.965 1.425 1.327.688 2.752 1.523 3.686 2.703.197.64.296 1.28.394 1.967-.1 1.327-.737 2.605-1.278 3.833v.05c-.442.687-.442.687-1.327 1.965-.738.737-1.524 1.524-2.26 2.31-2.36 2.752-2.36 2.752-2.606 2.998-.64.442-1.327.786-2.065.492-.345-.246-.345-.246-.49-.295 0 0 0 .05-.05.05.49.736.343 1.178-.1 1.916-.54.688-1.277 1.13-1.867 1.77-2.113 1.473-4.325 2.85-6.488 4.275-.688.395-1.326.837-2.015 1.23-.787.393-1.524.393-2.36.443-.344-.05-.638-.197-.982-.295-.54-.344-1.033-.738-1.524-1.23-.197-.294-.246-.343-.49-.785-.247-.443-.247-.443-.296-.492 0-.05 0-.05.05-.097-.05 0-.05-.05-.1-.05-.196-.54-.393-1.08-.64-1.572-.343-1.08-.49-2.16-.638-3.243-.05-.64-.05-1.327-.05-1.966-.244-1.276.05-2.603.345-3.88.492-1.328.934-2.704 1.377-4.08 0-.148 0-.246.05-.394.49-1.965.932-3.98.883-6.045 0-.05-.05-.05-.098-.05-.05.1-.1.248-.197.396v-.787c0-.05-.05-.05-.05-.1-.097.148-.146.296-.245.443 1.23 3.047-10.86 39.563-18.38 34.305l-.64-.492c2.605-2.9 4.13-.934 11.255-12.237 4.473-7.62 6.98-14.893 6.733-21.28 0-.05-.05-.05-.05-.05-.097.097-.146.195-.195.294zm-1.13 11.697c.098-.688.245-1.376.442-2.064.442-1.376.933-2.703 1.326-4.08 0-.147.05-.245.05-.393.393-1.72.835-3.44.884-5.21.393 1.082-.737 5.948-2.703 11.747z"/></g></svg>