<svg id="svg-ratatui" class="svg-icon icon-ratatui" xmlns="http://www.w3.org/2000/svg" fill-rule="evenodd" text-rendering="geometricPrecision" viewBox="0 0 232.339 106.873" clip-rule="evenodd" image-rendering="optimizeQuality" shape-rendering="geometricPrecision" version="1">
  <path class="background" fill="#2e3ead" stroke="#2b2a29" stroke-width=".369" d="M116.092-.316c64.202 0 116.063 23.9 116.063 53.268S180.293 106.22 116.09 106.22C52.047 106.22.185 82.32.185 52.95.185 23.584 52.045-.316 116.09-.316z"/>
  <path class="border" fill="#ffed00" fill-rule="nonzero" d="M116.092 2.652c29.055 0 55.61 4.843 75.605 12.653 20.307 8.123 34.053 19.526 37.02 32.492l.314 1.406-1.404.156c-.938.154-1.72.466-2.344 1.247-.623.625-.936 1.406-.936 2.344s.313 1.72.938 2.344c.624.624 1.405 1.093 2.343 1.25l1.405.155-.312 1.405c-2.968 12.81-16.714 24.213-37.02 32.335-19.996 7.968-46.552 12.81-75.607 12.81-28.897 0-55.453-4.842-75.448-12.808C20.18 82.32 6.59 70.916 3.622 58.107L3.308 56.7l1.405-.155c.937-.157 1.718-.625 2.343-1.25s.937-1.406.937-2.343c0-.938-.313-1.72-.937-2.344-.625-.78-1.406-1.093-2.344-1.25l-1.405-.156.31-1.405c2.97-12.966 16.56-24.37 37.023-32.492 19.994-7.81 46.55-12.653 75.45-12.653zm74.668 15.153c-19.683-7.81-45.926-12.497-74.668-12.497-28.587 0-54.83 4.686-74.512 12.497C22.678 25.303 9.87 35.613 6.59 47.172c.936.312 1.717.937 2.342 1.562 1.093 1.094 1.562 2.656 1.562 4.218 0 1.562-.47 2.968-1.562 4.06-.625.782-1.406 1.407-2.343 1.72C9.87 70.29 22.68 80.6 41.58 88.098c19.682 7.81 45.925 12.496 74.512 12.496 28.742 0 54.985-4.687 74.668-12.497 18.9-7.5 31.71-17.81 34.99-29.368-.937-.314-1.718-.94-2.343-1.72-1.093-1.093-1.718-2.5-1.718-4.06 0-1.563.623-3.125 1.716-4.22.625-.624 1.406-1.25 2.343-1.56-3.28-11.56-16.09-21.87-34.99-29.368z"/>
  <path fill="#2c3c8a" fill-rule="nonzero" d="M43.61 67.48H31.115v-3.906l.156-.156 2.813-1.094V43.892l-2.812-1.094h-.155v-3.905h.312l9.217-.313h3.75c3.123 0 5.622.782 7.497 2.344 1.72 1.562 2.656 3.75 2.656 6.404 0 3.437-1.093 5.936-2.968 7.81-2.03 1.72-4.998 2.5-8.747 2.5h-1.874v4.686l2.812 1.094.156.156v3.905h-.312zm-2.655-23.432v8.28h1.875c1.56 0 2.81-.313 3.592-1.094.782-.625 1.25-1.72 1.25-3.125 0-1.25-.312-2.19-1.093-2.97-.627-.624-1.564-1.093-2.658-1.093h-2.968zm39.21 19.057l2.185.938h.313v3.436h-11.56V64.04h.156l2.34-.938-.623-1.874H65.79l-.624 1.875 2.343.938h.312v3.436H56.888V64.04h.157l2.343-.938 7.498-19.994v-.156h.156l5.467-.156h.31v.313l7.342 19.996zm-12.967-6.248h4.374l-2.03-6.56-2.344 6.56zm19.058 7.186l3.124-.938V47.64h-2.656l-.937 2.97v.155h-3.75v-7.967H102.5v7.967h-3.747v-.156l-.78-2.97H95.16v15.464l3.124.938h.156v3.436H86.1V64.04h.156zm39.052-.938l2.187.938h.312v3.436h-11.56V64.04h.313l2.187-.938-.625-1.874h-7.03l-.78 1.875 2.343.938h.312v3.436h-10.935V64.04h.157l2.34-.938 7.5-19.994v-.156h.31l5.31-.156h.315v.313l7.342 19.996zm-12.81-6.248h4.218l-2.03-6.56-2.187 6.56zm18.902 7.186l3.124-.938V47.64h-2.655l-.783 2.97-.156.155h-3.592v-7.967h20.306v7.967h-3.75v-.156l-.78-2.97h-2.656v15.464l2.968.938h.156v3.436h-12.34V64.04h.156zm32.335-20.932l9.685-.31h.313v3.75h-.157l-2.5.935-5.31 12.34c-1.093 2.344-2.187 4.375-3.593 5.78-1.406 1.563-2.968 2.344-4.842 2.344-1.092 0-2.185-.157-2.966-.47-.78-.156-1.562-.468-1.875-.625l-.313-.156v-.157l.937-3.906.156-.312.312.156c.468.158.937.314 1.562.314.625.156 1.25.156 1.874.156.625 0 1.094 0 1.562-.314.47-.312.938-.624 1.25-1.093l-7.81-14.06-2.5-.936h-.156V43.11h.313l10.466-.312h.312v3.75h-.156l-2.345.936 4.53 8.592 3.593-8.592-2.5-.937h-.157V43.11h.314zm37.96 3.438l-2.344.937v15.62l2.345.782.313.157v3.436H190.76v-3.437l.156-.157 2.5-.78v-9.373l-8.592 8.59v.782l2.5.938h.31v3.436H176.39V64.04l.156-.157 2.343-.78V47.483l-2.344-.937-.156-.156v-3.28h.313l10.623-.312h.312v3.593l-.312.158-2.5.937v9.373l8.592-8.592v-.78l-2.5-.938-.156-.156v-3.28h.312l10.466-.312h.468v3.593l-.312.157z"/>
  <path fill="#fefefe" fill-rule="nonzero" d="M42.986 66.854H30.333v-4.06h.156L33.3 61.7V43.265l-2.81-1.094-.158-.156V38.11h.312l9.217-.155h3.906c3.124 0 5.623.78 7.342 2.187 1.717 1.562 2.654 3.75 2.654 6.56 0 3.28-1.093 5.936-2.968 7.655-2.03 1.718-5 2.655-8.748 2.655h-1.874V61.7l2.812 1.093h.312v4.06h-.312zm-2.812-23.43V51.7h1.875c1.56 0 2.81-.47 3.59-1.093.78-.782 1.25-1.72 1.25-3.126 0-1.25-.31-2.342-.937-3.123-.625-.625-1.562-.937-2.812-.937h-2.967zm39.21 18.9l2.185.938.31.156v3.436H70.32v-3.436l.314-.157 2.187-.78-.624-2.03h-7.03l-.78 2.03 2.342.78.312.16v3.435H56.107V63.42l.156-.158 2.343-.936 7.498-19.838v-.157h.313l5.467-.156h.156l.157.156 7.185 19.994zm-12.81-6.092h4.373l-2.187-6.717-2.187 6.717zm19.057 7.03l2.97-.938V46.86h-2.656l-.78 2.968-.157.312h-3.593v-7.967h20.307v7.967h-3.75v-.312l-.78-2.968h-2.655v15.464l2.968.938.157.156v3.436H85.317v-3.436l.313-.157zm38.898-.938l2.343.938.157.156v3.436h-11.56v-3.436l.313-.157 2.186-.78-.625-2.03h-7.027l-.78 2.03 2.498.78.157.16v3.435h-10.934V63.42l.156-.158 2.342-.936 7.5-19.838v-.157h.31l5.47-.156h.155l.156.156 7.187 19.994zm-12.81-6.092h4.375l-2.187-6.717-2.187 6.717zm19.058 7.03l2.968-.938V46.86h-2.655l-.78 2.968-.16.312h-3.59v-7.967h20.306v7.967h-3.75v-.312l-.78-2.968h-2.656v15.464l2.967.938.313.156v3.436h-12.497v-3.436l.312-.157zm32.18-20.932l9.84-.157h.313v3.593h-.314l-2.5 1.094-5.31 12.184c-.937 2.5-2.187 4.53-3.593 5.936-1.406 1.406-2.968 2.187-4.842 2.187-1.093 0-2.03-.156-2.967-.313-.78-.312-1.406-.468-1.875-.624l-.312-.157.156-.312.938-3.747V61.7h.313c.47.156.938.312 1.563.468.625 0 1.25.156 1.874.156.625 0 1.094-.156 1.562-.468.468-.157.937-.47 1.25-.938l-7.81-14.058-2.344-1.094h-.313V42.33h.313l10.622-.157h.312v3.593h-.312l-2.343.938 4.53 8.747 3.75-8.745-2.657-.938h-.156V42.33h.313zm38.114 3.436l-2.5.938V62.48l2.343.782h.312v3.593H189.98V63.26h.313l2.5-.78v-9.372l-8.747 8.435v.937l2.5.78.31.158v3.436H175.61V63.26h.313l2.187-.78V46.703l-2.344-.937h-.156V42.33h.313l10.622-.157h.312v3.593h-.312l-2.5.938v9.372l8.748-8.592v-.78l-2.656-.938h-.156V42.33h.314l10.623-.156h.312v3.592h-.157z"/>
  <path fill="#957159" d="M229.812 50.92c1.093.938 1.25 2.5.312 3.594-.937 1.093-2.655 1.25-3.75.312-1.092-.937-1.248-2.5-.31-3.593.936-1.093 2.654-1.25 3.748-.312z"/>
  <g clip-path="url(#id0)" transform="translate(-35.43 -403.96) scale(.1562)">
    <path fill="#4c2625" stroke="#4c2625" stroke-width="2.362" d="M0 0h78.754v461.568H0z" transform="matrix(.0535 .0447 -.052 .062 1696.91 2908.46)"/>
  </g>
  <path fill="none" d="M229.798 50.894c1.093.938 1.25 2.5.312 3.593s-2.655 1.25-3.75.312-1.248-2.5-.31-3.594 2.654-1.25 3.748-.313z"/>
  <path fill="#4c2625" fill-rule="nonzero" d="M230.11 50.582c.625.47.937 1.25 1.093 2.03 0 .782-.156 1.563-.78 2.187v.155c-.47.624-1.25.937-2.03.937-.782.156-1.72-.156-2.344-.625-.627-.625-.94-1.406-1.096-2.187 0-.78.157-1.56.78-2.186.47-.624 1.25-1.093 2.032-1.093.78 0 1.562.158 2.187.627h.156v.156zm0 2.03c0-.468-.312-.937-.78-1.405-.313-.313-.938-.47-1.407-.47-.625.157-1.093.314-1.406.782-.468.467-.624.935-.468 1.56 0 .47.31 1.094.623 1.406.468.312 1.093.47 1.562.47.624 0 1.093-.314 1.405-.782.47-.47.626-.938.47-1.562z"/>
  <path fill="#957159" d="M5.807 50.894c1.093.938 1.093 2.5.312 3.593-.94 1.093-2.657 1.25-3.75.312s-1.25-2.5-.313-3.594 2.655-1.25 3.75-.313z"/>
  <g clip-path="url(#id1)" transform="translate(-35.43 -403.96) scale(.1562)">
    <path fill="#4c2625" stroke="#4c2625" stroke-width="2.362" d="M0 0h78.754v461.568H0z" transform="matrix(.0535 .0447 -.052 .062 262.865 2908.46)"/>
  </g>
  <path fill="none" d="M5.807 50.894c1.093.938 1.093 2.5.312 3.593-.94 1.093-2.657 1.25-3.75.312s-1.25-2.5-.313-3.594 2.655-1.25 3.75-.313z"/>
  <path fill="#4c2625" fill-rule="nonzero" d="M5.338 51.207c-.312-.313-.937-.47-1.406-.47-.624.157-1.093.314-1.405.782-.47.467-.625.935-.47 1.56 0 .47.313 1.094.626 1.406.468.312 1.093.47 1.562.47.468 0 1.093-.314 1.406-.782.47-.47.626-.938.47-1.562 0-.47-.312-.938-.78-1.406zm.78-.625c.626.47.938 1.25 1.095 2.03 0 .782-.157 1.563-.78 2.187v.155c-.626.624-1.25.937-2.032.937-.78.156-1.716-.156-2.34-.625-.626-.625-.938-1.406-1.094-2.187 0-.78.156-1.56.78-2.186.47-.624 1.25-1.093 2.03-1.093.782 0 1.563.158 2.344.627v.156z"/>
</svg>
