<svg xmlns="http://www.w3.org/2000/svg" class="svg-icon icon-smoke" viewBox="0 0 101.30037 167.75561">
  <path class="smoke" d="M40.05.79C44.674-.767 49.865.083 54.07 2.43c-2.565.14-5.074.762-7.528 1.494-2.018.624-4.016 1.36-5.872 2.376-.91.51-1.81 1.097-2.446 1.94.08.49.153.98.22 1.47-1.135-.884-2.31-1.834-2.955-3.157-.38-.76-.434-1.71.022-2.452.962-1.685 2.762-2.685 4.54-3.31zM58.124 3.812c.467-.163.93-.373 1.433-.383-.11.087-.227.163-.354.225-4.104 1.59-7.533 4.432-10.932 7.147-1.205.93-2.692 1.71-3.294 3.196-.285.928.098 1.91.59 2.696.735 1.19 1.793 2.227 2.142 3.62.184.84.09 1.804-.385 2.532-1.497.704-3.115 1.227-4.783 1.267-.94-1.39-2.28-2.476-3.09-3.96-.724-1.318-1.12-2.878-.823-4.378.243-1.262.974-2.383 1.88-3.274.957-.94 2.088-1.68 3.22-2.393 2.928-1.804 6.096-3.17 9.263-4.49 1.703-.626 3.425-1.2 5.134-1.805z"/>
  <path class="smoke" d="M61.918 4.3c.703 2.243.47 4.674-.136 6.91-.402 1.45-1.08 2.908-2.308 3.84-1.133.87-2.59 1.18-3.992 1.25-1.37.06-2.744.372-4.118.17-.443-.085-1.003-.233-1.136-.73-.343-1-.695-2-1.025-3.004 2.31.433 4.757 1.055 7.064.278 1.966-.683 3.233-2.48 4.15-4.255.774-1.378 1.304-2.89 1.5-4.46zM64.67 8.715c1.04.403 1.654 1.41 2.025 2.41.598 1.627.764 3.39.672 5.114-.106 1.678-.477 3.407-1.478 4.79-1.158 1.668-2.957 2.8-3.992 4.556-.103 1.47.187 2.942.055 4.414-1.25-.016-2.487-.23-3.732-.335.028-.743-.253-1.45-.272-2.19.263-.905.99-1.62 1.204-2.55.413-1.733.158-3.52.15-5.278-.098-.513.427-.764.712-1.094 1.886-1.877 3.677-4.012 4.44-6.61.307-1.045.358-2.15.217-3.228zM49.164 17.956c1.398.14 2.873.33 4.06 1.147.805.54 1.246 1.513 1.203 2.472-.043 1.68-.843 3.206-1.55 4.69 1.248.005 2.283.828 2.953 1.823-.028.987-.515 1.983-1.422 2.44-1.533.8-3.353.64-5.004.378-1.752-.35-3.55-.835-5.007-1.915.025-.265.003-.546.134-.788.322-.63.58-1.355 1.2-1.76 1.63-1.122 3.747-1.502 5.105-3.02.883-.962 1.022-2.357.794-3.592-.756-.71-1.656-1.233-2.466-1.874zM49.493 31.663c2.25.73 4.355 2.178 5.51 4.284.512.945.83 2.007.86 3.083-.134.495-.54.866-.858 1.255-1.384 1.52-3.004 2.827-4.227 4.49-.343.525-.8 1.19-.556 1.832.867.352 1.775.647 2.532 1.22.793.556 1.352 1.437 1.48 2.4.177 1.326-.17 2.66-.616 3.898-.208.49-.594 1.173-1.228 1.018-.978-.31-1.645-1.15-2.48-1.698-1.852-1.31-3.79-2.802-4.576-5.02-.51-1.23-.308-2.63.263-3.8 1.315-2.77 3.68-4.985 4.507-7.994.483-1.658.192-3.458-.61-4.967zM26.332 32.34c.557-.16 1.072-.523 1.676-.466 2.968.01 6.003.31 8.768 1.456 1.468.627 2.9 1.59 3.62 3.062.374.734.49 1.565.49 2.38-2.372-1.606-5.096-2.918-8.015-2.95-2.01-.043-3.98.712-5.54 1.96l-.06.59c.67.72 1.522 1.265 2.462 1.562 1.863.61 3.905.707 5.624 1.724-2.908-.082-5.82-.385-8.653-1.057-1.713-.438-3.45-.994-4.885-2.064-.882-.663-1.633-1.647-1.673-2.788.298-1.085 1.072-2.07 2.14-2.482 1.296-.51 2.726-.496 4.047-.925z"/>
  <path class="smoke" d="M58.144 32.675c3.253-.072 6.514-.046 9.755.25 1.838.18 3.68.43 5.452.977 1.142.362 2.3.873 3.077 1.822-.113 1.284-1.21 2.15-2.225 2.778-2.14 1.252-4.563 1.892-6.953 2.468-2.272.53-4.572.93-6.86 1.384-1.688.246-3.486.47-5.124-.133 1.478-.113 2.996-.345 4.308-1.078.533-.29.983-.788 1.026-1.417.26-1.725-.792-3.222-1.395-4.752 1.477 1.086 2.666 2.58 4.365 3.348.714.338 1.525.4 2.297.258.176-.535.424-1.144.15-1.692-.412-1.036-1.275-1.842-2.287-2.285-1.806-.805-3.848-.952-5.59-1.925zM39.643 32.884c1.922.193 3.886.523 5.604 1.452.91.504 1.772 1.267 2.054 2.3-.06 1.088-.692 2.045-1.388 2.845-1.186 1.307-2.727 2.34-4.455 2.752-1.066.26-2.344.117-3.094-.762-.242-.16.002-.41.11-.562.39-.496 1.034-.756 1.658-.718.827.03 1.59.457 2.15 1.05 1.258-.36 2.214-1.635 2.07-2.95-.52-1.237-1.36-2.324-2.337-3.237-.782-.733-1.61-1.413-2.37-2.17zM9.465 40.37c10.67 2.256 21.388 4.477 32.276 5.38.137 1.217.07 2.487-.42 3.623-2.266-.286-4.535-.55-6.798-.846-5.82-.912-11.71-1.472-17.44-2.882-2.013-.52-4.058-1.06-5.865-2.122-.73-.456-1.486-1.023-1.78-1.867-.162-.418-.066-.867.028-1.287zM76.697 42.503c1.204-.426 2.44-.906 3.382-1.797.785.074 1.658.164 2.263.73.46.423.417 1.14.13 1.65-.544 1.014-1.54 1.712-2.582 2.152-2.723 1.178-5.656 1.752-8.56 2.29-2.17.368-4.332.81-6.533.957-1.54.185-3.125.2-4.6.71-.187 1.15-.39 2.296-.585 3.444-.822-.48-1.697-.935-2.315-1.678-.42-.446-.204-1.082-.162-1.618.152-1.206.255-2.418.43-3.62 3.813-.362 7.62-.818 11.4-1.437 2.607-.448 5.22-.942 7.732-1.784zM45.74 52.558c1.224.644 2.213 1.65 3.072 2.718.878 1.148 1.683 2.49 1.67 3.983-.034 1.268-.98 2.23-1.76 3.132-.98 1.078-2.025 2.295-2.102 3.82.174.587.66 1.037 1.193 1.31.876.434 1.877.43 2.832.447-.52.67-1.257 1.134-1.767 1.812-.474.63-.56 1.44-.585 2.204-1.55-.577-3.22-.982-4.533-2.038-.85-.673-1.42-1.774-1.202-2.872.327-1.82 1.484-3.326 2.446-4.857.832-1.398 1.764-2.794 2.08-4.416.133-.753.17-1.563-.13-2.283-.404-.986-.828-1.966-1.215-2.962z"/>
  <path class="smoke" d="M52.64 57.57c1.216-.026 2.37.685 2.887 1.783.974 1.98.947 4.258.954 6.414-1.93.24-4.045.946-5.896.012-.463-.155-.52-.65-.59-1.06.732-1.15 1.665-2.19 2.16-3.478.467-1.162.536-2.434.487-3.67zM61.01 65.3c.856 1.097 1.744 2.224 2.132 3.584.25.86.248 1.81-.08 2.652-.26.632-.812 1.08-1.134 1.673-.092.54.02 1.102-.133 1.635-.333 1.124-.99 2.108-1.652 3.058-.286-.65-.342-1.392-.778-1.974-.628-1.01-1.79-1.51-2.93-1.655.345-.463.89-.704 1.276-1.126.73-.765 1.283-1.698 1.603-2.703.23-.702.114-1.452.246-2.168.17-.58.61-1.02.912-1.527.29-.438.423-.95.538-1.452z"/>
  <path class="smoke" d="M51.548 70.687c1.257-1.564 3.11-2.446 4.71-3.6.47.83.645 1.79.664 2.734-1.27.77-2.29 1.883-3.175 3.06-1.02 1.41-1.918 3.056-1.893 4.844.007 1.338.878 2.45 1.797 3.33 1.194 1.17 2.67 2.19 3.285 3.808.436 1.048.02 2.238-.675 3.068-.78.95-1.975 1.73-3.255 1.53.88-.862 1.635-2.035 1.43-3.325-.255-1.662-1.353-3.006-2.222-4.39-1.174-1.777-2.262-3.75-2.3-5.933-.01-1.815.497-3.687 1.635-5.125z"/>
  <path class="smoke" d="M54.142 77.39c1.235-.28 2.598.333 3.207 1.444.635 1.095.463 2.46-.056 3.566-1.266-.864-2.486-1.918-3.16-3.322-.284-.535-.217-1.15.008-1.69zM44.753 78.666c1.913 1.077 3.547 2.583 5.086 4.133.766.815 1.523 1.663 2.048 2.66.278.513.406 1.146.174 1.705-.263.687-.888 1.13-1.466 1.54-.584-.506-1.168-1.01-1.746-1.52-1.28-1.25-3.402-1.096-4.555-2.53.486-.932 1.126-1.854 1.172-2.94.004-1.06-.426-2.05-.714-3.05zM60.608 80.443c.865.528 1.234 1.515 1.52 2.434-.535.238-1.075.466-1.614.692.118-1.038.246-2.086.094-3.127zM61.71 85.542c2.22-.81 4.575-1.335 6.95-1.27.633.69 1.25 1.4 1.88 2.095-3.122.02-6.22.934-8.88 2.556-3.992 2.424-7.08 6.244-8.764 10.586-.56 1.41-.824 2.915-1.057 4.407-.147 1.032-.087 2.077-.15 3.114-1.406-1.616-1.74-3.885-1.63-5.96.086-2.118 1.03-4.067 2.06-5.876 1.364-2.347 3.01-4.537 4.928-6.458 1.343-1.33 2.863-2.55 4.663-3.194zM43.214 86.79c1.41.234 2.58 1.102 3.82 1.75 1.005.564 2.076 1.172 2.672 2.2.557.97.367 2.17-.068 3.15-.808 1.845-2.162 3.368-3.235 5.057-.624.96-1.212 2.097-.926 3.278.28 1.434 1.493 2.397 2.047 3.7.562 1.67.363 3.47.206 5.192-1.076-1.5-1.792-3.224-2.865-4.727-.92-1.28-2.398-2.1-3.1-3.55-.61-1.25-.66-2.817.088-4.018 1.113-1.87 3.296-2.736 4.487-4.536.694-1.025.45-2.348-.025-3.408-.688-1.602-2.073-2.723-3.1-4.09z"/>
  <path class="smoke" d="M77.737 87.317c1.805 1.16 2.67 3.762 1.61 5.692-.724 1.293-2.207 1.844-3.55 2.252-3.16.886-6.486.872-9.664 1.673-1.343.342-2.687.888-3.67 1.9.37 1.812 2.03 3.056 2.29 4.9.042 1.05-.985 1.647-1.62 2.325-1.273 1.43-1.63 3.413-1.758 5.263-1.123-.483-1.998-1.49-2.255-2.693-.427-1.92.146-3.938 1.114-5.605.79-1.193 2.164-2.155 2.18-3.72.024-2.045-2.093-3.22-2.375-5.163 1.694-.685 3.32-1.54 5.063-2.102 3.012-1.008 6.286-.847 9.28-1.923 1.408-.492 2.674-1.452 3.354-2.8zM37.333 92.486c-1.34-1.272-1.44-3.34-.86-5 .582 1.038.983 2.175 1.654 3.162.327.48.79.938 1.4.987 1.485.155 2.99-.517 4.457-.07.475.18 1.07.47 1.078 1.056-2.173 1.745-5.664 1.82-7.73-.134zM54.69 100.873c.69-.51 1.517-.82 2.325-1.095.31 2.9.103 5.886-.817 8.666-.467 1.382-1.118 2.724-2.062 3.845-1.394 1.706-3.71 2.323-5.055 4.083-.747.944-.664 2.31-.09 3.322.87 1.577 2.314 2.71 3.558 3.974.762.78 1.577 1.608 1.87 2.69.287 1.095-.402 2.205-1.31 2.775-1.188.75-2.627.927-4 1.01-1.05.072-2.102-.043-3.15-.116 1.187-.39 2.508-.595 3.463-1.467.406-.356.598-.944.41-1.46-.287-.845-.938-1.49-1.53-2.132-1.25-1.322-2.69-2.547-3.475-4.23-.467-.968-.47-2.146.046-3.098.833-1.606 2.344-2.693 3.76-3.75 1.797-1.328 3.757-2.55 5.07-4.4.67-.925 1.413-1.842 1.728-2.96.143-.574.24-1.227-.063-1.768-.39-.75-.78-1.497-1.172-2.243-.375-.56.083-1.246.496-1.647z"/>
  <path class="smoke" d="M43.633 107.71c.845.79 1.29 1.896 1.596 2.988.31 1.135.19 2.373-.317 3.434-.9 1.95-2.67 3.306-3.692 5.18-.845 1.71-.948 3.73-.506 5.57.447 1.902 1.423 3.628 2.518 5.227-2.186-.155-4.425-.926-5.948-2.56-1.093-1.153-1.72-2.72-1.76-4.305-.062-1.762.503-3.494 1.348-5.022.438-.782 1.202-1.283 1.898-1.808 1.476-1.112 2.926-2.363 3.796-4.025.77-1.432 1.03-3.07 1.067-4.68zM49.372 108.438c.69-.25 1.38-.703 2.146-.523.593.043 1.147.387 1.347.964-.748.57-1.566 1.233-2.554 1.222-.787-.077-1.074-.99-.938-1.664z"/>
  <path class="smoke" d="M60.184 118.115c-.726-1.516-1.846-2.786-2.8-4.156 1.43.568 2.677 1.52 3.775 2.586.895.9 1.754 1.92 2.125 3.158.615 2.174-1.228 4.297-.328 6.442.873.376 1.74.768 2.622 1.13-.322.175-.578.436-.66.803 1.015.905 2.468.766 3.646 1.308.597.266.956.896.977 1.537.108.567-.375.986-.73 1.352-1.157 1.04-2.687 1.5-4.142 1.958-.702.2-1.387.463-2.102.618-.04-1.153.4-2.233.943-3.225-2.34.008-4.724.52-6.72 1.777-1.11.69-2.056 1.63-2.752 2.734-1.914.123-3.832.065-5.748.07.32-.323.7-.77.52-1.258-.283-.67-1.076-.907-1.745-.932-.943-.024-1.93.17-2.718.712-.43.24-.088.783-.026 1.14-2.655-.375-5.325-.94-7.75-2.126-1.325-.652-2.623-1.57-3.242-2.96-.628.4-1.023 1.16-.863 1.903.273.56.79.95 1.186 1.42-1.46-.336-2.844-.964-4.12-1.743-.577-.388-1.222-.802-1.488-1.476-.17-.775.482-1.405 1.056-1.814 1.38-.93 2.996-1.46 4.617-1.782.776 1.568 2.36 2.505 3.908 3.18 2.427 1.026 5.042 1.516 7.647 1.81 3.274.324 6.6.31 9.844-.282 1.682-.335 3.404-.795 4.802-1.828.478-.35.972-.938.713-1.565-.43-1.032-1.702-1.74-1.53-2.986.49-1.41 1.158-2.76 1.672-4.165.26-1.14-.096-2.318-.588-3.345z"/>
  <path class="text" d="M54.32 115.514c1.523.565 2.694 1.84 3.44 3.25.466.854.566 1.896.183 2.8-.334.884-.913 1.647-1.28 2.516-2.082-1.333-4.022-3.045-5.2-5.248.04-.096.114-.287.153-.383.98.187 1.934.636 2.956.47.634-.894-.07-1.902-.348-2.784-.13-.224-.037-.433.097-.622zM66.782 116.506c.746.264 1.465.758 1.75 1.528.384.962.065 2.036-.482 2.867-.966-.286-1.935-.57-2.9-.856.654-1.124 1.305-2.27 1.632-3.538zM43.43 123.503c1.073.825 2.195 1.78 2.587 3.13.26.594-.373.99-.716 1.373-.4-.408-.846-.77-1.218-1.204-.625-.968-.81-2.167-.653-3.3zM82.01 130.352c1.218.597 2.523 1.242 3.29 2.413.44.656.382 1.55-.07 2.184-.776 1.122-1.997 1.82-3.17 2.46-2.623 1.346-5.437 2.26-8.226 3.19-4.18 1.305-8.526 1.99-12.874 2.44-4.907.486-9.848.63-14.776.463-4.465-.183-8.957-.53-13.304-1.61-2.29-.657-4.69-1.167-6.712-2.482-1.193-.762-2.102-2.006-2.256-3.437 4.235 1.997 8.928 2.736 13.547 3.207 5.413.5 10.873.458 16.288-.01 4.87-.43 9.72-1.212 14.444-2.483 2.236-.6 4.483-1.173 6.67-1.937 2.628-.955 5.41-2.097 7.147-4.398zM97.89 148.514c.27-.563.7-1.157 1.365-1.252.6-.06 1.197.253 1.614.67.13.48-.388.615-.718.755-.337.098-.47.452-.602.742-.347.83-.456 1.732-.543 2.622.62-.084 1.228-.344 1.86-.263.404.07.614.71.234.94-.704.428-1.566.407-2.342.63-.09 1.707-.47 3.42-.186 5.13.48-.45.816-1.073 1.416-1.378.273-.16.562.015.83.095-.23 1.1-.94 2.06-1.785 2.774-.517.43-1.144-.072-1.694-.154-.548-.067-.616-.688-.653-1.124-.12-1.67.024-3.347.212-5.007-.353-.026-.785.116-1.07-.146-.128-.15-.303-.41-.154-.59.373-.457.963-.642 1.484-.874.042-1.218.213-2.458.73-3.572zM39.19 148.77c.334-.257.657-.572 1.073-.684.97.02 1.735.71 2.387 1.356l-.104.653c-.687.076-1.435-.523-2.045-.01-.9.696-1.488 1.7-2.074 2.66-.966 1.698-1.835 3.472-2.39 5.35 1.353-.633 2.032-2.215 3.51-2.63.415-.18.783.14 1.132.32.43.248.99.578.916 1.162-.085.76-.502 1.504-1.113 1.968-.62.296-1.26-.12-1.738-.498.035-.57.57-.878.81-1.35-.744.363-1.22 1.068-1.795 1.638.603 1.517 1.16 3.136 2.352 4.307.337.297.71.663 1.19.668.51-.08 1.07-.41 1.532 0-.232.974-1.102 1.78-2.113 1.85-.633.04-1.14-.414-1.573-.814-1.246-1.242-1.77-2.98-2.82-4.366-.886.86-1.057 2.167-1.866 3.08-.628-.007-1.168-.337-1.61-.76-.048-1.473.642-2.812 1.13-4.16.625-1.757 1.257-3.516 2.06-5.2.803-1.66 1.743-3.317 3.15-4.54zM63.244 150.79c.548-.966 1.155-2 2.144-2.567.677-.03 1.35.155 1.97.417.442.202.905.47 1.128.922.068.39-.387.627-.72.535-.538-.07-1.12-.445-1.642-.123-.524.38-.826.98-1.133 1.536-.638 1.243-1.127 2.556-1.56 3.883.703.08 1.42.077 2.118.2.29.174.164.56.013.79-.86.26-1.77.32-2.656.463-.958 2.617-1.59 5.344-2.105 8.08-.21.925.284 1.993-.248 2.83-.615-.048-1.357-.148-1.672-.76-.44-.904-.09-1.927.126-2.845.6-2.41 1.174-4.83 1.957-7.19-.305-.027-.636.034-.92-.096-.168-.197-.28-.432-.403-.653.074-.125.148-.25.222-.372.542-.15 1.085-.297 1.627-.445.407-1.594.976-3.152 1.754-4.604zM12.042 148.94c.522-.048 1.07-.342 1.582-.095.344.36.675.744 1.163.916.516.236.257.89.06 1.264-.506.88-1.163 1.73-2.044 2.258-.718.292-1.343-.312-1.803-.785.06-.185.03-.414.176-.554.232-.123.492-.182.72-.312.458-.36.71-.91.902-1.447-1.035-.275-2.074.555-3.063.04-.495.586-1.443.93-1.397 1.835.056 1.122.57 2.156.952 3.198.4 1.05.88 2.17.653 3.316-.17.863-.87 1.493-1.6 1.917-.812.465-1.66 1.07-2.646.97-1.416-.142-2.64-.984-3.69-1.892-.694-.637-1.384-1.325-1.794-2.187-.26-.603-.354-1.415.145-1.926.42-.42 1.07-.377 1.607-.27.165.625.07 1.344.498 1.875.835 1.16 2.025 2.07 3.367 2.565.532.17 1.222.288 1.673-.125.427-.496.347-1.223.228-1.82-.42-1.7-1.418-3.25-1.522-5.03-.07-.91.343-1.836 1.096-2.362.696-.48 1.554-1.094 2.43-.674.61-.605 1.52-.54 2.308-.673zM74.7 150.092c.45.094.803-.248 1.206-.37.322-.046.442.294.566.52 1.236.146 2.473.29 3.71.425.578.114.92-.56 1.51-.48.234.427.587.913.398 1.426-.245.51-.875.608-1.376.68-1.536.148-3.07-.112-4.586-.333-.163 1-.336 2-.495 3.002 1.265-.126 2.517-.563 3.798-.398.67.054 1.17.682 1.178 1.332-.025.264-.278.417-.484.542-.635.345-1.523.507-2.08-.066-.842.086-1.686.15-2.525.238-.35.03-.3.487-.408.734-.195 1.005-.547 1.967-.978 2.894 1.88-.058 3.76-.114 5.64-.176.09-.192.186-.38.285-.568.22.01.444.02.667.034.38.442.652.98.71 1.566-.176.43-.537.836-.976 1.02-1.426-.05-2.838-.36-4.27-.327-1.104.01-2.207.12-3.295.304-.56.084-1.03.424-1.527.67-.298.13-.73.298-.944-.053-.265-.515-.582-1.256-.135-1.758.534-.495 1.322-.458 2-.504.483-1 .96-2.017 1.185-3.112-.343-.398-.674-.89-.55-1.442.276-.327.712-.444 1.086-.618.196-1.15.405-2.298.607-3.447-.986-.02-2.01-.168-2.965.148-.5.142-.75.736-.55 1.208.197.564.668 1.26.108 1.775-.267-.104-.694-.045-.793-.385-.383-.937-.778-1.922-.74-2.952.006-.65.447-1.257 1.077-1.433 1.278-.396 2.64-.205 3.947-.095zM94.357 152.345c.45-.24.963.176 1.07.617.205.73.038 1.61-.532 2.134-.324.297-.99.3-1.178-.147-.14-.433-.073-.894-.085-1.336-.282.198-.594.383-.77.69.145.84.78 1.474 1.23 2.168.47.68.98 1.517.7 2.375-.21.643-1.074.72-1.29 1.364-.185.65-.935.742-1.503.8-.826.05-1.738.036-2.428-.477.03-.115.092-.345.12-.46.95-.403 2.034-.376 2.94-.88.39-.2.452-.71.263-1.068-.494-1.036-1.51-1.743-1.913-2.83-.267-.666.055-1.446.64-1.823.83-.554 1.855-.672 2.735-1.127z"/>
  <path class="text" d="M85.85 153.447c.68-.11 1.264.405 1.89.603.496-.798 1.47-.21 1.99.245-.003 1.12-.37 2.186-.59 3.274.302-.102.615-.116.918-.016.176.92-.675 1.61-.77 2.493-.118.445.024 1.15-.558 1.29-.55.073-1.192-.17-1.49-.65-.277-.832-.07-1.727.047-2.568-.665 1.203-1.493 2.348-2.597 3.186-.452.327-.98.636-1.556.605-.65-.036-1.184-.63-1.203-1.272-.067-1.17.388-2.28.818-3.343.66-1.52 1.607-3.038 3.1-3.848zm-2.196 7.072c.53-.59 1.032-1.206 1.568-1.79.97-1.098 1.96-2.268 2.32-3.722-.29-.024-.577-.04-.865-.06-1.713 1.32-2.957 3.38-3.023 5.57zM13.303 154.055c.634-.53 1.51.05 1.955.57.216.628-.184 1.247-.393 1.825.927-.773 1.663-1.838 2.83-2.274.514-.238 1.03.083 1.437.383.35.244.648.613.67 1.06.035.594-.214 1.152-.398 1.705 1.137-.92 2.068-2.16 3.458-2.715.665-.303 1.167.348 1.73.578.358.12.522.498.485.86-.065.978-.532 1.865-.88 2.765.2.092.502.1.552.367.14.286-.144.51-.282.734-.825 1.038-1.704 2.035-2.666 2.948-.56-.063-1.292-.14-1.55-.73 0-.72.623-1.19.972-1.754.845-1.342 1.448-2.827 1.905-4.342-1.232.503-2.203 1.446-3.094 2.402-1.05 1.157-2 2.404-2.825 3.73-.683.102-1.272-.3-1.683-.807.203-.723.75-1.26 1.102-1.907.66-1.19 1.1-2.5 1.31-3.845-1.396.752-2.53 1.893-3.527 3.106-.51.64-1.038 1.273-1.403 2.01-.214.374-.414.814-.83 1.002-.583.106-1.053-.337-1.455-.69l-.016-.42c1.283-1.36 1.99-3.17 2.48-4.95-.422.28-1.06.766-1.494.233.036-.898.954-1.383 1.607-1.845zM28.394 155.135c.553-.457 1.2.142 1.66.464.785-.266 1.768-.332 2.424.26.47.42.486 1.112.35 1.684-.344 1.61-1.02 3.21-2.22 4.367-.837.814-2.028 1.272-3.195 1.114-.912-.107-1.97-.45-2.355-1.367-.378-.977-.003-2.046.427-2.938.71-1.373 1.678-2.64 2.91-3.585zm.21 2.063c-.648 1.11-1.52 2.143-1.787 3.43-.12.46.038.924.288 1.312.795-.05 1.53-.44 2.062-1.02 1.094-1.177 1.735-2.733 1.948-4.315-.853.124-1.673.393-2.51.593zM44.35 155.568c.46-.35 1.01.028 1.516-.074.486-.105.987-.13 1.47.01-.076 1.18.202 2.523-.515 3.555-.836.925-2.23.64-3.34.61-.283.835-.558 1.685-.585 2.576 1.31-.18 2.19-1.246 3.243-1.928.42-.27 1.014-.546 1.444-.145-.417 1.098-1.38 1.855-2.272 2.56-.547.384-1.122.79-1.794.9-.68.025-1.19-.503-1.763-.785-.3-.163-.657-.364-.682-.745-.06-.998.36-1.942.71-2.854-.12-.22-.293-.438-.258-.704.163-.27.495-.266.767-.322.453-1.03 1.1-2.035 2.06-2.656zm-.314 3.1c.455-.045.96-.016 1.357-.28.25-.493.266-1.066.2-1.604-.63.526-1.18 1.15-1.557 1.884zM53.775 156.12c.367-.37.877-.803 1.432-.626.35.07.64.287.92.494.734-.293 1.64-.44 2.33.045.658.45.788 1.34.65 2.077-.233 1.198-.638 2.37-1.22 3.442-.466.817-1.088 1.627-1.994 1.974-.802.307-1.657.016-2.46-.13-.7-.148-1.46-.505-1.717-1.227-.295-.89-.03-1.842.262-2.696.443-1.19 1.03-2.34 1.797-3.355zm1.115 1.564c-.572 1.182-1.25 2.37-1.385 3.7-.05.44.125 1.06.65 1.096.934.07 1.577-.766 2-1.486.697-1.25 1.107-2.666 1.164-4.096-.822.223-1.62.525-2.43.786z"/>
</svg>
