<svg xmlns="http://www.w3.org/2000/svg" width="42" height="32" viewBox="0 0 42 32"><g fill="#828282"><path class="second" d="M39.5 6H32c-1.927 0-1.998-1.797-2-2V3c0-1.258-1.39-3-4-3h-9.97c-2.934 0-4 1.794-4 3v.994C12.03 4.076 11.984 6 10 6H2.5C1.12 6 0 7.122 0 8.5v18C0 27.878 1.12 29 2.5 29h6c.276 0 .5-.224.5-.5s-.224-.5-.5-.5h-6c-.827 0-1.5-.673-1.5-1.5V14h8c-.644 1.54-1 3.23-1 5 0 7.168 5.832 13 13 13s13-5.832 13-13c0-1.77-.36-3.46-1.003-5H41v12.5c0 .827-.673 1.5-1.5 1.5h-7c-.276 0-.5.224-.5.5s.224.5.5.5h7c1.38 0 2.5-1.122 2.5-2.5v-18C42 7.122 40.88 6 39.5 6zM21 31c-6.617 0-12-5.383-12-12S14.383 7 21 7s12 5.383 12 12-5.383 12-12 12zm11.75-18c-.074 0-.143.018-.206.047C30.38 8.867 26.022 6 21 6s-9.38 2.868-11.544 7.047c-.063-.03-.132-.047-.206-.047H1V8.5C1 7.673 1.673 7 2.5 7H10c2.368 0 3.02-1.958 3.03-3V3c0-.804.8-2 3-2H26c2.094 0 3 1.324 3 2v1c0 1.038.627 3 3 3h7.5c.827 0 1.5.673 1.5 1.5V13h-8.25z"/><path class="first" d="M21 10c-4.963 0-9 4.038-9 9s4.037 9 9 9 9-4.038 9-9-4.037-9-9-9zm0 17c-4.41 0-8-3.59-8-8s3.59-8 8-8 8 3.59 8 8-3.59 8-8 8z"/></g></svg>