<svg xmlns="http://www.w3.org/2000/svg" width="42" height="32" viewBox="0 0 42 32"><g fill="#828282"><path d="M39.5 14h-37c-.154 0-.3.07-.395.192-.095.12-.128.28-.09.43L6.02 30.637C6.116 30.975 6.41 32 7.5 32h27c1.093 0 1.385-1.026 1.485-1.38l4-16c.037-.148.004-.307-.09-.428-.095-.12-.24-.192-.395-.192zm-4.48 16.363c-.182.637-.37.637-.52.637h-27c-.15 0-.336 0-.515-.62L3.14 15h35.72l-3.84 15.363z"/><path d="M18.5 28c.276 0 .5-.224.5-.5v-9c0-.276-.224-.5-.5-.5s-.5.224-.5.5v9c0 .276.224.5.5.5zM11.5 28c.018 0 .036 0 .056-.003.274-.03.472-.278.44-.552l-1-9c-.03-.275-.27-.47-.552-.442-.274.03-.472.278-.44.552l1 9c.027.256.244.445.495.445zM24.5 28c.276 0 .5-.224.5-.5v-9c0-.276-.224-.5-.5-.5s-.5.224-.5.5v9c0 .276.224.5.5.5zM30.444 27.997L30.5 28c.252 0 .47-.19.497-.445l1-9c.03-.274-.167-.52-.44-.552-.288-.028-.523.167-.554.442l-1 9c-.03.274.167.52.44.552zM34.5 12c.116 0 .232-.04.327-.122.21-.18.23-.496.05-.705l-9.5-11c-.18-.21-.495-.23-.704-.052-.21.182-.23.497-.05.706l9.5 11c.098.115.237.174.377.174zM17.816.113c-.213-.173-.528-.144-.703.07l-9 11c-.175.214-.144.53.07.705.093.075.206.112.317.112.145 0 .288-.062.387-.184l9-11c.175-.213.143-.528-.07-.703zM41.5 10h-4c-.276 0-.5.224-.5.5s.224.5.5.5h4c.276 0 .5-.224.5-.5s-.224-.5-.5-.5zM13.5 11h16c.276 0 .5-.224.5-.5s-.224-.5-.5-.5h-16c-.276 0-.5.224-.5.5s.224.5.5.5zM.5 11h5c.276 0 .5-.224.5-.5s-.224-.5-.5-.5h-5c-.276 0-.5.224-.5.5s.224.5.5.5z"/></g></svg>