<svg xmlns="http://www.w3.org/2000/svg" width="64" height="64" viewBox="0 0 64 64"><path d="M25 60c13.785 0 25-11.215 25-25S38.785 10 25 10 0 21.215 0 35s11.215 25 25 25zm0-46c11.58 0 21 9.42 21 21s-9.42 21-21 21S4 46.58 4 35s9.42-21 21-21z"/><path d="M25 52c9.374 0 17-7.626 17-17s-7.626-17-17-17S8 25.626 8 35s7.626 17 17 17zm0-30c7.168 0 13 5.832 13 13s-5.832 13-13 13-13-5.832-13-13 5.832-13 13-13zM55 64c1.104 0 2-.896 2-2V23.72c4.115-1.137 7-5.634 7-9.72 0-4.276-3.4-14-9-14s-9 9.724-9 14c0 4.085 2.885 8.583 7 9.72V62c0 1.104.896 2 2 2zm-5-50c0-4.12 3.234-10 5-10s5 5.88 5 10c0 2.718-2.23 6-5 6s-5-3.282-5-6z"/></svg>