<svg xmlns="http://www.w3.org/2000/svg" width="42" height="32" viewBox="0 0 42 32"><g fill="#828282"><path d="M1.5 17c-.276 0-.5.224-.5.5v12c0 .827.673 1.5 1.5 1.5h10c.276 0 .5-.224.5-.5s-.224-.5-.5-.5h-10c-.276 0-.5-.224-.5-.5v-12c0-.276-.224-.5-.5-.5zM40.5 17c-.276 0-.5.224-.5.5v12c0 .276-.224.5-.5.5h-21c-.276 0-.5.224-.5.5s.224.5.5.5h21c.827 0 1.5-.673 1.5-1.5v-12c0-.276-.224-.5-.5-.5zM18 1.5c0 .276.224.5.5.5h21c.276 0 .5.224.5.5v8.958c0 .276.224.5.5.5s.5-.224.5-.5V2.5c0-.827-.673-1.5-1.5-1.5h-21c-.276 0-.5.224-.5.5zM2.5 1C1.673 1 1 1.673 1 2.5v8.958c0 .276.224.5.5.5s.5-.224.5-.5V2.5c0-.276.224-.5.5-.5h10c.276 0 .5-.224.5-.5s-.224-.5-.5-.5h-10z"/><path d="M41.5 13.958H21.1c.397-.176.74-.38.984-.625 1.51-1.51 1.51-3.97 0-5.48-1.464-1.464-4.016-1.464-5.48 0-.235.235-.432.563-.604.94V.5c0-.276-.224-.5-.5-.5s-.5.224-.5.5v13.225c-1.703-.702-4.7-2.144-5.316-3.387-.4-.808-.46-1.722-.173-2.576.29-.854.893-1.543 1.7-1.943.248-.124.35-.423.227-.67-.124-.25-.422-.35-.67-.228-1.047.518-1.83 1.413-2.203 2.52-.374 1.107-.294 2.293.224 3.34.605 1.22 2.63 2.39 4.275 3.176H.5c-.276 0-.5.224-.5.5s.224.5.5.5h9.346c-.387.174-.722.375-.96.614-1.512 1.51-1.512 3.97 0 5.48.73.732 1.704 1.135 2.74 1.135s2.007-.403 2.74-1.135c.247-.248.455-.6.634-1.005V31.5c0 .276.224.5.5.5s.5-.224.5-.5V15.195c1.708.706 4.673 2.138 5.285 3.374.4.807.46 1.72.173 2.575-.29.854-.892 1.543-1.7 1.943-.247.123-.348.422-.226.67.087.176.265.278.45.278.073 0 .15-.017.22-.052 1.047-.518 1.83-1.413 2.203-2.52.374-1.107.294-2.292-.224-3.34-.6-1.215-2.61-2.38-4.25-3.166H41.5c.276 0 .5-.224.5-.5s-.224-.5-.5-.5zM17.31 8.56c.544-.542 1.266-.84 2.034-.84s1.49.298 2.033.84c1.12 1.122 1.12 2.946 0 4.067-.854.854-3.79 1.202-5.367 1.3.112-1.864.522-4.587 1.3-5.366zM13.66 20.346c-1.086 1.086-2.98 1.086-4.066 0-1.12-1.12-1.12-2.945 0-4.066.854-.855 3.79-1.203 5.367-1.3-.113 1.863-.523 4.586-1.302 5.365z"/></g></svg>