<svg xmlns="http://www.w3.org/2000/svg" width="32" height="32" viewBox="0 0 32 32"><g fill="#828282"><path d="M16-.034C7.16-.034-.035 7.158-.035 16S7.16 32.034 16 32.034 32.035 24.842 32.035 16 24.84-.034 16-.034zm0 31C7.748 30.966 1.035 24.252 1.035 16S7.748 1.034 16 1.034 30.965 7.748 30.965 16 24.252 30.966 16 30.966z"/><path d="M10.5 16.5c1.103 0 2-.897 2-2s-.897-2-2-2-2 .897-2 2 .897 2 2 2zm0-3c.55 0 1 .448 1 1s-.45 1-1 1-1-.448-1-1 .45-1 1-1zM21.5 16.5c1.103 0 2-.897 2-2s-.897-2-2-2-2 .897-2 2 .897 2 2 2zm0-3c.55 0 1 .448 1 1s-.45 1-1 1-1-.448-1-1 .45-1 1-1zM22.823 22.075c-1.696 1.837-4.097 2.89-6.588 2.89-2.53 0-4.956-1.08-6.656-2.966-.2-.22-.538-.238-.756-.04-.22.198-.237.536-.04.756 1.904 2.11 4.62 3.318 7.45 3.318 2.79 0 5.477-1.18 7.374-3.234.2-.217.187-.555-.03-.755s-.555-.188-.755.03z"/></g></svg>