<svg xmlns="http://www.w3.org/2000/svg" width="37" height="32" viewBox="0 0 37 32"><path fill="#828282" d="M27 0c-2.476 0-4.856.92-6.704 2.595-.702.635-1.303 1.357-1.796 2.154-.493-.798-1.094-1.52-1.796-2.156C14.856.92 12.476 0 10 0 4.486 0 0 4.486 0 10c0 3.722 1.158 6.66 3.87 9.825 3.943 4.6 13.92 11.62 14.343 11.917.086.06.187.09.287.09s.2-.03.287-.09c.423-.297 10.4-7.317 14.343-11.917C35.842 16.66 37 13.722 37 10c0-5.514-4.486-10-10-10zm5.37 19.175C28.877 23.25 20.19 29.515 18.5 30.72c-1.69-1.204-10.376-7.47-13.87-11.545C2.085 16.205 1 13.462 1 10c0-4.963 4.038-9 9-9 2.227 0 4.37.83 6.032 2.335.838.76 1.518 1.656 2.02 2.664.17.34.726.34.896 0 .502-1.01 1.182-1.905 2.02-2.664C22.63 1.83 24.773 1 27 1c4.962 0 9 4.037 9 9 0 3.462-1.085 6.206-3.63 9.175z"/></svg>