<svg xmlns="http://www.w3.org/2000/svg" width="38" height="32" viewBox="0 0 38 32"><g fill="#828282"><path d="M20.06.413c-.58-.533-1.54-.533-2.12 0L.254 11.083c-.15.092-.242.254-.242.43v18.92C.01 31.298.718 32 1.586 32h34.83c.868 0 1.574-.703 1.574-1.566V11.512c0-.175-.093-.337-.243-.428L20.06.414zm-1.556.827c.035-.02.066-.046.095-.074.107-.107.25-.166.4-.166s.293.06.4.166c.03.028.06.053.095.074l17.227 10.394-12.478 7.436c-.237.142-.315.448-.174.686.094.157.26.244.43.244.087 0 .175-.022.255-.07L37 12.64v17.757L20.065 19.13c-.538-.428-1.594-.428-2.096-.024L1 30.392V12.64l12.244 7.29c.08.048.17.07.256.07.17 0 .336-.087.43-.244.14-.237.063-.544-.174-.686l-12.48-7.436L18.505 1.24zM36.09 31H1.902l16.656-11.086c.173-.138.712-.137.92.025L36.09 31z"/><path d="M6.5 13h25c.276 0 .5-.224.5-.5s-.224-.5-.5-.5h-25c-.276 0-.5.224-.5.5s.224.5.5.5z"/></g></svg>