<svg xmlns="http://www.w3.org/2000/svg" viewBox="0 0 42 32"><g fill="#828282"><path d="M37 29c1.196 0 2-.804 2-2V.5c0-.276-.224-.5-.5-.5s-.5.224-.5.5V27c0 .87-.627 1-1 1-.103 0-1-.028-1-1V.5c0-.276-.224-.5-.5-.5s-.5.224-.5.5V27c0 1.313 1.006 2 2 2zM4.5 21h10c.276 0 .5-.224.5-.5v-9c0-.276-.224-.5-.5-.5h-10c-.276 0-.5.224-.5.5v9c0 .276.224.5.5.5zm.5-9h9v8H5v-8zM4.5 8h24c.276 0 .5-.224.5-.5v-4c0-.276-.224-.5-.5-.5h-24c-.276 0-.5.224-.5.5v4c0 .276.224.5.5.5zM5 4h23v3H5V4zM28.5 11h-10c-.276 0-.5.224-.5.5s.224.5.5.5h10c.276 0 .5-.224.5-.5s-.224-.5-.5-.5zM28.5 14h-10c-.276 0-.5.224-.5.5s.224.5.5.5h10c.276 0 .5-.224.5-.5s-.224-.5-.5-.5zM28.5 17h-10c-.276 0-.5.224-.5.5s.224.5.5.5h10c.276 0 .5-.224.5-.5s-.224-.5-.5-.5zM28.5 20h-10c-.276 0-.5.224-.5.5s.224.5.5.5h10c.276 0 .5-.224.5-.5s-.224-.5-.5-.5zM28.5 23h-10c-.276 0-.5.224-.5.5s.224.5.5.5h10c.276 0 .5-.224.5-.5s-.224-.5-.5-.5zM4.5 24h10c.276 0 .5-.224.5-.5s-.224-.5-.5-.5h-10c-.276 0-.5.224-.5.5s.224.5.5.5zM28.5 26h-10c-.276 0-.5.224-.5.5s.224.5.5.5h10c.276 0 .5-.224.5-.5s-.224-.5-.5-.5zM4.5 27h10c.276 0 .5-.224.5-.5s-.224-.5-.5-.5h-10c-.276 0-.5.224-.5.5s.224.5.5.5z"/><path d="M5 31.947h32.02c.007 0 .013-.004.02-.004 2.71-.022 4.908-2.23 4.908-4.943V.5c0-.247-.2-.447-.447-.447s-.446.2-.446.447V27c0 2.235-1.818 4.053-4.053 4.053S32.948 29.235 32.948 27V.5c0-.247-.2-.447-.447-.447H.5C.253.053.053.253.053.5V27c0 2.728 2.22 4.947 4.947 4.947zM.947.947h31.105V27c0 .306.037.603.09.895.01.058.02.116.033.173.062.278.144.547.25.806.02.047.043.09.064.137.107.243.232.476.377.696.017.025.03.052.047.077.158.23.338.443.53.643.043.043.084.085.128.127.186.18.382.35.594.5H5C2.766 31.053.947 29.235.947 27V.947z"/></g></svg>