<svg xmlns="http://www.w3.org/2000/svg" width="23" height="32" viewBox="0 0 23 32"><g fill="#828282"><path d="M22 31.5c0-.276-.224-.5-.5-.5h-18c-.276 0-.5.224-.5.5s.224.5.5.5h18c.276 0 .5-.224.5-.5zM1.274 9.354c-.418.278-1.052 1.124-.45 2.326.498.997 1.54 2.217 2.646 2.54.564.165 1.12.096 1.605-.197 1.1-.658 2.397-1.548 2.947-1.93.694.35 1.57.424 2.46.195.004 0 .008-.003.012-.004-.052 1.65-.61 2.682-3.344 5.22-2.436 2.26-3.88 5.23-3.867 7.946.01 1.78.66 3.31 1.88 4.42.093.084.213.13.337.13h14c.276 0 .5-.224.5-.5s-.224-.5-.5-.5H5.7c-.92-.905-1.408-2.13-1.416-3.555-.013-2.402 1.347-5.165 3.547-7.208C10.747 15.53 11.5 14.25 11.5 12c0-.04-.014-.077-.023-.115.547-.295 1.02-.685 1.343-1.157.405-.59 1.277-2.105.63-3.446-.12-.247-.42-.352-.668-.232-.248.12-.353.42-.232.668.29.603.084 1.517-.554 2.445-.368.536-1.026.97-1.76 1.157-.748.19-1.458.107-1.953-.232-.173-.118-.4-.117-.57.004-.02.012-1.778 1.25-3.15 2.074-.25.15-.516.182-.812.094-.773-.226-1.624-1.212-2.03-2.026-.33-.658.007-.972.16-1.084 3.447-2.977 5.177-6.07 5.248-6.2.066-.123.08-.267.036-.4-.005-.015-.35-1.063-.54-2.033 1.046.63 2.845 1.51 4.718 1.51C13.946 3.027 20 4 20 13.003c0 .05-.01 4.944-1.97 10.327-.095.26.04.546.3.64.056.02.113.03.17.03.204 0 .396-.126.47-.33C20.99 18.124 21 13.206 21 13c0-10.183-7.393-10.974-9.658-10.974-2.51 0-5.012-1.903-5.036-1.923-.153-.115-.355-.134-.527-.05C5.607.135 5.5.31 5.5.5c0 .98.465 2.568.646 3.147-.418.698-2.066 3.28-4.872 5.707z"/><path d="M17.485 1.54C15.885.46 14.095 0 11.5 0c-.276 0-.5.224-.5.5s.224.5.5.5c2.38 0 4.003.41 5.427 1.37C19.24 3.93 22 7.042 22 13c0 1.45 0 3.438-.985 7.38-.066.267.096.538.364.605.04.01.08.015.12.015.225 0 .43-.15.485-.38C23 16.563 23 14.504 23 13c0-6.396-3-9.763-5.515-11.46z"/></g></svg>