<svg xmlns="http://www.w3.org/2000/svg" width="23" height="32" viewBox="0 0 23 32"><path fill="#828282" d="M22.802 7.66c0-2.252-.687-5.533-2-7.443C20.71.08 20.557 0 20.393 0H2.41c-.166 0-.32.08-.413.217C.686 2.13 0 5.41 0 7.66c0 5.933 4.73 12.53 11 12.87V29H6.9c-1.14-.075-2 .784-2 1.925v.575c0 .276.225.5.5.5h12c.277 0 .5-.224.5-.5V31c0-1.164-.878-2.075-2-2H12v-8.47c6.27-.34 10.802-6.937 10.802-12.87zM16.902 31h-11v-.075c0-.59.41-1 1-1h9c.57 0 1 .462 1 1.075zM2.68 1H20.12c1.053 1.692 1.63 4.47 1.673 6.428-.845-.196-1.746-.31-2.77-.31-3.16 0-4.76.92-6.305 1.812-1.497.863-2.91 1.678-5.804 1.678s-4.305-.817-5.8-1.68l-.03-.018C1.033 8.49 1 8.073 1 7.66 1 5.7 1.588 2.76 2.682 1zm-1.37 9.188c1.356.75 2.912 1.418 5.603 1.418 3.16 0 4.758-.92 6.304-1.812 1.496-.862 2.91-1.678 5.804-1.678 1.025 0 1.92.11 2.74.32-.398 5.312-4.778 11.125-10.362 11.125-4.974.002-8.99-4.61-10.09-9.372z"/></svg>