<svg xmlns="http://www.w3.org/2000/svg" id="svg-fishwine" class="svg-icon icon-fish" fill-rule="evenodd" viewBox="0 0 4309.2675 1134.5069" clip-rule="evenodd" image-rendering="optimizeQuality" shape-rendering="geometricPrecision" text-rendering="geometricPrecision">
  <g>
    <path class="text" id="path3344" fill="#a1977c" fill-rule="nonzero" d="M1286.083 453.683c8.93 0 16.74 2.68 22.992 8.036 6.473 5.133 11.384 12.276 14.732 20.76 3.348 8.704 5.134 18.303 5.134 28.794 0 11.608-1.56 21.876-4.463 30.805-2.902 8.928-6.92 16.74-11.83 23.437-4.912 6.92-10.27 12.947-16.296 18.304-.67.448-1.338.67-1.785.67-.446 0-.893-.222-1.34-.222-8.928-7.813-16.964-16.072-23.884-24.778-6.695-8.93-11.83-17.858-15.624-27.456-3.795-9.152-5.58-18.527-5.58-27.903.223-12.276 2.008-22.098 5.58-29.464 3.795-7.59 8.482-12.947 14.063-16.295 5.802-3.124 12.053-4.91 18.303-4.687zm-42.635 166.97c8.705 8.705 18.527 18.08 29.465 27.68 10.49 9.82 21.875 19.642 33.483 29.687 11.607 9.822 23.215 19.644 34.6 29.242 11.607 9.376 22.544 18.304 33.036 26.787.446.222.67.668.67 1.338 0 .447-.224 1.116-.67 1.563-4.24 4.91-9.822 9.376-16.072 13.394-6.473 4.018-13.84 7.143-22.1 9.598-8.48 2.456-17.633 3.795-27.678 3.795-12.5 0-24.555-2.232-35.716-6.696-11.16-4.464-21.206-10.714-29.91-18.527-8.707-7.813-15.627-16.74-20.538-26.563-5.134-10.045-7.59-20.76-7.812-31.92.223-12.5 2.455-23.216 7.143-32.814 4.686-9.6 10.937-18.527 18.973-26.563.446-.447.892-.67 1.34-.67.445 0 1.115.223 1.785.67zm52.903-179.47c-13.615 0-26.116 2.232-37.723 6.92-11.608 4.687-21.876 10.938-30.582 19.197-8.482 8.036-15.18 17.634-20.09 28.572-4.687 10.715-7.143 22.322-7.366 35.046.222 10.938 1.562 21.206 4.24 30.135 2.902 9.375 6.697 17.857 11.608 25.67 4.91 7.813 10.49 14.956 16.965 21.876.446.445.67.892.67 1.56 0 .67-.447 1.117-1.34 1.564-15.18 9.82-27.68 18.527-37.5 26.34-10.046 7.813-17.86 14.956-23.44 21.652-5.803 6.697-9.82 13.393-12.276 20.09-2.456 6.92-3.572 14.286-3.572 22.1.223 15.624 3.125 29.91 8.93 42.634 5.803 12.724 13.84 23.662 24.107 32.814 10.045 9.152 22.1 16.295 35.715 20.982 13.617 5.134 28.35 7.59 44.198 7.59 20.313 0 40.18-4.91 59.6-14.956 19.42-10.045 38.17-25 56.25-45.537.67-.67 1.34-.67 2.01-.446.67.223 1.34.223 1.563.446 12.054 9.152 23.885 18.304 35.492 27.456 11.384 9.15 23.215 18.527 35.27 28.348 1.785 1.34 3.794 2.902 6.25 5.134 2.678 2.233 5.133 4.688 7.59 7.143 2.454 2.68 4.017 4.91 5.133 7.367 1.34.446 2.902.67 4.464.67 1.786-.224 3.125-.447 4.465-.67 2.232-2.233 5.134-5.804 8.928-10.715 3.572-4.688 7.367-10.268 11.16-16.295 3.796-6.027 7.145-11.83 9.6-17.635 2.68-5.58 4.018-10.268 4.24-14.286-3.124-3.347-8.035-8.035-14.955-13.615-6.696-5.357-14.51-11.384-23.438-18.08-8.93-6.698-18.08-13.17-27.456-19.868-9.374-6.696-18.526-12.723-26.785-18.527-.447-.446-.67-.893-.67-1.786-.223-.67-.223-1.34 0-1.786 6.027-8.482 13.17-19.866 21.206-34.376 7.814-14.286 17.412-30.804 28.796-49.33 2.233-3.796 5.134-7.144 8.93-10.27 3.57-3.348 8.705-6.026 14.732-8.26 3.125-.892 6.473-2.008 10.49-3.124 3.796-1.116 7.59-2.01 10.94-2.678.445-.67.67-1.563.892-2.902.223-1.34.446-2.68.223-4.018 0-1.34-.223-2.232-.446-2.68-2.456 0-5.804.224-10.045.448-4.465.446-10.492.67-18.08.892-7.814.224-17.636.447-29.69.447-12.054 0-22.322-.447-30.804-.893-8.26-.446-14.956-.67-19.644-.893-.67.67-1.116 1.787-1.562 3.126-.223 1.563-.223 2.68 0 4.018 0 1.34.67 2.01 1.562 2.456 6.25.892 11.385 1.785 15.626 2.678 4.018.893 7.59 2.01 10.49 3.125 5.582 2.01 9.153 4.91 10.716 8.26 1.34 3.57 1.116 8.482-1.116 14.955-2.01 6.474-4.688 13.617-8.036 21.43-3.125 7.812-6.92 16.295-11.384 25-4.465 8.483-9.6 17.188-15.18 26.117-.446.67-1.116.67-1.562.67-.67 0-1.116-.447-1.34-.67-8.705-6.027-18.08-12.947-28.125-20.76-10.268-7.59-20.536-15.625-30.58-23.66-10.27-8.26-19.868-16.073-28.574-23.44-8.706-7.365-15.85-13.616-21.43-18.973-.223-.446-.446-.893-.446-1.34.223-.892.446-1.338 1.116-1.562 15.625-9.598 28.795-18.527 39.287-26.786 10.49-8.483 18.527-16.965 23.884-25.447 5.36-8.483 8.037-17.858 8.037-27.903 0-9.598-2.01-18.75-6.027-27.233-4.018-8.48-9.598-15.848-16.74-22.544-7.144-6.474-15.627-11.608-25.448-15.402-9.6-3.572-20.314-5.58-31.92-5.58z" class="fil0"/>
    <path class="text" id="path3346" fill="#a1977c" fill-rule="nonzero" d="M2937.024 451.228c4.688.893 8.483 1.34 11.83 2.01 2.903.445 6.028 1.115 8.706 1.785 2.68.67 5.804 1.562 9.153 2.678 5.134 1.787 9.375 4.466 12.723 7.814 3.348 3.348 6.25 7.813 8.93 12.947 2.454 5.358 5.133 11.385 7.588 18.528 3.572 9.376 7.59 21.653 12.5 36.608 4.912 14.733 10.27 31.475 16.073 49.78 5.58 18.526 11.384 37.946 17.41 58.036 6.25 20.09 12.055 40.403 17.635 60.27 5.804 20.09 11.16 39.287 16.072 57.367 5.134 18.304 9.376 34.376 12.947 48.662 1.117-.224 2.903-.447 5.582-.67 2.678 0 5.58-.223 8.705-.223h8.483c2.455 0 4.24.222 5.134.445 4.018-12.5 9.152-26.563 14.732-42.635s11.608-33.037 18.08-51.118c6.698-18.08 13.17-36.385 20.09-54.69 6.698-18.526 13.17-36.16 19.42-52.902 6.028-16.965 11.832-32.367 16.743-45.983.445-.224.67-.447 1.338-.67.447-.447.893-.447 1.116-.447 3.572 8.706 7.59 19.644 12.5 32.59 5.135 13.17 10.492 27.457 16.52 43.082 5.803 15.626 11.83 31.92 17.857 48.44 6.028 16.518 12.055 32.59 17.858 48.438 5.58 15.85 10.715 30.135 15.403 43.528 4.688 13.17 8.483 24.33 11.385 33.483 1.786-.668 4.24-1.115 8.036-1.115h10.492c3.572 0 6.027.223 7.59.447 3.794-12.054 8.26-26.34 13.17-42.86 5.134-16.517 10.714-34.152 16.518-53.35 6.027-19.42 12.054-39.062 18.304-59.152 6.25-20.09 12.5-39.957 18.75-59.154 6.028-19.42 11.83-37.5 17.19-54.242 5.58-16.742 10.49-31.474 14.73-43.752 2.68-7.812 5.36-14.062 7.814-18.75 2.455-4.91 5.134-8.482 8.036-11.384 2.902-2.902 6.697-5.134 10.938-7.367 2.902-1.338 6.25-2.454 10.268-3.347 4.018-1.116 9.152-2.01 15.18-3.125.445-.67.67-1.563.67-3.125 0-1.34 0-2.902-.225-4.24 0-1.34-.223-2.234-.446-2.68-6.698 0-14.957.446-24.78.893-9.82.446-21.205.67-34.598.893-8.482 0-16.965-.224-25.67-.448-8.706-.446-16.965-.67-24.33-.893-7.59-.224-13.618-.447-18.305-.447-.447.446-.67 1.34-.893 2.68-.223 1.338-.223 2.9-.223 4.24.224 1.562.447 2.455 1.117 3.125 6.027.893 11.16 1.786 15.625 2.455 4.24.893 8.036 1.563 11.384 2.233 3.35.892 6.474 1.785 9.152 3.125 6.027 1.786 10.27 4.912 12.278 8.706 2.232 3.795 3.125 8.036 2.9 12.5-.222 4.688-.89 9.6-2.008 14.287-1.562 6.92-3.57 15.848-6.473 26.34-2.68 10.714-6.027 22.545-9.598 35.492-3.572 12.947-7.59 26.34-11.608 40.403-4.242 13.84-8.26 27.68-12.278 41.296-4.018 13.616-7.813 26.34-11.608 38.17-3.57 11.83-6.696 22.323-9.598 31.028-.447.67-.67.893-1.34 1.116-.446 0-.892-.223-1.116-.446-2.232-5.804-5.357-13.617-9.375-23.66-3.795-9.823-8.482-21.43-13.393-34.377-4.91-12.947-10.268-26.564-15.85-41.073-5.356-14.51-10.713-29.02-16.294-43.75-5.357-14.51-10.714-28.574-15.402-42.19-4.91-13.393-9.375-25.67-12.947-36.385-3.796-10.938-6.698-20.09-8.706-27.01-1.563.223-3.795.447-6.92.447-2.902.223-6.25.446-9.376.446-3.125 0-5.803 0-7.59-.223-2.23 7.813-5.133 17.857-9.15 29.91-3.796 12.055-8.26 25.225-13.17 39.735-4.912 14.51-10.27 29.91-15.85 45.537-5.58 15.847-11.16 31.473-16.74 47.098-5.582 15.403-10.716 30.135-15.85 43.975s-9.6 26.117-13.617 36.83c-.222.448-.89.894-1.338 1.117-.67.224-.893.224-1.116 0-3.348-10.714-7.366-23.215-11.608-37.724-4.464-14.286-9.375-29.912-14.286-46.43-5.134-16.518-10.268-33.26-15.18-50.225-5.133-16.963-10.044-33.482-14.508-49.33-4.464-15.85-8.706-30.135-12.054-43.305-1.34-4.465-1.786-8.26-1.34-11.608.67-3.125 2.68-5.803 6.028-8.036 2.01-1.115 5.134-2.008 9.152-2.9 4.24-.893 10.045-2.233 17.634-3.572.67-.446.893-1.563 1.116-3.125 0-1.34 0-2.902-.223-4.465-.223-1.34-.446-2.232-.893-2.455-5.134 0-10.938.223-17.41.446-6.474.223-14.287.446-23.662.892-9.376.224-21.206.447-35.493.447-10.27 0-19.198-.224-26.787-.448-7.59 0-14.51-.223-20.76-.446-6.027-.223-11.607-.447-16.964-.67-5.36-.223-10.94-.223-16.296-.223-.67.223-1.117 1.116-1.563 2.455-.222 1.34-.222 2.902-.222 4.242 0 1.562.223 2.678.446 3.348zm621.67 32.144c0-1.563-.223-3.35-.446-5.58-.447-2.01-.893-4.242-1.563-6.474-.67-2.232-1.562-4.24-2.902-5.804-1.116-1.116-3.57-2.455-7.143-4.018-3.794-1.562-8.482-2.455-14.286-2.455-3.348 0-7.143.447-11.384 1.563-4.24.893-8.036 2.232-11.608 3.795-3.794 1.563-6.473 3.125-8.482 4.688-1.116 1.562-2.01 3.57-2.68 6.25-.668 2.455-1.115 5.134-1.115 7.813-.223 2.9 0 5.356.223 7.81.224 2.68.893 5.582 2.01 8.707.892 3.125 2.455 6.027 4.464 8.705 2.232 2.68 4.688 4.465 7.813 5.804 2.01.67 4.464 1.116 7.59 1.116 3.124.224 6.473 0 10.044-.67 3.347-.223 6.472-.892 9.374-1.562 2.902-.446 5.134-1.116 6.25-1.786 3.795-2.678 6.92-6.696 9.6-11.83 2.678-4.91 4.017-10.27 4.24-16.072zm31.474 310.054c-4.91-.447-9.152-1.34-12.054-2.01-3.125-.892-5.58-1.562-7.59-2.008-2.678-.893-4.687-2.233-6.472-3.795-1.786-1.563-2.902-4.018-3.795-6.92-.893-3.125-1.34-7.366-1.563-12.5-.223-6.697-.446-14.287-.446-22.77 0-8.48-.223-17.41-.223-26.785V663.288c0-8.483 0-17.858.223-27.903 0-9.822.223-19.867.446-29.465.223-9.6.223-18.304.223-25.67.224-7.813.224-13.394.224-17.188-6.696 3.125-14.062 5.803-22.32 8.26-8.484 2.454-16.743 4.463-25.225 6.25-8.483 1.56-16.072 2.9-22.992 3.794-6.92 1.116-12.277 1.562-16.072 1.785-.222.448-.445 1.34-.445 2.903-.224 1.34-.224 2.902 0 4.242 0 1.562.223 2.455.446 2.9 4.465 1.34 8.483 2.903 11.608 4.243 3.126 1.34 6.027 3.348 8.483 5.803 1.787 2.457 2.903 5.135 3.572 7.814.447 2.68.67 5.357.67 7.813.446 2.902.67 7.59.67 13.616.223 6.027.446 12.947.446 20.313V699.896c-.223 8.706-.223 17.41-.446 25.894 0 8.482-.224 16.295-.224 22.99-.223 6.92-.223 12.055-.446 15.627-.223 7.366-1.116 12.947-2.902 16.965-1.562 3.794-4.464 6.473-8.482 8.036-2.68 1.116-5.804 2.01-9.375 2.678-3.572.67-7.144 1.116-10.715 1.34-.447.446-.67 1.34-.893 2.678v4.465c.223 1.56.446 2.454.893 3.124 6.25-.224 14.51-.447 25-.893 10.27-.67 22.992-.892 37.948-.892 11.608 0 22.77.223 33.037.893 10.268.447 19.197.67 26.34.894.893-.67 1.34-1.563 1.786-2.902.222-1.34.445-2.68.445-4.24.223-1.34.223-2.457.223-3.126zm18.304 0c-.67 1.34-.892 3.125-.892 5.357s.223 3.795.892 4.91c2.902-.223 6.027-.446 9.153-.67 3.125-.222 6.696-.222 10.937-.445 4.242-.224 9.6-.447 16.072-.67h23.215c13.616 0 25.67.223 35.938.67 10.49.223 20.09.67 28.795 1.116.223-.893.447-1.786.67-3.35.223-1.338.223-2.677.223-4.017.223-1.562 0-2.455-.223-2.9-4.688-.448-8.26-1.118-11.384-1.787-2.903-.67-5.582-1.34-8.26-2.232-2.456-.67-4.688-1.563-6.474-2.902-1.786-1.34-3.348-3.795-4.24-6.92-1.117-3.35-1.787-8.036-2.233-14.063-.224-5.134-.447-11.83-.67-20.536 0-8.483-.223-18.08-.223-28.573-.223-10.49-.223-21.43-.223-32.367-.224-10.938-.224-21.652-.224-31.474V626.01c0-3.348.67-6.027 1.786-8.26.892-2.008 2.23-3.794 3.57-4.91 5.58-4.24 11.385-7.143 17.858-9.152 6.25-1.786 12.054-2.68 17.188-2.68 6.25 0 11.608.448 16.072 1.787 4.688 1.34 8.706 3.57 12.5 6.473 4.91 4.018 8.93 8.93 11.608 14.286 2.68 5.804 4.688 11.385 5.58 17.188 1.117 4.688 1.786 11.608 2.233 20.09.445 8.483.892 18.08 1.115 28.573.223 10.49.223 20.982.223 31.474 0 10.49-.223 19.865-.446 28.348-.224 8.705-.447 15.18-.67 19.866-.446 6.25-1.34 10.938-3.125 14.287-1.563 3.126-4.688 5.358-9.375 6.474-2.01.67-4.242 1.34-7.143 1.786-2.68.67-6.252 1.34-10.716 1.786-.223.446-.223 1.34-.446 2.678-.224 1.563-.224 2.902-.224 4.465.224 1.56.447 2.454.67 3.124 5.804-.224 11.384-.67 17.41-.893 6.028-.222 12.725-.446 20.09-.67 7.814-.222 16.743-.222 27.234-.222 11.608 0 20.983 0 28.126.446 7.143.224 12.947.447 17.188.67 4.24.446 7.813.67 10.714.67.447-.893 1.117-1.786 1.34-3.125.446-1.34.67-2.68.67-4.02.223-1.34.223-2.455.223-3.124-6.028-.893-10.94-2.01-14.734-3.572-3.795-1.34-7.366-3.125-10.715-5.357-1.784-1.116-3.124-2.68-4.016-4.465-.893-2.01-1.34-4.018-1.34-6.25-.223-3.795-.446-9.152-.446-15.85-.223-6.918-.223-14.508-.223-22.767-.224-8.483-.224-17.188 0-25.894v-25-20.313c.223-13.616-.67-26.34-2.68-37.724-2.008-11.384-5.803-21.43-10.937-29.912-5.804-10.267-13.393-18.08-22.545-23.437-9.152-5.357-20.313-8.26-33.26-8.26-9.375 0-20.76 3.126-33.93 9.376-13.393 6.25-28.126 15.625-43.974 28.125-.448.67-.67.893-1.34.447-.67 0-.893-.67-1.117-1.563.447-5.135.67-10.94 1.116-16.966.223-6.25.67-12.054 1.34-17.634 0-.447-.224-1.116-.67-1.786-.447-.893-.67-1.34-1.117-1.562-6.25 3.348-14.063 6.92-23.66 10.268-9.153 3.125-19.422 6.027-30.136 8.482-10.938 2.456-21.653 4.24-32.367 5.58-.447.447-.67 1.117-.893 2.456-.447 1.34-.67 2.456-.67 3.795 0 1.34-.223 2.01-.223 2.678 7.813 2.457 13.393 5.136 17.188 7.814 3.572 2.456 6.027 5.134 6.92 7.367 1.116 2.456 1.786 4.688 2.01 6.697.222 1.34.445 4.24.445 8.483.224 4.24.224 9.152.447 14.955 0 5.804.223 11.608.223 17.635.223 6.027.223 11.607.223 16.518v21.43c0 8.258-.223 16.74-.223 25.446 0 8.706-.223 16.742-.446 24.555 0 7.365-.223 13.615-.67 18.303-.222 7.366-1.338 12.947-3.347 16.965-2.233 3.794-4.91 6.25-8.483 7.366-6.473 1.786-12.5 3.125-17.858 3.572zm505.15-49.78c-6.697 6.028-13.617 10.716-20.76 14.064-6.92 3.348-13.84 5.804-20.983 7.143-7.367 1.34-14.51 2.01-21.877 2.01-12.5 0-24.108-2.233-34.376-6.697-10.49-4.242-19.643-11.16-27.456-20.76-4.463-5.58-8.48-11.83-11.606-18.527-3.125-6.92-5.58-13.84-7.367-20.984-1.562-6.92-2.455-13.84-2.455-20.536 0-1.34.446-2.68.67-3.795.67-.893 1.116-1.563 1.785-1.563 8.26-.446 17.858-1.116 28.796-1.785 10.938-.67 22.545-1.34 34.376-2.233 12.053-.893 23.66-1.785 34.598-2.9 11.16-1.118 20.983-2.234 29.688-3.127 8.26-1.116 14.733-2.455 18.75-3.57.447-.224.67-.894 1.34-2.233.224-1.116.67-2.456.893-3.795.222-1.117.222-2.233 0-2.903-2.01-.223-3.796-.893-5.135-1.786-1.34-1.115-2.232-2.008-2.455-2.9-.893-6.697-2.68-13.617-4.91-20.983-2.457-7.367-5.805-14.51-9.823-21.653-4.24-7.366-9.375-13.84-15.85-19.866-6.25-5.804-13.838-10.492-22.544-14.063-8.93-3.572-19.197-5.358-30.804-5.58-6.475 0-13.84.892-21.43 2.455-7.813 1.34-15.403 3.57-22.77 6.473-7.59 2.68-14.508 6.25-20.535 10.268-10.492 6.25-19.867 14.51-27.68 24.555-8.036 10.045-14.286 21.653-18.974 34.823-4.463 13.17-6.695 27.68-6.695 43.305 0 18.527 2.455 35.938 7.813 52.233 5.357 16.072 13.616 30.358 24.777 42.19 8.93 8.928 19.644 15.848 32.144 20.76 12.722 4.686 26.562 7.142 42.188 7.142 12.054 0 23.884-2.232 35.715-6.474 11.607-4.24 22.992-10.268 33.93-18.08 10.937-7.813 20.982-16.965 30.134-27.68.224-.446.447-1.34.67-2.68.446-1.338.446-3.124.67-4.686 0-1.563 0-2.68-.224-3.795 0-.67-.223-1.116-.892-1.34-.67-.223-.892-.446-1.34-.446zM4007.814 580.25c6.696 0 12.5 2.01 17.634 5.803 5.133 3.795 9.597 8.93 13.17 15.403 3.57 6.473 6.472 13.616 8.48 21.875 2.01 8.037 3.573 16.52 4.02 25.225 0 1.116-.224 2.232-1.117 3.348-.446.893-1.116 1.563-1.785 2.01-2.456.446-6.027.892-11.385 1.34-5.134.445-10.938.668-17.634 1.115-6.475.223-13.17.446-19.868.67-6.473.223-12.5.446-17.858.446h-12.277c-.223 0-.67-.446-1.116-1.116-.445-.67-.668-1.116-.668-2.01.223-15.625 2.232-29.018 5.803-39.956 3.572-11.16 8.26-19.643 14.286-25.447 6.028-5.804 12.725-8.705 20.315-8.705z" class="fil0"/>
    <path class="text" id="path3348" fill="#a1977c" fill-rule="nonzero" d="M443.87 535.382c-5.58-21.43-10.937-35.27-19.866-46.207-10.268-13.17-24.108-16.964-59.377-16.964H332.26c-18.08 0-20.313 1.117-20.313 18.528v124.334h49.555c48.885 0 53.127-4.91 59.823-40.18h18.08v108.262h-18.08c-6.027-37.5-10.938-42.858-59.823-42.858h-49.555v91.744c0 50 4.91 53.35 53.35 57.144v17.635H201.453v-17.636c41.742-3.794 46.876-7.143 46.876-57.144V523.328c0-49.108-5.135-52.233-45.76-55.582v-18.08h253.355c.446 13.17 3.348 52.68 6.027 82.814l-18.08 2.902z" class="fil0"/>
    <path class="text" id="path3350" fill="#a1977c" fill-rule="nonzero" d="M507.042 484.265c0-19.867 16.518-35.27 35.27-35.27 19.642 0 35.045 15.403 35.045 35.27 0 18.75-15.403 34.6-35.716 34.6-18.08 0-34.598-15.85-34.598-34.6zM479.586 806.82V790.3c33.037-3.794 36.162-6.027 36.162-44.42V635.384c0-35.27-3.125-37.5-31.698-41.742V578.24c31.25-4.017 64.288-11.16 92.19-20.312v187.95c0 37.28 2.68 40.628 36.832 44.422v16.52H479.586z" class="fil0"/>
    <path class="text" id="path3352" fill="#a1977c" fill-rule="nonzero" d="M772.452 633.6c-13.17-33.484-31.25-55.36-57.815-55.36-16.964 0-30.58 13.617-30.58 32.814 0 19.42 15.848 32.59 42.858 43.975 43.304 18.75 72.323 37.946 72.323 79.242 0 52.68-50 79.02-95.538 79.02-28.573 0-56.475-10.268-66.967-18.527-3.794-8.26-8.928-46.877-8.928-70.984l15.402-1.562c11.607 35.046 36.83 70.76 69.868 70.76 18.75 0 33.483-13.615 33.483-32.812 0-18.75-10.938-31.92-42.19-47.323-28.124-13.17-69.867-33.483-69.867-79.244 0-41.073 34.154-75.226 89.513-75.226 24.33 0 39.063 4.464 51.117 9.375 5.58 12.723 11.608 49.33 13.17 61.608l-15.848 4.24z" class="fil0"/>
    <path class="text" id="path3354" fill="#a1977c" fill-rule="nonzero" d="M961.52 806.82V790.3c28.572-3.348 31.25-7.143 31.25-39.51v-94.645c0-43.305-18.08-60.27-45.09-60.27-15.85 0-33.037 6.027-46.207 19.643V750.79c0 32.367 2.902 36.162 29.242 39.51v16.52H805.488V790.3c31.698-3.348 35.716-5.58 35.716-40.626V491.408c0-34.153-1.786-35.27-33.037-37.948v-15.402c27.903-3.348 64.734-11.608 93.306-19.197v176.345c19.197-18.75 47.323-36.83 75.45-36.83 46.652 0 75.67 29.687 75.67 92.412v98.887c0 35.046 4.02 36.832 33.707 40.626v16.52H961.52z" class="fil0"/>
    <path class="contour" id="path3356" fill="#a1977c" d="M1715.337 925.126H338.51c-164.29 0-298.892-134.602-298.892-299.116 0-164.29 134.602-298.893 298.892-298.893h1532.858l56.028-39.51H338.51C152.344 287.607-.116 439.844-.116 626.01c0 186.39 152.46 338.626 338.626 338.626H1760.65l-45.313-39.51z" class="fil1"/>
    <path class="contour" id="path3358" fill="#a1977c" d="M3970.76 287.607H2827.646l26.34 39.51H3970.76c164.29 0 298.893 134.602 298.893 298.893 0 164.514-134.603 299.116-298.893 299.116H2916.265l-44.645 39.51h1099.14c186.166 0 338.626-152.237 338.626-338.626 0-186.166-152.46-338.403-338.626-338.403z" class="fil1"/>
    <path class="fish fish-1" class="highlight" fill="#004753" fill-rule="nonzero" d="M2389.017 316.403l117.86-12.724-42.635 66.742c57.815-36.83 203.578-40.403 203.578-40.403-28.35-16.073-128.13-18.528-128.13-18.528l51.342-20.537 125.004-12.277c-36.832-27.68-211.39-37.054-285.053-8.26-149.335 21.653-371.886 205.587-371.886 205.587s174.335-101.12 329.92-159.602zm-40.403 146.432s-149.558 14.956-308.938 176.122c0 0 223.89-126.567 308.938-176.122zm422.557-82.368s-78.796-66.073-199.558 39.287c0 0 160.272-80.583 233.042 11.607 0 0 1.34-31.25-33.483-50.893zm34.824 190.63c-8.26-10.714-30.135-10.714-30.135-10.714s-79.02 52.234-105.138 109.825c0 0 65.85-75.45 107.592-102.905 0 0-87.056 82.815-81.7 116.298 0 0 54.02-96.43 86.61-108.93 0 0-45.76 60.492-56.474 108.484 0 0 40.18-95.538 69.422-107.37 0 0-46.653 77.682-35.046 109.603 0 0 11.83-67.86 46.43-101.343 0 0-8.93 91.52-4.018 105.584 0 0 10.268-78.35 17.858-99.557l18.75 108.71s-12.723-87.28-2.902-103.128l22.323 117.86s-8.93-104.02-3.35-112.95c0 0 22.323 106.923 27.68 122.772 0 0-12.5-96.878-12.5-114.512 0 0 22.992 112.95 41.073 138.843 0 0-25.67-102.012-28.796-125.673l-9.375-26.34s-16.296-7.366-34.6-10.715c-18.527-3.125-25.224-3.348-33.706-13.84zM2109.768 181.8l61.385-127.905-40.85 131.7 61.387-113.842-32.367 97.993s57.144-79.243 61.61-90.18c4.24-10.94-24.556 68.528-24.556 68.528l63.172-73.44-37.502 61.833 64.51-54.466s-22.99 47.77-24.777 56.922c-1.115 6.473 27.68-18.527 45.538-36.608-8.26 11.83-17.41 25.224-17.41 25.224l70.537-36.608c18.08-20.314-88.842-30.582-129.022-30.805-39.956-.223-55.582-31.474-83.93-58.037-28.127-26.34-65.628 202.907-65.628 202.907l61.61-168.085-33.707 144.87zm369.877 406.262c17.41 11.608 120.985 59.6 120.54 48.886-.67-10.938.445-110.495.445-110.495l-76.788 15.85 58.707 26.116-59.824-.224 67.86 28.572-82.146-24.554 79.69 55.358s-93.976-50-115.405-59.376c0 0-21.43-14.51-66.074 13.17-44.866 27.68-76.34 45.537-91.966 53.35-15.625 8.035-98.886 56.25-122.548 66.296-23.66 10.045-49.332 10.715-49.332 10.715l17.412-16.742-39.287 14.51 29.017-22.992-39.733 12.277 27.68-24.33-43.305 17.41 9.374-14.286-30.804 6.25 9.152-12.947s-30.135 7.59-32.814 9.376c-2.902 2.232 11.16-21.43 11.16-21.43l-49.777 28.796s74.11-8.93 125.674 40.18l14.286 8.035s129.245-45.76 187.506-91.298c58.484-45.537 123.664-68.082 141.3-56.475zm-35.046-388.18c2.008-3.572.445-7.813-3.35-9.822-3.794-2.233-8.258-1.34-10.267 2.01-1.786 3.57-.224 8.035 3.57 10.043 3.796 2.01 8.26 1.117 10.046-2.232zm218.31 35.49c2.008-3.347.445-8.035-3.35-9.82-3.57-2.01-8.035-1.116-10.044 2.232-1.786 3.348-.223 7.813 3.348 9.822 3.795 2.01 8.26 1.116 10.045-2.233zm-56.253-18.303c2.01-3.35.447-7.813-3.348-9.822-3.796-2.01-8.26-1.117-10.27 2.232-1.785 3.348-.222 7.813 3.35 9.822 3.794 2.232 8.258 1.116 10.267-2.233zm-64.287 1.562c3.794 2.01 8.482.893 10.268-2.456 1.786-3.348.446-7.812-3.348-9.82-3.795-2.234-8.26-1.117-10.27 2.23-1.784 3.35-.445 7.814 3.35 10.046zm-30.582-25.447c-2.01 3.57-.446 7.812 3.35 10.045 3.57 2.01 8.258.892 10.044-2.456 2.01-3.125.446-7.59-3.35-9.598-3.793-2.233-8.258-1.116-10.044 2.01zm-25.223 28.572c3.57 2.01 8.035 1.116 10.044-2.232 2.008-3.35.446-7.813-3.35-9.822-3.57-2.232-8.258-1.116-10.267 2.232-1.786 3.35-.223 7.813 3.572 9.822zm-27.68-24.554c-1.786 3.348-.223 7.812 3.348 9.82 3.795 2.01 8.483 1.117 10.27-2.454 2.008-3.35.445-7.59-3.35-9.823-3.794-2.01-8.26-.893-10.268 2.456zm-87.28 32.367c-1.785 3.348-.446 7.812 3.35 9.82 3.794 2.234 8.258 1.117 10.267-2.23 1.786-3.35.447-7.814-3.348-10.046-3.795-2.01-8.26-.893-10.268 2.456zm1.34-20.76c2.01-3.348.447-7.59-3.348-9.822-3.795-2.01-8.26-.892-10.268 2.233-1.787 3.572-.225 7.813 3.347 10.046 4.018 2.232 8.482.892 10.268-2.456zm-24.777 15.626c2.01-3.35.67-7.813-3.125-9.822-3.795-2.232-8.483-1.116-10.27 2.232-1.784 3.348-.445 7.813 3.35 9.822 3.794 2.232 8.26 1.116 10.045-2.232zm-13.84 20.313c2.01-3.35.446-8.037-3.348-10.046-3.795-2.01-8.26-.893-10.045 2.232-2.01 3.57-.447 7.813 3.125 9.822 3.795 2.232 8.26 1.116 10.268-2.01zm-60.493 27.455c1.786-3.572.447-8.036-3.348-10.268-3.795-2.01-8.26-.67-10.268 2.455-1.787 3.348-.448 7.813 3.57 9.822 3.572 2.232 8.036 1.116 10.045-2.01zM1985.657 446.54c2.232-3.348.67-7.812-3.125-9.82-3.795-2.234-8.483-1.118-10.268 2.23-1.786 3.35-.447 7.814 3.57 9.823 3.573 2.232 8.037 1.116 9.823-2.233zm-63.172 3.125c-2.01 3.35-.446 7.813 3.35 9.822 3.57 2.232 8.258 1.116 10.044-2.232 2.008-3.348.445-7.813-3.35-9.822-3.57-2.232-8.26-1.116-10.045 2.232zm-19.866 47.546c-2.01 3.127-.448 7.814 3.124 9.823 3.795 2.01 8.482 1.116 10.268-2.455 1.786-3.125.446-7.59-3.348-9.822-3.572-1.786-8.26-.893-10.045 2.455zm43.08-22.544c-1.785 3.348-.446 7.813 3.35 9.822 3.793 2.232 8.258 1.116 10.044-2.232 2.01-3.35.446-7.813-3.125-9.822-3.796-2.232-8.26-1.116-10.27 2.232zm14.063 58.484c-2.01 3.348-.67 7.813 3.35 9.822 3.57 2.01 8.035.893 10.267-2.456 1.562-3.125.223-7.59-3.572-9.82-3.794-2.01-8.26-.894-10.045 2.454zm41.296 1.786c-1.787 3.348-.224 7.812 3.57 10.045 3.572 2.01 8.26.894 10.046-2.455 2.01-3.348.446-7.812-3.35-9.82-3.793-2.01-8.258-1.118-10.267 2.23zm46.652 11.384c3.572 2.232 8.26 1.116 10.045-2.232 2.01-3.572.447-7.813-3.348-10.045-3.796-2.01-8.26-.893-10.046 2.455-2.01 3.35-.446 7.813 3.348 9.822zm-20.09-28.572c3.795 2.232 8.26 1.116 10.27-2.232 1.784-3.35.222-7.813-3.573-9.822-3.572-2.232-8.037-1.116-10.046 2.232-2.01 3.572-.446 7.813 3.348 9.822zm-29.91-39.287c3.794 2.01 8.258 1.117 10.267-2.455 1.785-3.125.222-7.59-3.35-9.82-3.794-2.01-8.482-.894-10.267 2.454-2.01 3.347-.447 7.812 3.348 9.82zm205.362-196.657c2.01-3.348.447-7.812-3.348-9.82-3.795-2.01-8.26-1.117-10.045 2.23-2.008 3.35-.446 7.814 3.126 9.823 3.795 2.01 8.482 1.116 10.268-2.233zm-9.152 21.43c1.786-3.572.223-7.813-3.572-10.045-3.57-2.01-8.26-.893-10.044 2.455-2.01 3.348-.447 7.59 3.348 9.822 3.795 2.232 8.26 1.116 10.268-2.232zm-55.582 31.474c-1.786 3.348-.446 7.812 3.348 10.045 3.795 2.01 8.483 1.116 10.268-2.456 1.786-3.348.447-7.813-3.348-9.822-3.795-2.232-8.26-1.116-10.268 2.233zm-20.983 2.902c1.786-3.35.447-7.814-3.57-9.823-3.573-2.232-8.037-1.116-10.046 2.232-1.785 3.347-.446 7.812 3.35 9.82 3.794 2.233 8.258 1.117 10.267-2.23zm22.1-27.68c1.785-3.126.222-7.59-3.35-9.6-3.794-2.232-8.258-1.34-10.267 2.233-1.786 3.125-.224 7.59 3.348 9.822 3.795 2.01 8.26.892 10.268-2.456zm-58.93 39.063c1.785-3.572.222-7.813-3.573-10.045-3.794-2.01-8.26-.893-10.045 2.455-2.01 3.35-.447 7.813 3.348 9.822 3.57 2.01 8.26 1.116 10.268-2.232zm-25.002 39.51c2.01-3.348.447-7.813-3.348-10.045-3.572-2.01-8.26-1.116-10.045 2.232-2.01 3.572-.447 7.813 3.348 10.045 3.795 2.01 8.26 1.116 10.045-2.232zm-9.375 35.938c1.786-3.57.446-7.81-3.35-10.043-3.793-2.01-8.258-.893-10.267 2.455-1.785 3.348-.223 7.59 3.35 9.822 3.793 2.01 8.48 1.116 10.267-2.233zm-49.332-11.83c1.786-3.124.223-7.59-3.572-9.82-3.57-2.01-8.035-1.117-10.044 2.23-1.786 3.35-.447 7.814 3.348 10.046 3.795 2.01 8.26.893 10.268-2.455zm867.213 121.88c22.546 60.492 112.95 282.374 112.95 282.374s-101.788-107.816-167.192-112.727c0 0-84.154-25.893-197.327 24.33 0 0 77.46-137.95 154.916-174.78 77.458-36.61-3.57-66.297-3.57-66.297s77.68-13.394 100.225 47.1zm-140.85-285.723c2.9 1.785 4.463 2.678 4.463 2.678-4.464-3.57-9.152-7.143-13.84-10.714-9.375-7.59-19.197-14.732-29.688-21.205-400.012-267.642-806.72 171.88-806.72 171.88-185.72 146.21-264.517 320.545-281.258 345.77-16.742 25.446-20.76 62.277 20.982 40.18 41.518-21.877 102.68 5.356 102.68 5.356s.224 2.01 5.805-7.812c8.036-14.732-92.19-32.813-108.71-22.545-16.517 10.49-.445-13.17-.445-13.17 61.61-29.242 137.057 2.232 137.057 2.232l31.92-47.323c-18.973 29.242-37.947 31.92-37.947 31.92-80.36-3.794-47.992-66.742-47.992-66.742 18.527-73.44 73.886-110.495 86.163-127.683 12.278-16.964 91.745-25.893 117.192-62.055 25.67-36.385 119.646-132.816 360.948-245.766 172.55-80.36 335.278-31.697 414.075 2.68 35.715 30.58 89.958 86.385 120.762 158.71 21.653 51.563 35.046 80.58 43.082 96.876-2.01-1.34-4.02-2.9-6.25-4.24-10.493-16.742-27.68-35.046-53.128-33.26-46.876 2.9-117.637 33.93-160.942 35.045-43.082 1.34-142.86 65.404-142.86 65.404s118.53-31.027 175.45-47.1c45.984-13.17 91.074-32.59 121.21-32.812-14.064 2.902-29.243 10.268-45.315 24.107 0 0 75.226 25.448-14.51 85.048-99.332 66.073-137.057 203.13-137.057 203.13s159.826-134.155 314.072 5.358l125.673 85.27s-75.225-254.47-149.334-358.938c0 0-6.252-9.375-17.636-19.42-8.482-40.18-40.18-162.505-127.905-240.855zm-708.058 448.45c-21.206 9.6 74.556 3.35 132.817 64.51l-90.63-34.598 107.593 70.537-93.752-45.09 100.003 75.448-60.492-25.224 66.967 51.788s-73.663-42.858-93.083-75.002c-19.197-32.144-58.93-66.074-83.038-67.413 0 0 50.894 25.894 72.323 65.85 21.875 39.957 112.95 102.905 133.932 96.208 0 0-28.35-85.27-49.555-118.306-21.43-33.483-121.656-68.082-143.085-58.707zm-41.296-118.976s44.868 41.296 39.51 72.547c-5.803 31.698-10.49 42.412-10.49 42.412s52.902-73.217-14.51-114.736c0 0-11.16-6.25-14.51-.223zm-19.643 215.632l39.287-26.117-27.68 2.01 31.25-22.323s-16.07-2.455-25.223-.223c1.563-5.805 2.456-11.61 3.35-17.86 10.936-36.384.668-64.286 2.9-72.77 2.456-9.374-12.053-78.573-12.053-78.573-22.546-83.26-117.19-64.287-117.19-64.287 74.778-4.91 92.412 51.564 102.457 57.368 10.27 5.58 17.19 81.475 17.19 81.475s-7.814 18.304-12.5 31.474c-4.69 13.394-54.02 53.797-54.02 53.797l.67-48.886c1.338-16.518-3.796-19.42-32.815-77.01-29.018-57.37-63.17-46.43-63.17-46.43 35.49 4.687 35.714 29.91 63.394 69.197 27.678 39.51 20.758 121.656 18.08 126.343-2.68 4.688-29.912 25-40.85 28.573-10.938 3.572-27.233 8.93-24.554 4.242 2.678-4.91-8.93-22.1-15.18-34.376-6.473-12.5-6.696-21.43-5.803-23.438 1.34-2.232-13.84 23.215-13.84 23.215 32.814 12.947 21.206 52.68 21.206 52.68s14.285-1.34 29.91-4.465c15.18-3.348 56.476-41.295 75.45-56.028 18.75-14.733 54.02-77.904 54.02-77.904l2.678 58.707c-11.83 12.724-43.752 39.287-43.752 39.287s33.707-21.876 29.912-15.18c-3.795 6.697-62.28 44.868-62.28 44.868l32.815-8.26s-75.45 27.234-98.217 39.288c-22.77 12.054-39.957 7.813-60.94 13.84 0 0-84.154 4.464-94.87 9.152-10.49 4.687-58.93 8.26-34.598-2.01 24.33-10.267 64.51-13.393 75.45-22.99 10.937-10.046 13.615-14.957 11.16-17.86-2.456-2.677-4.24-18.303 10.045-12.946 14.286 5.358 35.492 7.813 35.492 7.813s-26.563-16.74-28.126-21.206c-1.563-4.465-7.367-3.572-7.367-3.572s-13.84 19.866-33.26 29.465c-19.643 9.375-58.484 8.93-71.654 18.304-13.17 9.598-33.707 23.885-10.94 37.5 0 0 12.502.894 33.26 1.117 58.93 1.116 181.926-2.902 257.82-47.992 20.76-5.804 64.958-18.75 80.584-27.68 20.76-11.607 69.645-23.66 69.645-23.66l-13.84-12.5-93.307 36.83zm-222.328-97.994c12.054 6.92 27.233 2.232 34.153-10.268 6.92-12.277 2.678-27.68-9.152-34.376-8.036-4.24-17.412-3.572-25 .893 10.713-8.706 24.553-17.412 37.054-20.76 21.875-5.357 31.027 35.046 31.027 35.046 20.76-51.34-15.402-51.787-15.402-51.787-54.69-.67-85.047 67.636-85.047 67.636s8.482-2.233 15.18-12.724c2.008-3.125 5.803-7.366 10.937-12.054-1.116 1.116-2.01 2.68-2.902 4.018-6.92 12.5-2.68 27.903 9.152 34.376z" class="fil2"/>
    <path class="fish fish-2" class="contour" class="highlight" fill="#004753" fill-rule="nonzero" d="M2516.03 1092.095l-12.724-43.082c52.457-14.732 102.235-35.492 148.888-61.385l21.206 39.51c-49.33 27.456-102.012 49.332-157.37 64.957zm-202.462 27.903c-27.902 0-55.135-1.563-82.145-4.465l4.465-44.644c25.447 2.678 51.34 4.24 77.68 4.24 26.117 0 52.01-1.34 77.458-4.24l4.464 44.643c-27.01 2.902-54.242 4.465-81.922 4.465zm-202.684-27.903c-54.466-15.402-106.476-36.83-155.14-63.618l21.207-39.51c45.985 25.224 95.093 45.537 146.434 60.046l-12.5 43.082zm702.253-165.183c-12.278 11.16-24.778 21.875-37.725 32.367l-20.09-25.002c-17.634 2.01-35.492 4.018-53.35 5.804-110.494 76.118-244.203 120.762-388.404 120.762-146.21 0-281.48-45.76-392.868-123.664-14.733-1.563-29.465-3.572-44.198-5.358l-22.992 29.02c-15.18-12.055-29.688-24.778-43.974-37.948-8.26-1.117-16.295-2.456-24.555-3.572 136.836 133.04 323.225 215.185 528.588 215.185 202.908 0 387.512-80.583 523.676-210.944-8.035 1.116-16.07 2.232-24.107 3.35z" class="fil2"/>
  </g>
</svg>
