<svg class="svg-icon icon-grill" id="svg-grill" xmlns="http://www.w3.org/2000/svg" viewBox="0 0 217.31102 104.65725">
  <defs>
    <radialGradient id="grill-gradient" cx="14692.254" cy="17476.533" r="994.516" gradientUnits="userSpaceOnUse" fx="14692.254" fy="17476.533" gradientTransform="scale(1.16332 .8596)">
      <stop offset="0" stop-color="red"/>
      <stop offset="1" stop-color="#8F2F1F"/>
    </radialGradient>
  </defs>
  <g fill-rule="evenodd" clip-rule="evenodd" image-rendering="optimizeQuality" shape-rendering="geometricPrecision" text-rendering="geometricPrecision">
    <path class="contour" fill="#a0967c" d="M200.268 54.92c9.39 0 17.043 7.69 17.043 17.08 0 9.39-7.653 17.08-17.042 17.08H146.16c.32-.604.533-1.277.604-1.986h53.504c8.29 0 15.06-6.803 15.06-15.094 0-8.29-6.77-15.06-15.06-15.06h-53.504v-2.02h53.504zM84.26 89.08H17.08C7.653 89.08 0 81.39 0 72c0-9.39 7.654-17.08 17.08-17.08H61.51c1.17.64 2.268 1.312 3.366 2.02h-47.8C8.79 56.94 1.985 63.71 1.985 72c0 8.29 6.803 15.094 15.095 15.094h67.11c.034.638.07 1.312.07 1.985z" />
    <path class="text" fill="#a0967c" fill-rule="nonzero" d="M25.264 79.83c-.142-.07-.248-.14-.355-.176-.07-.07-.142-.142-.178-.213-.035-.07-.035-.176-.07-.353-.036-.213-.036-.496-.036-.815-.035-.32-.035-.638 0-1.028V76.11c0-.425.035-.78.035-1.027.037-.284.072-.46.143-.603.036-.14.106-.248.213-.32.106-.07.248-.105.39-.14.14-.07.248-.107.354-.142.106-.035.248-.035.39-.07.035-.036.07-.072.07-.143v-.248c0-.07 0-.106-.035-.14-.177.034-.425.034-.673.034-.248.036-.603.036-.992.036-.39.036-.886.036-1.49.036-.53 0-1.06 0-1.593-.036-.53-.035-1.028-.035-1.524-.035-.46-.034-.85-.034-1.17-.034-.034.035-.07.07-.07.14v.25c0 .07.036.14.07.177.25 0 .533 0 .745.035.213.035.46.07.71.142.282.035.53.106.672.212.177.107.284.284.354.532.07.212.107.53.142.956.036.25.036.532.036.85V77.6c0 .355 0 .674-.036.993 0 .32-.035.567-.07.78-.036.32-.072.532-.213.71-.107.176-.248.318-.46.39-.143.07-.355.105-.64.176-.282.035-.6.035-.92.035-1.063 0-2.055-.21-2.906-.672-.85-.425-1.594-1.063-2.196-1.878-.637-.815-1.098-1.807-1.417-2.976-.32-1.134-.496-2.41-.496-3.827 0-1.488.177-2.764.496-3.827.32-1.063.78-1.913 1.382-2.587.567-.673 1.24-1.17 2.02-1.452.78-.318 1.594-.495 2.48-.495.886 0 1.7.106 2.374.283.708.177 1.31.46 1.842.85.248.178.46.39.638.674.14.283.283.637.39 1.098.106.425.176.992.247 1.63.036.035.107.035.177.07.107 0 .178 0 .284-.035.07-.035.142-.035.177-.106 0-.355 0-.745.036-1.206.036-.425.07-.85.107-1.275.07-.426.106-.816.177-1.17.07-.355.106-.674.177-.886-.46-.036-.956-.142-1.558-.213-.567-.105-1.24-.21-1.913-.318-.71-.07-1.454-.142-2.234-.142-.885 0-1.665.036-2.338.142-.673.07-1.31.213-1.878.355-.567.177-1.1.354-1.63.602-1.098.46-2.02 1.097-2.8 1.912-.78.815-1.38 1.772-1.806 2.87-.425 1.063-.603 2.268-.638 3.615.035 2.232.425 4.04 1.24 5.492.815 1.416 1.984 2.48 3.508 3.188 1.524.673 3.402 1.027 5.563 1.027.673-.035 1.346-.07 1.984-.142.674-.106 1.312-.177 1.915-.318.602-.142 1.133-.248 1.63-.39.46-.106.85-.213 1.098-.32.035 0 .035-.035.07-.105v-.178-.14zM35.47 68.918c-.214 0-.427.036-.64.107-.212.07-.39.177-.566.283-.177.106-.355.213-.496.354-.32.285-.603.568-.85.852-.25.283-.532.602-.78.92h-.07c-.037 0-.072 0-.072-.034 0-.107 0-.284.035-.496v-.71c.037-.247.037-.495.037-.708.035-.248.035-.39.07-.53 0-.037-.035-.037-.07-.072-.036-.036-.07-.07-.106-.07-.283.176-.566.318-.92.424-.355.142-.71.248-1.1.355-.39.107-.78.213-1.133.284-.39.07-.744.106-1.063.142 0 .035-.035.07-.035.106-.037.07-.037.142-.037.213v.14c.39.143.71.285.886.427.176.14.283.283.353.425.036.106.07.248.07.354 0 .143.037.355.037.64 0 .247 0 .566.035.885v1.063c0 .53 0 1.063-.035 1.594v1.453c0 .425-.036.815-.036 1.134 0 .318-.035.566-.035.672 0 .39-.072.638-.143.815-.106.142-.213.248-.354.32-.107.034-.284.07-.46.105-.213.036-.39.07-.568.07-.035.037-.035.107-.035.178v.213c0 .035 0 .106.035.142.142 0 .32 0 .567-.036h.78c.32-.036.602-.036.885-.036.284-.036.567-.036.78-.036.532 0 1.028.036 1.488.036.46 0 .886.035 1.24.035.39.035.674.035.922.035 0-.036.035-.107.07-.142v-.213c.036-.07 0-.14 0-.177-.248 0-.46-.035-.708-.07-.214-.036-.462-.072-.71-.143-.212-.07-.39-.212-.46-.39-.107-.176-.142-.46-.142-.78-.036-.105-.036-.247-.036-.53 0-.248-.035-.567-.035-.957v-1.205c0-.46 0-.886-.036-1.31v-1.24-.993c0-.142.037-.284.072-.425.036-.107.107-.213.142-.284.177-.248.354-.39.532-.53.212-.107.425-.178.673-.178.39 0 .743.106 1.133.32.354.21.673.46.956.778.035 0 .106-.035.14-.035.072-.035.107-.07.143-.07.106-.142.212-.284.32-.496.105-.177.21-.39.318-.603.142-.21.213-.424.284-.6.07-.214.142-.355.142-.462 0-.035.035-.106.035-.177v-.247c0-.07-.034-.106-.034-.142-.106-.21-.284-.424-.532-.53-.248-.142-.53-.213-.885-.213zm6.59-4.11v-.283c-.036-.107-.036-.213-.072-.32-.035-.106-.106-.212-.142-.283-.07-.07-.212-.14-.39-.21-.176-.072-.425-.108-.708-.143-.177 0-.354.035-.567.106-.21.036-.424.107-.6.177-.178.07-.32.142-.426.248-.036.07-.107.178-.142.32-.036.106-.036.247-.036.39v.39c.036.14.036.282.107.424.035.177.14.32.248.46.072.107.213.213.39.284.07.036.213.07.355.07.177 0 .354-.034.53-.034.178-.036.32-.07.462-.107.142 0 .248-.035.32-.07.176-.142.353-.355.495-.603.106-.248.177-.53.177-.815zm1.594 15.626c-.248 0-.46-.035-.603-.07-.14-.072-.282-.107-.39-.107l-.317-.213c-.07-.07-.142-.177-.178-.354-.07-.143-.07-.355-.106-.603v-1.17-1.346-1.416-1.276-1.382-1.488c.034-.496.034-.92.034-1.31v-.887c-.318.178-.708.32-1.133.426-.425.142-.85.248-1.275.32-.39.07-.78.14-1.134.212-.353.035-.637.07-.814.07 0 .036-.035.07-.035.142v.213c0 .07.036.142.036.142.213.07.425.14.567.212.177.07.32.177.46.32.072.105.143.247.178.39 0 .14.036.247 0 .39.036.14.036.388.072.672V77.03c-.036.427-.036.816-.036 1.17 0 .355 0 .603-.035.78 0 .355-.034.674-.105.85-.107.213-.248.355-.46.426-.143.035-.284.106-.462.142-.177 0-.354.035-.53.035-.037.036-.037.07-.037.142-.035.07-.035.142 0 .248 0 .07 0 .106.036.142.32 0 .71-.036 1.24-.036.532-.036 1.17-.072 1.913-.072.603 0 1.17.036 1.666.07.532 0 .993.037 1.347.037.036-.036.07-.07.07-.142.037-.07.037-.142.037-.213v-.177zm.744.532c.212 0 .567-.036 1.063-.036.497-.036 1.134-.072 1.914-.072.532 0 .992.036 1.453.036.425 0 .815.035 1.098.035.32.035.532.035.673.035 0-.036.036-.107.036-.142 0-.07.035-.142.035-.213 0-.07 0-.14-.036-.177-.177 0-.32-.035-.496-.07-.142-.036-.32-.072-.496-.143-.142-.07-.248-.14-.32-.248-.105-.07-.14-.212-.176-.354-.036-.177-.07-.425-.07-.71-.037-.317-.037-.672-.037-1.132-.036-.426-.036-.993-.036-1.666V73.7v-3.33-2.516-2.197c0-.673 0-1.24.035-1.736 0-.955 0-1.664.07-2.196.036-.53.07-.85.142-1.027 0-.036 0-.07-.035-.106-.036-.035-.07-.07-.107-.07-.248.106-.567.248-.956.354-.39.142-.78.248-1.24.354-.426.107-.85.178-1.312.248-.425.07-.815.142-1.204.142 0 .036-.036.106-.036.142v.212c0 .036.036.07.036.107.283.034.496.07.637.105.178.035.32.106.46.177.143.036.25.177.32.32.035.14.07.318.07.46.036.32.036.78.072 1.31 0 .568.035 1.205.035 1.914v9.958c-.035.567-.035 1.063-.035 1.488v1.1c-.036.283-.036.53-.07.708-.072.142-.107.284-.178.354-.072.107-.18.178-.285.213-.106.035-.212.07-.283.106-.107.037-.213.072-.32.072-.14.036-.283.07-.424.07-.036.037-.036.107-.07.178v.213c.034.035.034.106.07.142zm6.945 0c.212 0 .566-.036 1.063-.036.496-.036 1.133-.072 1.913-.072.53 0 1.026.036 1.452.036.46 0 .815.035 1.134.035.283.035.496.035.637.035 0-.036.036-.107.036-.142.034-.07.034-.142.034-.213v-.177c-.212 0-.354-.035-.53-.07-.143-.036-.32-.072-.462-.143-.177-.07-.283-.14-.354-.248-.07-.07-.142-.212-.177-.354-.035-.177-.07-.425-.07-.71-.036-.317-.036-.672-.036-1.132-.035-.426-.035-.993-.035-1.666V73.7v-3.33-2.516-2.197c0-.673.034-1.24.034-1.736 0-.955 0-1.664.07-2.196.037-.53.107-.85.178-1.027 0-.036-.035-.07-.07-.106-.036-.035-.07-.07-.107-.07-.248.106-.567.248-.957.354-.354.142-.78.248-1.204.354-.46.107-.886.178-1.347.248-.425.07-.815.142-1.17.142-.034.036-.034.106-.07.142v.212c0 .036.036.07.07.107.25.034.462.07.64.105.176.035.318.106.424.177.178.036.25.177.32.32.035.14.07.318.07.46.036.32.072.78.072 1.31 0 .568.035 1.205.035 1.914v9.958c0 .567-.035 1.063-.035 1.488v1.1c-.036.283-.036.53-.07.708-.037.142-.108.284-.178.354-.07.107-.178.178-.284.213-.106.035-.213.07-.283.106-.107.037-.213.072-.32.072-.106.036-.247.07-.424.07-.036.037-.036.107-.036.178v.213c0 .035 0 .106.036.142zm14.74-17.434c.46.037.85.143 1.17.427.318.248.566.602.708 1.063.178.425.284.92.284 1.452 0 .567-.07 1.1-.248 1.524-.142.46-.32.85-.567 1.205-.25.32-.532.64-.85.922-.037 0-.037.035-.072.035h-.07c-.462-.425-.85-.814-1.206-1.275-.354-.425-.602-.886-.78-1.382-.212-.46-.283-.92-.283-1.417 0-.603.106-1.1.283-1.49.177-.353.425-.636.708-.813.285-.142.604-.25.923-.25zm-2.162 8.435c.462.46.958.92 1.49 1.417.53.496 1.098.992 1.7 1.488.567.496 1.17.992 1.736 1.453.567.496 1.134.957 1.666 1.382 0 0 .035.035.035.07 0 0-.035.036-.035.07-.213.25-.496.462-.815.675-.32.212-.673.354-1.1.496-.424.106-.884.177-1.416.177-.637 0-1.24-.106-1.806-.354-.567-.214-1.063-.533-1.488-.923-.46-.39-.78-.85-1.063-1.346-.248-.495-.354-1.027-.354-1.594 0-.637.105-1.17.353-1.665.212-.495.53-.92.957-1.345 0 0 .035-.036.07-.036 0 0 .036.035.07.035zm2.66-9.036c-.674 0-1.312.105-1.88.353-.602.213-1.098.532-1.558.957-.425.39-.78.886-.992 1.453-.248.53-.39 1.134-.39 1.736 0 .566.07 1.098.212 1.558.142.46.355.886.603 1.276s.53.744.85 1.098c0 .036.036.036.036.07 0 .037-.035.072-.07.072-.78.496-1.418.957-1.914 1.346-.496.39-.885.744-1.17 1.1-.282.318-.495.672-.6 1.026-.143.32-.178.71-.178 1.1 0 .778.14 1.487.425 2.16.283.638.708 1.17 1.204 1.63.532.46 1.134.815 1.843 1.063.673.247 1.417.39 2.197.39 1.027 0 2.02-.25 3.012-.745.99-.532 1.947-1.276 2.833-2.303.036-.036.07-.036.107-.036.035 0 .07.036.07.036.638.46 1.205.92 1.808 1.382.566.46 1.17.92 1.77 1.417.072.072.178.143.32.284.142.107.248.213.39.355.106.14.212.247.248.353.07.035.142.035.213.035.105 0 .176 0 .247-.035.106-.106.248-.283.425-.532.212-.247.39-.53.567-.813.21-.32.353-.603.495-.886.14-.283.212-.53.212-.743-.14-.142-.39-.39-.744-.674-.354-.283-.744-.567-1.204-.92-.427-.32-.887-.64-1.383-.993-.46-.32-.922-.638-1.347-.92 0-.037-.035-.072-.035-.108v-.07c.32-.46.673-1.028 1.063-1.737.425-.744.886-1.56 1.452-2.515.107-.178.284-.355.46-.496.178-.178.426-.32.745-.426.142-.035.32-.106.532-.14.212-.072.39-.108.567-.143 0-.036.035-.07.035-.142v-.212c0-.07 0-.106-.036-.14-.107 0-.284 0-.496.034-.213 0-.532.036-.922.036s-.886.035-1.488.035c-.602-.035-1.134-.035-1.56-.07-.39 0-.743-.036-.99-.036 0 .034-.037.07-.072.14v.213c0 .07.035.106.07.142.32.035.603.07.816.142.177.035.39.07.53.14.285.108.462.25.533.427.07.177.035.425-.07.744-.107.32-.214.673-.39 1.098-.178.39-.355.815-.568 1.24-.248.425-.496.886-.78 1.31-.035.037-.07.037-.07.037-.036 0-.07 0-.07-.036-.426-.283-.922-.638-1.418-1.027-.533-.39-1.03-.78-1.56-1.205-.496-.425-.992-.815-1.418-1.17-.46-.39-.815-.708-1.098-.956v-.072c0-.035 0-.07.035-.07.78-.497 1.452-.957 1.984-1.383.53-.39.92-.85 1.204-1.275.284-.425.39-.886.39-1.418 0-.46-.106-.92-.283-1.346-.213-.425-.496-.815-.85-1.134-.355-.354-.78-.602-1.276-.78-.497-.177-1.03-.283-1.63-.283z"/>
    <path class="second second-1 main" fill="#8f2f1f" fill-rule="nonzero" d="M109.984 22.748c-.354-.354-1.204-1.063-2.055-1.24-1.17-.248-2.304-.284-2.304-.284s-.744-.07-1.31-1.24c-.568-1.204-1.24-3.118-2.765-3.047-1.522.07-1.877-.213-1.877-.496 0-.283 1.24-.99 1.1-1.523-.143-.567 1.522-3.118 2.656-4.5-.85-.14-.64.213-.993.39-.354.213-.425-.957.213-1.524.637-.53.425-1.842.14-1.24-.282.638-.884 1.24-.955.71-.07-.568.673-1.666.07-1.312-.637.32-2.657 2.41-3.33 3.296-.71.92-1.666 3.083-2.09 2.658-.426-.425-1.95-2.445-3.686-2.233-1.737.214-4.926.78-7.973 3.757.142.284.638-.14.78.284.14.39 3.047-2.444 5.527-2.586 2.516-.142 2.835.425 3.26 1.134.425.673.708 1.665.354 2.34-.354.707-2.374 3.825-2.374 3.825s1.665-.283 2.445 0c.318.107.318.46.21.815-.353-.248-1.38-.39-2.266-.212-1.134.212.142-1.276-.567-1.95-.673-.708-1.772.284-2.162 0-.425-.283-.425 1.24-1.027 1.206-.567-.036-1.063-.213-.992.354.07.567.744 3.437-.142 3.65-.85.177-1.807.035-1.063-.674.71-.708 1.206-1.382.958-1.984-.248-.567-.46-1.878.283-1.878.71 0 .993-.177 1.348-.673.354-.496 1.56-2.16 1.17-2.516-.355-.318-1.454.285-1.808.107-.32-.177 0-1.098-.673-.956-.674.143-1.418.816-1.807.745-.39-.036-.142-.46-.32-.532-.177-.07-.495-.07-.885-.07s-1.24 1.452-1.524 1.38c-.282-.07-.176-1.132-.53-1.522-.355-.39-.886.107-1.063-.46-.177-.53-.107-1.913.177-2.303-.957-.425-1.807.46-2.268.957-.46.496-.744 1.346-1.098 1.346-.355 0 .32-.992-.355-.992-.673 0-1.77 1.346-1.878 1.807-.106.425-.53.638-.744.32-.21-.355.25-1.595-.353-1.56-.602.035-.85 1.063-1.31 1.276-.497.213-.214 1.595-.462 2.162-.248.602-1.523-.248-1.63-.92-.106-.675-.744-.533-.85-.072-.142.46-.602 2.09-.106 2.728.46.673.672 1.418.495 1.63-.177.213-.957.425-1.31.07-.356-.353-.178.036-.037.78.142.71.603 2.94 1.17 3.508.602.532 1.133.744 1.452 1.31.355.533.674.852 1.205.214.496-.673.638.07.71.46.07.426.105 1.17.566 1.205.46.036 1.17.036.993.603-.177.567-.177 1.63-.036 1.984.142.354 1.24.957 1.382 1.488.07.142.176.32.283.496.07-.212.14-.496.212-.78-.14-.14-.39-.46-.39-1.24 0-1.133-2.16-7.3-2.763-9-.638-1.665.39-4.925.39-4.925-.39 3.084-.07 4.537.46 6.167.532 1.63 1.524 4.854 2.055 6.06.355.778.426 1.735.426 2.373.283-.92.637-2.02.992-2.587-.355-.78-.886-1.984-1.134-2.48-.354-.78-.424-2.268-.354-2.94.107-.674 0-2.694 0-3.367s.886-1.028 1.7-1.63c.78-.603 1.24-1.417 2.198-1.736-.177.39-1.95 2.02-2.905 2.693-.994.673-.462 5.173-.356 6.13.07.78.85 2.232 1.17 2.834.92-1.56 3.01-5.953 3.685-7.476.743-1.7 4.5-3.33 4.5-3.33-3.757 1.524-4.68 4.925-5.316 6.307-.426.886-1.028 2.374-1.63 3.614.708-.07 3.897-.39 5.173-1.7 1.453-1.452 4.075-1.913 4.075-1.913s-.46.07-1.276.71c-.815.637-2.02.814-2.657 2.018-.64 1.205-3.05.886-3.05.886l-2.656.78c-.213.355-.39.674-.567.887-.567.673-1.17 2.657-1.453 3.826 1.17-.92 5.776-4.145 13.288-4.5.53-.32 1.134-.567 1.77-.602.497-1.31 1.738-2.23 3.19-2.23 1.17 0 2.197.6 2.835 1.522l.283-2.196s.107-1.56-.106-1.808c-.248-.248-1.205.355-1.346.107-.107-.284-.036-1.524-.248-1.7-.248-.178-1.56.6-2.126.46-.284-.07-.532-.284-.71-.567.71-.39 1.914-3.048 2.27-3.19.424-.106 2.762-.956 3.967-.318 1.17.602.958 2.338.958 2.338s-.957.036-1.453.355c-.496.32-.957 1.31-1.027 2.976-.07 1.664-.142 3.046-.142 3.046s.673-.14.957 0c0 0-.107-3.33.637-4.216.71-.92 1.418-.992 1.418-.992s.567.248 1.098 1.098c.532.744 1.24 2.445 1.488 3.756.177-.46.496-.886.922-1.205.07-.07.14-.14.248-.212-.07-.886-.46-1.737-.78-2.233-.32-.53-.602-.637-.46-.78.14-.14 1.63-.07 2.338.284.673.355 1.453 1.24 1.736 1.595 0-.035.036-.035.036-.07.106-.496.248-.957.46-1.382zm.177 15.768c.497-1.276 1.56-2.162 2.8-2.162.284 0 .568.036.816.142-.46-.46-.85-1.063-1.028-1.736-.425 1.56-1.772 2.728-3.402 2.764.32.283.603.602.815.992zm6.982-8.47c-.32-.14-.673-.247-1.063-.247-.32 0-.604.07-.887.176.035-.14.035-.283.035-.46 0-.532-.106-1.028-.283-1.488.71-.284 1.31-.78 1.736-1.453-.105.39-.176.815-.176 1.24 0 .815.248 1.594.638 2.232zm4.075-9.318c-.46 0-.886.142-1.276.355.426.53.71 1.17.71 1.878 0 .355-.07.71-.213.993 1.31.14 2.41.956 2.835 2.02.496-.567.815-1.312.815-2.127 0-1.736-1.276-3.118-2.87-3.118zM92.41 35.68c-.213.39-.32.85-.32 1.348 0 1.63 1.312 2.976 2.94 2.976 1.242 0 2.305-.744 2.765-1.807-1.063-.532-1.807-1.7-1.807-3.047-.53.567-1.275.956-2.09.956-.532 0-1.063-.177-1.49-.425zm1.38-6.164c-1.487.07-2.656 1.382-2.656 3.012 0 1.63 1.24 2.976 2.764 2.976 1.275 0 2.374-.957 2.657-2.268h-.035c-1.524 0-2.764-1.453-2.764-3.224 0-.177 0-.32.035-.496zm-3.08 3.897c-1.064.426-1.808 1.524-1.808 2.8 0 1.63 1.24 2.976 2.728 2.976.32 0 .567-.036.85-.143-.53-.53-.886-1.31-.886-2.16 0-.533.142-1.064.39-1.49-.673-.425-1.134-1.133-1.275-1.984zm6.2-6.378c-1.49 0-2.693 1.31-2.693 2.94 0 1.525 1.063 2.765 2.444 2.907.356-.602.887-1.028 1.525-1.24-.106-.355-.177-.71-.177-1.1 0-.955.39-1.806 1.027-2.373-.496-.674-1.275-1.135-2.126-1.135zm2.373 4.784c-1.56 0-2.834 1.38-2.834 3.117 0 1.7 1.274 3.083 2.833 3.083 1.56 0 2.87-1.382 2.87-3.083 0-1.736-1.31-3.118-2.87-3.118zm1.95-4.147c-1.56 0-2.835 1.347-2.835 2.977 0 .32.035.602.106.885.248-.035.53-.07.78-.07 1.275 0 2.373.78 2.87 1.948.212-.07.425-.177.602-.283-.744-.602-1.24-1.595-1.24-2.693 0-.957.39-1.843.992-2.445-.39-.177-.815-.32-1.276-.32zm16.334-7.618c-.744 0-1.417.39-1.913 1.063.992.567 1.665 1.843 1.665 3.295 0 .213 0 .426-.037.638.674-.743 1.63-1.204 2.693-1.204h.107c.035-.212.035-.39.035-.602 0-1.772-1.134-3.19-2.55-3.19zm-13.82 13.358c-.885.603-1.452 1.524-1.452 2.587 0 .213 0 .39.036.567.284-.036.568-.07.85-.07.993 0 1.88.318 2.623.85.39-.25.85-.426 1.347-.46-1.17-.674-1.95-1.88-1.95-3.296h-.424c-.355 0-.71-.035-1.028-.177zm10.24-12.26c-1.63 0-2.975 1.49-2.975 3.367 0 .248.035.496.106.744.213.035.425.07.638.142 1.417.39 2.516 1.24 3.083 2.303 1.203-.427 2.09-1.702 2.09-3.19 0-1.878-1.312-3.366-2.942-3.366zm-2.302 4.607c-2.055-.532-4.11.283-4.748 1.913.602.532 1.063 1.24 1.24 2.055.32-.07.638-.106.957-.106 1.7 0 3.153 1.098 3.72 2.587l.07-.037c.32-1.063.993-1.913 1.88-2.303.318-1.736-1.028-3.543-3.12-4.11zm-6.91 1.7c-1.594 0-2.905 1.312-2.905 2.906 0 1.595 1.31 2.87 2.906 2.87.14 0 .283 0 .425-.035.143-1.487 1.1-2.763 2.48-3.294-.21-1.382-1.452-2.445-2.904-2.445zm4.36 2.623c-1.915 0-3.474 1.56-3.474 3.437 0 1.913 1.56 3.437 3.474 3.437 1.913 0 3.472-1.524 3.472-3.437 0-1.878-1.56-3.437-3.472-3.437zm10.912-5.81c-1.736 0-3.153 1.593-3.153 3.542 0 1.205.53 2.268 1.346 2.905.354-.318 1.843-1.133 3.33-1.098.426-1.028 1.347-1.736 1.63-1.878-.035-1.913-1.417-3.472-3.153-3.472zm4.607 3.507c-1.205.07-2.197.885-2.623 2.02.604.176 1.17.495 1.596.92.354-.992.71-1.948 1.028-2.94zm-3.58 2.374c-.92 0-1.77.39-2.373 1.027.355.64.603 1.454.603 2.304 0 .39-.07.78-.142 1.134.356-.142.71-.212 1.135-.212.603 0 1.205.177 1.736.46.462-1.205.958-2.445 1.42-3.685-.604-.637-1.454-1.026-2.375-1.026zm-.956 4.677c-.39 0-.744.072-1.063.213-.39 1.063-1.17 1.914-2.126 2.268-.036.178-.072.32-.107.497.39-.177.78-.248 1.205-.248.956 0 1.842.46 2.444 1.24.426-1.17.886-2.304 1.347-3.438-.497-.32-1.064-.53-1.702-.53zm-4.146-4.712c-1.56 0-2.834 1.524-2.834 3.402 0 1.878 1.275 3.4 2.834 3.4 1.56 0 2.835-1.522 2.835-3.4s-1.276-3.402-2.835-3.402zm-16.44 8.362c-1.56 0-2.87 1.49-2.87 3.296v.07c.92-.035 1.913.107 2.905.355-.106-.424-.177-.85-.177-1.275 0-.92.248-1.736.708-2.41-.177-.035-.354-.035-.567-.035zm3.72-1.56c-1.843 0-3.33 1.667-3.33 3.722 0 .638.14 1.24.39 1.736.956.283 1.983.638 3.082 1.098.32-.212.673-.354 1.027-.425-.353-.6-.566-1.31-.566-2.09 0-1.346.638-2.515 1.56-3.188-.603-.532-1.347-.85-2.162-.85zm4.287.462c-1.737 0-3.154 1.665-3.154 3.72 0 .674.177 1.31.425 1.843 1.206 0 2.233.78 2.66 1.878h.07c.14 0 .283 0 .46-.036-.106-.283-.142-.567-.142-.85 0-1.417.922-2.622 2.162-2.94-.142-.355-.177-.745-.177-1.135s.035-.744.14-1.063c-.566-.85-1.452-1.418-2.444-1.418zm7.263 4.535c-.425.07-.78.213-1.098.46.32.568.53 1.24.53 1.95 0 .496-.105.992-.282 1.417.46-.283.956-.425 1.523-.425.39 0 .815.105 1.17.247.035-.39.106-.78.248-1.17-1.028-.39-1.843-1.31-2.09-2.48zm-1.665-5.102c-1.595 0-2.906 1.346-2.906 3.047 0 .355.07.744.213 1.063.177-.035.354-.035.567-.035.992 0 1.842.46 2.41 1.17.354-.284.78-.497 1.24-.603 0-.142-.036-.32-.036-.46 0-.993.425-1.88 1.063-2.48-.462-1.03-1.418-1.702-2.552-1.702zm5.882 6.06c-1.134.424-1.914 1.558-1.914 2.905 0 .744.213 1.417.603 1.948.353-1.665.814-3.295 1.31-4.854zm-.992-4.855c-1.63 0-2.94 1.382-2.94 3.082 0 1.382.814 2.516 1.983 2.94.46-.85 1.206-1.487 2.127-1.735.354-1.063.744-2.09 1.134-3.118-.53-.71-1.38-1.17-2.302-1.17zm-2.658 7.76c-1.24 0-2.232.956-2.41 2.232.71.07 1.347.39 1.88.85.6-.638 1.45-1.027 2.373-1.027h.035c-.32-.46-.53-1.063-.602-1.666-.355-.25-.78-.39-1.276-.39zm-4.358-4.536c-1.524 0-2.8 1.382-2.8 3.083 0 .212.036.46.07.673.285-.07.568-.106.852-.106 1.382 0 2.55.92 3.012 2.232.992-.496 1.665-1.56 1.665-2.8 0-1.7-1.24-3.082-2.798-3.082zm-6.06 2.232c-.354 0-.672.107-.99.248 1.097.46 2.23 1.028 3.365 1.595-.425-1.064-1.347-1.844-2.374-1.844zm4.182 1.807c-.46 0-.886.107-1.24.32 1.275.673 2.622 1.38 4.004 2.09-.284-1.347-1.418-2.41-2.764-2.41zm5.138 3.686c-.178-.108-.355-.214-.532-.285.177.106.354.177.532.284zm2.94-.78c-.885 0-1.665.424-2.16 1.097l.176.178c.674.354 1.347.673 2.02 1.027.106-.78.213-1.523.39-2.268-.142-.035-.284-.035-.425-.035zM89.186 11.586s-.07-1.205-.992-1.31c-.886-.108-.71.353-.815.566-.106.248-.46.673-1.276.39-.78-.284-1.133-.107-.956.39.177.495.035 1.204-.674 1.027-.673-.178-.744-.567-.78-.886.355.248.745.85 1.135.53.39-.353-.177-.637.07-1.168.25-.496.85-.425 1.312-.283.495.14.884.035.955-.46.07-.533.426-.64 1.028-.497.638.142 1.098.567 1.276.85.176.32.21.744.21.744l-.495.107zM78.235 34.37c-.034.036-.07.106-.14.142-.603.496-1.49.32-1.843-.284-.32-.602-.532-2.02-.39-2.515.142-.532.213-2.374 0-2.552-.248-.176-.815.037-1.134-.317-.283-.32-.177-1.1-.53-1.17-.39-.07-.922.815-1.24.46-.285-.353-.39-1.63-1.1-2.02-.673-.39-.886-.247-1.098-.53-.213-.248-.036.567.106 1.063.142.46-1.63-1.31-2.55-1.063-.887.283.318 2.055-.32 2.232-.673.177-3.366 0-4.11.213-.71.212.106.496.53.956.427.496.497.957-.105.992-.708.036-2.09 1.17-2.656.78-.32-.213-.532.213.14.85.71.603 1.42 1.347 1.206 1.914-.213.602-.177.78.32 1.134.53.354 1.806.744 1.345 1.063-.496.318-1.63.318-2.126.673-.497.32-1.134.53-.85.85.247.32 1.558.532 1.275.744-.284.213-1.028.177-1.24.284-.178.14-.036.92-.07 1.134-.072.212-.214.425-.675.85-.46.425-.92.53-.602 1.17.354.672.283 1.417 0 1.735-.248.355.106-.212.92-.177.78.036 1.596.107 1.667.567.07.46-.745 1.772-.07 1.95.636.176.53-.568 1.203.034.46.427.674 1.63.815 2.376h.744v-.036c.39-.638 1.134-1.346 1.772-1.736.637-.425 1.168-.532 1.168-1.028s-.106-1.913.213-2.09c.32-.213 1.1-.603 1.702-.213.602.354.496 1.134-.177 1.595-.674.425-.922.567-1.418 1.063-.496.497-1.665 1.134-1.842 1.56-.106.248-.355.744-.32.992.25 0 .462.035.674.07.283-.035.424 0 .495.072.673.106 1.347.248 1.95.318.353-.318.85-.744 1.523-1.346 1.452-1.31 2.834-4.925 3.756-5.846.708-.71 1.948-1.7 2.444-2.126-.14-2.445-.14-4.536.39-3.26 0 0 0 .212.036.496l.035-.036s1.558.39 3.897.78c2.338.39 4.358 2.16 4.358 2.16s-2.126-1.31-3.437-1.558c-1.063-.177-3.862-.78-4.854-.992.035 1.31.14 3.898.496 5.917.602.497 2.445 1.525 4.252 1.773 2.09.32 3.756 1.63 3.756 1.63-2.516-1.382-3.154-1.098-4.36-1.24-1.026-.106-2.87-1.1-3.542-1.488.106.425.177.78.283 1.098.247.638.566 1.382.956 2.16 4.004.675 8.752 1.88 9.496.64l.32-.532c-.497-.566-1.49-1.31-1.737-1.7-.32-.46.71-.46.39-1.205-.32-.744-1.24-.744-1.843-.744-.602 0-.815.887-1.665.533-.85-.355-2.87-2.197-1.807-2.835 1.063-.638 2.586-.07 2.657.744.07.85.496.957.886 1.063.39.106 1.878.213 2.09.496.178.32.674 1.277.107 1.56-.532.248.53.744.957 1.276.07.106.177.212.283.32.78-1.24 1.594-2.304 2.693-3.12.283-.212.602-.39.957-.566-.107-.638-.142-1.205-.178-1.63-.46-.284-.85-.638-1.133-.992 0 0 0 .035.034.035l-.213-.07h-.317c-1.382 0-2.587-.816-3.19-1.985-1.062-.567-2.055-1.098-2.622-1.276-1.345-.46-3.648-1.984-8.077-1.31l.32-.674s4.215.177 7.227 1.276c.39.14.78.283 1.098.46.603.32 1.205.638 1.808.992-.107-.39-.178-.815-.178-1.24 0-1.488.78-2.728 1.95-3.366-.036-.212-.036-.425-.036-.673 0-1.063.425-2.02 1.134-2.728-.71 0-1.772.07-3.154.424-2.693.673-9.213 3.614-9.71 4.358-.07.106-.105.177-.14.213v.035h-.036zm17.682 7.512v-.036c-.708-.14-1.382-.39-1.948-.673.034.32.07.71.14 1.134.567-.213 1.17-.354 1.807-.425zm-16.76 4.606c-.106-.248-.177-.425-.248-.602-.46-1.453-.745-.46-.745.106 0 .036-.035.177-.07.32.354.07.708.105 1.062.176zm-1.452-.212c.177-.71.283-1.31.283-1.666 0-.39-.177-2.622-.32-4.783-.495.46-1.593 1.417-2.444 2.232-1.133 1.062-1.913 3.47-2.834 4.676-.532.71-1.488 1.347-2.197 1.807 1.807.213 3.26.07 3.827-1.56.32-.814 1.77-.92 3.685-.707zm24.838-29.48s.567.247.886.673c.105-.427 2.125-2.907 1.487-4.572-.673-1.666.07-2.34.744-1.843.71.532 2.765 1.417 3.013.32.248-1.1 2.835-2.552 3.97.39-.178-1.277-.71-2.304-2.198-2.27-1.488.036-1.984.958-2.126 1.24-.107.32-.107.958-1.064.674-.92-.284-1.417-1.24-2.197-.957-.816.248-1.277.46-1.17 1.098.106.64.708 1.312.496 2.163-.213.815-1.843 3.082-1.843 3.082z"/>
    <path class="second second-2 bottle main" fill="#8f2f1f" d="M127.807.425h.106V.39c0-.213.142-.39.355-.39h7.547c.213 0 .354.177.354.39v.035h-.036c.212 0 .39.177.39.39V2.48h.212c.107 0 .213.107.213.248v4.04c0 .14-.107.248-.214.248h-.212V16.44c0 13.714 8.22 24.025 8.22 37.985v11.09c-5.917-5.172-15.094-9.035-25.44-14.03 1.027-12.51 8.113-22.324 8.113-35.044V7.02h-.07c-.107 0-.213-.107-.213-.248v-4.04c0-.14.106-.248.212-.248h.07V.817c0-.214.178-.39.39-.39zm8.327 0z"/>
    <path class="first main" fill="url(#grill-gradient)" d="M15703 14107c107 33 419 275 497 550 79 275 104 516 28 701-11 37-48 16-21-51 53-189 26-448-80-682-105-233-334-429-418-479-83-50-113-72-6-39zm2220 538c-3 1-5 1-7 2-1 13-12 18-27 13 1 6-5 15-12 15 2-4 3-8 4-11-7-5-14-3-21 0-2 1-5-1-8-2 6 2 12-5 11-14 3 1 5 3 8 4 1 0 2-2 3-2 2-1 5-1 7-1 0 0 1-1 2-3 0-2 1-4 1-7-10-2-3-9-3-14 1 1 2 3 4 6 2-2 4-4 4-6 0-4 0-9-1-14 3 2 5 3 7 4 4-11-9-12-13-19-2 3-4 7-5 8 3 4 4 7 6 10 0 1-1 1-2 1-10-13-20-25-31-39 0 1-2 2-4 4-3-5-5-10-7-15 1-1 2-1 2-1 2 2 3 4 5 6 1 0 2-1 4-3v5c9-3 12-2 14 7 1-2 2-4 3-4 5 1 9 3 13 2 5-1 11 5 16-1 1 1 2 2 3 4 11-6 16 5 24 6-1 5-6 10 4 8 3 0 8 8 12 13 0 1-1 1-2 2-4-2-8-4-11-6 2 6 10 10 0 16-5-5-3-18-16-16 3 7 9 13 6 21-1 3 2 7 4 10 3-3 6-5 8-8 2-2 2-6 3-9 0 7 4 12 11 14 1 0 2 3 2 3-5 5-4 7 2 10 1 0 1 2 2 5-5 1-9 3-14 5 0-1 0-1-1-2 1-1 3-2 4-3-1-1-1-1-1-2-2 2-5 3-7 4-3 1-6 2-8 2 0-2 1-5 2-8zm-26-21c3 4 6 6 10 10 1-5 1-8 2-10-3 0-5-1-7-1-3 0-6-1-9-1v6c1 0 1 1 2 1 1-2 1-4 2-5zm-1896-570c-4-1-8-2-11-2 0 0-1 2-1 3-6-5-2-15-11-19v-1-30c3 0 7 1 11 2v-1c-2-2-5-3-8-5 4-5 4-10-3-13-6-3-9-8-12-13-5-8-11-17-19-23-4-3-11-2-15-8-2-4-5-7-8-11 7-2 16-2 14-14h18c5 0 9 1 14 0 6 0 11-4 18 0 2 1 6-2 9-4 4-2 6-5 11-1 3 3 9 3 13 4l9 3c2-1 4-3 6-4 2 3 3 5 4 8s2 7 2 11h3c1-3 1-7 2-10 8 0 7 6 6 12 8-3 15-6 19 4 4-1 7-2 10-3 0 6 0 13-1 19 4-1 8-1 13-2v-13c4 3 7 5 10 7 4 5 6 6 9-1 1-1 3-3 3-4-1-6 4-9 7-12 1-2 2-5 4-8h6c2 4 4 8 5 12 1 3 2 7 0 9-7 6-5 15-9 22-2 4-3 8-5 12-3 9-7 18-10 27-1 2 1 5 2 7s4 5 4 6c-5 8-4 17-11 23-6 7-12 12-20 13-2 7-3 14-4 23 6 4 10 10 9 20 0 1-1 2-2 4 7 4 7 13-1 24-2-3-3-7-6-9-1-1-4 1-7 1-1 1-1 2-2 3-3-4-6-9-9-14-2-3-2-7-5-10-3-4-7-6-11-9-2-2-5-5-5-7 2-4 5-7 8-9 4-2 9-4 15-7-2-2-4-4-5-6 0-4 4-4 7 0 1 3 2 6 3 10 4-7 8-12 10-18 2-7-1-14-9-17-1 1-3 2-3 2 3 12-7 13-14 17-1 0-2 3-2 5-3 9-10 14-20 14-3 0-6 2-9 2-7 0-15 1-22 0-4 0-8-2-11-4-2-1-2-4-4-6 5-1 0-13 9-7 1-2 2-3 2-4zm61-57v1c-1 1-2 3-2 3 4 4 2 8 0 12 0 1 3 4 4 7l5-5h-2c1-6 2-11 2-17 0-7 8-14 1-21-2 0-4 2-5 1-2-1-3-4-3-6 0-6 3-12 8-16 1-1 2-3 2-3-1-1-3-2-4-2h-4c0 2 0 4 1 6l-12 3c-5 13-1 24 14 27-2 4-3 7-5 10zm-22 4c-2 4-5 8-7 12 17 2 17 2 18-4-9 5-6-7-11-8zm-58-82c-9 12-9 12-2 18 1-2 2-5 3-6 7-4 4-8-1-12zm1110 1062c1-2 3-5 4-8 3-1 12 5 16 13 1-4 2-6 3-9 10 4 11 1 15-8 2-5 10-9 17-8-2 5-4 9-5 14-2 4-7 7-7 11 0 0 1 1 2 1 5-6 9-13 14-19v-1c1-4-2-12 8-7 4 2 9 2 14 4h4c-2 11-8 19-21 23 8 4 18 5 11 18 1-1 3-1 4-1v-12-6c1 0 3 1 4 1 4-1 7-2 11-3 0 5 1 9 1 13h3c0-5 1-11 1-14 9-1 16-2 23-3-1-3-1-6-3-11 4-3 9-8 14-13 6 6 6 8-1 12-2 1-4 4-6 6 2 2 4 3 5 4 6-6 11-13 17-20 1 1 3 2 6 2-1 1-1 1-2 1l12 15c1 0 2-1 3-2-2-2-5-4-6-6s-3-5-2-8c0-1 3-4 6-1 1 1 3 1 3 0 8-7 17-3 25-1 3 1 5 2 9 3-5 4-9 9-14 15-1-4-2-7-3-9h-1v5c0 10-5 17-14 22-6 2-12 4-18 7-2 2-5 4-7 6-10 10-25 10-35 21-4 4-14 5-22 4-10 0-17 4-24 10-5 4-9 9-17 9-5 1-12 5-16 10s-7 5-12-1c1 4 1 6 1 8-7 7-19 6-30-4-2 6-4 10-6 14-10 1-20 3-29 3-11 0-22-1-33-2-4 0-7 1-11 2-4 2-14-4-17-8-4-4-10-7-14-11-8-5-19-7-20-19 0-4-6-7-10-11l-18-21c-3-3-7-5-11-8-16-11-30-25-39-42-8-15-15-32-22-48-1-2-1-5-2-9 10 7 18 14 26 20 9 8 11 18 13 29h2l3-6c2 0 5 0 7 1 9 2 19-7 27 3 2 1 6 1 9 1 8 3 16 5 23 9 4 2 10-4 12 2 1 5-1 10-1 16 2-3 4-5 6-8 0 1 1 1 1 2 2-1 5-3 7-4v1h16c2 0 4 2 6 3 3 3 6 6 10 9 3 3 7 6 11 9 1-1 3-3 4-5 6 5 11 10 16 15 1-1 2-1 3-1-1-2-2-4-2-7s-1-6-1-9c1-5 4-9-1-14 0 0 3-5 5-7 2 1 4 2 6 4 1-1 2-3 3-7 7 2 14 4 22 6l2 1c-3 7 6 9 8 14-2 5-4 10-5 14-1 0-2 0-3-1 1-2 1-5 2-8h-3c-1 5-2 11-2 16s3 8 6 11c-5-2-7 0-7 6 4 0 9 1 14 2v-7c-3-1-5-1-7-1 8-10 7-21 4-32zm17 15c8 0 10 5 11 12l9-6c-1-1-1-2-2-3 3 0 5 0 7 1v-3h-12v-9h-2c0 2-1 5-2 8-4-7-6-3-9 1h-7c-7-1-6 2-5 6 5-1 8-2 13-2-1-1-1-3-1-5zm-108 63c-9-6-11-15-5-26 4-7 0-8-6-7 0 3 1 5 2 8-8-2-14-3-20-5 3 6 6 13 10 20 0 1 1 0 2 1 9 4 9 5 5 14v1l12-6zm66-52c-1-7-1-11-2-14-2-1-4-1-7-2-4 0-8 8-4 11 3 2 8 3 13 5zm10-5v-14c1 1 2 3 3 4-3 2-5 4-7 6-2-1-3-2-4-3 2 2 5 4 8 7zm284-801c-5-6-9-12-14-19 2-3 5-1 8 2 5 4 10 9 16 14 3 2 6 2 10 4 1 2 0 6 1 8 2 2 7 2 10 3 4 2 7 7 9-1 0-1 4-1 7-1 1-5 2-11 4-18 8-2 6 7 11 11-3 1-6 3-8 5-1 1-3 3-2 4 5 6-2 6-8 9 3 2 6 3 8 4-3 10-2 17 6 22 6 5 9 11 8 19 0 5 2 11 3 16 0 1 3 1 3 1 1 3 2 6 2 8h2c0-1 0-3 1-4 3 0 6 1 9 1 5 9 10 17 15 26 3 6 6 11 9 17 1 1 2 2 4 3 7 2 8 9 11 15 6 7 7 19 18 23 3 1 4 7 6 11 1 2 1 4 2 6 2 3 4 7 7 11-8 1-11 7-12 13 0 1-1 3-2 4-7 5-15 10-24 15-1-4-2-6-3-9-2 7-3 12-11 14-4 0-7 8-12 13l-15-6c-1 0-4 1-4 2-1 1-1 4 0 5 2 3 5 5 8 9-5 1-10 1-16 2 1-3 2-7 2-8-4-12-8-22-12-33v13c-5-2-9-5-14-7-7-3-9-8-9-17-3 2-4 3-6 4-3-12-6-24-8-35-4-3-7-6-9-8 3-7 6-12 9-17 25 10 32 32 34 57 8-11 8-20-1-31-5-7-5-8 3-10 1-1 1-1 2-1 2-2 4-3 5-4 3 1 6 2 8 2 2-1 4-3 3 1 2 0 5 0 6-1 2-4 4-9 6-15-5 4-9 6-14 8-1-1-2-3-3-5-3 1-5 2-8 4-7 4-12 0-17-5-6-5-12-9-18-14s-12-10-13-19c0-1-1-3-1-3-11 0-7-13-13-16-3-1-6-3-9-5-2 3-3 6-3 8-4 0-8-1-11 0-8 1-19-6-22-13-1-3-5-5-7-7-3-1-6-3-9-4-7-4-12-12-20-15-7-2-16-6-18-16 0-1-1-2-2-3-4-6-7-12-12-17s-5-14-13-18c-2-1-2-9-1-13 0-3 2-6 3-11-3 2-5 4-8 6 0-4-1-8-1-11-2-2-8-3-4-10 2-5 5-6 9-3 5 3 11 5 17 6 1 2 3 5 4 7 1-12-14-9-16-20 2-4 4-9 7-14l-3-3h-12c0 8-6 13-14 16-1-4-3-10-4-15-3-1-7-1-11-2v-2c1 0 2 0 4-1-3-1-5-3-8-4v5c-2-6-9-8-12-15-5-7-6-18-17-22-7-3-15-7-18-12-3-6-9-10-13-15-1-1-1-3-1-5-2-4 1-10-6-11-1 0-1-4-2-5-1-10-6-16-16-18-5-1-11 0-12-7-1-1 0-3 1-4-3-1-6-2-9-2 2-4 3-7 5-12 3 11 9 15 15 14 2 2 3 5 4 7 1 0 1-1 2-1-1-1-1-2-2-4h12v11c1 1 2 3 4 4 1 2 4 2 5 3 0-1 1-3 0-5 0-2-1-3-2-5 7-3 10 3 13 6 1 0-1 3-2 5 3-1 5-1 6-2 5 5 10 12 17 14 11 4 20 10 26 20-3 1-7 2-10 3v2c6 2 13 3 19 5 5 2 9 3 13 6 5 3 4 9 6 13 1 5 8 9 13 13 3 2 7 2 10 4 1 0 2 1 2 1 7-5 12-2 16 3 1 1 5-1 7-1 1 1 1 4 1 6 7 2 13 4 17 12 1 2 6 6 9 10h4c4-2 9-4 12-6-1-4-3-9-5-14 5 1 8 2 12 3 3 1 6 3 10 4 1-2 2-4 3-7 3 4 5 6 7 9 2 2 5 4 9 7 1-5 2-8 3-13h-10v-7c4 2 8 4 11 7 1 1 2 3 2 4-1 5-1 9-2 15-1 0-3 1-5 2-3-4-6-9-12-4-1 1-5-1-10-3 6 7 10 12 14 17-4 1-6 2-10 3 2 3 3 6 5 9-11 3-13-5-18-13-1 4-4 7-4 9 3 4 6 8 10 10 3 1 8-1 13-2 0 1-2 3-4 6 1 1 1 3 2 5-12-1-12-1-31-19-4 11 0 23 8 24v-4l27 12c2 1 4 0 7-1-1-2-1-4-2-5-1-3-3-5-4-6 3-5 4-8 7-13l9 12c1 1 4 0 6 0-5 8-3 11 7 16-1-4-2-6-3-8-1-3-3-5-4-8zm40 138c4 4 7 7 12 11 0-9-4-13-12-11 1-5 3-10 4-14-4-2-7-3-8-4 1-5 3-9 3-12-1-3-5-4-7-6-2 2-4 3-4 5 0 3 1 7 1 10 0 2-1 6-1 6-7 2-3 5-3 8 2 10 9 6 15 7zm-82-81c4-1 5-4 1-9-1-2-2-4-3-8 19 6 23 5 28-4-6-4-13-7-20-11-1 4-2 8-2 11l-12-3c-5-1-9-3-13-5-3-1-7-2-10-3 0 1-1 2-1 2 6 4 13 8 18 12 5 5 9 11 14 18zm163 142c2-3 2-7 5-10 8-6 8-5 1-10-4 3-9 5-13 9-2 2-5 7 2 9 1 0 3 1 5 2zm-236-184c1 0 3 1 4 2 7-13 16 0 23-3-5-7-10-10-24-11l-3 12zm129 83c0-3 0-8 1-8 6-1 4-6 6-9s1-8-3-9c-4 6-7 11-11 16-2 4 1 9 7 10zm-112-104c2-1 3-2 5-3-2-3-4-7-6-10l-6 3c2 3 5 6 7 10zm0-44l-1 1c17 16 17 16 21 14-6-5-13-10-20-15zm60 131c-4 11 2 11 7 12 1 0 2-3 4-4-4-2-7-5-11-8zm90 30c-4 15-4 15 2 18-1-6-1-12-2-18zm-11-57c-1 10 5 11 11 14 1-9-8-7-11-14zm318 485c4-6 12-6 15-14 0 0 4 1 5 1-3 5-5 10-8 16 6 0 10-1 14-2 2 0 4-1 6-2 6-3 2-6-4-10 8 2 13 3 19 4-5 8-10 15-16 22 0 0-1 0-2-1 0-1 1-2 1-4-3 1-5 1-5 1 0 6 1 10 1 13-9 2-8 9-10 15-2-1-4-2-7-3 2-3 3-7 6-13-8 6-13 10-19 15 5-1 9-1 12-1 0 2-2 4-1 6 0 1 4 2 4 2 2-2 3-4 4-7l9 9c5-3 11-5 16-9 4-3 7-7 13-13-1 5-1 8-1 10 0 3 2 5 2 7 2-2 3-4 4-6 1-1 1-2 1-5 3 2 5 4 9 6-1-3-1-6-2-7-3-3-7-6-10-9-1 0 0-2 0-4 0 0 2-1 3-1 1 1 3 1 5 2v-9c5 9 11 12 19 8 2-1 5 1 10 1l-11-11-4 4c-2-2-3-3-4-5 2-1 3-2 6-3-4-2-7-4-12-6 3-2 6-4 10-6 1 4 2 7 2 9 0-7 2-13 7-18h2l-3 9c-1 2-3 6-1 8 1 3 5 4 8 5 1 1 3 0 7-1-14 9 1 11 1 16 0 2 3 3 4 5 0 3 1 7 0 10-1 2-6 1-11 1 4 3 8 6 11 8 4 4 4 8-2 13 1-3 1-5 2-9-4 3-8 4-8 6-1 8-5 9-12 8-2-1-5-1-9-2l7-7c1 0 2 0 3 1-2-3-3-5-4-8l-6 6c-2 1-3 3-4 4l-9 3c0-3 1-5 2-9-4 1-7 9-11-3-1 2-1 4-1 6 2 3 4 5 7 8-5 3-9 8-5 16 2 4-11 18-16 17-1 0-3-3-2-6-3-3-6-7-9-11-1 8-1 16-2 27-9 7-20 17-36 20-3 1-6 2-9 4-2 1-5 2-7 2 0-3-1-6-1-10 0 0 1-1 1-2h-11l6 15c-4 3-9 7-13 10-5 4-10 9-17 5-6 9-14 12-23 7v7c-7 3-13 7-20 10-6 3-12 4-19 6 1 4 1 6-5 6-4 0-7 4-10 6 1 1 1 3 3 5-1 1-3 3-5 7 0-3-1-5-1-6-4 0-8-1-11-1-2 4-5 8-8 13-3 6-9 3-13 5-6 1-16 13-14 19-4 0-8-1-13-1-1 0-2 1-3 2-1 3-3 7-5 7-5 1-9-1-14-2-1 0-3-2-4-1-7 2-14 5-21 7-1 1-1 3-2 4 2 1 3 1 6 2-15 7-29 14-43 22-2 0-3 2-5 3-4 4-7 2-9-2-1-3-5-5-7-7-1 1-1 2-2 3 1 3 3 6 5 9-9 6-18 11-30 10-3-13 11-16 14-27-4 2-7 4-9 5-1-5-1-11-2-16h-2c-2 8-3 17-5 25 0 2-2 5-3 7-1 3-3 6-5 9s-6 5-8 9c-7 15-24 19-37 27-4 2-11 0-17-1-2 0-4-1-6 0-12 2-15 0-12-13-8 8-9 13-1 21-27 10-53 6-78 2 0-1 0-2-1-3 4-2 7-6 11-7 2 0 6 4 8 5 0-3 1-7 2-11 7-3 14-6 21-8l1 1c1-2 2-4 3-8 2 3 3 5 5 8 2-8 8-13 14-18 2-1 3-3 4-3 7-1 11-6 15-11 3-4 5-11 13-9 0 0 2-4 3-7 2 3 3 6 5 9 5-8 5-11 0-14 4-3 7-6 10-10s4-7 10-5c2 0 4-2 4-2 4 1 7 2 9 3 1-4 2-8 2-12-1 0-2-1-3-1 14-12 28-25 42-37v1c6-3 11-6 17-9 1 3 2 6 2 8h2v-14c0-4-2-8 5-8 4 0 8-2 11-4 4-5 9-4 11-1 6-3 11-5 16-7 2-2 6-3 7-5 2-4 3-9 4-13-3 1-5 3-7 4l-1-1c2-3 5-5 7-7 3-3 5-6 7-9 0 0 0-1 1-1l18-9c2-1 4 0 6 0 0 1 1 2 1 2 1-1 2-3 3-5-2-1-3-1-4-1s-1-1-2-2c1 0 2 1 2 0 11-8 22-10 25-5 1 0 1 0 3 2v-8c-2-6 1-7 5-9s8-3 12-6c5-3 10-7 15-11 2 4 5 6 8-2 1 2 1 3 1 6 2-2 3-4 4-4 7 0 9-2 5-9-3-4 3-8 10-8 3 7 6 13 9 19 5-3 9-5 14-8 0 0 0-1-1-1l-12 3c5-8 10-15 15-22 4 2 7 3 13 6v-12c-5 2-9 4-13 6-2-1-4-1-7-2 2-1 6-3 8-5 4-3 6-7 9-11 0 2 0 4-1 7 5-4 13-2 13-12-5 2-8 4-12 5 3-6 16-11 23-9 3-6 6-11 15-7 4 2 9 3 11 8 1 3 5 4 7 6 2-2 3-4 5-6-3-2-5-4-8-6h-4c-1-4-2-7-2-10 2-1 4-2 7-3 0 1 0 2-1 3 1 0 1 1 2 1 1-3 1-6 2-10 2 3 3 5 4 7 4-1 8-3 14-6 1-3 8-5 13-2 2 1 5-1 8-2v3c-2 1-5 2-8 4-2 1-4 3-7 5 0 0 1 1 1 2 9-9 19-4 29-1-1-5-3-8-5-14-1 4-2 6-3 7-2-1-4-2-5-3zm-129 91c-2-2-3-4-4-6-2 2-2 4-3 5l-3-6c-2 3-3 4-5 8-1-3-1-5-1-6h-2v5c-3 2-5 4-7 6l1 1c8-2 16-5 24-8 0 3 0 5 1 10 3 0 8 1 12 2 6 0 9 3 7 8s-5 10-9 14-3 6 2 8c4-17 13-27 32-19 7 3 13 6 14 14 6-8-4-13-4-19-5 0-10 0-15-1 1-4 1-7 1-10-18 3-20 3-21-4-7-1-14-2-20-2zm-82 64s-1 1-2 1c2 2 4 3 6 5 1 2 4 4 5 6 2 3 4 7 6 11 3-4 4-7 7-11-8-1-10-5-10-11 0-5-2-9-3-12h-15v2c4 1 7 2 10 4 2 1 3 3 3 5 1 1-1 2-2 3-2-1-3-2-5-3zm147-115c2-3 6-5 7-8 0-2-3-7-4-7-4 0-7 2-10 3 3 4 4 7 7 12zm51 4c0-1-1-1-1-2-3 1-5 2-7 3-5 2-10 5-15 7-1 0 0 3 1 5 2-1 6-2 7-4 2-4 4-5 9-5 2 1 4-2 6-4zm14 8c-6 6 4 12 2 18 0 0 1 0 0 0 2-4 4-7 5-9-2-3-4-6-7-9zm6 54c-3-3-5-6-7-9-1 0-2 1-3 1l6 12c0 1 4-1 6-2 1 0 0-2 0-4l-2 2zm13-55c-2 0-3-1-5-1-1 6-3 12-4 19h3l6-18zm-44 25c-10 5-14 10-11 17 3-5 7-10 11-17zm-503 40l6 9c0 1 0 4 1 4 9 4 3 9 2 15-3 9-4 18-5 28-1 6-9 15-15 15-7 1-14 1-19 7-2 2-6 4-9 4-10 1-13 9-20 14-3 3-7 5-11 7-6 3-8-3-12-4-7-3-16-5-24-7-11-2-22-5-33-8-3-1-5-4-7-6-5 1-17-3-21-8 2 0 5-1 8-1v-2c-2-1-4-2-5-3 0 0 1-1 1-2 4 2 8 4 14 8-1-6-1-10-2-15-2 0-4 0-6 1-10-5-2-16-5-24 0 0 3-3 4-3 3-1 5 0 8 1 1 2 0 7 7 3 2-2 12 9 12 14 10-1 11-9 11-17 3 2 5 3 7 4 1-2 1-5 2-7 0-3-1-6 1-8 2-1 5 0 8 0 1-3 2-8 4-12s5-7 12-3c-6-14 4-20 12-27 2 2 3 4 3 4l6-15c0-1 1-1 1-1 1 5 1 9 2 15 3-6 5-10 7-15 3 5 5 8 7 14 1-4 2-7 3-9 3 3 6 5 10 8-1-8-1-14-2-20-7 6-13 3-17-5-2-5-6-10-9-15-1-2-1-4 0-7 1 2 3 4 5 7 0-13 6-20 17-23 2 2 4 5 7 10v-12c9 5 11-5 18-6-3-3-6-5-10-7 5-1 10-2 15-4 0 1 0 3 1 6 7-2 13-5 16-12 1-3 5-4 8-7 1-1 2-4 1-5-4-7 3-9 5-13 2 2 5 4 8 6h1l3-6c1 1 2 3 3 4 3 0 6-7 8 1 0 1 2 1 3 2 2 1 4 3 6 5 1 2 3 4 4 5 1 2 3 3 4 4-1 1-3 2-4 3 3 16-7 44-20 53-1-1-3-2-3-3-4 8-8 16-11 25-1 0 0 2-1 2-12 8 3 16 0 24h2c0-5 1-9 1-13h-2c3-5 6-10 9-14 0-1-1-2-1-3 4 0 9-1 15-1-4-3-6-5-8-7 1-1 1-1 1-2 3 1 5 2 8 2 1-1 4-3 6-6 3-5 5-10 7-15 1-2 2-5 4-6 5-3 5-7 1-11-1-1-1-2-1-3 2-1 4-3 7-5v-6c7-3 15 3 17 13 3-2 6-4 10-6 0 3 0 5 1 7 2-1 5-2 7-3 1 0 1 1 2 2l-6 9c-1 1-2 4-2 4 5 5 1 10-1 13-3 3-2 5-1 9 1 7 2 15-1 21-4 8-1 13 1 18 1 1 3 2 3 1 1-1 2-3 3-5 6 4 12 9 20 14 2-5 4-11 7-17-1-1-1-1-2-1-2 1-4 2-7 3h-1l7-14c-7 1-13 2-18 2v3c-7-3-7-8-7-14s-1-12-1-17c0-2 1-3 1-4 2-4 3-9 5-13 4-5 9-10 14-14 1-1 4 0 7 1 0 0 0 1 1 2 1-2 2-4 3-5 5 2 9 4 15 6-1-5 0-10-2-11-3-3-8-3-12-4-1-6-3-13-4-21-6 5-12 9-17 14-4-4-8-9-12-13-5-6-10-12-16-18-7-7-6-11 3-16 2-1 5-1 3-5l2-1c2-2 4-4 5-7 0-1-3-4-5-4-8-3-17-4-25-7s-16 0-24 0c-2 1-3 0-6 0 4-6 8-7 15-9 8-2 17 7 24-2 6-6 15-6 24-4 7 1 12-5 18-7 2 0 4-1 6-2 5-1 11-2 17-2h22c11-5 22-10 34-15 3 4 3 3 7 1 1-1 4 1 5 2 2 3 3 7 5 8 7 3 15 5 22 6 10 1 20 0 29 1 4 0 8 2 13 4 0-12 4-23-5-32 5 3 10 6 16 9v5c2 0 4-1 5-1 4-1 9 0 12-2 4-2 7-5 9-6 3 2 5 4 8 6 1-2 3-4 5-7-14-6-13-16-3-28-1 0-3-1-4-2-2 5-4 9-6 14l-3-3v-13c6-1 12-2 20-3-3 7 1 16-10 19l8 4c0 3 0 6 1 9h1c0-1 1-3 1-5 1-6 0-6 6-4 2 0 6-3 7-4 0-7 1-13 6-18 1 0 2-3 2-4-5-8 2-8 7-10-1 6-3 12-4 17h1c6-9 12-17 18-27-18-6-24 12-38 16-1-3-2-7-3-12-7-1-11-5-13-13 0 0 0-2-1-2-6-6-7-12 1-19-1 0-3 0-4-1-2 3-4 6-5 9-1 4-4 4-6 3-7-3-10-13-6-20 2-3 2-7 3-10l-12 6s-2-3-3-6c-1 3-2 5-3 8-1-1-2-2-3-2 0-4 0-7-1-11h-1c-1 2-1 5-2 7-1 1-1 1-2 1-2-4-3-9-5-13-2 1-5 1-8 2-1-4-1-7-2-10 10-2 19-3 28-5 2 1 4 3 8 6h-8v2c3 1 7 1 9 2 2-4 3-7 4-10 1 0 1 0 2 1 0 5 1 10 1 15h3c4-11 2-15-8-18-1 0-2-1-2-1-5-5-10-9-17-10-1 0-2-2-3-4 4 0 7-1 11-1v-7c5-1 9-3 15-5-5-6-10-11-5-18 3-5 7-9 11-11 7-2 14-1 21-1l3-9c5 0 2 11 9 4 1-2 1-5 1-8-1-1-3-2-5-4 1-1 2-1 2-2 13 6 23 14 25 30 10 1 20 2 30 2 0-1 0-2 1-3-6-5-11-9-16-14-10-11-20-21-30-32l-15-12c-4-3-6-7-8-12-1-6-6-12-10-17-2-2-5-3-7-5-1-2-1-5 1-8-4-3-7-7-12-13h7v-1c-2-1-5-2-7-3v-7c5-1 10-2 18-4-6-7-11-13-18-17-8-6-17-11-19-23 0-2-3-5-5-7-1-2-5-4-5-6 1-7-1-10-8-12-3 0-4-5-7-7-5-4-10-7-16-11-7-4-7-5 0-11l-9-12c8-9 9-9 19 0 1-2 1-3 1-3 7 5 14 10 21 16 4-9 0-13-8-15-5-2-10-5-14-8-3-3-5-7-8-11 7-2 13 4 19 7 6 5 11 10 17 15 0 0-1 1-1 2 2-2 5-4 6-5 1 3 2 5 3 5 5 1 10 2 17 3-5 5-8 8-11 2s-7-3-12-1c2 1 3 3 4 4s1 3 2 4c0 1-1 1-1 1-3-2-6-4-8-7l-2 2c2 2 3 6 6 7 2 2 5 1 9 1l2 4c0 2-1 3-2 5-1-1-1-2-3-3-3-1-7-1-11-2-1 7 6 9 10 12 1 1 6-2 9-3 3 8 8 17 12 26 2 3 5 5 8 7 0 1 2-2 3-2 5 1 9 2 15 4-4-5-7-9-10-14s-14-8-3-16c-4-2-7-4-10-6 1-1 3-5 5-10 1 4 1 6 2 8 6 0 11 2 17 4 7 2 9 5 13 8 3 2 7 2 10 5 8 5 8 5 7 10 6 6 13 8 21 11 7 3 14 5 21 6 13 2 24 9 34 18 2 2 3 4 6 5 11 7 22 13 33 20-5 7-4 13 1 17 14 10 14 10 22 0 5 12 19 15 29 23-3 0-5 0-8-1 1 3 2 4 2 6 1 3 3 6 2 8-2 9-2 9 7 7-1-5-2-10-3-16 1 0 2-1 3-2 5 5 9 9 14 13 0 1 2 2 2 2 9-4 13 6 22 5-2 3-4 5-6 7 5 4 10 9 14 13-9 13-21 13-35 5 0 6 8 13 0 16-8 4-12-3-16-10 0 1-1 1-2 1 1 5 2 9 3 12-15 9-26-2-39-5-5-1-10-3-15-4-12-3-19-12-27-21-2-3-1-8-1-11-1-3-2-6-4-8-2 7-4 14-6 23-1-4-2-7-3-10h-1v11c-2-2-4-2-7-4 1 4 2 7 2 9 9-4 11-2 13 8 10-6 16 2 22 9 3 4 5 10 13 7 4-1 9 5 15 9 0-1 1-2 2-5 9 10 17 21 26 31h-7v3c2 1 4 1 6 3 1 0 2 2 3 3-7 5 2 13-5 19-8 7-11 16-5 26 9 3 16 10 19 18s4 16 5 25c7 4 2-7 7-8v11c2 1 5 1 8 1 1 3 1 7 3 12 2-4 4-7 5-9l15-3v-2c-3-2-7-4-10-7-2 3-5 5-9 9v-9c0-5 0-9-7-8-2 0-6-3-6-5-1-13-8-23-17-32-2-2-4-5-7-8 8-5 15-9 23-14 0 1-1 2 0 3 8 5 4 13 5 20 1 5 7 10 12 14 2 3 9 3 1 9-4 2 0 7 5 8s8 3 7 9c0 1 3 5 4 4 2 0 4-2 7-4 3 6 10 11 8 20 0 4 5 8 7 12 2 2 5 3 8 5 7-2 8-3 8-14-11-1-14-8-17-19-3-16-12-30-26-39-6-4-8-8-5-15 3-10 2-20-4-29-1-2-1-4-3-5-9-5-18-11-27-17 1 0 1-1 1-2 4-1 9-1 13-2-1-3-1-5-2-7 1-1 1-1 2-1 1 1 2 3 3 5 2-2 4-3 6-5-1-1-2-2-4-5 1-1 3-2 5-3 2 4 4 9 7 14 8 1 9-18 21-10 3-5 4-13 12-6 1-2 2-3 3-4 3 5 7 10 11 14h1c0-2 0-5-1-7-3-5-8-9-4-17 1-1 0-5-1-9 21 18 35 39 48 60l3-3c1 0 1 1 1 1 2 4 4 8 7 11 9 8 9 9 7 16 0-2-1-4-1-6-4 2-4 6-1 10 5 6 11 11 12 20 0 4 3 5 8 4 4-2 8 0 8 5 1 3 3 9-5 9-1 0-1 1-1 2 4 3 7 6 11 9-2 8-6 9-20 8s-25-11-38-15c-4-1-8-3-13-5-7 5 2 10 2 15 0 2 1 4 2 6 0 3 1 5 2 8 1 4 1 8 1 12 0 1 1 2 1 3 4 0 7 1 10 1 0 0 1-2 1-4 2 7 14 8 11 17-2 4-3 8-5 12h-2c-1-2-1-3-2-5-8 9-16 17-28 12-2 2-4 4-6 5-10 5-19 10-28 15-3 1-6 3-10 6 0-2-1-4-2-7-3 2-10 2-7 10 0 1 0 2-1 3-3 2-5 5-8 7-3-6-5 0-8 1-6 2-2 8-6 10-1-2-2-3-4-6 0 4-1 6-1 11-2-4-4-6-5-9h-2c1 3 2 6 2 9-2 0-4-1-5-1-1 5-3 9-9 5-2 8-4 10-10 8-3 3-5 7-8 10 0 0-1-1-2-1l6-15c-1 1-2 1-3 1l-1-1 15-9c-1-3-2-5-4-9-9 5-18 11-27 17-2 1-5 1-8 2 0-1-1-3-1-4 5-3 11-5 14-10 6-6 10-14 15-22 0 0-1-2-2-3-6-8-3-15 1-21-4 1-8 2-12 2-5 0-10 0-14-2s-5-8-9-13c2-1 5-3 7-2 9 4 11-4 16-9h-10c-3 0-5-1-8-2 1-1 1-2 1-4-9 4-17 8-24 11-2 11-4 21-6 32 5-5 9-8 13-12 1 3 2 5 3 8l3-6c4 6 8 11 11 16h12c-2 5-3 10-6 15-6 12-17 18-27 25-3 2-7 5-8 1h-12c-16-1-28-9-41-19-1 8 0 13 9 14 2 0 4 3 5 5 0 3-1 6-5 4-1 2-2 3-3 5 1 0 1 1 2 1 1-1 3-2 5-3 1 1 1 3 2 4 4-1 9-2 13-3 0 3-1 5-1 8 1 0 1 0 2 1 1-3 3-6 4-9 4 0 7 1 11 2-3 5-5 10-8 15 5 3 6 14 0 19-9 6-20 12-30 17-3 2-5 3-7 7-3 5-9 8-14 12-11 8-22 17-37 21v-3c1-1 1-2 2-3-1 0-2-1-2-1-1 1-2 2-2 3 1 10-9 10-14 14-6 5-12 7-20 4-12 16-29 22-47 28-14 4-28 8-43 11-3 1-8 0-12-1v-3h3c5 1 12 5 11-6 0-1 1-2 2-3 11-5 18-18 32-20 5 0 9-3 14-4-2-12 11-8 16-15-1-4-2-8 6-8-2-2-3-3-3-4-13 12-27 21-45 23-4 1-8 2-11 4-9 6-16 3-19-9-3 4-4 7-6 10-8-2-15-6-20-17-5 6-9 12-14 18 6 0 11 0 16 1s9 3 12 4c2 6 4 9 6 15-4 4-9 9-15 14-1 0-3-1-6-3 3 7 6 13 2 20-6 11-15 17-25 22-4 3-9 6-15 9 6 3 9 6 13 8 0 0 1-2 3-7 2 7 4 12 5 17-1 0-1 1-2 1-1-2-2-4-2-5-4 7-7 13-12 19-4 6-9 14-19 10 0 2-1 4-1 7-3-1-5-3-7-4 1 7 2 14-6 16-6 2-14 4-17 0-5-1-9-2-11-3-4-2-8-4-12-7 4-5 8-8 11-12v-3c-3 0-6 1-9 0-3 0-5-1-6-3-4-6-8-10-15-13-6-3-11-10-18-16-2 4-3 6-3 9-8 0-18-7-26-19 4 0 7 0 10-1 2 0 3-3 3-4-4-4-9-8-13-13-3-4-4-9-7-15-2 3-5 6-8 8 0-3 1-7 1-11-2-1-5-3-6-4-3 2-6 3-9 5 3 3 5 6 7 9 0 1-1 1-1 1-1-1-3-2-4-2-1 2-2 5-1 5 6 6 3 16 9 22h-3c-1 1-1 3-1 4 1 1 1 1 2 1 3-4 6-8 8-13 1-1-4-4-5-5 2-4 2-8 3-12zm399-495c-1-6-10-12-19-10 7 4 13 7 19 10 0 7 0 14 9 16-4-5 0-13-9-16zm226 116c2-11-7-17-7-27-1 0-2 1-4 1 3 9 6 19 9 29 1-2 2-3 2-3 1 3 2 7 3 11-1 0-3 0-4 1 4 6 8 12 12 19 1-6 2-12 3-17 7-2 9-6 8-17-2 0-3-1-5-1-1 4-2 7-3 11-3-2-6-3-10-5-1 0-2-1-4-2zm-650 337c-1-2-1-5-3-6-7-4-11-10-11-19-4 4-7 7-12 11 0 11 0 11 15 13 0 2 1 5 2 7s2 4 3 8c1-5 2-7 2-10 4 7 11 7 20 8-3-4-4-7-7-8-3-2-6-3-9-4zm21-18c-3 7 0 8 6 6v11h3v-8c2 1 3 3 4 4 3-5-2-10-12-14-1-4-2-9-3-13-1-1-2-2-4-3-1 2-2 4-2 5-1-1-2-5-2-7-4 1-7 2-11 4 5 3 9 5 13 8-2 4-4 6-5 9-4-3-6-6-9-9-5 3-5 4 0 7 2 2 5 3 7 5 1 1 3 6 2 6-5 5-1 6 2 9 1-4 1-8 1-11h3c1 5 3 9 5 15 4-8 9-15-5-18 3-3 5-4 7-6zm414-350c3-9-4-12-9-17 1 3 2 7 4 10 1 2 3 4 5 7-3 4-5 5-11 3 3 9 15 4 17 12 4-2 7-3 10-4 13-1 18 4 17 16-1 4 0 7 4 9 8 4 7 12-1 16-1 0-1 1-1 2 3 2 6 4 8 5 2-4 4-8 6-14 3 3 7 6 11 9-1-15-15-16-22-22 0-4-1-6-1-8l3-9c0-2 2-3 2-4s-2-3-4-3c-12-3-25-6-38-8zm-429 423c5-4 4-9 2-14-1-2-3-4-5-6l-1 1c-1-2-3-5-4-10-4 12-11 4-17 6 2 3 5 6 8 6 4 1 7 1 5 7-3-2-5-3-8-5l-1 1 3 9c-10-5-10-5-13 5 5 1 9 2 12 3 6 13-6 16-9 24l8-4c-1 6-2 10-4 14 1 1 1 1 2 1 3-5 6-9 8-12 4 0 8 2 10 1 3-2 5-5 6-8 1-6 2-11 3-17h-4c0-1 0-1-1-2zm438-538c-4-10-11-17-20-19-6-2-13 3-20 5v3c2 1 5 3 7 3 1 0 2-3 3-5 11 2 16 15 30 13zm-91-38c-3 7-3 6 2 11 2 3 5 7 6 10 2 10 10 15 17 21-1-6 1-12-6-16-5-3-11-7-10-15 1-6-3-10-9-11zm-64 443c3-1 5-3 8-4 1 3 2 5 3 7 4-7 17-2 14-14-3 0-6 1-9 1-4 0-8-1-12-2-1-3-3-5-5-8 0 0-1 1-2 1 4 4 5 7-3 8 2 4 4 7 6 11zm-113 34c1 4 1 5 2 6 2 4 19 7 25 5 5-1 10-2 16-3-1-2-1-6-2-6-2-1-6-1-8 0-5 4-9 4-15 2-5-2-11-3-18-4zm283-188c2-4 4-9 7-11 2-2 7-1 11-2v2c4-4 8-9 12-14-5-3-9-5-13 2-1 4-7 7-11 8-8 2-11 7-6 15zm-91-218c-1 4-4 10-2 12 3 5 9 7 15 12 2-13-1-20-13-24zm-118 398c-1 7 0 8 7 8 9 1 17 0 23-9 1-1 2-2 3-4-2 0-4 0-6 1-5 2-11 5-16 6-3 1-7-1-11-2zm265-245c1-10-8-8-14-9 3 9 7 18 10 28 4-3 7-5 11-8-4-2-7-3-10-4-2-2-4-4-5-6-1 0 1-3 1-3 2 1 4 2 7 2zm-94 84c-1 0-2 1-3 2 2 2 3 5 5 8 1 2 3 5 5 8 4-2 8-5 13-7v-3c-7-3-14-6-20-8zm-76 112s0-1 1-1c-1-1-2-2-2-3l-6-6c-2 3-7 6-7 8 0 6-4 7-8 10-2 1-4 2-5 3 9-2 18-3 20-15 3 2 5 3 7 4zm-137 10h-2c0 4 0 11 1 11 10 1 3 7 3 11 4 1 7 2 11 3 1-3 2-5 4-7-4-1-7-2-10-3v-3c-3-5-5-8-7-12zm471-194c-4 15 13 5 15 14 2-3 2-5 3-6 4 2 7 3 11 5 0-1 0-2 1-2-6-3-11-6-16-9 0 1 0 1-1 2 1 0 2 1 3 1-8 5-9-6-16-5zm-291-50c7 5 12 10 18 15 1 1 3-1 5-2-3-4-5-9-9-11-3-2-7-1-14-2zm-322 345c3 2 6 2 6 3 6-4 10-7 14-9-11-7-11-7-20 6zm129-142c-3-7-5-12-7-20-4 4-7 6-7 8-1 8 6 9 14 12zm-252 259c4 7 5 9 11 9 1 0 1 1 2 1 3 1 5 1 8 1-3-7-12-12-21-11zm274-172c1-6 2-11 2-17-3-1-5-2-8-3-1 6-2 12-2 16 3 1 5 2 8 4zm380-181c4 6 7 11 11 16 0-1 1-3 2-4s3 0 5 0c-7-12-8-13-18-12zm-267 110h3v-31c-3 4-6 7-9 10 1 0 2 0 3 1 1 7 2 13 3 20zm318-195v-3l-12-12c-1 1-2 1-3 2 1 4 0 10 2 12 3 2 9 1 13 1zm-436 205c-1-2-2-3-3-4-1-2-2-3-4-4v5c0 3 1 6 1 9 11-3 15-6 14-15-3 3-5 6-8 9zm142-24c3-4 4-11 7-13 8-5 5-10 4-16-2 4-3 9-6 11-6 5-5 12-5 18zm66 10c-10-6-15-3-18 8 10 7 9-8 18-8zm126-71l3 3c3-3 7-9 10-8 4 0 6-1 5-3s-6-5-7-5c-4 4-8 9-11 13zm-312 142c-3-2-7-4-11-6-2 5-2 5 3 8 1 0 1 3 2 4 0 0 0 1-1 1-2 0-4-1-7-2 1 4 2 7 3 9l4 4c-6-14 0-7 2-8 2-4 3-7 5-10zm165-465c1 0 2-1 3-2-1-2 0-6-1-8-3-2-8-3-12-5 0 2-1 4-1 5 4 3 8 7 11 10zm-89 374c0-2-1-5-1-7h-2c1 6 1 11 2 17 4-1 7-2 10-3 0-6 0-6-9-7zm-165-1c6-2 11-4 16-6 0-1-1-2-1-2-6 1-13 2-21 3 2 1 3 1 3 1 1 2 2 3 3 4zm152-430c1-1 2-1 2-2-1-3-3-6-5-8-2-1-5 1-8 2 1 1 2 4 4 5s5 2 7 3zm319 294c3-2 6-4 9-7-5-2-9-4-13-5h-2c2 4 4 7 6 12zm-60 120c-11 0-5 9-7 14h6c0-5 1-9 1-14zm-155 62c-5 5-9 9-13 14 13-4 16-7 13-14zm2-167c-2-4-4-7-7-12-2 6-4 10-6 16 5-2 8-3 13-4zm-208 240v-1h-15c2 2 4 7 5 7 3-1 7-4 10-6zm30-100c9-5 10-11 7-21-2 8-5 14-7 21zm-156 184c4-4 6-5 7-7-1-2-1-5-2-7-1-1-2-3-3-4-1 0-1 0-2 1v17zm55-177c6-4 11-6 15-8 0-1-1-2-1-2-2 0-5 1-7 2-2-2-3-3-4-5-1 1-2 1-2 1-1 3-1 7-1 12zm-179 202c-6-5-9-1-10 3 0 2 2 4 3 6 2-3 5-6 7-9zm584-420c-5-5-9-8-13-12 1 5 1 9 2 14 3-1 6-1 11-2zm-140-167c10 7 10 7 13 5-3-3-6-6-9-10-1 2-2 4-4 5zm162 332c-10-1-12 2-8 11 3-4 5-7 8-11zm-584 275c-1-1-2-1-3-2-3 4-11 5-7 16 4-6 7-10 10-14zm204-60c2 2 3 5 4 5 2-1 3-2 6-4-10-6-10-6-19 2 4-1 7-2 9-3zm20-105c-6 1-11 1-17 2 11 7 14 6 17-2zm-211 83c-7 7-7 9 0 17v-17zm260-182c-1 5-1 9-2 15 9-12 9-12 2-15zm86-11c7 0 12 1 18 1-3-7-6-7-18-1zm-290 119h3c0-3 1-6 1-10-1-1-5-1-8-3 2 6 3 9 4 13zm-29 81c1 0 2 0 3 1 0-4 1-8 2-14-9 7-9 7-5 13zm332-322h-2c-1 5-2 11-2 18 3-2 5-2 5-2-1-6-1-11-1-16zm-281 302c-2 6-3 10-6 17 10-8 10-8 6-17zm-22-347c2 0 4 0 6-1-1 1-1 2-2 2l14 14c-3 1-5 2-8 2 2 9-6 11-11 13-4 2-10 2-14 4-5 2-9 1-12-4 0-1-2-1-4-2 0 1 0 2-1 4-1 6-1 14-10 16-4 1-6 6-9 8-8 6-16 11-24 15-1 1-5-2-7-4 0 0 0-1 1-2-6 1-11 1-17 1v3c2 1 5 1 7 2 2 0 4 1 6 2-2 2-3 4-4 5-4 3-8 5-12 7-2 2-5 2-7 3-1-12-2-23-2-32-6-7-11-12-16-19-1 0 2-2 2-3-3-4-7-9-10-13 2-2 4-2 6-3-1-1-2-3-3-4-5-2-5-5-1-9 2-3 2-7 4-12 5 7 9 14 18 9-5-1-6-9-13-7 0 1-3-5-4-8-4-7-7-15-12-22-4-8-3-8 4-13 6-5 10-4 16 0 3 2 7-1 11 0 6 1 11 3 16 5 4 1 8 1 11 1 1 0 3-3 3-4-2-3-4-6-7-9-1-1-3-3-5-4 3-2 6-4 9-5 0-1-1-2-1-3h-13c3 4 4 6 5 8-1 1-2 2-4 3-1-2-2-4-3-5-10 2-19 2-26-6-21 0-37-9-46-29 5-6-3-10-4-16-1-3-2-7-4-9-4-4-8-10-13-10-11-1-19-6-24-12-12 2-21 3-30 5-7 2-13 5-20 8 1 2 2 3 3 4 2 5 9 8 13 4 6-5 25-2 29 4 3-1 5-2 7-1s3 4 4 6c3 4 11-5 12 6 1-1 1-2 3-3 4 7 7 15 12 21 4 6 2 8-1 12-4 4-3 7 2 9 6 2 12 5 17 8s9 15 6 19l6-3c-2 14 0 20 9 33-1 0-3 1-6 2 4 1 6 2 11 3-11 4-21 8-30 11 6 6 12 13 18 20 3 3 4 8 6 12 1 1 3 2 4 3 3 3 6 7 10 10 0 1 1 2 2 3 6 5 11 10 5 18 0 1 1 2 1 3 1 1 2 3 1 4-5 7-9 13-15 19-4 4-9 7-14 10 0 1-2-1-4-2-1 3-1 4-2 7-9-4-13 17-23 6-5 0-8 1-11 1-9 0-18 0-26-2-15-2-30-5-45-8-4-1-7-1-12-2 2-1 4-1 5-1v-1c-2-1-4-1-7-1 1-3 1-6 2-10-3 2-6 3-6 4-2 9-8 7-14 7-10 0-20 1-31 2h-4c-8-2-16-5-24-8 0-2 1-5 2-10-3 2-5 3-7 5-6 6-12 6-19 2-4-2-8-1-12-1-17-3-34-5-51-9-8-1-16-6-25-3-1 1-3 0-4 1-9 9-19 5-28 3-16-2-31-7-47-9-12-2-23-6-34-11-4-2-10-1-16-2-7-1-15-2-22-3-15-1-28-5-40-13s-22-18-33-27c-1 0-2-2-1-3 2-5 0-7-3-11-7-10-11-20-17-30 0-2 1-4 1-6-2 1-4 1-5 1v-11h1c1 2 1 4 2 7 4-3 9-5 10-9 3-5 6-6 11-5 8 2 15 3 23 5v-1c-4-10-6-21-17-28-2-1-4-4-5-6s-2-5-4-7c-2 6-12 4-8 13-1 0-3 1-4 1v1h7c0 10-4 12-21 11 2-2 2-3 2-2-1-3-2-6-5-8-4-3-9-8-13-8-6 0-5-3-4-6 0-1 0-3 1-4-4-1-8-3-11-4-5 0-10 0-15 1-8 1-16 1-24 2-1 0-1-2-3-3 0 3 0 6-1 10-6-9-11-5-17 0-3-13-3-13 7-19 1 0 2-1 2-2 1-4 2-8 7-3 1 1 6 0 6-1 3-5 9-7 11-10 4-5 8-1 11-2 15-6 26-15 26-31 1-10 6-17 10-24 2-3 2-8 5-11 4-5 9-9 14-11 9-4 17-6 21-15 2-3 4-5 7-7 0-1 2 0 4 1 0-2 0-5 1-5 4-4 9-6 15-10-1 7-2 12-3 16 5 0 11-2 12 6 4-3 4 3 7 3 6 0 11 5 11 12-1 8 0 15 3 23 5 9 0 16-4 24 2 2 4 3 6 4 3-3 7-5 9-8 2-1 2-4 2-6 0-6 1-12 1-18 1-9 2-17 3-25 0-2-3-4-4-5-1 1-3 3-4 3-3 0-6-1-10-1-1-1-2-4-3-4-10-3-12-10-13-18 0-1 2-3 3-4 4-1 8 0 11-1 6-2 12-15 9-21-2-2-7-3-11-4 2-7 6-15 9-23-1-1-1-2-2-3 4 1 7 3 12 4 1-5 2-12 4-17-9 2-17 4-25 6-4 1-8 4-12 6-1 1-3 1-4 1 0 2 1 4 1 6 2 10-6 19-17 21-9 1-18 2-26 3-2 1-4 0-6 0-1-7-2-13-4-20-10 5-2 11 0 14 2 5 2 7-3 9-4 2-9 5-13 8 0-1-1-1-2-2 1-5 3-10 3-15 1-14 2-27 0-40-2-8 1-10 4-13 6-3 4-8 3-12-1-6-3-11 7-12 4-1 7-7 11-11 3-3 7-5 9-8 5-6 5-6-4-9v11c-5 2-11 4-12-3-1-5 2-10 4-15 3-5 8-11 1-14-6 2-11 4-15 6-2 1-3 2-4 4-4 4-7 8-11 12-5 6-9 12-14 18 4 3 7 15 5 19-2 5-1 6 7 7-9 9-7 19-5 30 1 5-1 10-6 13-3 1-5 5-8 8 6 1 10 2 14 3 2 12-5 21-10 31-6 10-15 18-20 28-9 14-17 30-16 47 0 18-8 30-20 41-7 5-14 10-19 16-7 8-11 18-16 27-11-3-10-2-8-14 1-6-2-12-3-19-8 4-17 5-19 15 0 2-5 3-7 5-5-18-11-35-15-52-2-9-1-19-2-28-1-12-1-24-2-35 0-6 1-12 1-18-1-3-5-6-5-9-2-11-3-22-5-33-3-12 0-22 3-33 3-14 6-29 9-43 1-4 0-9 0-13-15 4-18 9-19 23 0 3-4 5-5 8-2 9-7 15-12 21-6 6-9 15-14 23 0 0 2 0 2 1-2 12-4 24-7 36-1 6-4 14-8 17-6 3 1 4 0 6-1 1 2 5 2 5-9 4-17 6-25 10-7 3-13 3-21 0-5-2-12-1-18 0-6 2-16-3-21-10 1 7 2 15 3 23 2-2 4-3 7-5 3 5 5 10 7 15 1 1 1 2 2 3 7 4 14 8 22 13-3 0-5-1-8-1 5 7 9 14 14 22 0 2-9 6 1 10-4 4 7 13-6 13 3 5 4 13 12 11 1 0 3 5 2 7-3 8-2 15 3 21 3 4 5 10 6 14 6 0 6 5 9 9h-8c4 12 7 22 11 33 3 10 8 20 19 22 5 6 9 12 12 18l12-9c1 3 1 7 3 10 1 2-1 8 5 5 0 2 1 3 1 4 1 2 1 4 2 6-7-2-13-9-22-5-1 0-2-1-3-2l-3-3c-1 2-3 5-3 6 2 5 4 10 7 14 1 1 5-1 8-1 1-1 1-2 1-4 6 7 12 13 17 19s15 9 23 6c2 5 5 11 9 19 1-4 2-6 3-11 1 5 1 8 2 11s2 6 3 10c0 0-2 0-3 1v17c1-3 2-4 2-5 7 8 6 9-3 12-1 0-3 2-3 4s1 6 2 6c6 3 8 8 9 14 1 5 4 11 7 16 1 1 1 3 1 4 1 8 1 15 2 22 0 3 0 5 1 7s3 3 4 4c1-1 2-3 3-4 3-5 6-11 10-17 1 2 4 5 4 8s-1 6-2 11c14-11 23-12 28-6h12c3-2 6-5 9-8 3-1 6-3 7-5 0-3-1-6-2-11 15 3 22-8 32-18-3-2-6-4-8-5 4-3 10-5 15-8h2c8 2 15 1 22-2 12-5 25-7 39-6 2 0 4-2 6-2 9-3 19-1 28-7 3-2 8 0 12 0 16-1 31-2 47-4 15-2 31-5 47-6 10 0 21 4 32 5 19 3 39 5 59 7 7 1 13 1 20 2 2 0 3 2 4 3 4 1 8 4 12 3 12 0 23-2 35-3 0 1 0 2 1 6 0-4 1-6 1-9 28 0 56-4 83 5-1 4-2 7-3 11 0 0 1 0 2 1 2-3 4-6 6-10 6 2 13 4 21 6 0 3 3 8-7 5 1 5 2 8 3 11h4c1-4 2-8 3-13 12 5 23 10 35 15 10 5 23 7 33 18 1 2 4 6 5 10 2 12 5 24 5 36-1 12-4 24-6 36-2 8-2 15-4 23 0 3-1 6-3 8-6 8-11 17-21 21-7 3-12 9-18 12-16-2-32-5-49-8 0-3-1-6-2-9-6 8-8 7-19 11-12 4-20-1-30-5-2-1-4-1-5-1-5 0-9 0-14-1-3 0-6-1-10-2-1 3-1 6-2 11-10-5-19-8-27-13s-24-2-30 8c7-2 14-4 21-5-4 8-24 13-41 10h10c4-6-4-15 8-18-18 6-32-5-47-10v-2c-3 3-6 5-10 7 16 5 30 10 46 15-8 2-11 11-20 10-11-1-22 1-31-7-2-2-6-2-11-3 5-3 9-5 14-9h-12l6-18c-1-1-2-1-3-1-3 3-6 7-10 13-14 3-18-3-24-14-2 3-5 7-8 7s-7-2-9-5c-4-2-7-6-9-10-1-2 2-6 3-9h2c-1-2-3-5-4-7-5 10-14 13-24 8-2-2-5 0-8 0-1-3 0-7-1-10-3-6-6-10-9-16-2 1-4 1-8 3 3 2 6 4 8 6 3 6 6 12 10 17 4 2 9 5 13 6 12 1 16 11 23 18-7 8-16 10-25 11-10 1-20 4-29 7-15 5-28 3-40-6-5-3-9-5-15-4-2 0-6-3-9-5 0 0-1 1-2 3-9-8-22-11-29-23-1-2-7-3-11-3-5 0-10 1-16 0-3 0-5-2-8-3v-2l12 3 1-1c-5-3-10-6-15-10-20 21-20 21-25 13-5 6-4 11 2 16-1-3-2-5-3-8 1 0 2-1 2-1 5 7 9 14 13 21 1 1 0 5-1 5-2 2-5 1-7 1 0-2 1-4 0-5 0-2-3-6-3-6l-24 9c-7 0-11 5-11 13 1 17 14 24 26 31 2 1 7 0 9-2 9-7 12 2 16 6 2 2 2 4 3 6 3 0 6 1 10 2-5 4-9 6-12 8v6h11c7-1 13 1 20 6 5 4 13 5 19 7s12 1 17-2c1-1 3-1 4-1 7 8 6-2 9-4 3 2 6 5 10 8-4 2-6 4-9 6 2 2 4 4 6 5 2-3 5-8 5-7 6 2 11 4 15 8 3 2 5 6 9 10 2-5 3-9 4-13 7 5 8 12 4 20 4 2 8 3 12 4 2 4 5 10 7 16 4 8 2 10-6 14-3 1-5 5-8 7s-6 2-9 3c1 3 9 6 1 10-2 0 0 8 1 11 2 1 4 1 6 1 0-2-1-3-2-5 6 0 12-2 17 0 7 2 14 5 21 9 3 1 6 3 8-1 13-3 22 2 28 15 0-1 1-2 2-3-6-10-11-21-17-34-2 6-3 10-4 13-9-3-5 7-9 9-6-3-13-6-15-12-1-7 1-13 2-18 3-3 6-4 6-6 1-5-2-8-11-14 1 9 1 16 2 23h-1c-3-10-5-20-8-31 6-3 11 3 16 6-7-10-6-10 14-17-7-8-15-17-22-26-6-8-1-19 8-21 3 0 5-4 7-7 2-1 3-3 4-5 0-2-2-4-2-7 0-1 4-3 6-3 2 1 4 3 7 5-1 0 1-1 3-1-1-2-2-4-4-7 18 4 35 6 51 10 10 2 11 3 15 14 9-1 15 3 16 13 0 2 0 5-1 6-9 11-9 14 3 22 1 1 1 2 2 3 6-8 11 4 15 0 2 6 4 11 7 16l9 18c2 3 4 6 6 10 1-5 2-9 4-14 3 19 7 37 10 56 1 0 1-1 2-1 0-1 1-3 1-5 2 2 4 4 5 6 1-3 2-5 2-6 5 2 10 3 15 5-1-7-1-10-2-15 5 4 9 6 11 10 14 22 33 40 44 64 4 7 10 13 15 19 11 17 26 30 33 50 0 3 4 5 6 8 4 4 4 18 0 24-1 2-2 4-4 7-1-1-5-1-5-3-3-6-7-2-11-2-2 0-3 2-5 3-10 5-17 1-17-10v-9c-6-2-4-8-6-10-2 8-4 16-5 25-1 3 2 6 4 10 1 3 3 5 5 9 0 0 1 0 2-1 0 6 9 10 15 8 1-1 3 0 4 0l12 3s1-2 3-5c0 2 0 4 1 7 2-4 2-6 2-6 5 0 8 1 11 0 10-3 9-3 23 1 2 1 5 0 8 1 2 0 4 2 6 3 2 0 5 0 7-1 2-2 3-4 5-6 4 3 8 5 12 8 1-2 1-4 1-7 7 5 12 8 21 3 8-4 19-5 29-5 1 0 3 2 4 2 4 3 6 7 12 4 3-1 9 1 13 4 5 2 8 0 9-9 2 2 3 4 4 5 2-1 4-2 8-3 0 0 1-2 3-5-1-2-3-5-6-8 4 0 7-1 9-1 3 5 5 9 8 15 2-5 3-10 5-14 0 0 1 0 2 1-2-4-4-7-5-10l1-1c6 5 12 10 20 15-1-7 0-13 9-12 0-3 0-6 1-8 11-3 21-5 31 1 3 5 6 11 9 16 3-1 5-2 7-3 3 0 8 2 11 1 2-1 5-5 4-7-1-3-4-4-6-7 2-1 3-10 10-2 2-2 3-5 5-7 4 2 8 5 11 7 1 0 1-1 1-1 0-1-1-2-2-4s-3-4-4-6h7c7 1 13 2 14 11 2-2 2-3 4-6v11c1 0 1 0 2-1 3 4 6 8 9 13 4-1 9-5 12 3 1 0 2-1 3-1-1-3-1-5-2-7-1-3-3-5-4-8-10 2-12 1-14-7 5-2 10-6 15-6 5 1 8 6 13 9 2-1 5-4 8-7 2 3 5 6 8 11 1-3 1-5 2-7 0 0 1-1 2-1 2 3 3 7 5 11 1-3 2-6 3-12 7 4 14 8 20 11l1 1c1 3 1 8 3 9 4 1 9 0 14-1 2 0 3-4 4-7 2 3 5 6 6 9s0 7 0 10c3 0 6 1 8 1 3 1 7 4 8-3h6c6 2 11 5 17 7 1 1 6 0 6 0 0 6 11 7 8 15 0 1 3 4 4 4 3-1 6-2 8-4 2-1 4-4 7-5 5-2 10-3 13-8 2-2 7-2 9-4 6-4 14-9 17-15 4-6 7-5 11-5 2 0 5 0 6-1 6-4 14-7 16-16 0-1 1-2 1-2 11 5 13-8 21-10 8-1 16-4 24-5 10-2 20-3 30-3 5-1 9 1 16 3-2-4-4-7-5-10 4-8 5-16 2-26-2-4 2-8 7-10 8-2 15-6 23-9 1 0 3-2 5-2 12 1 22-3 32-9 7-6 17-8 25-12 10-4 21-7 30-13 7-5 12-12 18-19 2-3-7-10-11-9-3 0-6 1-9 2 0-15-7-27-15-39 4 3 7 7 11 9 7 3 2 8 2 12 5-1 10 0 14-2 3-1 5-5 7-7 0-1-1-1-1-2-2 0-3 1-4 1-2-6-4-12-6-16 6 4 13 7 18 12 2 2 0 8 1 13-2-1-3-1-4-1-2 6-3 12-5 19 4 1 8 1 13 3s8 0 11-3c13-11 25-21 37-32 4-4 6-9 8-14 1-5 1-10 9-10 5 0 13-17 12-25 5 3 9 5 13 7 9-1 20-2 30-3 2 0 5 3 7 5 0 1-1 4-2 7 1 1 2 3 4 5 2-4 4-7 7-12 1 10 9 8 14 11 4 2 9 4 13 7 1 0 0 3 0 5 1-1 2-1 4-2 6 8 6 9-4 13-3 1-5 6-7 9 10 2 16 9 12 16-4 5 2 7-1 11-2 3-5 6-5 10-1 6-2 11-6 15-1 2-3 3-3 3-3 10-6 18-9 28h-26c7 9 6 10-2 13-3 1-5 2-7 3-2-4-4-1-9 0-6 2-9 7-14 11-1 1-1 3-1 4 1 0 2 1 5 1-3 4-6 7-9 11-3-5-4-8-5-10h-2c0 2-1 4 0 5 4 5 4 10 6 15 2 7 1 8-8 10 2-1 3-2 4-3 1 0 1-1 2-2-7-1-10 3-10 11s-1 16-2 25c0 0-1 0-2 1 0-5 1-10-7-13 0 5-2 9-1 12 1 5 5 3 8 0-1 3-1 5-1 6-6 1-13 0-15 3-6 6 2 12 5 17-10 3-11 5-9 12 0 2 0 4-1 5-2 1-4 1-6 3-2 1-2 2-5 3 1-9 1-18 3-27 2-7 4-14 0-22-2-6-1-14 7-18 1 0 1-4 1-5-2-5-3-10 2-14 1 0 0-2 0-3 0-4-1-8-1-13-7 0-11 4-14 17-2-1-4-3-6-4v8c1 3 3 6 4 10-4 1-6 12-3 17 2 3 3 7 4 11 1 6 1 12 1 19-1 4-3 9-4 14v13c1 1 2 1 3 1-12 8-24 16-37 24l2 2c-2 2-5 4-7 7-2-6 1-11 4-17 3-5 9-10 6-17-4-10-1-19 4-28v-4c-3 1-5 2-10 4 6-10 4-17-2-24-2 16-4 30-6 45-1-1-2-1-2-1-1 2-2 5-3 7-1 1-2 1-2 1h-1c0-7-1-14-1-21h-3c1 13 1 27 2 43 4-6 7-11 9-14-1-3-3-6-5-9h9c4 4 5 15-1 20-3 4-3 6-2 10 1 1 1 3 1 5-4 1-7 3-7 8-1 2-5 5-7 6-15 10-29 19-44 28-8 5-17 10-26 14-12 7-23 12-35 18-14 8-28 17-43 24-6 4-12 6-18 8-1 0-2-1-2-2 4-3 8-8 13-10 11-4 9-13 10-21s0-15 0-23c0-5 2-11 1-16-1-8-3-16-5-24-1 0-3 1-4 2-3-3-7-6-10-9-1 0-2-1-2-1-4-2-20 7-20 11-1 6-1 12-8 15-1 0-2 3-2 5 0 7 1 14 1 22h-2c0 7-1 12 0 18 0 3 1 5 2 8 0 10 1 20 2 30 0 6-9 15-15 16-1-5-2-11-2-17h-3l-3 12c-8 4-1-5-2-6-5 2-9 5-13 7-3 1-3 7 0 10 2 0 3 0 4 2h-3c-1 0-2-1-2-1-4 5-8 10-12 12-18 7-36 13-54 19-15 6-30 12-46 17-17 6-34 10-51 17-27 10-54 14-82 19l-45 9c-13 2-27 4-40 6-14 2-28 4-42 7-16 2-31 5-46 7-3 1-7 1-10 2-10 2-20 2-30 2-17-1-33 2-49 0-17-2-34 0-51-4-22-6-44-13-66-20-19-7-38-15-54-29-11-10-25-11-40-8-4 0-9-1-13-3-20-7-39-14-59-21-9-4-18-9-28-13-7-3-15-6-23-9-16-6-31-12-42-25-1-2-3-3-4-4-10-7-19-14-28-22-69 34-118 72-161 118-110 118-171 74-66-3 87-64 162-78 134-212-9-12-19-24-28-35-13-18-27-35-35-56-4-12-6-25-10-37-5-16-11-31-15-48-5-20-6-41-12-62-5-18-5-39-17-55-4-5-5-13-6-19-5-15-9-31-14-46-2-8-3-15-5-22-4-12-10-24-13-36-4-15-7-31-11-46 0-1 1-2 0-2-5-15-10-31-16-46-5-13-11-25-16-38-6-14-13-29-20-43-1-4-3-7-4-11-3-6-5-13-8-18-7-9-10-20-10-31 0-5-1-10-3-14-6-12-11-24-19-35-10-14-16-29-23-43-9-17-17-34-30-48-12-13-22-27-32-40l-45-57c-9-12-19-25-29-36-12-12-25-21-37-32-3-3-6-8-9-11-14-14-27-29-41-42-17-17-35-33-53-48-11-9-25-15-37-22-16-10-34-19-49-30-1 0-2-1-2-2-16-8-33-18-51-28-15-8-31-17-48-26-32-18-120-114-43-102 30 4 92 39 158 81 2-3 5-6 6-9 1-6 3-6 8-4s11 3 18 4c-1 3 8 9-5 14 18 4 28 18 44 16 4 0 7-1 11-1 1 0 2-1 2-2 6-9 18-14 19-27 0-2 3-3 5-5-2-1-3-2-4-2 2-3 6-6 6-9 1-7 4-8 9-7 13 4 18 13 14 27-1 3-1 7-1 10 0 2 0 4-1 4-6 7-1 13 2 19 2 3 3 7 3 11 0 5-5 12 6 11 3 8 11 8 17 11 10 4 18 6 28 0 2-1 5-2 6-2 5 4 9 9 15 11 5 2 7 5 9 9 5 9 8 19 13 28 5 8 5 15 1 23 1 0 1 1 2 1 4-2 9-4 16-8 2 6 5 13 7 20 1 8 2 16 13 19 4 1 12 4 13 11 0 1 3 2 3 2 2-2 3-4 5-7 2 2 5 3 8 5 2-7-2-15-10-17-13-3-18-14-21-25-2-6-2-14-1-22 1-6 5-12 8-18 1-2 5-3 7-5-4-10-2-13 8-17 3-1 4-3 6-5-5-2-11-3-14-6-3-4-5-9-6-14-1-3 0-7 2-10 3-5 8-10 12-16 3-5 6-11 9-16 1-1 3-3 5-3 9-2 16-6 20-13 7 3 13 6 18 7 6-9 11-15 16-22 1-3 3-5 4-8s0-8 3-10c4-4 10-3 15-1h8v-3c-1-1-2-1-3-2 1-1 2-3 3-4-2 0-3-1-4-1-2-1-6-2-6-2 1-6 1-12 3-17s1-7-4-9c-3-2-4-6-5-10-2 0-5-1-8-2 2-2 3-6 5-6 6-2 10-9 19-7 5 1 9-14 5-19-1 0-2-2-2-3 1 0 2-1 2-1l3 3v7h9c3 6 8 11 3 19 8-2 8-8 4-14 4-5 8-11 12-16 5 2 5 5 2 9-3 5-2 9 3 11-2 1-3 2-6 5 2 2 5 5 9 10l4-12c-3-1-5-2-7-3 4-5 6-4 9 0 1 2 3 2 5 3-3 7-7 13-11 21-4-3-7-6-10-9l-6-6-3 6c-3 5-6 9-11 17-1-3-2-5-2-5 2-5 3-9 5-13-1 0-2-1-3-2-3 2-7 4-8 7-3 6-8 13 3 17 0-2 1-3 2-7 1 7 1 12 3 17 1 1 6 1 10 2-1-5-2-8-3-11 1 0 1 0 2-1 1 3 1 5 2 7 6-1 11-2 16-2 1 2 1 4 1 6h1c0-2 0-4 1-7 2 2 5 3 7 5s4 5 6 6c3 0 7 6 9-2 1-1 6-3 7-3 3 3 5 6 7 10 6-4 17-2 16 3-1 6 2 5 6 5-1 2-2 3-3 4 5 1 6 0 6-8 0-4 0-8-1-13 4 0 6 0 9 1-2 7-3 14-5 22 5 2 12 3 11 12-2 0-4 1-5 1 0 7-1 13-2 19 0 5-2 9-2 14-2 6-4 12-4 17 1 10-3 19-8 27v1c4 7 5 14-3 19h4c-1 5-3 10-5 14 1 1 2 1 3 2l6-12c1-2 1-4 2-5 3-6 5-11 8-16 1-5 3-9 4-13 1 3 2 6 3 12 2-5 4-9 6-13-9-1-9-6-7-12 4-8 7-16 11-26 0 5 1 7 1 10 2-1 4-1 4-1 2 10-10 17-2 27 3-1 5-1 7-2h5v7c-1 3-2 5-1 8 0 5 1 10 2 17-9-6-9 2-12 5 5 1 9 1 14 1 0 3-1 6-1 9-4 2-7 4-12 6 2 2 4 4 5 6 0 0-1-1-2-1-1 5-4 10-4 14s4 7 7 10c5-9 3-21 17-24-4-3-6-4-6-5 2-11 3-22 5-33 1-2 1-5 2-8 2-6-2-8-8-8 3-4 5-8 8-12-2-1-5-2-8-4 3-3 5-5 7-8 5 2 10 4 16 6 1 1 4 0 5-1 5-4 7 0 10 3 7-8 8-15 4-22h-25c-1-1-2-4-3-7 4-2 7-9 2-12-6-3-6-8-7-13-4-9-4-18-2-28 1-2 0-4 0-5 2 2 4 3 6 4v24c12-3 24-8 35 0-1-3-1-7-1-11-7-4-15-8-24-13 9-8-1-14 1-21-8 5-4-2-8-4 3 1 5 1 7 1 0-2-1-5-1-6 1-3 2-5 4-7l4 2 1 1c7-5 9-2 11 5 1 3 6 6 8 10 5 6 10 2 13-3-3-7-6-14-9-22 13 0 12-11 17-16l4 2v-47h1c1 3 1 6 1 11 2-2 3-4 5-6 1 4 2 7 2 11 8-5 8-5-5-21 16 0 14-13 19-22-3-2-7-4-11-6s-14 1-15 6c-2 6-4 12-6 17-1 3-3 6-4 8-6-1-7-5-3-10 5-8 10-16 16-24 2-3 6-6 9-7 18-9 33-23 55-21 12 0 24-4 35-1 14 3 27-3 40 3 0 1-1 2-3 4 5-1 8-1 11-2v2c-1 0-2 1-4 2v2c9-4 15 1 22 5 2 1 5 1 7 2-1 2-3 4-4 6-2 5-3 10-4 15-17 3-31-1-44-11-4-4-9-7-13-10-4-2-8-5-12-1-1 1-3 0-3 0-1-1 0-2 0-3 0-3 1-6 2-9-14-4-25 3-25 15 8-2 14 0 19 8 2 2 8 2 12 3-1 10 5 16 18 16-3 4-5 8-8 11-7 7-7 10 3 14l2 2c-3 1-6 2-8 3v7c11-1 21-2 29-3 3-6 6-10 8-14-3-1-6-1-10-2l1-1c-3 0-6 1-8 2-1-1-1-2-1-2 3-3 6-4 10-7v1c-1-1-2-1-3-1l1-1c4 1 7 2 10 3 1 1 3 0 3-1 4-5 7-8 12 0 1 1 4 1 6 2 1-3 2-6 3-10 3 2 5 4 8 6-3-13 10-4 13-11h-9c1-3 2-5 3-7 7-1 12 3 16 8 1-1 2-2 2-3-3-3-6-7-9-10l-1 1c0-5 1-10 1-14 8 2 17 5 27 8-3 1-5 2-7 3 0-1-1-2-2-2 0 3-1 6-1 10 10-1 20-1 30-2 0-1 1-3 2-7 2 12 2 12-6 17 0 4 0 7-1 12 3 0 7 1 12 3 1 1 2 5 4 8 4-3 8-6 11-8 0 1 0 2-1 3 3-2 6-3 10-5 1 2 2 6 3 9 4-1 7-3 11-4v-9c2 0 3 1 4 1v-2c5 2 10 5 15 7-3 2-6 4-8 6 4 5 8 11 11 17 6 0 12-1 15-9 0 2 0 5 1 9 2-2 3-4 5-6 0 2 1 4 1 6l3-6c1 6 16-5 10 10h16c-6 5-10 10-15 14 0 1 1 2 1 3 14-7 24 1 35 4-2 5-3 9-4 13 4 1 9 0 12 3 7 6 15 7 24 5 1 3 3 5 4 8 0 0-1 0-2 1l1 1c5 1 9 11 6 17 0 2 0 4-1 7 3 0 6 0 10 1-2-4-3-6-5-7 1 0 2 1 2 1 2-2 3-4 5-7 0 1 1 2 2 4 0-1 1-2 1-1 3 2 6 4 8 5 9 5 18 11 27 16-1 4-2 7-1 11 0 2 4 4 6 4 8 0 15-1 23 3 3 2 8 4 12 3 9-1 6 3 4 8-1 1 0 3 0 4 6 0 12-1 17-2 5 2 10 3 16 5v3c2-1 3-2 5-2 3 3 6 7 10 11-1 0-2 1-3 1 7 1 15 4 19 8 2 2 4 5 6 7-2 1-4 1-8 2 9 7 19 5 27 5 4 0 7-5 10-7-1 6 3 10 11 13 5 1 9 6 12 11s9 6 14 8c6 3 10 9 17 14v11c-5-1-9-3-13-4 4 9 6 17 10 27-4-3-7-5-10-8-2-3-15-8-18-6-2 2-3 4-5 7 5 2 9 3 12 5 3 1 5 4 6 6-8-4-11 4-15 5 1 3 4 5 5 8 0 3-3 6-4 10-1 0-4 0-6 1 0 4-1 8-1 12 1 1 3 4 4 4 2 0 6-3 6-3-5-11 5-16 9-24 2-4 5-8 7-11l15 6c0 2-1 5-2 8h2c1-3 3-5 5-10 3 4 4 6 6 9 1 3 3 3 5 5 5 2 8 5 12 7-1 2-3 4-5 7 4 2 6 5 11 8 0-4 0-7-1-9 0-2-2-3-3-4 1-1 3-2 4-3 3 6 7 12 11 17 2-4 3-8 5-13 6 1 12 14 9 21-3 8-2 13 6 15 13 4 23 13 34 22 2 1 2 5 3 9h8c-1 3-2 7-2 8 12 10 23 19 35 28-1 1-1 3-1 5 1 0 4 0 4 1 3 5 5 10 7 15 3 8 9 7 13 6 2 4 3 7 4 10 5 8 13 13 20 19 2 2 2 5 3 9 0 0-1 1-3 2 2 6 5 10 12 13 3 1 6 6 7 10 1 3-1 9-3 11-9 9-10 11-5 24 1 1 0 2 0 5-3-4-5-8-8-11 2 7 2 15 12 15-2 1-4 2-5 3 0 1 1 3 2 3 7 7 9 16 4 26 0 1 0 1-1 2 2 1 3 1 7 2-7 7-12 14-18 21 1 0 2 1 2 1-5 5-9 10-14 15-2 3-4 5-8 2-6-4-11-1-14 6-1 3-2 5-3 8-3-2-5-3-6-3-9 3-17 6-25 9-3 1-6 2-8 1-4 0-9 2-11-5-1-4-5-7-11-5-4 2-7 3-5 8h-6c-4 2-8 4-12 5 1 1 1 3 2 5 2-1 4-3 6-5 1 3 2 5 4 8 2-5 4-9 6-13zm-536-107v1c-1 14-3 29-5 43-1 12-9 19-20 22-7 3-14 8-19 13-2 1 0 6 0 9 3 0 6 0 8-1 5-2 9-5 14-8 3-2 7-4 10-6 4-2 9-2 13-3 1 0 1-2 1-2 5-4 8-9 13-10 4 0 9 4 11 8 4 6 6 14 9 20 4 0 9-1 13 0s7 4 11 6c11 4 16 10 16 20 6 1 12 2 18 2 15 0 31 12 33 26 2 7 3 14 5 22 3-1 5-3 6-3-1-6-2-9-2-13v-14c-1-5-3-10-5-14-2-3-4-6-6-6-10-4-21-7-31-10-6-2-8-5-7-11-12-2-23-7-32-16-3-3-10-5-5-12 1 0-1-3-3-5-4-3-10-6-13-10-5-5-9-12-13-18-3-5 4-5 6-7v-2c0-9 1-19 1-28-1-10-4-20-6-30-7-1-9 4-12 9-2 3-3 6-5 8-5 7-10 12-15 18 0 1 0 2 1 3 3 0 6-1 10-1zm-56 673c8 0 13-1 18 0s11-2 15 3c3 4 6 8 10 11 1 1 4 0 6 0 2 9 8 14 16 17 5 2 10 4 14 8 6 5 11 12 16 18 2 1 5 1 6 1 3 8 6 16 9 25 6-2 11-4 17-7-4-8-12-13-10-22 0-1-2-2-2-2-5-4-5-9-1-16 2 3 4 5 6 9 1-4 2-7 2-10-3-1-6-1-6-1-3-4-5-7-7-9 2-3 3-5 5-8-1 1-2 1-3 1-2-2-3-4-6-7 5-1 7-1 9-2-1-2-1-5-1-5-15-6-28-11-43-16 0 3-1 8-1 12-1 1-2 1-3 2-1-3-3-6-5-8-5-4-10-10-16-11-9-2-15-5-18-14-2 1-5 1-9 2l-3-21c-2 3-4 11-9 6-7-6-12-14-20-22-2 6-4 10-7 14h3c3 3 6 5 9 8 0-2 0-3 1-5 0-1 1-1 2-1 2 15 11 27 11 43-1 1-2 3-5 7zm394-345c-6-3-11-6-16-6-17-2-22-5-31-17-8-11-15-22-16-35-16-1-31-1-43-9-3-6-6-15-9-15-7 0-15 3-22 7-5 2-17 2-21-3 0-1-3-3-3-3-7 3-13 5-20 0 0 0-2 0-3 1-4 2-8 3-12 5v18c5-11 11-15 25-14 11 1 18 6 23 13 2-2 4-7 6-6 7 0 11-6 15-9 5-3 7-2 10 3 2 6 5 13 10 18 4 5 14 6 16 15 2 0 5 0 6-1 2-4 5-3 8-3 7-1 6 5 8 8 4 8 8 17 13 26-1 0-2 1-2 1 5 2 10 4 15 5 1 7 1 14 2 20 5-4 5-4 3-14 3-1 6-3 9-2 4 1 10 2 12 6 3 5 2 11 2 17 0 2-1 4-2 6-3 4-8 8-10 12-4 7-9 7-15 5h-8v3c7 2 14 5 22 7 0 2 1 4 1 7h3c0-3 2-6 2-9-1-14-1-15 9-16 2-7-1-14 6-19 1-1 1-4 1-5-4-8-2-14 6-17zm-583 161c-2-5-2-9-3-11-5-7-6-14-4-21 3-9-8-10-10-16 0-1-7-1-9 1-4 5-7 10-11 16-3 4-4 9-8 13-3 4-5 8-6 13-2 4-2 9-2 14 0 2-2 6 4 7 5 0 10 4 13 8 4 3 15 9 20 7 6-1 10-3 7-10 4 2 7 4 10 7 2-3 3-4 4-6 8-8 15-17 14-29 0-8-1-9-10-8 2 4 4 8 7 12-1 0-2 1-2 1-4-1-7-2-11-4 0 1-2 3-3 6zm277 289c6-15 4-28-7-40-13-13-27-26-40-39-3-2-5-5-8-6-11-4-21-8-32-11-3 8 1 16 9 19 3 0 5 2 7 5 3 4 5 8 8 12v6c0 3 0 5-1 8 6-3 7-2 10 2 8 11 17 21 27 29 8 7 18 10 27 15zm335-932c2-3 3-7 5-7 5-2 11-3 16-2 2 1 4 5 7 8 0 0 0 1 1 1h18c4 0 9-2 13 0 8 4 16 9 24 14 7 5 13 11 19 16 6-6 0-8-3-10-3-3-9-6-4-13-3 0-4 0-5-1 5-2 10-4 15-7v1c5 0 11 0 17-1-2-1-3-2-3-2 1-7-1-9-8-8-7 2-14 2-21 3-6 1-12 1-18 0-1 0-3-2-4-1-6 4-11-1-13-5-3-3-2-9-2-14 0-1 3-2 5-4 5-3 10-6 14-9-5-9-8 1-12 1-13-8-24 0-37 4 3 9-3 12-11 14-8 1-16 2-25 3-1 3-3 6-6 10 2 2 3 6 6 8 4 1 8 1 12 1zm-422-51c-7-9-15-14-26-17 2 5-1 12 8 11 1 0 2 1 3 2l9 6c1 6 2 11 2 16 4 0 8 1 11 1v8c7 3 8 3 8-5 0-4-2-9-3-13 14-3 10-17 14-27l12 3c7 1 12-3 11-10-1-3-2-5-2-8-3-11-5-22-7-34 9 3 11 1 13-8-3 1-6 1-8 1-1-2-1-4-1-6-1-3-3-5-4-7-2 2-5 3-6 5-5 5-8 11-7 18 0 2-1 4-3 6-2 4-5 7-8 10l-7 7c-1 0-2-1-2-1-2 14-5 28-7 42zm-456-81c11 0 22-4 29-12 5-6 9-5 12-1s4 11 2 13c-5 6-1 11 0 16 1 1 2 3 2 4-4 8 1 13 6 19 4 4 4 2 7-1 4-5 9-8 14-13 1-1 3-3 3-5 3-10 4-20 12-29 4-4 0-9-4-12-2-1-5-2-5-4-2-13-6-26 1-38 3-6 8-12 11-18-5-3-10-1-12 6-2 6-6 11-8 17-3 5-8 11-7 15 3 7 9 13 7 21 0 1 2 2 3 3 6 4 7 8 4 14s-5 12-8 17c-4 5-9 8-16 7 2-19 1-37-7-54-1-3-5-6-7-6-8 4-13 10-15 20 0 5-5 11-9 12-4 2-10-1-17-3-3 3-7 7-12 10 0 1-2 2-3 2-8-2-9 4-10 10 5-1 9-1 13-2s6 0 4 5c-2 4-5 10 4 13 2-9 4-17 6-26zm547-182h2c2 2 5 5 5 7-3 8-6 16-10 23-2 5-6 9-8 13s-3 8-4 12c-1 1-2 1-2 2 2 1 6 4 8 3 4-2 10 0 10-8 1-3 5-8 8-8 7-1 10 0 12-9 2-12 6-26 19-33 5-2 10-4 16-5 6 0 13 2 19 2 1 0 4-2 4-4 1-2-1-5-2-6-5 0-10 0-15 1-3 1-7 4-7 3-4-4-7-9-11-14-2 0-7 8-10-3l-30 6c-4 1-8 2-7 8 0 2-2 4-2 6 2 0 4 1 6 1 0 1-1 2-1 3zm251 138c-5-5-7-9-11-11-5-2-11-5-14-3-15 6-30 4-44 3-5-1-15 2-14-10 0-1-3-3-4-2-7 2-11-2-14-7 1 3 2 7 3 11-12 5-24 10-36 16 4 5 4 5 14 6l1 2c5 0 10-1 15-1 2 0 4-1 6-1 6 0 12 0 19-1 1 5 1 12 9 11 0-3 1-6 1-10l12 3c4 0 8 3 11 2 8-1 13 2 18 6 2 1 6 1 9 1 2 7 8 11 17 10-3-5-4-10-7-14-2-3-5-6-9-10 7-1 11-1 18-1zm-133 173c-1 1-2 3-3 3-3 1-7 1-9 0-7-6-14-13-20-20-2-1-5-1-8-3 0 11-2 21 9 28-4 1-7 1-10 3-4 1-8 4-12 6-1 1 0 4 0 6 2 0 4 0 6-1 1 0 1-1 0-1 5 2 9 3 13 4 1 0 1 2 2 2 4 4 9 7 13 10 3 1 7 0 10 0v-3c9 6 17 13 25 20 0-9 1-18-5-25-3-4-5-12-3-15 2-4 4-11 11-11v-2c-7 0-13-1-19-1zm345 77l-2 2c6 7 11 14 17 21 2 1 7 2 8 1 8-7 10 2 15 4-5 2-7 10-3 12 6 4 13 6 19 9-17 5 3 16-4 23h6c12-2 22-2 29 9 2 3 7 4 10 5 2 1 5 2 6 3 2 7 6 2 9 1 1 0 3-1 4-1 7 0 13 1 20 1 0-1 1-2 1-3-2-1-4-3-7-4-5-1-11 0-16-1-5 0-9-1-15-2 0-3-1-8-2-14l-2 2c-7-2-14-4-20-6-4-2-8-4-6-10 1-4 3-9 5-13-1 0-2 1-3 1-4-4-8-9-11-13v6c-7-5-14-8-19-16-3-7-8-6-12 1-3-1-8-2-10-4-3-7-6-14-15-14h-2zm-392-111c-10-20-4-38 16-53 0-3-1-7-2-10-3-8-12-15-4-24 1 0 0-3-1-4-2 1-3 2-5 2-7 4-11 13-9 18 5 15 1 23-14 31-2 1-4 5-5 8 0 4 3 7 2 11-1 8-4 16-6 25-2 5 3 8 9 5 6-2 12-5 19-9zm-63 494c-4-7-15-13-6-27-7 3-13 5-19 8 0-3-1-6-1-9-7-1-14-1-19-2-2-5-3-9-5-13-1 0-2 0-3 1-1 4-3 8-5 12-2 0-7 0-7-1-1-7-2-15-2-22-9-3-15-1-13 6 1 6 0 10-4 14-3 3-3 6 3 6s11 3 14 8c5 6 10 10 14 16 4-3 5-6 0-10-5-5-4-9 3-12 6-2 11 2 14 5 6 5 10 12 14 17 6-5 9 0 14 2-3 1-5 1-6 2v3c5 5 9 11 13 17h7c2-9-7-8-13-15 2-2 4-4 7-6zm944 519c-1 1-1 2-1 3-3 1-6 2-9 2-12-1-24 0-31 11-2 2-1 6-2 9 3 0 6 2 8 1 10-4 15-1 17 10 0 4 2 8 4 13 1 0 4 0 6-1 1-1 2-4 4-5 8-5 8-16 18-19 2-1 5-1 7-3 1-1 2-4 2-6s-2-4-3-6l-4 4c-5-4-11-9-16-13zm-743-777c-20-10-20-31-31-46 4-1 6-2 9-3-2-2-3-3-4-5-1-1-3-2-3-4-1-6 0-11-1-17-1-3-2-6-4-8-2-1-6 1-8 3-3 3-6 7-7 11-2 4-1 8-1 12 0 1 3 1 4 2 3 1 6 1 8 3 1 1-1 4-2 8-3-5-4-11-10-6-2 2-5 5-8 5-12 0-10 11-13 17v2h4c-1 2-2 3-3 4 0 1 0 1 1 2 4-1 9-1 12-4s3-8 6-15c0 3 0 4 1 5 1-3 4-8 5-8 8 1 3 9 5 15 1-3 2-5 3-7 1 2 1 2 1 3 4 5 8 11 13 17v3c2 4 3 10 6 11 4 2 10 0 17 0zm230-45c-8-3-15-5-22-7-4-1-7-1-10-3-10-7-20-8-31-8-9 1-17 1-26 2-4 0-8 0-11 2-1 0-1 6-1 7 10 3 19 6 28 8 1 1 1 0 2 0 5 1 10 1 15 1 1 0 4 1 4 0 4-5 9-2 11 0 4 3 10 4 9 10 0 1 4 2 7 2 1 1 2-1 4-1-1-2-2-4-3-4 2-2 5-4 7-4 4 1 9 3 13 4 2-3 3-6 4-9zm-434 531c0-1 0-2-1-2-2-1-5 0-8-1-11-3-22-4-34-2-5 1-9 0-11-5-1-2-3-2-5-3 4 15 16 23 25 35-1-4-1-7-1-10 5 1 10 3 15 4 10 1 26 16 26 25 0 1-1 2-2 2l-3 3c2 0 5 1 7-1 4-3 7-4 11 1 5 7 12 14 17 20 2-3 4-7 5-9 4 1 6 1 10 2-4-10-19 1-18-13-3 0-5 0-7-1-11-6-20-14-25-25-2-5-5-5-8-7-6-3-11-7-16-10l2-2c3 0 7 1 11 1 3 0 7-1 10-2zm123-692c1-4 1-10 4-12 5-4 4-7 3-11-2-7-2-14 4-19 4-3 10-4 16-5 8-2 10-6 7-15-3-7-2-10 6-11 0-3 0-5-1-6-3 0-6 1-9 2-2 0-4 1-6 2-8 3-9 10-11 16-3 6-8 10-11 8-8-6-8-6-11 2 3 1 7 2 11 4-9 9-13 19-12 30 1 17 0 14 10 15zm-256-151c-5-13 5-19 10-29-4 1-9 1-11 3-5 7-10 4-15 0-3 4-5 7-7 11 5 2 11 4 8 12-10-1-10 6-9 10-3 2-5 4-7 5 7 2 12 3 17 4 1 0 2 0 3-1 2 0 5-1 5 0 3 5 5 11 8 17 3-1 9-1 12-4 2-3 2-9 1-14-2-9-9-15-15-14zm615 385c4 4 8 9 13 14 3-8 5-17 8-24-9-3-17-5-24-9-4-1-8-5-11-8-2 0-6 0-8-1-8-4-16-9-24-14-6-3-12-7-19 0 4 1 6 2 9 4 0 1-1 3-1 5 5-3 7-1 9 3s3 11 5 11c14 4 27 6 41 9 2 1 4 3 6 5-2 2-3 3-4 5zm-554-539c5 1 11-5 16 0 1 1 5-3 7-5 1-2 1-4 1-5-2-1-4-1-6-1v-7c-12-5-18-4-23 3-5 0-11-3-14-1-11 5-23 9-33 16-3 2-8 0-11-1-2 0-3-3-5-6v21c5 0 10 2 14 0 6-3 13-7 17-12 5-8 9-8 17-4 1 1 4-1 7-2 0 1 1 4 1 4 4-3 9-5 15-9-1 4-2 6-3 9zm-101 104c-10 3-20 5-30 9-2 0-4 4-6 6-3 3 1 6 0 10s-2 9-3 15c7-4 11-6 16-9h2l6-6s-2-2-3-4c-2 2-3 3-5 4 2-10 5-11 22-11-2 11-3 21-4 33 8-6 15-13 13-22-1-9 6-21-8-25zm292-61c-3 4-5 7-7 10-2 2-2 6-4 7s-6-1-9-2c0 5 3 10 1 13s-8 5-14 8c7 3 13 5 18 7 0 0 0-1 1-1l-3-3c4-3 7-8 14-5 3 1 6 1 10 1 2 0 5-1 8-1v-2c6 0 10-1 14-1-1-4-1-6-2-8-6-1-14-1-18-5-5-4-6-11-9-18zm227 335c-1 1-2 3-2 4 1 3 2 7 4 9 3 1 9 2 11 0 5-5 12-3 17-3 7 0 8-3 6-7-5-7 0-12 4-17 7-8 6-12-4-16-1-1-3-1-4-1-1 1-1 3-1 4 1 3 2 7 1 8-4 2-8 5-12 5-9-1-11 1-9 10 0 2 1 5 2 8-5-2-9-3-13-4zm-201 139h2c-2-7-5-14-7-19-6-1-10-2-14-2-1 0-4 1-5 2 0 1 0 3 1 5 0 2 2 5 2 7-2 5-5 9-6 11 2 3 4 6 5 8 1 4 0 9 0 13 0 1-1 3-1 4-1 1-1 3-1 4 3 5 5 11 8 16 2 3 3 5 5 8 0-9-1-17-1-24 0-11 0-21 1-31 0-2 3-5 5-6 1 0 4 3 6 4zm-158 583c4 7 8 14 12 22 2-1 3-2 4-3-1-1-2-4-3-5-2-3-4-6-1-9 1-1 2-3 4-5-7-1-10-4-9-10 0-8-4-15-11-22 0 3-1 5-2 9-2-4-3-7-6-11 0 4-1 6-1 10l-16-8c-2 6-4 11-7 18 1 1 4 3 9 6-1-6-1-9-1-14 7 5 14 8 19 13 4 3 4 9 6 13 0-1 2-3 3-4zm547-735l-9-9c-4 3-8 6-13 8-9-3-19-6-28-9s-16-8-24-9c-8-2-17-5-25 2 2 1 3 1 4 1 7 3 15 5 23 7 5 2 11 3 17 5 7 3 15 6 22 9 4 2 8 3 11 4 3 0 6-2 10-2 6 1 10 0 12-7zm24 125c-8 5-13 2-18-4-1-2-4-5-6-5-6 0-12 1-17 2-1 0-2 1-2 2 1 4-1 10 2 11 5 4 11 6 17 6 3 1 7-4 12-7 1 0 3 1 3 2 2 6 3 11 4 18 4-3 5-4 6-5 2 2 3 4 4 5 1 0 1 0 1-1 0-2-1-4-2-6 4-2 7-2 9-4 1-1 0-4 0-7-2 1-3 2-5 3-3-3-5-7-8-10zm-542-404c-5 1-9 3-13 2-5-1-12 6-16-3 0-1-2-1-3-2-8-1-16-5-21 4h-2c3 5 7 9 12 4 4-4 6-2 9 1 3 2 7 4 9 7 7 6 8 13 3 20 3 2 6 3 10 6 4-13 8-25 12-39zm-220 9c-4-5-6-13-13-5-1 1-5-1-6-2-1-3-2-7-3-10-2-3-5-6-7-10-2 4-7 12-10 15-1 1-1 3 0 4 1 2 4 3 6 4 0 0 0-1 1-1-1-1-2-3-4-5 7 3 8 5 7 11-2 9-2 10 8 10h3c1 2 2 3 3 6 1-5 2-7 3-10l1 1c3-2 7-5 11-8zm530 514c-2-4-7-2-11-1-3 2-7 4-11 4-8 2-13 13-8 20 0 2 4 1 6 2 1 0 1-1 2-2v4c1 1 0 2 1 3 0 0 2 1 3 0 4-2 7-6 7-11v-9c11-4 21-7 31-10v-2c-6 1-12 1-20 2zm-586-482c-4-4-7-8-10-11-1-1-5-1-6 0-1 0-1 4-1 5 2 4 4 8 7 11 4 4 9 9 15 5 3-1 4-5 6-8 0 1 1 3 1 8 3-8 7-13 6-17 0-6-5-11-9-16h-2c-2 8-4 15-7 23zm-101 180c-2 6-5 12-6 18-2 10-7 19-3 29 1 2 4 2 6 3l9-18s-1-2-2-2c-6-3-5-8-2-13 1-3 4-6 5-9 1-1 2-4 1-5-3-5-8-10-12-14-5 8-1 11 4 11zm415 109c6-1 10-2 14-2 6 1 9-2 7-8s-4-11-6-17c-1-4 2-10-6-9-8 10-6 23-9 36zm-285-388c5 2 9 3 13 4-1 3-2 4-4 6 4 0 6-3 9-3s7 1 8 2c5 7 5 8 13 6-2-4-4-7-5-11-2 1-5 1-9 3 3-4 4-5 7-8-4-2-8-3-11-4 0 1-1 1-1 2 0-2-1-3-2-5-2 1-3 2-5 3-1-3-2-6-4-9-2-2-5-4-7-6-2 2-11 2-4 7 8 5 6 9 2 13zm69-32c7 3 10-3 11-8 2-6-1-11-8-12-2 0-3-1-4-2-3-3-6-7-10-8-10-5-7 8-12 11 0 1 0 1 1 1 0 0 1 0 2-1 2 0 3 0 4-1 0 6 1 6 8 5 2 2 3 3 4 5 2-2 4-3 8-5-2 6-3 10-4 15zm-103 77c-2 4-2 10-10 9-1 0-2 3-3 4 0 1 1 3 2 3 7 5 19 5 25-1 2-2 4-7 3-10-1-2-6-3-9-5h-8zm70 650c5 7 9 10 15 2 5-8 20-5 24 4 4 6 7 6 12 3-3-2-7-4-2-9l-1-5c-7-1-15-4-21-3-9 1-18 5-27 8zm382 448c-3 12-7 22-11 35 4-2 7-2 7-3 1-6 5-6 8-5 3-4 6-9 7-13 1-2-1-6-2-8-2-4-5-8-8-11-1-2-4-4-6-6 0 1-1 1-1 2 3 4 5 7 6 9zm-245-1028c-1 0-3-3-4-3-2 1-4 4-7 7 14 0 20 20 36 9l-9-12c-2-3-5-6-9-7-1 0-5 4-7 6zm940 1206c1-2 2-4 2-6 1-7 3-14 1-20-1-5-6-9-10-14-5 3-8 7-6 14 2-1 3-1 3-1 4 9 7 20 6 30 1-2 2-4 3-7 0 1 1 2 1 4zm-599-576c5-3 8-4 11-6s4-6 7-7c6-2 5-5 3-11-1 3-2 5-3 7-4-2-8-4-13-6 2-4 3-7 6-11-3-1-6-1-9-2-1 0-1 1-2 2 6 4-4 16 10 16v8h-16c0 5 1 10 1 15 4 0 4 0 5-5zm0-85c5-1 8-1 11-1s6-1 8-1c4 0 8-10 6-13l-12-12h-14v2l18 12c-5 3-9 5-14 8 2 1 3 1 4 2-1 0-3 1-7 3zm-406-105c8-9 11-9 18-1 2 2 4 5 6 6 2 2 6 4 7 3 1-2 2-5 4-9-16-5-31-10-46-15-1 3-3 6-2 6 4 4 9 7 13 10zm342 283c0-1 2-1 2-2s-1-3-2-4c-8-12-5-18 9-24h-23c0 5-2 12 1 17 2 5 8 8 13 13zm512 556c0 1 1 1 1 2-1 2-2 5-5 6-4 2-9 3-15 5 10 6 18 12 29 6 0-2 1-6 2-9-8 0-5-7-7-11-2 1-4 1-5 1zm-823-1471v3c6 0 13 2 19 1 4 0 9-3 13-5 1 0 3 1 3 1 2-3 4-5 5-8-1 0-2 0-3-1-2 0-5-1-7-2-4 2-9 5-14 7-5 1-11 3-16 4zm207 825c-6-8-12 0-17 0-14 3-8 17-13 25 2 1 4 2 7 3-3-19 14-20 23-28zm-362-579c-9-6-13 12-21 3l-6 12c9-1 16-2 23-2 5 0 6-3 5-6 0-3-1-5-1-7zm507 6c-5-3-8-7-11-7-7 0-12-1-12-10-6 7-6 7-1 11 1 1 1 2 1 3 3 4 5 9 7 14 5-4 9-7 16-11zm-124 408c-10 12-23 9-37 9 8 8 23-2 26 12 13-6 16-11 11-21zm0-572c6-1 10-1 14-1v-2h-9c9-11-8-3-5-8-3 1-6 2-9 4 3 6 5 13 7 19 1 2 3 4 4 6 1-2 3-3 3-4 1-2 0-5-1-7s-2-4-4-7zm561 1363c-2 0-4-1-6-1-1 1-3 2-4 1-9-4-9-4-16 2 6 4 17 2 18 14 5-5 10-9 15-13-2-2-4-5-6-8l-1 1v4zm-1050-611c-5-3-9-6-14-10 0 8 0 13 1 18 1 3 5 6 8 7 2 1 6-1 9-2v-4l-3-9c-1 0-2 1-1 0zm602-243c-5 4-9 6-9 8-1 8 0 16 0 24 0 1 1 1 1 2 3-2 7-4 7-6 2-5 2-10 2-15 0-4-1-8-1-13zm-248-191c-4 2-9 15-8 22 1 3 2 9 6 6 4-2 7-8 7-12 0-5-3-10-5-16zm-148-345c-1-1-3-2-4-3h-3c-12 2-13 7-6 17 3 5 6 4 9 2 5-2 2-4 0-6-1-1 0-4 1-5 0-2 1-3 3-5zm-92-54c1 7 1 14 1 20 4 1 7 2 11 3 10-2 2-10 1-12-3-5-5-14-13-11zm74 1071c0-4-3-6-8-7s-10 2-15-1c-1-1-6 0-6 1-1 2-1 5 0 8 1 1 3 2 5 2l24-3zm182-791c-3 1-6 2-9 2-4 1-9-2-10-1-5 7-8 0-14 0 5 4 9 8 14 12 1-1 3-2 5-4 8 5 14 1 14-9zm51-160c-8-4-16-7-23 2-1 2-6 2-9 3 2 5 2 5 7 2 3-2 4-3 7 0 6 4 16 0 18-7zm-158 244c-7-8-9-8-12-3-2 5-6 9-9 14 6 7 8 7 21-11zm269-40c1 2 1 6 3 7 3 0 6-1 9-2s5-2 7-3l6-3c1-1-1-5-2-5-2-1-5-1-8 0-4 1-9 3-15 6zm-350-230c-7-3-5-5-3-9 1-2 0-6-2-6-2-2-5-1-8-2 0 2 1 5 1 7-1 2-2 4-1 6 0 4 1 8 3 10 3 3 5-1 6-4l4-2zm47 814c1 1 3 2 5 4 6 7 10-1 14-3 0-1-1-5-1-5-8 1-10-5-13-13-1 7-3 11-5 17zm-128-395l11 11c1-1 1-1 2-1-1-4-1-8-3-10-3-4-7-7-11-9-2-2-11 5-10 8 0 1 3 3 5 3 2-1 4-2 6-2zm-86 328c-9 11-1 18 2 27 2-1 5-2 8-3-3-8-6-15-10-24zm11-540c-9-3-14-1-17 5-2 4-4 11 3 14 4-6 9-12 14-19zm795 991c0-3 0-5-1-8-2-5-12-9-17-7-1 0-2 3-3 4l1 1c3-1 5-2 7-3 0 5-1 9-1 12 5 0 10 1 14 1zm-403-1100c2 2 4 7 6 7 5-1 11-3 16-6 1-1 0-6-1-9-7 3-13 5-21 8zm708 1264c-1 0 1 0 1-1 2-5 4-10 6-16 0 0-1-3-2-3-4 1-9 0-11 2-2 3-2 8-1 12 0 2 3 3 7 6zm-278-1063c1-6 2-12 4-19-8 3-13 5-20 7 3 1 5 1 6 1-1 3-2 5-2 6 5 2 9 3 12 5zm-485-49v3c3 1 8 4 11 3 4-2 7-7 11-10l-5-5c-7 3-12 6-17 9zm187 488c-10 8-18 4-25 0-6-3-7-1-8 5 6 1 12 1 17 2 2 0 4 1 5 1 6 3 9 1 11-8zm-564-606c-4 1-8 0-9 2-2 4-2 9-3 13 13 3 10-6 12-15zm1142 1195c-7 0-13-1-17 0-2 1-3 7-4 11 5-1 8-2 11-2 3-3 5-5 10-9zm-831-592l2 2c4-10 20-8 22-22-3-1-5-2-8-3l2 2-18 21zm-417-559c-1 5-1 8 5 8 1 0 3 3 4 4 2 2 4 4 6 8 2-6 4-9 5-11-7-4-13-6-20-9zm841-58c-7-5-14-4-19 2-2 2-1 5-1 7l2 2c6-4 12-7 18-11zm-204 51c12 2 14 1 20-12-5 1-10 1-14 3-2 2-4 6-6 9zm1020 832c-1 0-2-1-3-1-8 10-15 20-23 30l1 1c3-2 6-3 8-6 5-6 9-11 13-17 2-2 3-5 4-7zm-1378-1106c-15-3-16-3-16 2-1 9 9 4 12 10 6-3-2-8 4-12zm633 629c2 7 3 14 12 12 1 0 2-7 1-9-2-5-7-7-13-3zm-129-235c1-1 2-1 3-2 0-4 0-8-2-11-1-3-5-3-8-4 0 2-2 5-1 7 2 3 5 7 8 10zm138 139c3-6 6-11 5-13-1-4-6-6-10-9l-3 3c3 5 5 11 8 19zm-135 177c4 0 7-1 12-2-7-6-15-5-18 0s3 10 11 13c-2-4-3-7-5-11zm-386-603c3 0 6 1 9 1 2-3 4-6 7-10-2-2-5-4-7-6-3 5-6 9-9 15zm-53 17v3c3-2 6-5 9-7 0-1-1-2-1-3-7 1-10-2-13-8-1-1-3-2-5-4l-2 2c2 3 3 6 5 9s5 5 7 8zm986 1258c1-1 2-1 3-2-7-5 4-16-9-21 0 4 1 7 1 12-2-2-3-4-4-5l-1 1c3 5 7 10 10 15zm-858-326c5-1 10-3 14-4 6 0 11 1 17 1l1-1c-1-2-3-5-5-5-9 1-18 3-27 4v5zm570-546c3 1 6 3 8 3s4-1 6-1c-1-2-1-5-2-6-4-2-9-4-14-6 1 4 2 7 2 10zm-32 60c-1 4 6 12 10 11 1-1 3-4 3-7 0-1-2-3-3-4h-10zm-492-340c5-5 0-8-3-9-6-2-10 2-11 7 5 1 9 2 14 2zm286 23c-4 4-15 1-14 10 4-3 21 8 14-10zm-162-130c-1-2 0-6-1-7-3-1-6-1-9 0-3 0-4 3-6 6l1 1h15zm231 526c0 1 0 1-1 2 6 5 12 10 18 14 9-7-6-6-4-12-4-1-8-3-13-4zm-485 491c4-2 8-4 11-5-3-4-6-9-9-13-1 0-1 1-2 1v17zm358-661c2-4 3-8 4-11 0-2-5-3-8-5-1 6-7 12 4 16zm-543-371v-3c-5 0-10-1-16-1 5 12 5 12 16 4zm-65 287c4-6 8-10 13-15-14-2-15 0-13 15zm550-90c-1-1-1-4-3-4-3-1-7-1-10 0-1 1-2 4-2 6 2 1 4 1 6 1s4-2 9-3zm69-109h-4v17c4-1 6-2 9-3-2-5-3-9-5-14zm-246 230c4-2 7-5 11-6 6-2 5-4 3-8-14 9-14 9-14 14zm51 19c7-2 13-3 18-4-7-5-16-6-19-1 1 2 1 4 1 5zm-67 39c4-2 8-4 13-5-1-2-1-3-2-5-5 0-10 1-17 1 3 4 5 6 6 9zm571 46c-4 8-13 9-13 18 10-4 15-10 13-18zm-403-363c5-1 10 5 13-2 1-2-3-6-6-9-3 4-5 7-7 11zm-398-50c3 3 3 11 13 7-3-2-5-2-8-3 5-4 6-6 0-10-2 2-3 4-5 6zm-50-25c8 5 10 5 10 4-1-4-3-8-4-14-3 5-4 7-6 10zm729 422c-3 5-5 9-7 13-1 1 0 3 1 3 1 1 2 2 3 1 4-1 6-11 3-17zm-721-206c-7-1-12 4-12 12 11-7 11-7 12-12zm815 288c-2-10-8-10-18-3 5 1 12 2 18 3zm-644-571c1-1 2-3 3-4-3-3-6-5-8-8-2 2-3 4-5 6 4 2 7 4 10 6zm293 566c0 1-1 1-2 2 3 3 5 6 7 9l8-8c-6-1-9-2-13-3zm-289-510c1-6 2-11 3-17-10 6-11 11-3 17zm242 584c-4-2-7-3-9-4-2 4-3 8-4 12 1 0 2 0 2 1 3-3 6-5 11-9zm-331-110c5-1 10-3 7-10-1-1-4-2-5-2-3 4-7 7-2 12zm945 889c-3 8 2 10 8 13 1-5 2-9 3-12 0-1-1-1-2-1-2 2-4 3-7 5 0-1-1-3-2-5zm-251-855c-6-6-15-7-18 0h18zm-842 257c1 1 2 1 3 1 2-4 4-9 6-14-3 0-8 0-8 1-1 4-1 8-1 12zm46-772c-2-5-3-9-5-15-3 6-5 9-7 13 4 1 7 1 12 2zm250 119c1 0 2-1 3-1-3-6-5-12-8-19-3 4-3 4 5 20zm285 121c-5 5-1 8 1 11 1 1 4 1 5 0 4-6-2-8-6-11zm-656-15h2c2-3 4-5 5-9 0 0-5-2-7-3v12zm283 497c-1-4 5-10-3-12-2 4-4 8-7 12h10zm360-353c2 5 3 8 4 12 1 1 2 2 3 2 0 0 2-1 2-2-1-5-3-10-5-15-2 2-3 3-4 3zm-751-341s-1 1-1 2c2 2 5 5 8 7 1-2 3-4 3-5-1-9-7-2-10-4zm572 15c-2-4-4-6-6-8-2 3-5 6-7 9v2c4-1 8-2 13-3zm-59 538c-3 1-6 2-8 3 1 3 2 5 2 8 9 0 7-5 6-11zm-7 21c-8 10-8 13 4 18-4-6-9-11-4-18zm-316 190c-3 7-16-1-14 11 5-1 9-3 14-5v-6zm75-893c4-3 6-4 7-6s1-5 1-7c1-1-3-2-3-2-1 2-3 4-3 6-1 2-1 5-2 9zm448 678c4-4 6-8 9-11-1-1-2-1-2-1-10 6-10 6-7 12zm-103-508v3c3 4 7 7 14-1-6-1-10-2-14-2zm348 345h5v-9h-5c-1 3 0 6 0 9zm97-44c0 3 0 6-1 12 3-4 4-5 5-6 1 1 2 3 3 5 7-10-3-8-7-11zm-886 384c-9-2-10 4-11 9l3 3c2-4 5-7 8-12zm12-377c4 3 7 6 8 6 3-1 6-4 8-6 0 0-1-1-1-2-4 1-8 1-15 2zm246-37v3c3 1 6 2 8 2 2-1 3-5 4-7 0 0-1-1-1-2-4 2-7 3-11 4zm325 15c-2-5-3-8-4-12l-9 9c5 1 7 2 13 3zm-54 414c1 0 1 1 1 2 4-1 7-2 10-4l-3-9c-3 4-5 7-8 11zm-70-212c-1 0-2 1-3 1l3 15c1-1 3-1 4-1-1-5-3-10-4-15zm201-212c-1 10 0 12 9 12-4-5-6-9-9-12zm-450-357c-2 5-3 9-4 14 7-4 12-6 4-14zm314 407c-2 4-4 6-4 7 1 1 4 3 5 4 1-1 3-3 3-4 0-2-1-3-4-7zm-162 374c-2-3-3-6-4-9-4 5-6 7-9 12 6-2 9-2 13-3zm-192-572l-6 9 2 2c3-2 7-3 11-5-3-3-4-4-7-6z"  transform="matrix(.03543 0 0 .03543 -488.94 -444.614)"/>
    <path class="second second-2 bottle-highlight main" fill="#fefefe" d="M130.058 2.796v3.649c-.532 0-1.028.036-1.453.07V2.69v-.036c.354.07.85.107 1.453.142zm.637 4.464l-.46.07V16.402c0 11.514-3.224 20.655-4.252 31.603-.78 8.15-2.657.744-2.055-2.835 1.524-9.707 4.854-18.246 4.854-28.77V7.19c.567.07 1.205.07 1.913.07z" />
    <path class="text" fill="#a0967c" fill-rule="nonzero" d="M147.454 63.133c.248.036.425.07.602.107l.425.106c.143.035.285.07.462.142.283.07.496.212.637.39.177.177.318.39.46.637.142.284.248.567.39.92.177.497.39 1.1.638 1.844.248.778.496 1.593.78 2.55.318.92.6 1.877.885 2.905.32 1.027.602 2.02.92 3.047.284 1.027.532 1.984.78 2.905.248.886.496 1.7.674 2.445.035-.036.14-.036.283-.036.106 0 .283 0 .425-.035.142 0 .284 0 .425.036h.248c.213-.637.46-1.346.744-2.16.284-.78.603-1.666.922-2.552.354-.92.673-1.842 1.027-2.763.32-.92.64-1.842.958-2.692.318-.85.602-1.594.85-2.303.035 0 .035-.035.07-.035.036 0 .036-.036.072-.036.177.46.39.992.637 1.665.248.673.496 1.38.815 2.16.284.815.603 1.63.886 2.445.32.85.638 1.665.92 2.445.285.815.533 1.523.78 2.197.213.673.426 1.24.568 1.7.106-.035.212-.07.39-.07h.53c.178 0 .32.035.39.035.213-.603.426-1.347.674-2.16.248-.852.53-1.738.815-2.694l.956-2.976c.285-1.028.603-2.02.922-3.012.32-.956.603-1.878.886-2.728.248-.85.532-1.56.744-2.197.106-.39.248-.708.39-.956.106-.25.248-.426.39-.568.14-.142.354-.248.566-.354.142-.07.32-.142.496-.178.213-.07.46-.106.78-.177.035-.035.035-.07.035-.14v-.214c0-.072-.036-.107-.036-.143-.354 0-.744.036-1.24.036-.496.035-1.098.035-1.772.035h-1.275c-.46-.035-.85-.035-1.24-.035-.354-.036-.673-.036-.92-.036 0 .036-.037.07-.037.142 0 .07-.035.14 0 .212 0 .07 0 .106.036.14.32.072.567.108.78.143.247.035.424.07.6.106.143.037.32.108.462.143.283.106.496.248.602.46.107.178.177.39.142.638 0 .214-.035.462-.106.71-.07.354-.177.78-.32 1.346-.14.532-.283 1.134-.495 1.772-.176.638-.353 1.346-.566 2.02-.213.708-.425 1.417-.602 2.09-.213.708-.425 1.346-.603 1.948-.178.603-.355 1.1-.497 1.56 0 .035-.035.035-.035.035h-.07c-.107-.283-.284-.708-.497-1.204-.176-.496-.39-1.063-.672-1.736-.248-.638-.496-1.346-.78-2.055-.283-.744-.53-1.488-.814-2.232-.284-.71-.532-1.417-.78-2.126-.248-.673-.46-1.275-.673-1.842-.176-.532-.318-.992-.424-1.347-.07 0-.213.036-.355.036H161.66c-.105.39-.282.92-.46 1.523-.212.603-.425 1.276-.673 1.984-.248.746-.496 1.525-.78 2.304-.283.815-.566 1.595-.85 2.374-.283.78-.53 1.524-.814 2.232-.248.674-.46 1.31-.674 1.843l-.07.07h-.072c-.142-.566-.355-1.17-.567-1.913-.247-.744-.46-1.523-.743-2.338-.248-.85-.496-1.665-.744-2.55-.248-.85-.496-1.666-.744-2.48-.214-.78-.426-1.525-.604-2.162-.07-.248-.07-.425-.07-.603.035-.177.14-.283.32-.39.105-.07.247-.106.46-.177.212-.035.495-.106.885-.177.036 0 .036-.07.036-.14.036-.072.036-.143 0-.214 0-.072-.035-.143-.035-.143-.247 0-.566 0-.885.036-.32 0-.71 0-1.17.035h-3.153c-.39 0-.744 0-1.063-.035-.284 0-.567 0-.85-.036h-.815c-.036 0-.07.07-.07.107-.037.07-.037.177-.037.248 0 .07.036.106.036.14zm31.355 1.63c0-.07 0-.177-.036-.283 0-.107-.036-.213-.07-.32-.037-.105-.072-.212-.143-.283-.07-.07-.176-.14-.353-.212-.213-.07-.425-.107-.71-.142-.176 0-.388.035-.6.106-.214.035-.39.106-.568.177-.213.07-.355.14-.426.248-.07.07-.106.177-.142.318-.035.107-.07.248-.07.39 0 .142 0 .248.035.39 0 .142.035.283.07.425.072.177.142.32.25.46.105.107.21.213.388.284.107.035.213.07.39.07.142 0 .32-.035.496-.035.178-.035.32-.07.462-.106.14 0 .248-.034.32-.07.176-.14.353-.354.495-.602.14-.248.212-.53.212-.815zm1.594 15.625c-.248 0-.46-.036-.638-.07-.142-.072-.284-.107-.354-.107-.142-.07-.248-.14-.32-.212-.106-.07-.176-.177-.212-.354-.035-.142-.07-.355-.07-.603-.036-.353-.036-.743-.036-1.168v-1.346-1.417-1.277-1.382c0-.53 0-1.026.035-1.487v-1.31c0-.39.035-.674.035-.886-.355.177-.744.32-1.134.425-.424.142-.85.248-1.275.32-.425.07-.814.14-1.17.21-.353.037-.6.072-.814.072v.142c-.034.07-.034.142 0 .212v.142c.25.07.426.142.604.213.14.07.283.177.425.32.07.105.14.247.176.388 0 .143.035.25.035.39 0 .143.037.39.037.674v4.712c0 .426 0 .815-.036 1.17v.78c-.034.353-.07.672-.14.85-.07.212-.248.354-.426.425-.14.036-.318.107-.496.142-.177 0-.354.036-.53.036-.036.035-.036.07-.036.14v.25c0 .07 0 .106.035.14.32 0 .744-.034 1.276-.034.496-.036 1.133-.07 1.913-.07.567 0 1.133.034 1.665.07.497 0 .958.035 1.312.035.035-.036.07-.072.106-.143v-.212c.036-.07.036-.142.036-.177zm.92 0c-.035.07-.035.177-.035.283 0 .107 0 .178.035.25.14 0 .283-.036.46-.036.142 0 .32 0 .532-.036h.815c.32-.035.708-.035 1.17-.035.707 0 1.31.035 1.84.035.497.036.993.036 1.454.07v-.176c.035-.07.035-.142.035-.213 0-.07 0-.107-.034-.142-.213 0-.425-.036-.567-.07-.143-.037-.284-.072-.426-.107-.106-.035-.213-.106-.32-.177-.07-.035-.14-.177-.212-.318-.07-.178-.106-.426-.106-.71 0-.282-.035-.6-.035-1.026v-1.454c-.035-.532-.035-1.098-.035-1.63v-1.594-1.347c0-.177.036-.283.07-.425.072-.106.143-.177.214-.248.282-.212.566-.354.884-.46.32-.07.603-.142.886-.142.284 0 .567.035.815.106.213.07.425.177.602.32.248.212.46.46.603.743.106.283.212.566.283.85.036.247.07.566.106 1.027.035.425.035.92.035 1.417.035.532.035 1.063.035 1.594 0 .532-.035 1.028-.035 1.453 0 .426 0 .745-.036.993 0 .32-.07.532-.142.71-.107.176-.248.282-.496.318-.07.036-.213.07-.355.107-.14.035-.32.07-.53.07 0 .036-.037.072-.037.142v.247c0 .07 0 .107.036.142.283 0 .567-.036.886-.036.283-.036.637-.036.992-.036.39-.035.85-.035 1.38-.035.604 0 1.064.035 1.42.035.353 0 .672.036.884.036.213.035.39.035.532.035.035-.036.035-.107.07-.143 0-.07.036-.14.036-.212v-.177c-.283-.036-.567-.07-.744-.177-.177-.07-.354-.14-.53-.247-.108-.07-.178-.142-.214-.248-.035-.07-.07-.178-.07-.284 0-.21 0-.495-.036-.814v-1.17-1.274-1.276-1.027c0-.675-.036-1.312-.142-1.88-.07-.6-.283-1.097-.53-1.523-.285-.53-.675-.92-1.135-1.204-.46-.248-1.028-.39-1.7-.39-.46 0-1.028.142-1.7.46-.675.32-1.42.78-2.198 1.418-.035.036-.07.036-.07.036-.036 0-.072-.035-.072-.106.036-.248.036-.532.07-.85 0-.32.037-.603.072-.886 0 0-.035-.036-.035-.07-.036-.036-.07-.072-.07-.107-.32.177-.71.354-1.206.53-.46.178-.957.32-1.523.426-.532.142-1.1.213-1.63.284 0 .035-.036.07-.036.14 0 .072-.035.108-.035.18v.14c.39.107.673.248.85.39.177.142.32.248.355.39.07.106.106.212.106.32 0 .07 0 .21.035.424v.745c0 .32 0 .602.036.886v3.225c-.036.425-.036.85-.036 1.24 0 .354-.035.673-.035.92 0 .355-.07.64-.177.85-.107.178-.248.32-.426.356-.318.107-.637.178-.885.178zm25.475-2.516c-.355.32-.71.567-1.064.744-.354.142-.71.284-1.063.355-.354.07-.708.107-1.098.07-.638.037-1.205-.105-1.736-.317-.533-.213-.993-.567-1.383-1.028-.213-.32-.425-.602-.567-.957-.177-.354-.283-.673-.39-1.062-.07-.355-.106-.674-.106-1.028 0-.07 0-.142.035-.177 0-.07.035-.105.07-.105.425 0 .922-.036 1.453-.07.567-.037 1.134-.072 1.736-.108.6-.07 1.204-.106 1.735-.14.567-.072 1.063-.108 1.488-.178.425-.072.744-.108.957-.18.035 0 .035-.034.07-.105.036-.07.036-.142.036-.177.035-.07.035-.142.035-.177-.105 0-.21-.035-.282-.07-.07-.07-.106-.106-.106-.142-.07-.354-.142-.708-.248-1.063-.142-.39-.284-.744-.496-1.098-.213-.354-.496-.71-.815-.992-.32-.32-.71-.53-1.134-.71-.462-.176-.958-.282-1.56-.282-.32 0-.673.035-1.063.106-.39.07-.78.176-1.17.318-.39.142-.708.32-1.026.532-.53.318-.99.744-1.38 1.24-.426.496-.745 1.098-.958 1.77-.248.64-.354 1.383-.354 2.162 0 .957.142 1.807.39 2.658.283.815.708 1.523 1.275 2.125.425.426.992.78 1.594 1.028.638.248 1.347.354 2.126.354.603 0 1.205-.106 1.807-.32.603-.21 1.17-.53 1.736-.92.532-.39 1.028-.85 1.488-1.382.036-.035.036-.07.036-.14.035-.072.035-.143.035-.214v-.21c0-.037-.035-.037-.035-.072-.036 0-.07-.036-.07-.036zm-5.35-8.22c.353 0 .637.107.885.284.283.212.496.46.673.78.177.318.32.708.425 1.098.106.425.177.85.213 1.275 0 .07-.036.14-.07.176-.037.036-.072.07-.072.107-.142 0-.32.035-.567.07-.283 0-.567.036-.92.036-.32.034-.64.034-.993.034-.32.036-.638.036-.92.036h-.604s-.035-.036-.035-.07c-.036-.037-.036-.037-.036-.072 0-.815.106-1.488.283-2.055.177-.53.425-.957.71-1.275.317-.284.636-.426 1.026-.426z"/>
  </g>
</svg>